<?xml version="1.0" encoding="utf-8"?>
<!-- Generator: Adobe Illustrator 14.0.0, SVG Export Plug-In . SVG Version: 6.00 Build 43363)  -->
<!DOCTYPE svg PUBLIC "-//W3C//DTD SVG 1.1//EN" "http://www.w3.org/Graphics/SVG/1.1/DTD/svg11.dtd">
<svg version="1.1" id="Ebene_1" xmlns="http://www.w3.org/2000/svg" xmlns:xlink="http://www.w3.org/1999/xlink" x="0px" y="0px"
	 width="1024px" height="1024px" viewBox="0 0 1024 1024" enable-background="new 0 0 1024 1024" xml:space="preserve">
<path  d="M944.545,454.474C930.928,437.014,909.225,427,885,427h-28v-60c0-48.523-39.477-88-88-88H471.501v-24.984
	c0-48.523-39.477-88-88-88H148.072c-48.523,0-88,39.477-88,88v107.978c0,0.839,0.02,1.672,0.048,2.504
	c-0.028,0.831-0.048,1.664-0.048,2.503v505c0,48.523,39.477,88,88,88H769c23.008,0,44.046-10.508,60.839-30.387
	c15.88-18.799,23.308-40.225,26.322-51.323c7.926-29.185,99.434-355.444,100.357-358.736l0.169-0.636
	C962.588,495.423,958.162,471.934,944.545,454.474z M108.072,367c0-0.528,0.025-1.052,0.045-1.575l0.036-0.929l-0.036-0.93
	c-0.02-0.522-0.045-1.045-0.045-1.573V254.016c0-22.056,17.944-40,40-40h235.429c22.056,0,40,17.944,40,40V327H769
	c22.056,0,40,17.944,40,40v60H275c-46.302,0-91.409,35.117-102.807,79.989L108.072,742.99V367z M910.204,506.941
	c-4.991,17.794-92.446,329.612-100.365,358.769C805.49,881.721,791.359,912,769,912H148.072c-12.994,0-24.561-6.229-31.872-15.855
	l102.37-376.779l0.117-0.447C224.563,495.522,250.878,475,275,475h610c9.468,0,17.173,3.194,21.695,8.993
	C911.172,489.732,912.413,497.873,910.204,506.941z"/>
</svg>
