<?xml version="1.0" encoding="utf-8"?>
<!-- Generator: Adobe Illustrator 14.0.0, SVG Export Plug-In . SVG Version: 6.00 Build 43363)  -->
<!DOCTYPE svg PUBLIC "-//W3C//DTD SVG 1.1//EN" "http://www.w3.org/Graphics/SVG/1.1/DTD/svg11.dtd">
<svg version="1.1" id="Ebene_1" xmlns="http://www.w3.org/2000/svg" xmlns:xlink="http://www.w3.org/1999/xlink" x="0px" y="0px"
	 width="1024px" height="1024px" viewBox="0 0 1024 1024" enable-background="new 0 0 1024 1024" xml:space="preserve">
<g>
	<path  d="M936,64h-85.789c-12.519,0-22.934,9.622-23.925,22.1l-40.663,512.106L769,620.517v-36.862
		c0-8.337-4.326-16.077-11.428-20.443L539.9,429.353c-7.405-4.553-16.693-4.747-24.283-0.505
		c-7.588,4.242-12.289,12.256-12.289,20.949v91.128L320.153,429.302c-7.408-4.514-16.678-4.679-24.242-0.431
		c-7.564,4.249-12.247,12.25-12.247,20.925v91.128L100.489,429.302c-7.409-4.514-16.677-4.679-24.242-0.431
		C68.683,433.121,64,441.121,64,449.797V936c0,13.255,10.745,24,24,24h848c13.255,0,24-10.745,24-24V88
		C960,74.745,949.255,64,936,64z M828.245,621.339c2.7-3.623,4.322-7.935,4.68-12.439L872.381,112H912v556.898H792.811
		L828.245,621.339z M112,912V492.527l183.175,111.622c7.409,4.516,16.677,4.681,24.242,0.431
		c7.564-4.248,12.247-12.249,12.247-20.925v-91.127l183.175,111.622c7.409,4.516,16.677,4.681,24.242,0.431
		c7.564-4.248,12.247-12.249,12.247-20.925V492.73L721,597.07v95.828c0,10.344,6.628,19.524,16.446,22.78
		c2.486,0.825,5.034,1.22,7.554,1.22l0,0h167V912H112z"/>
	<rect x="186" y="759"  width="112.264" height="48"/>
	<rect x="378.368" y="759"  width="112.265" height="48"/>
	<rect x="570.735" y="759"  width="112.265" height="48"/>
</g>
</svg>
