<?xml version="1.0" encoding="utf-8"?>
<!-- Generator: Adobe Illustrator 14.0.0, SVG Export Plug-In . SVG Version: 6.00 Build 43363)  -->
<!DOCTYPE svg PUBLIC "-//W3C//DTD SVG 1.1//EN" "http://www.w3.org/Graphics/SVG/1.1/DTD/svg11.dtd">
<svg version="1.1" id="Ebene_1" xmlns="http://www.w3.org/2000/svg" xmlns:xlink="http://www.w3.org/1999/xlink" x="0px" y="0px"
	 width="1024px" height="1024px" viewBox="0 0 1024 1024" enable-background="new 0 0 1024 1024" xml:space="preserve">
<path  d="M884.989,757.726c-12.443-56.842-35.098-105.925-67.331-145.883
	c-32.128-39.826-73.609-70.357-123.676-91.102c49.725-49.712,78.446-118.226,78.446-190.456c0-71.017-27.017-137.813-76.072-188.083
	C647.146,91.772,581.674,64,512,64c-69.674,0-135.146,27.773-184.357,78.202c-49.055,50.271-76.071,117.067-76.071,188.083
	c0,72.229,28.722,140.743,78.445,190.456c-50.066,20.744-91.548,51.275-123.675,91.102c-32.234,39.958-54.887,89.041-67.331,145.884
	c-20.841,95.2-5.906,179.077-5.26,182.601L137.357,960h749.285l3.606-19.673C890.896,936.804,905.83,852.927,884.989,757.726z
	 M845.575,912H178.394c-2.891-28.387-5.622-84.043,7.506-144.009c24.573-112.252,91.276-184.7,198.255-215.334l48-13.744
	l-40.715-28.899c-57.525-40.831-91.868-108.019-91.868-179.728C299.572,209.922,394.867,112,512,112
	c117.134,0,212.429,97.922,212.429,218.286c0,71.709-34.344,138.897-91.87,179.728l-40.716,28.899l48.001,13.744
	c106.52,30.502,173.12,102.484,197.95,213.948C851.208,826.822,848.469,883.3,845.575,912z"/>
</svg>
