<?xml version="1.0" encoding="utf-8"?>
<!-- Generator: Adobe Illustrator 14.0.0, SVG Export Plug-In . SVG Version: 6.00 Build 43363)  -->
<!DOCTYPE svg PUBLIC "-//W3C//DTD SVG 1.1//EN" "http://www.w3.org/Graphics/SVG/1.1/DTD/svg11.dtd">
<svg version="1.1" id="Ebene_1" xmlns="http://www.w3.org/2000/svg" xmlns:xlink="http://www.w3.org/1999/xlink" x="0px" y="0px"
	 width="1024px" height="1024px" viewBox="0 0 1024 1024" enable-background="new 0 0 1024 1024" xml:space="preserve">
<g>
	<path  d="M703.473,64l-149.12,388.078c-5.958-0.172-13.263-0.302-21.711-0.302
		c-58.64,0-171.969,6.321-272.131,48.651c-57.335,24.231-102.936,57.162-135.536,97.875C85.776,647.258,65.262,707.481,64.004,777.3
		L64,960h896V64H703.473z M912,912H112V777.955c2.034-108.783,58.286-187.286,167.197-233.314
		c92.366-39.036,198.438-44.865,253.445-44.865c22.293,0,36.022,0.979,36.146,0.989l17.775,1.311L736.45,112H912V912z"/>
	<path  d="M241.031,442.691c1.91,0,3.852-0.23,5.789-0.71l91.243-22.6c12.866-3.187,20.713-16.2,17.526-29.066
		c-3.188-12.867-16.206-20.715-29.066-17.526l-91.243,22.6c-12.866,3.187-20.713,16.2-17.526,29.066
		C220.461,435.384,230.257,442.691,241.031,442.691z"/>
	<path  d="M404.915,408.108c0.701,0,1.41-0.031,2.121-0.093l93.641-8.201c13.205-1.157,22.971-12.798,21.815-26.002
		c-1.157-13.204-12.796-22.967-26.002-21.815l-93.641,8.201c-13.205,1.157-22.971,12.798-21.815,26.002
		C382.127,398.693,392.605,408.108,404.915,408.108z"/>
	<path  d="M96.966,525.23c4.52,0,9.092-1.275,13.153-3.942l78.569-51.603c11.079-7.276,14.162-22.156,6.885-33.235
		c-7.275-11.079-22.155-14.161-33.235-6.885l-78.569,51.603c-11.079,7.276-14.162,22.156-6.885,33.235
		C81.493,521.422,89.153,525.23,96.966,525.23z"/>
</g>
</svg>
