<?xml version="1.0" encoding="utf-8"?>
<!-- Generator: Adobe Illustrator 22.0.0, SVG Export Plug-In . SVG Version: 6.00 Build 0)  -->
<svg version="1.1" id="Ebene_1" xmlns="http://www.w3.org/2000/svg" xmlns:xlink="http://www.w3.org/1999/xlink" x="0px" y="0px"
	 viewBox="0 0 1024 1024" style="enable-background:new 0 0 1024 1024;" xml:space="preserve">
<style type="text/css">
	.st0{display:none;}
	.st1{display:none;}
</style>
<g id="HG" class="st0">
</g>
<g id="vwicn132_1_">
	<polygon class="st1" points="294,386.1 294,87 550.1,87 730,270.1 730,387 511,558.6 	"/>
	<path class="st2" d="M874.5,164H659.4l-92.2-93.8c-4.5-4.6-10.7-7.2-17.1-7.2H294c-13.3,0-24,10.7-24,24v77H147.6
		C101,164,63,201.4,63,247.3v529.3c0,45.9,38,83.3,84.6,83.3h726.9c46.6,0,84.5-37.4,84.5-83.3V247.3C959,201.4,921.1,164,874.5,164
		z M655.7,481.7L911,293.3v478.4L655.7,481.7z M874.5,212c15.8,0,29.2,9.7,34.3,23.3L754,349.5v-79.4c0-6.3-2.5-12.3-6.9-16.8
		L706.6,212H874.5z M698.2,272H549V120.1L698.2,272z M501,111v185c0,13.3,10.7,24,24,24h181v64.9L511,528.8L318,385.7V111H501z
		 M111,773.6V292l256.6,190.2L111,773.6z M147.6,212H270v138.1L113.6,234.2C119,221.2,132.2,212,147.6,212z M147.6,811.9
		c-2,0-4-0.2-6-0.5l264.7-300.5l90.4,67c4.2,3.1,9.3,4.7,14.3,4.7c5,0,10-1.6,14.2-4.7l91.6-67.6l264.9,300.9
		c-2.4,0.5-4.8,0.7-7.3,0.7H147.6z"/>
</g>
</svg>
