<?xml version="1.0" encoding="utf-8"?>
<!-- Generator: Adobe Illustrator 19.1.0, SVG Export Plug-In . SVG Version: 6.00 Build 0)  -->
<svg version="1.1"
	 id="Ebene_1" image-rendering="optimizeQuality" text-rendering="geometricPrecision" shape-rendering="geometricPrecision"
	 xmlns="http://www.w3.org/2000/svg" xmlns:xlink="http://www.w3.org/1999/xlink" x="0px" y="0px" viewBox="-7 130.9 580 580"
	 style="enable-background:new -7 130.9 580 580;" xml:space="preserve">
<title>funnel icon</title>
<desc>funnel icon from the IconExperience.com I-Collection. Copyright by INCORS GmbH (www.incors.com).</desc>
<path id="curve28" class="st0" d="M283,168.9c64.2,0,122.5,5.7,164.7,14.9c19.6,4.2,75.3,18.1,75.3,45.1v65.8
	c0,18.6-7.5,35.1-21.6,47.3L353.6,479.1c-6.7,6.2-10.6,13.4-10.6,22.7v87.1c0,24.4-30.3,55.4-59,70.4c-7.8,4-15.5,7-22.7,8.5
	c-21.7,4.6-38.3-5-38.3-28.9V499.2c0-9.1-3.4-16.5-10.3-22.4L64.7,342C50.9,329.5,43,313.4,43,294.7v-65.8c0-27,55.7-40.9,75.3-45.1
	C160.5,174.6,218.8,168.9,283,168.9z M495.1,263.8c-11.7,6.9-42.1,18.6-63.2,23.2c-38,8.3-90.4,13.4-148.2,13.4
	s-110.2-5.1-148.2-13.4c-21.1-4.6-52.5-16.2-64.2-23.2v29c0,11.9,4.9,21.4,13.6,29.3l147.5,133.8c10,8.6,18.4,20.4,18.4,33.7v136.7
	c0,9.4,3.6,10.2,11.8,8.5c4.8-1,10.2-3.1,15.7-6c21.2-11.1,36.5-32.1,36.5-47.4v-89.4c0-13.2,10.7-24.7,20.3-33.6l146.7-136.4
	c8.9-7.6,13.4-17.5,13.4-29.2V263.8z M437.8,207.2c-39.4-8.6-94.1-13.9-154.6-13.9s-115.2,5.3-154.6,13.9
	c-35.4,7.7-57.3,16.6-57.3,24.7s21.9,17,57.3,24.7c39.4,8.6,94.1,13.9,154.6,13.9c60.5,0,115-5.3,154.6-13.9
	c35.4-7.7,57.3-16.6,57.3-24.7S473.3,214.9,437.8,207.2z"/>
</svg>
