<?xml version="1.0" encoding="utf-8"?>
<!-- Generator: Adobe Illustrator 14.0.0, SVG Export Plug-In . SVG Version: 6.00 Build 43363)  -->
<!DOCTYPE svg PUBLIC "-//W3C//DTD SVG 1.1//EN" "http://www.w3.org/Graphics/SVG/1.1/DTD/svg11.dtd">
<svg version="1.1" id="Ebene_1" xmlns="http://www.w3.org/2000/svg" xmlns:xlink="http://www.w3.org/1999/xlink" x="0px" y="0px"
	 width="1024px" height="1024px" viewBox="0 0 1024 1024" enable-background="new 0 0 1024 1024" xml:space="preserve">
<g>
	<path  d="M960,153.769H596.996V56.078L64,154.708v714.584l532.996,98.63V860.947H960V153.769z M912,292H780.429
		v-90.231H912V292z M732.429,470.667v82.667H596.996v-82.667H732.429z M596.996,422.667V340h135.433v82.667H596.996z
		 M732.429,601.333V684H596.996v-82.667H732.429z M780.429,601.333H912V684H780.429V601.333z M780.429,553.333v-82.667H912v82.667
		H780.429z M780.429,422.667V340H912v82.667H780.429z M732.429,201.769V292H596.996v-90.231H732.429z M548.996,910.225L112,829.359
		V194.64l436.996-80.865V910.225z M596.996,732h135.433v80.947H596.996V732z M780.429,812.947V732H912v80.947H780.429z"/>
	<path  d="M265.792,654.217l30.127-56.191c12.14-21.813,20.232-36.907,27.425-53.264h0.899
		c8.995,16.356,17.538,31.451,30.575,53.264l32.374,56.191h64.296l-92.173-144.678l88.575-137.973h-63.396l-32.375,58.291
		c-9.439,17.193-15.735,29.774-23.827,47.388h-1.351c-7.643-15.937-14.836-29.774-24.73-47.388l-32.822-58.291h-63.845
		l86.776,139.65l-89.926,143H265.792z"/>
</g>
</svg>
