<?xml version="1.0" encoding="utf-8"?>
<!-- Generator: Adobe Illustrator 14.0.0, SVG Export Plug-In . SVG Version: 6.00 Build 43363)  -->
<!DOCTYPE svg PUBLIC "-//W3C//DTD SVG 1.1//EN" "http://www.w3.org/Graphics/SVG/1.1/DTD/svg11.dtd">
<svg version="1.1" id="Ebene_1" xmlns="http://www.w3.org/2000/svg" xmlns:xlink="http://www.w3.org/1999/xlink" x="0px" y="0px"
	 width="1024px" height="1024px" viewBox="0 0 1024 1024" enable-background="new 0 0 1024 1024" xml:space="preserve">
<g>
	<path  d="M960,153.769H596.996V56.078L64,154.708v714.584l532.996,98.63V860.947H960V153.769z M548.996,910.225
		L112,829.359V194.64l436.996-80.865V910.225z M912,812.947H596.996V732H823v-48H596.996v-82.667H823v-48H596.996v-82.667H823v-48
		H596.996V340H823v-48H596.996v-90.231H912V812.947z"/>
	<path  d="M281.886,653.685l29.319-133.276c7.518-32.373,12.404-59.7,16.539-89.972h0.752
		c3.382,30.691,7.893,57.599,14.283,89.972l26.311,133.276h49.241l68.41-283.369h-46.985l-26.312,127.811
		c-6.766,34.895-12.78,67.27-17.29,98.38h-0.752c-3.759-30.692-9.397-62.224-15.411-95.857l-25.185-130.333h-48.489l-27.439,128.23
		c-7.142,35.736-14.283,69.371-18.418,99.222h-0.752c-4.134-28.168-10.148-64.325-16.539-98.801l-24.056-128.651h-49.24
		l62.02,283.369H281.886z"/>
</g>
</svg>
