<?xml version="1.0" encoding="utf-8"?>
<!-- Generator: Adobe Illustrator 14.0.0, SVG Export Plug-In . SVG Version: 6.00 Build 43363)  -->
<!DOCTYPE svg PUBLIC "-//W3C//DTD SVG 1.1//EN" "http://www.w3.org/Graphics/SVG/1.1/DTD/svg11.dtd">
<svg version="1.1" id="Ebene_1" xmlns="http://www.w3.org/2000/svg" xmlns:xlink="http://www.w3.org/1999/xlink" x="0px" y="0px"
	 width="1024px" height="1024px" viewBox="0 0 1024 1024" enable-background="new 0 0 1024 1024" xml:space="preserve">
<g>
	<path  d="M304,544c64.106,0,124.376-24.965,169.706-70.294C519.036,428.375,544,368.106,544,304
		s-24.964-124.375-70.294-169.706C428.376,88.964,368.106,64,304,64s-124.376,24.964-169.706,70.294
		C88.964,179.625,64,239.894,64,304s24.964,124.375,70.294,169.706C179.624,519.035,239.894,544,304,544z M304,112
		c105.869,0,192,86.131,192,192s-86.131,192-192,192c-74.024,0-138.39-42.114-170.419-103.635
		c47.166-17.056,108.622,33.556,109.274,34.101l19.327,16.279l15.262-20.14c0.171-0.227,17.453-22.859,43.99-42.986
		c32.807-24.882,62.962-33.704,89.626-26.214c12.757,3.583,26.011-3.855,29.595-16.617c3.584-12.761-3.855-26.011-16.617-29.595
		c-74.09-20.807-140.48,37.483-169.496,68.531c-10.411-6.852-24.408-15.034-40.394-21.709c-35.916-14.998-68.952-17.2-97.24-6.777
		C113.698,333.336,112,318.863,112,304C112,198.131,198.131,112,304,112z"/>
	<path  d="M529,64v48h97v376h-45v48h45v173H398V589h-48v120H112V541H64v419h896V64H529z M912,112v155H674V112H912z
		 M674,315h238v173H674V315z M674,536h238v173H674V536z M626,757v155H398V757H626z M112,757h238v155H112V757z M674,912V757h238v155
		H674z"/>
	<path  d="M205.782,241.204c30.11-17.671,74.998,26.743,75.397,27.151l17.058,17.673l17.229-17.504
		c0.487-0.489,49.74-48.456,88.653-32.406c12.253,5.054,26.285-0.782,31.338-13.035c5.054-12.253-0.782-26.284-13.035-31.338
		c-49.542-20.435-98.768,8.729-123.951,28.177c-6.348-4.923-14.167-10.382-22.963-15.277c-43.389-24.144-75.079-15.956-94.023-4.836
		c-11.431,6.709-15.259,21.416-8.549,32.847C179.645,244.086,194.353,247.914,205.782,241.204z"/>
</g>
</svg>
