<?xml version="1.0" encoding="utf-8"?>
<!-- Generator: Adobe Illustrator 14.0.0, SVG Export Plug-In . SVG Version: 6.00 Build 43363)  -->
<!DOCTYPE svg PUBLIC "-//W3C//DTD SVG 1.1//EN" "http://www.w3.org/Graphics/SVG/1.1/DTD/svg11.dtd">
<svg version="1.1" id="Ebene_1" xmlns="http://www.w3.org/2000/svg" xmlns:xlink="http://www.w3.org/1999/xlink" x="0px" y="0px"
	 width="1024px" height="1024px" viewBox="0 0 1024 1024" enable-background="new 0 0 1024 1024" xml:space="preserve">
<g>
	<path  d="M643.307,237.997c-1.325-2.471-3.073-4.69-5.164-6.558c-2.453-2.19-60.935-53.643-136.367-53.643
		c-9.784,0-19.547,0.878-29.019,2.609c-46.424,8.486-81.218,18.19-109.497,30.54c-36.213,15.814-61.432,35.991-77.098,61.685
		c-15.582,25.557-28.6,62.368-34.822,98.47c-5.208,30.219-7.855,72.516,9.116,102.403c27.919,49.168,92.687,64.533,95.43,65.163
		c0.4,0.092,0.802,0.174,1.206,0.245c0.96,0.169,23.826,4.148,49.517,4.148c43.844,0,71.733-11.79,82.893-35.045
		c8.23-17.153,15.661-42.778,22.847-67.559c3.771-13.005,9.102-31.389,12.773-40.807c2.462-0.437,5.257-0.902,7.766-1.32
		c27.786-4.626,74.293-12.37,104.583-37.473c14.988-12.42,30.812-36.534,21.083-80.876
		C653.661,257.684,644.352,239.946,643.307,237.997z M606.842,323.897c-20.32,16.84-60.339,23.503-81.839,27.083
		c-11.958,1.991-19.176,3.193-24.865,5.813c-14.877,6.848-19.986,22.343-33.891,70.294c-6.333,21.839-13.511,46.591-20.005,60.129
		c-1.047,1.656-10.844,7.842-39.634,7.842c-19.078,0-36.814-2.708-40.49-3.304c-5.154-1.339-47.574-13.163-63.922-41.953
		c-16.85-29.673-0.229-110.89,24.949-152.184c19.837-32.535,67.408-54.122,154.244-69.995c6.632-1.212,13.491-1.827,20.387-1.827
		c48.218,0,89.517,29.616,101.138,38.779C609.174,278.228,621.146,312.044,606.842,323.897z"/>
	<path  d="M907.317,501.975c-2.144-16.199-11.863-43.862-71.269-96.847c-15.388-13.725-30.466-25.877-41.77-34.65
		l40.028-56.501c3.849-5.432,5.268-12.218,3.919-18.737c-0.504-2.437-12.919-60.333-62.67-117.955
		c-29.113-33.72-65.08-60.562-106.901-79.778c-51.513-23.67-111.934-35.671-179.584-35.671c-68.82,0-130.792,14.105-184.196,41.925
		c-44.708,23.29-83.266,56.026-114.601,97.301c-53.807,70.874-73.609,150.534-73.792,186.786
		c-0.269,53.392,7.584,103.178,23.343,147.976c12.738,36.21,30.627,69.227,53.17,98.13c21.162,27.133,42.57,45.612,57.959,56.96
		c-7.417,11.648-17.034,27.244-26.542,44.071c-37.481,66.34-39.511,91.666-37.091,106.319c1.525,9.24,8.287,16.748,17.317,19.231
		l350.773,96.441c2.097,0.576,4.235,0.858,6.361,0.858c5.4,0,10.714-1.824,15.023-5.283c6.006-4.82,9.334-12.229,8.947-19.921
		l-4.313-85.854c22.681-2.96,59.82-8.052,97.688-14.295c120.039-19.79,139.928-32.783,149.148-43.409
		c15.115-17.422,16.938-43.919,5.42-78.757c-6.076-18.377-14.443-34.979-20.61-45.264c4.011-6.563,12.938-17.386,21.327-25.55
		c4.659-4.521,7.288-10.734,7.288-17.226v-46.245c0-4.063-1.031-8.06-2.998-11.614l-6.361-11.504
		c18.603-5.705,42.567-14.59,63.567-27.227C904.086,520.76,908.57,511.447,907.317,501.975z M791.751,513.942
		c-7.525,1.479-13.891,6.466-17.129,13.418c-3.237,6.953-2.957,15.034,0.755,21.746l18.314,33.119v30.336
		c-3.739,4.021-8.429,9.313-12.87,15.027c-6.167,7.936-10.554,14.954-13.409,21.456c-8.196,18.662-2.226,31.12,2.063,36.886
		c2.873,3.862,12.233,20.451,18.351,38.591c6.683,19.817,5.575,29.567,4.541,32.377c-5.05,2.812-29.155,13.323-126.714,29.147
		c-57.437,9.317-111.612,15.814-112.153,15.879c-12.526,1.496-21.757,12.436-21.124,25.035l3.764,74.937l-298.764-82.143
		c3.487-11.17,11.381-30.338,29.134-61.698c18.216-32.179,37.335-60.332,37.525-60.61c3.899-5.727,5.235-12.809,3.487-19.513
		c-1.743-6.686-6.181-12.243-12.353-15.342c-1.445-0.773-33.999-18.519-65.865-60.152C185.86,545.68,164.05,473.563,164.481,388.09
		c0.122-24.198,15.932-94.658,64.023-158.004c60.577-79.792,148.245-120.25,260.566-120.25c108.352,0,192.004,32.66,248.633,97.073
		c31.368,35.679,45.551,71.94,50.854,88.612l-46.93,66.243c-7.635,10.775-5.129,25.693,5.605,33.384
		c0.28,0.2,28.337,20.358,56.864,45.802c28.305,25.245,42.223,42.304,49.064,53.006
		C823.432,507.551,792.112,513.871,791.751,513.942z"/>
</g>
</svg>
