<?xml version="1.0" encoding="utf-8"?>
<!-- Generator: Adobe Illustrator 23.0.2, SVG Export Plug-In . SVG Version: 6.00 Build 0)  -->
<svg version="1.1" id="Ebene_1" xmlns="http://www.w3.org/2000/svg" xmlns:xlink="http://www.w3.org/1999/xlink" x="0px" y="0px"
	 viewBox="0 0 1024 1024" style="enable-background:new 0 0 1024 1024;" xml:space="preserve">
<g>
	<path class="st0" d="M63,256.2v520.5c0,14.4,3.7,28,10.3,39.8l294.3-334.4L63,256.2z"/>
	<path class="st0" d="M511.1,528.7l437-322.4c-14.5-25.3-42-42.4-73.6-42.4H147.6c-31,0-58.1,16.5-72.8,41.1L511.1,528.7z"/>
	<path class="st0" d="M655.6,481.7l293.7,333.6c6.2-11.6,9.7-24.7,9.7-38.7V257.9L655.6,481.7z"/>
	<path class="st0" d="M525.3,577.9c-4.2,3.1-9.2,4.7-14.2,4.7c-5,0-10.1-1.6-14.3-4.7l-90.4-67L107.6,850.1
		c11.9,6.3,25.5,9.9,39.9,9.9h726.9c14.9,0,28.8-3.8,41-10.5L616.9,510.3L525.3,577.9z"/>
</g>
</svg>
