<?xml version="1.0" encoding="utf-8"?>
<!-- Generator: Adobe Illustrator 19.1.0, SVG Export Plug-In . SVG Version: 6.00 Build 0)  -->
<svg version="1.1" id="Ebene_1" xmlns="http://www.w3.org/2000/svg" xmlns:xlink="http://www.w3.org/1999/xlink" x="0px" y="0px"
	 viewBox="-7 130.9 580 580" style="enable-background:new -7 130.9 580 580;" xml:space="preserve">
<style type="text/css">
	.st0{display:none;}
	.st1{display:inline;}
</style>
<g id="Ebene_1_1_" image-rendering="optimizeQuality" text-rendering="geometricPrecision" shape-rendering="geometricPrecision" class="st0">
	<title>mail_forward icon</title>
	<desc>mail_forward icon from the IconExperience.com I-Collection. Copyright by INCORS GmbH (www.incors.com).</desc>
	<path id="curve28" class="st1" d="M535.9,351.8c0,113,0,226.8,0,340h-39.3l-20-20h29.6L336.4,554.2l-35.6,28.7
		c-14.7,11.8-34.9,11.8-49.6,0l-35.6-28.7L45.8,671.8H356v20H15.9v-340L535.9,351.8L535.9,351.8z M352.6,541.2l163.3,113.1V409.8
		L352.6,541.2z M35.9,654.4l163.5-113.2L35.9,409.6V654.4z M36,371.8v8.6c0,2.7,1,4.5,3.1,6.2l224.6,180.8c7.3,5.9,17.3,5.9,24.6,0
		l224.6-180.8c1.6-1.3,2.7-2.8,3-4.9v-9.9H36L36,371.8z M413.1,664.6l77,77.1l-77,77.1l-14.2-14.2l52.8-52.8H176v-20h276l-53.1-53.1
		L413.1,664.6z"/>
</g>
<g id="Ebene_2">
	<path class="st2" d="M18,183.3v347.9h345.7v-30H69.6l155.8-105.8c41.3,28.8,51.8,31.3,58.9,31.3c7.3,0,18.4-2.4,58.1-30
		l153.9,104.5h-26l29.4,30H548V183.3H18z M48,479.6V258.1c22.4,18.3,55.1,44.6,88.7,70.8c23.7,18.5,44.7,34.5,62.8,47.8L48,479.6z
		 M518,479.7L368.3,378c18.3-13.6,39.6-30,63.6-49.1c32.6-26,64.3-52.1,86.1-70.4V479.7z M518,219.3c-18,15.2-58.8,49.3-101.7,83.6
		c-100.5,80.2-126.1,91.9-131.8,93.5c-5.6-1.9-31.1-14.2-133.2-94.1c-43.4-34-84.9-67.8-103.4-83v-6.1h470L518,219.3L518,219.3z"/>
	<polygon class="st2" points="503.9,577.5 504.2,577.2 422.9,498.4 402,519.9 446.8,563.3 183,563.3 183,593.3 446.2,593.3 
		401.9,637.2 423,658.5 504.3,577.9 	"/>
</g>
</svg>
