<?xml version="1.0" encoding="utf-8"?>
<!-- Generator: Adobe Illustrator 19.1.0, SVG Export Plug-In . SVG Version: 6.00 Build 0)  -->
<svg version="1.1" id="Ebene_2" xmlns="http://www.w3.org/2000/svg" xmlns:xlink="http://www.w3.org/1999/xlink" x="0px" y="0px"
	 viewBox="-7 130.9 580 580" style="enable-background:new -7 130.9 580 580;" xml:space="preserve">
<g>
	<path class="st0" d="M18,183.3v347.9h48.3l29.4-30h-26l153.9-104.5c39.6,27.6,50.8,30,58.1,30c7.2,0,17.6-2.5,58.9-31.3
		l155.8,105.8H202.2v30H548V183.3H18z M48,479.7V258.5c21.9,18.2,53.5,44.4,86.1,70.4c24,19.1,45.3,35.5,63.6,49.1L48,479.7z
		 M518,479.6L366.6,376.7c18.1-13.3,39.1-29.3,62.8-47.8c33.5-26.2,66.2-52.6,88.7-70.8L518,479.6L518,479.6z M518,219.4
		c-18.5,15.2-59.9,49-103.4,83c-102.1,79.9-127.6,92.2-133.2,94.1c-5.6-1.7-31.3-13.4-131.8-93.5C106.8,268.6,66,234.5,48,219.3v-6
		h470V219.4z"/>
	<polygon class="st0" points="62.1,577.5 61.8,577.2 143.1,498.4 164,519.9 119.2,563.3 383,563.3 383,593.3 119.8,593.3 
		164.1,637.2 143,658.5 61.7,577.9 	"/>
</g>
</svg>
