<?xml version="1.0" encoding="utf-8"?>
<!-- Generator: Adobe Illustrator 14.0.0, SVG Export Plug-In . SVG Version: 6.00 Build 43363)  -->
<!DOCTYPE svg PUBLIC "-//W3C//DTD SVG 1.1//EN" "http://www.w3.org/Graphics/SVG/1.1/DTD/svg11.dtd">
<svg version="1.1" id="Ebene_1" xmlns="http://www.w3.org/2000/svg" xmlns:xlink="http://www.w3.org/1999/xlink" x="0px" y="0px"
	 width="1024px" height="1024px" viewBox="0 0 1024 1024" enable-background="new 0 0 1024 1024" xml:space="preserve">
<path fill="#FF0000" d="M512,88C277.832,88,88,277.832,88,512c0,234.17,189.832,424,424,424c234.168,0,424-189.83,424-424
	C936,277.832,746.168,88,512,88z M728.971,695.029c9.372,9.373,9.372,24.568,0,33.941C724.284,733.657,718.143,736,712,736
	s-12.284-2.343-16.971-7.029L512,545.941L328.971,728.971C324.284,733.657,318.142,736,312,736s-12.284-2.343-16.971-7.029
	c-9.373-9.373-9.373-24.568,0-33.941L478.059,512L295.029,328.971c-9.373-9.373-9.373-24.569,0-33.941
	c9.373-9.372,24.568-9.372,33.941,0L512,478.059l183.029-183.029c9.373-9.372,24.568-9.372,33.941,0
	c9.372,9.373,9.372,24.569,0,33.941L545.941,512L728.971,695.029z"/>
</svg>
