<?xml version="1.0" encoding="utf-8"?>
<!-- Generator: Adobe Illustrator 14.0.0, SVG Export Plug-In . SVG Version: 6.00 Build 43363)  -->
<!DOCTYPE svg PUBLIC "-//W3C//DTD SVG 1.1//EN" "http://www.w3.org/Graphics/SVG/1.1/DTD/svg11.dtd">
<svg version="1.1" id="Ebene_1" xmlns="http://www.w3.org/2000/svg" xmlns:xlink="http://www.w3.org/1999/xlink" x="0px" y="0px"
	 width="1024px" height="1024px" viewBox="0 0 1024 1024" enable-background="new 0 0 1024 1024" xml:space="preserve">
<g>
	<path  d="M837.319,329.979L582.94,71.176c-4.512-4.59-10.68-7.176-17.116-7.176H203.797c-13.255,0-24,10.745-24,24
		v848c0,13.255,10.745,24,24,24h616.406c13.255,0,24-10.745,24-24V346.803C844.203,340.509,841.73,334.468,837.319,329.979z
		 M796.203,356.623v2.183H555.049V112h0.713L796.203,356.623z M227.797,912V112h279.252v270.806c0,13.255,10.745,24,24,24h265.154
		V912H227.797z"/>
	<rect x="293.687" y="358.665"  width="154.32" height="48"/>
	<rect x="292.01" y="508.33"  width="408.533" height="48"/>
	<rect x="296.496" y="658.065"  width="408.535" height="48"/>
</g>
</svg>
