<?xml version="1.0" encoding="utf-8"?>
<!-- Generator: Adobe Illustrator 14.0.0, SVG Export Plug-In . SVG Version: 6.00 Build 43363)  -->
<!DOCTYPE svg PUBLIC "-//W3C//DTD SVG 1.1//EN" "http://www.w3.org/Graphics/SVG/1.1/DTD/svg11.dtd">
<svg version="1.1" id="Ebene_1" xmlns="http://www.w3.org/2000/svg" xmlns:xlink="http://www.w3.org/1999/xlink" x="0px" y="0px"
	 width="1024px" height="1024px" viewBox="0 0 1024 1024" enable-background="new 0 0 1024 1024" xml:space="preserve">
<path  d="M959.272,240.776c-3.885-45.731-23.553-88.505-55.381-120.441C867.685,84.007,818.924,64,766.589,64
	c-27.116,0-53.736,5.318-79.119,15.806c-26.201,10.826-49.792,26.656-70.119,47.051c-38.948,39.078-61.161,90.351-62.547,144.373
	c-1.398,54.486,18.506,105.236,56.047,142.902c1.545,1.551,3.118,3.076,4.719,4.575c-18.795,25.422-48.107,61.31-84.986,94.312
	c-43.765,39.165-91.358,73.964-120.215,94.112c-35.902-34.592-83.514-53.596-134.516-53.596c-27.117,0-53.737,5.317-79.12,15.806
	c-26.201,10.826-49.792,26.656-70.119,47.051c-38.948,39.078-61.16,90.351-62.546,144.372
	c-1.397,54.486,18.507,105.236,56.047,142.901c36.203,36.326,84.962,56.333,137.297,56.336c0.005,0,0.008,0,0.012,0
	c37.767,0,75.073-10.501,107.914-30.372c9.187-5.238,141.492-81.826,313.024-242.708c137-128.493,219.834-264.412,249.385-317.487
	C951.855,330.893,963.049,285.232,959.272,240.776z M886.776,344.417l-0.671,1.133c-28.18,50.699-108.033,182.042-240.579,306.359
	C476.004,810.905,342.674,887.3,341.355,888.048l-0.63,0.369C315.322,903.846,286.519,912,257.424,912c-0.001,0-0.007,0-0.009,0
	c-39.484-0.003-76.171-14.996-103.302-42.22c-58.524-58.72-55.609-157.189,6.499-219.505
	c31.326-31.432,72.253-48.741,115.241-48.741c39.482,0,76.17,14.994,103.305,42.22c3.145,3.155,6.232,6.57,9.177,10.148
	l13.87,16.856l18.092-12.214c24.05-16.236,86.06-59.434,142.297-109.758c50.426-45.127,87.589-95.005,105.252-120.72l13.244-19.281
	l-18.934-13.735c-6.112-4.433-11.936-9.415-17.308-14.804c-58.524-58.721-55.608-157.19,6.501-219.506
	C682.675,129.31,723.602,112,766.589,112c39.482,0,76.17,14.994,103.305,42.219C919.21,203.702,926.152,281.915,886.776,344.417z"/>
</svg>
