<?xml version="1.0" encoding="utf-8"?>
<!-- Generator: Adobe Illustrator 23.0.2, SVG Export Plug-In . SVG Version: 6.00 Build 0)  -->
<svg version="1.1" id="Ebene_1" xmlns="http://www.w3.org/2000/svg" xmlns:xlink="http://www.w3.org/1999/xlink" x="0px" y="0px"
	 viewBox="0 0 1024 1024" style="enable-background:new 0 0 1024 1024;" xml:space="preserve">
<path class="st0" d="M959.3,240.8c-3.9-45.7-23.6-88.5-55.4-120.4C867.7,84,818.9,64,766.6,64c0,0,0,0,0,0
	c-27.1,0-53.7,5.3-79.1,15.8c-26.2,10.8-49.8,26.7-70.1,47c-38.9,39.1-61.2,90.4-62.5,144.4c-1.4,54.5,18.5,105.2,56,142.9
	c1.5,1.6,3.1,3.1,4.7,4.6c-18.8,25.4-48.1,61.3-85,94.3c-43.8,39.2-91.4,74-120.2,94.1c-35.9-34.6-83.5-53.6-134.5-53.6c0,0,0,0,0,0
	c-27.1,0-53.7,5.3-79.1,15.8c-26.2,10.8-49.8,26.7-70.1,47c-38.9,39.1-61.2,90.4-62.5,144.4c-1.4,54.5,18.5,105.2,56,142.9
	c37.1,37.2,86.6,56.4,137.4,56.4c36.7,0,74-10,107.8-30.4c9.2-5.2,141.5-81.8,313-242.7c137-128.5,219.8-264.4,249.4-317.5
	C951.9,330.9,963,285.2,959.3,240.8z"/>
</svg>
