<?xml version="1.0" encoding="utf-8"?>
<!-- Generator: Adobe Illustrator 23.0.2, SVG Export Plug-In . SVG Version: 6.00 Build 0)  -->
<svg version="1.1" id="Ebene_1" xmlns="http://www.w3.org/2000/svg" xmlns:xlink="http://www.w3.org/1999/xlink" x="0px" y="0px"
	 viewBox="0 0 1024 1024" style="enable-background:new 0 0 1024 1024;" xml:space="preserve">
<g>
	<path class="st0" d="M829.9,279.5c-13.6-39.5-35.9-77.5-64.5-109.8c-29.4-33.1-65.6-60.5-104.8-79.1c-42-20-86.7-30.1-132.9-30.1
		c-0.5,0-0.9,0-1.4,0C417.2,61,326.3,95.4,263.4,160c-55.9,57.4-86.9,136.9-85.1,218.1c1.1,48.2,14.7,95.9,41.6,145.7
		c23.1,42.7,53.7,83.5,88.4,128.5c126.4,164.1,181.8,295,182.3,296.4c3.5,8.4,11.5,14.1,20.6,14.7c0.5,0,1.1,0.1,1.6,0.1
		c8.5,0,16.4-4.5,20.7-11.9c1-1.6,96.6-165.7,185.4-296.4c14.4-21.2,27.2-39.3,38.5-55.3c50-70.6,75-106,86.2-195.7
		C848.9,363.1,844.2,321.1,829.9,279.5z M796.1,398.2c-9.7,77.7-29.6,105.8-77.8,173.9c-11.4,16.2-24.4,34.5-39.1,56.1
		c-63.3,93.1-129.9,202.8-164,260c-26.4-52.8-80.5-150.4-168.9-265.1c-71.3-92.5-118.2-159.6-120.1-246
		c-1.5-68.4,24.5-135.3,71.5-183.6c53.7-55.2,132.8-84.6,228.8-85c0.4,0,0.8,0,1.1,0c75.9,0,149.4,33.9,201.8,93
		C779.5,258,804.4,331.5,796.1,398.2z"/>
	<path class="st0" d="M512,199.4c-104.7,0-189.9,85.2-189.9,189.9S407.3,579.3,512,579.3s189.9-85.2,189.9-189.9
		S616.7,199.4,512,199.4z M512,531.3c-78.3,0-141.9-63.7-141.9-141.9S433.7,247.4,512,247.4c78.3,0,141.9,63.7,141.9,141.9
		S590.2,531.3,512,531.3z"/>
</g>
</svg>
