<?xml version="1.0" encoding="utf-8"?>
<!-- Generator: Adobe Illustrator 23.0.2, SVG Export Plug-In . SVG Version: 6.00 Build 0)  -->
<svg version="1.1" id="Ebene_1" xmlns="http://www.w3.org/2000/svg" xmlns:xlink="http://www.w3.org/1999/xlink" x="0px" y="0px"
	 viewBox="0 0 1024 1024" style="enable-background:new 0 0 1024 1024;" xml:space="preserve">
<path class="st0" d="M829.9,279.5c-13.6-39.5-35.9-77.5-64.5-109.8c-29.4-33.1-65.6-60.5-104.8-79.1c-42-20-86.7-30.1-132.9-30.1
	c-0.5,0-0.9,0-1.4,0C417.2,61,326.3,95.4,263.4,160c-55.9,57.4-86.9,136.9-85.1,218.1c1.1,48.2,14.7,95.9,41.6,145.7
	c23.1,42.7,53.7,83.5,88.4,128.5c126.4,164.1,181.8,295,182.3,296.4c3.5,8.4,11.5,14.1,20.6,14.7c0.5,0,1.1,0.1,1.6,0.1
	c8.5,0,16.4-4.5,20.7-11.9c1-1.6,96.6-165.7,185.4-296.4c14.4-21.2,27.2-39.3,38.5-55.3c50-70.6,75-106,86.2-195.7
	C848.9,363.1,844.2,321.1,829.9,279.5z M512,555.3c-91.6,0-165.9-74.3-165.9-165.9S420.4,223.4,512,223.4s165.9,74.3,165.9,165.9
	S603.6,555.3,512,555.3z"/>
</svg>
