<?xml version="1.0" encoding="UTF-8" standalone="no"?>
<svg
   xmlns:dc="http://purl.org/dc/elements/1.1/"
   xmlns:cc="http://creativecommons.org/ns#"
   xmlns:rdf="http://www.w3.org/1999/02/22-rdf-syntax-ns#"
   xmlns:svg="http://www.w3.org/2000/svg"
   xmlns="http://www.w3.org/2000/svg"
   xmlns:sodipodi="http://sodipodi.sourceforge.net/DTD/sodipodi-0.dtd"
   xmlns:inkscape="http://www.inkscape.org/namespaces/inkscape"
   version="1.1"
   x="0px"
   y="0px"
   viewBox="-140 -40 500 500"
   style="enable-background:new 0 0 500 500;"
   id="svg3715"
   sodipodi:docname="postalAddress.svg"
   inkscape:version="0.92.2 (5c3e80d, 2017-08-06)">
  <metadata
     id="metadata3721">
    <rdf:RDF>
      <cc:Work
         rdf:about="">
        <dc:format>image/svg+xml</dc:format>
        <dc:type
           rdf:resource="http://purl.org/dc/dcmitype/StillImage" />
      </cc:Work>
    </rdf:RDF>
  </metadata>
  <defs
     id="defs3719" />
  <sodipodi:namedview
     pagecolor="#ffffff"
     bordercolor="#666666"
     borderopacity="1"
     objecttolerance="10"
     gridtolerance="10"
     guidetolerance="10"
     inkscape:pageopacity="0"
     inkscape:pageshadow="2"
     inkscape:window-width="1618"
     inkscape:window-height="1027"
     id="namedview3717"
     showgrid="false"
     inkscape:zoom="1.72"
     inkscape:cx="250"
     inkscape:cy="250"
     inkscape:window-x="1672"
     inkscape:window-y="-8"
     inkscape:window-maximized="1"
     inkscape:current-layer="svg3715" />
  <path
     style="color:#000000;font-style:normal;font-variant:normal;font-weight:normal;font-stretch:normal;font-size:medium;line-height:normal;font-family:sans-serif;font-variant-ligatures:normal;font-variant-position:normal;font-variant-caps:normal;font-variant-numeric:normal;font-variant-alternates:normal;font-feature-settings:normal;text-indent:0;text-align:start;text-decoration:none;text-decoration-line:none;text-decoration-style:solid;text-decoration-color:#000000;letter-spacing:normal;word-spacing:normal;text-transform:none;writing-mode:lr-tb;direction:ltr;text-orientation:mixed;dominant-baseline:auto;baseline-shift:baseline;text-anchor:start;white-space:normal;shape-padding:0;clip-rule:nonzero;display:inline;overflow:visible;visibility:visible;opacity:1;isolation:auto;mix-blend-mode:normal;color-interpolation:sRGB;color-interpolation-filters:linearRGB;solid-color:#000000;solid-opacity:1;vector-effect:none;fill:#2368bc;fill-opacity:1;fill-rule:nonzero;stroke:none;stroke-width:22px;stroke-linecap:butt;stroke-linejoin:miter;stroke-miterlimit:10;stroke-dasharray:none;stroke-dashoffset:0;stroke-opacity:1;color-rendering:auto;image-rendering:auto;shape-rendering:auto;text-rendering:auto;enable-background:accumulate"
     d="M 113.64539,-5.4954 C 90.18576,-5.212754 50.4149,3.030481 22.33679,31.389366 -5.66966,59.67589 -18.0568,108.48533 13.51453,179.46163 l 85.98828,224.9707 -0.16016,-0.44921 c 0.77695,2.33084 1.56297,3.79995 3.00782,5.87304 0.72242,1.03655 1.55817,2.15062 3.04687,3.42774 1.48871,1.27711 3.91514,3.2207 8.38086,3.2207 4.23865,0 8.9778,-3.07506 10.84375,-5.61914 1.86595,-2.54408 2.45241,-4.48419 3.0918,-6.40234 l -0.16602,0.46093 86.5,-225.5 -0.0742,0.18946 C 243.26215,107.31908 229.45414,58.40212 201.45008,30.266319 173.44601,2.130519 135.13634,-5.754463 113.64539,-5.4954 Z m 0.26562,22 c 15.00985,-0.180937 49.94958,7.184003 71.94531,29.283203 21.99574,22.099197 34.93793,58.402317 7.72657,125.587887 l -0.0391,0.0937 -79.9082,208.31836 -79.6914,-208.49609 -0.125,-0.2793 C 4.19708,104.78406 16.04771,69.01095 37.96961,46.869834 59.8915,24.728719 95.87064,16.721954 113.91101,16.5046 Z"
     id="path3711"
     inkscape:connector-curvature="0" />
  <path
     style="color:#000000;font-style:normal;font-variant:normal;font-weight:normal;font-stretch:normal;font-size:medium;line-height:normal;font-family:sans-serif;font-variant-ligatures:normal;font-variant-position:normal;font-variant-caps:normal;font-variant-numeric:normal;font-variant-alternates:normal;font-feature-settings:normal;text-indent:0;text-align:start;text-decoration:none;text-decoration-line:none;text-decoration-style:solid;text-decoration-color:#000000;letter-spacing:normal;word-spacing:normal;text-transform:none;writing-mode:lr-tb;direction:ltr;text-orientation:mixed;dominant-baseline:auto;baseline-shift:baseline;text-anchor:start;white-space:normal;shape-padding:0;clip-rule:nonzero;display:inline;overflow:visible;visibility:visible;opacity:1;isolation:auto;mix-blend-mode:normal;color-interpolation:sRGB;color-interpolation-filters:linearRGB;solid-color:#000000;solid-opacity:1;vector-effect:none;fill:#2368bc;fill-opacity:1;fill-rule:nonzero;stroke:none;stroke-width:22px;stroke-linecap:butt;stroke-linejoin:miter;stroke-miterlimit:10;stroke-dasharray:none;stroke-dashoffset:0;stroke-opacity:1;color-rendering:auto;image-rendering:auto;shape-rendering:auto;text-rendering:auto;enable-background:accumulate"
     d="m 113.27734,41.003906 c -39.081922,0 -70.999996,31.918074 -70.999996,71.000004 0,39.08192 31.918074,71 70.999996,71 39.08193,0 71,-31.91808 71,-71 0,-39.08193 -31.91807,-71.000004 -71,-71.000004 z m 0,22 c 27.19225,0 49,21.807757 49,49.000004 0,27.19224 -21.80775,49 -49,49 -27.19224,0 -48.999996,-21.80776 -48.999996,-49 0,-27.192247 21.807756,-49.000004 48.999996,-49.000004 z"
     id="circle3713"
     inkscape:connector-curvature="0" />
</svg>
