<?xml version="1.0" encoding="utf-8"?>
<!-- Generator: Adobe Illustrator 23.0.2, SVG Export Plug-In . SVG Version: 6.00 Build 0)  -->
<svg version="1.1" id="Ebene_1" xmlns="http://www.w3.org/2000/svg" xmlns:xlink="http://www.w3.org/1999/xlink" x="0px" y="0px"
	 viewBox="0 0 1024 1024" style="enable-background:new 0 0 1024 1024;" xml:space="preserve">
<style type="text/css">
	.st0{fill:none;stroke:#2C67B0;stroke-width:48;stroke-linejoin:round;}
	.st1{fill:#2C68B1;}
</style>
<path class="st0" d="M704.4,346.8"/>
<g>
	<path class="st1" d="M918,208.2c-40.6-40.6-80.5-44.3-106.8-40.2c-28.3,4.4-46.7,18.4-48.8,20l-1.1,0.9l-36.7,36.8V152
		c0-13.3-10.7-24-24-24H546.5V88c0-13.3-10.7-24-24-24h-255c-13.3,0-24,10.7-24,24v40H89.3c-13.3,0-24,10.7-24,24v784
		c0,13.3,10.7,24,24,24h611.4c13.3,0,24-10.7,24-24V573.9l209.4-210.4l0.6-0.6l0.6-0.6c1.7-2,16.6-19.9,21.7-47.7
		C961.8,288.6,958.9,249.1,918,208.2z M289.2,184.2c1.5-3.2,2.3-6.7,2.3-10.2v-62h207v62c0,3.5,0.8,7,2.3,10.2l32.3,68.9H256.9
		L289.2,184.2z M676.7,912H113.3V176h126.8l-42.6,90.9c-3.5,7.4-2.9,16.1,1.5,23.1c4.4,6.9,12,11.1,20.3,11.1h351.6
		c8.2,0,15.8-4.2,20.3-11.1c4.4-6.9,5-15.6,1.5-23.1L549.9,176h126.8v98L398.9,553.2c-5.1,2.2-9.4,6.2-12,11.6l-133,276
		c-4.5,9.2-2.5,20.3,4.8,27.5c4.6,4.5,10.7,6.9,16.9,6.9c3.6,0,7.3-0.8,10.7-2.5L559,736.3c2.7-1.3,5-3.1,6.9-5.2
		c0.3-0.1,0.5-0.2,0.7-0.3l3.8-1.8l106.3-106.8V912z M418.9,703.9c12.3,12.3,26.2,21.8,41.2,28.2l-97.3,48.6l-18-18l47.1-97.6
		C397.6,677.9,406.2,691.1,418.9,703.9z M910.1,304.1c-2.1,14.1-9.2,24.1-10.9,26.4L542.7,688.7c-12.1,4.4-54.7,16.4-89.9-18.8
		c-16.7-16.7-24.4-36.3-22.9-58.3c0.8-13,4.7-23.5,6.7-28.2L793,225.2c3-2,13.3-8.3,27.4-10c21.7-2.7,43.1,6.4,63.7,27
		C904.5,262.5,913.2,283.4,910.1,304.1z"/>
	<rect x="191.7" y="372" class="st1" width="272" height="48"/>
	<rect x="191.7" y="520" class="st1" width="151.1" height="48"/>
	<rect x="191.7" y="668" class="st1" width="84" height="48"/>
</g>
</svg>
