<?xml version="1.0" encoding="utf-8"?>
<!-- Generator: Adobe Illustrator 14.0.0, SVG Export Plug-In . SVG Version: 6.00 Build 43363)  -->
<!DOCTYPE svg PUBLIC "-//W3C//DTD SVG 1.1//EN" "http://www.w3.org/Graphics/SVG/1.1/DTD/svg11.dtd">
<svg version="1.1" id="Ebene_1" xmlns="http://www.w3.org/2000/svg" xmlns:xlink="http://www.w3.org/1999/xlink" x="0px" y="0px"
	 width="1024px" height="1024px" viewBox="0 0 1024 1024" enable-background="new 0 0 1024 1024" xml:space="preserve">
<g>
	<rect x="186" y="717"  width="112.264" height="48"/>
	<path  d="M936,106.914h-85.789c-12.41,0-22.773,9.461-23.9,21.82L794.17,481.062
		C765.313,427.997,709.868,392,646.338,392c-34.724,0-67.032,10.757-93.906,29.172l-13.059-7.577
		c-7.426-4.308-16.585-4.323-24.022-0.039c-7.438,4.284-12.022,12.214-12.022,20.797v38.397
		c-7.027,11.374-12.798,23.635-17.093,36.586l-166.608-95.789c-7.427-4.271-16.565-4.257-23.981,0.032
		c-7.415,4.29-11.981,12.208-11.981,20.774v84.812L99.962,413.548c-7.426-4.27-16.566-4.257-23.981,0.032
		C68.566,417.871,64,425.788,64,434.354v458.731c0,13.255,10.745,24,24,24h314.529c1.037,13.754,2.574,22.37,2.733,23.241
		L408.869,960h474.94l3.606-19.673c0.16-0.871,1.696-9.487,2.733-23.241H936c13.255,0,24-10.745,24-24V130.914
		C960,117.659,949.255,106.914,936,106.914z M112,475.837l183.702,105.618c7.426,4.269,16.566,4.257,23.981-0.033
		s11.981-12.207,11.981-20.773v-84.812l145.765,83.806c-0.001,0.057-0.001,0.112-0.002,0.169c-0.042,1.582-0.067,3.168-0.067,4.76
		c0,3.958,0.133,7.898,0.397,11.815c0,0.008,0.001,0.016,0.001,0.023c2.375,35.25,15.294,68.63,36.549,95.828
		c0.077,0.1,0.157,0.196,0.235,0.295c0.71,0.905,1.427,1.806,2.156,2.697c0.215,0.263,0.437,0.52,0.653,0.781
		c0.592,0.715,1.184,1.431,1.787,2.137c-20.901,10.106-39.156,23.083-54.704,38.852h-86.067v48h51.392
		c-9.322,17.947-16.433,37.877-21.209,59.695c-3.396,15.512-5.284,30.558-6.213,44.391H112V475.837z M842.364,912H450.313
		c-1.281-18.423-1.502-47.634,5.425-78.384c13.141-58.333,46.001-97.97,97.779-118.062c0.283-0.11,0.572-0.217,0.858-0.326
		c1.354-0.518,2.724-1.021,4.104-1.513c0.485-0.173,0.972-0.344,1.46-0.514c1.259-0.437,2.53-0.859,3.81-1.274
		c0.493-0.159,0.981-0.323,1.479-0.48c1.739-0.549,3.493-1.083,5.271-1.592l48.001-13.744l-40.716-28.899
		c-32.827-23.3-52.425-61.67-52.425-102.641c0-1.198,0.021-2.4,0.055-3.604c0.008-0.3,0.022-0.599,0.033-0.899
		c0.032-0.924,0.071-1.849,0.124-2.773c0.019-0.323,0.039-0.646,0.06-0.968c0.059-0.911,0.126-1.822,0.204-2.732
		c0.026-0.316,0.053-0.634,0.082-0.949c0.087-0.941,0.187-1.881,0.294-2.818C533.317,488.062,584.475,440,646.338,440
		c66.709,0,120.98,55.882,120.98,124.571c0,35.765-14.936,69.545-40.566,93.052c-0.074,0.067-0.146,0.137-0.221,0.204
		c-0.651,0.595-1.317,1.175-1.982,1.757c-0.448,0.391-0.896,0.781-1.351,1.165c-0.543,0.461-1.091,0.917-1.644,1.368
		c-0.646,0.529-1.301,1.05-1.959,1.566c-0.428,0.335-0.853,0.674-1.285,1.004c-1.124,0.857-2.26,1.703-3.417,2.524l-40.716,28.899
		l48.001,13.744c1.778,0.509,3.532,1.043,5.271,1.592c0.497,0.157,0.985,0.321,1.479,0.48c1.279,0.415,2.551,0.838,3.81,1.274
		c0.489,0.17,0.975,0.341,1.46,0.514c1.38,0.491,2.748,0.994,4.102,1.512c0.287,0.109,0.577,0.217,0.861,0.327
		c51.778,20.092,84.638,59.729,97.778,118.062C843.866,864.366,843.646,893.577,842.364,912z M912,869.086h-21.659
		c-0.93-13.833-2.818-28.879-6.214-44.391c-6.338-28.951-16.783-54.578-31.066-76.65c-0.232-0.359-0.463-0.72-0.697-1.078
		c-0.509-0.775-1.021-1.548-1.54-2.314c-0.739-1.099-1.489-2.187-2.248-3.266c-0.133-0.188-0.261-0.38-0.395-0.567
		c-19.048-26.892-43.992-47.841-74.597-62.648c12.499-14.579,22.521-31.249,29.662-49.484l24.589-31.138
		c2.883-3.65,4.644-8.061,5.065-12.693l39.221-429.941H912V869.086z"/>
</g>
</svg>
