<?xml version="1.0" encoding="utf-8"?>
<!-- Generator: Adobe Illustrator 19.1.0, SVG Export Plug-In . SVG Version: 6.00 Build 0)  -->
<svg version="1.1"
	 id="Ebene_1" shape-rendering="geometricPrecision" text-rendering="geometricPrecision" image-rendering="optimizeQuality"
	 xmlns="http://www.w3.org/2000/svg" xmlns:xlink="http://www.w3.org/1999/xlink" x="0px" y="0px" viewBox="-7 130.9 580 580"
	 style="enable-background:new -7 130.9 580 580;" xml:space="preserve">
<g>
	<path class="st0" d="M283,499.7c-43.4,0-78.8-35.3-78.8-78.8s35.3-78.8,78.8-78.8c43.4,0,78.8,35.3,78.8,78.8
		S326.4,499.7,283,499.7z M283,372.1c-26.9,0-48.8,21.9-48.8,48.8s21.9,48.8,48.8,48.8c26.9,0,48.8-21.9,48.8-48.8
		S309.9,372.1,283,372.1z"/>
</g>
<g>
	<path class="st0" d="M283,620.1c-109.9,0-199.3-89.4-199.3-199.3S173.1,221.6,283,221.6c109.9,0,199.3,89.4,199.3,199.3
		S392.9,620.1,283,620.1z M283,251.6c-93.3,0-169.3,75.9-169.3,169.3c0,93.3,75.9,169.3,169.3,169.3s169.3-75.9,169.3-169.3
		C452.3,327.6,376.3,251.6,283,251.6z"/>
</g>
<g>
	<path class="st0" d="M283,372.1c5.2,0,10.3,0.8,15,2.4V170.9h-30v203.6C272.7,372.9,277.8,372.1,283,372.1z"/>
	<path class="st0" d="M234.2,420.9c0-5.2,0.8-10.3,2.4-15H33v30h203.6C235.1,431.2,234.2,426.1,234.2,420.9z"/>
	<path class="st0" d="M283,469.7c-5.2,0-10.3-0.8-15-2.4v203.6h30V467.3C293.3,468.8,288.2,469.7,283,469.7z"/>
	<path class="st0" d="M329.4,405.9c1.5,4.7,2.4,9.8,2.4,15c0,5.2-0.8,10.3-2.4,15H533v-30H329.4z"/>
</g>
</svg>
