<?xml version="1.0" encoding="utf-8"?>
<!-- Generator: Adobe Illustrator 14.0.0, SVG Export Plug-In . SVG Version: 6.00 Build 43363)  -->
<!DOCTYPE svg PUBLIC "-//W3C//DTD SVG 1.1//EN" "http://www.w3.org/Graphics/SVG/1.1/DTD/svg11.dtd">
<svg version="1.1" id="Ebene_1" xmlns="http://www.w3.org/2000/svg" xmlns:xlink="http://www.w3.org/1999/xlink" x="0px" y="0px"
	 width="1024px" height="1024px" viewBox="0 0 1024 1024" enable-background="new 0 0 1024 1024" xml:space="preserve">
<g>
	<path  d="M469.996,172.788c-13.255,0-24,10.745-24,24v237.206H262.795c-13.255,0-24,10.745-24,24s10.745,24,24,24
		h207.201c13.255,0,24-10.745,24-24V196.788C493.996,183.533,483.251,172.788,469.996,172.788z"/>
	<path  d="M908.444,565.308h-47.706c10.125-34.752,15.254-70.711,15.254-107.313
		c0-53.274-10.774-104.96-32.025-153.623c-20.497-46.938-49.822-89.076-87.161-125.241c-37.286-36.114-80.695-64.464-129.021-84.262
		C577.788,74.385,524.7,64,469.996,64c-54.705,0-107.792,10.385-157.788,30.868c-48.327,19.798-91.736,48.148-129.021,84.262
		c-37.339,36.166-66.665,78.303-87.162,125.241C74.775,353.034,64,404.72,64,457.994c0,53.275,10.775,104.962,32.025,153.624
		c20.497,46.938,49.823,89.076,87.162,125.242c37.286,36.114,80.695,64.464,129.021,84.263
		c49.996,20.481,103.083,30.867,157.788,30.867c18.829,0,37.648-1.27,56.236-3.77v60.85c0,28.083,23.127,50.93,51.555,50.93h330.657
		C936.872,960,960,937.153,960,909.07V616.235C960,588.153,936.872,565.308,908.444,565.308z M912,616.235v59.342H574.232v-59.342
		c0-1.587,1.628-2.928,3.555-2.928h265.816h64.841C910.372,613.308,912,614.648,912,616.235z M469.996,803.99
		C272.596,803.99,112,648.777,112,457.994C112,267.212,272.596,112,469.996,112c197.399,0,357.996,155.212,357.996,345.994
		c0,36.771-5.896,72.794-17.546,107.313H577.787c-28.428,0-51.555,22.846-51.555,50.928v183.506
		C507.695,802.563,488.854,803.99,469.996,803.99z M908.444,912H577.787c-1.927,0-3.555-1.342-3.555-2.93v-69.722V723.577H912
		V909.07C912,910.658,910.372,912,908.444,912z"/>
</g>
</svg>
