<?xml version="1.0" encoding="utf-8"?>
<!-- Generator: Adobe Illustrator 14.0.0, SVG Export Plug-In . SVG Version: 6.00 Build 43363)  -->
<!DOCTYPE svg PUBLIC "-//W3C//DTD SVG 1.1//EN" "http://www.w3.org/Graphics/SVG/1.1/DTD/svg11.dtd">
<svg version="1.1" id="Ebene_1" xmlns="http://www.w3.org/2000/svg" xmlns:xlink="http://www.w3.org/1999/xlink" x="0px" y="0px"
	 width="1024px" height="1024px" viewBox="0 0 1024 1024" enable-background="new 0 0 1024 1024" xml:space="preserve">
<g>
	<path  d="M884.989,757.726c-12.443-56.842-35.098-105.925-67.331-145.883
		c-32.128-39.826-73.609-70.357-123.676-91.102c49.724-49.712,78.446-118.226,78.446-190.456
		c0-71.017-27.017-137.813-76.072-188.083C647.146,91.773,581.674,64,512,64c-69.674,0-135.146,27.773-184.357,78.202
		c-49.055,50.271-76.071,117.067-76.071,188.083c0,72.229,28.722,140.743,78.445,190.456
		c-50.066,20.744-91.548,51.275-123.675,91.102c-32.234,39.958-54.887,89.041-67.331,145.883
		c-20.841,95.201-5.905,179.078-5.26,182.602L137.357,960H232v-48h-53.606c-2.891-28.387-5.622-84.043,7.506-144.009
		c24.573-112.252,91.276-184.7,198.255-215.333l47.999-13.745l-40.714-28.899c-57.525-40.831-91.868-108.019-91.868-179.728
		C299.572,209.922,394.867,112,512,112c117.134,0,212.429,97.922,212.429,218.286c0,71.709-34.344,138.897-91.87,179.728
		l-40.716,28.899l48.001,13.745c106.52,30.501,173.12,102.483,197.95,213.947c13.415,60.222,10.674,116.706,7.782,145.395H569v48
		h317.644l3.605-19.673C890.896,936.804,905.83,852.927,884.989,757.726z"/>
	<path  d="M619.206,651.928c-26.643-26.733-70.982-25.588-99.033,2.557c-28.052,28.146-29.192,72.633-2.549,99.365
		c2.496,2.505,5.148,4.765,7.926,6.78c-6.846,9.968-20.844,28.696-39.792,45.654c-21.683,19.404-45.676,36.101-54.791,42.254
		c-1.315-1.599-2.712-3.15-4.2-4.644c-26.644-26.732-70.982-25.588-99.033,2.557c-28.051,28.146-29.192,72.633-2.549,99.365
		c22.456,22.531,57.48,25.258,84.73,8.709c0,0,52.854-29.936,121.078-93.925c52.654-49.385,84.387-101.302,96.131-122.429
		C644.454,710.662,642.001,674.799,619.206,651.928z"/>
</g>
</svg>
