<?xml version="1.0" encoding="utf-8"?>
<!-- Generator: Adobe Illustrator 14.0.0, SVG Export Plug-In . SVG Version: 6.00 Build 43363)  -->
<!DOCTYPE svg PUBLIC "-//W3C//DTD SVG 1.1//EN" "http://www.w3.org/Graphics/SVG/1.1/DTD/svg11.dtd">
<svg version="1.1" id="Ebene_1" xmlns="http://www.w3.org/2000/svg" xmlns:xlink="http://www.w3.org/1999/xlink" x="0px" y="0px"
	 width="1024px" height="1024px" viewBox="0 0 1024 1024" enable-background="new 0 0 1024 1024" xml:space="preserve">
<path  d="M754.908,505.738l-69.614-27.826L659.87,289.657l87.412-85.499c4.616-4.515,7.218-10.7,7.218-17.157V88
	c0-13.255-10.745-24-24-24h-437c-13.255,0-24,10.745-24,24v99.001c0,6.458,2.602,12.642,7.218,17.157l87.411,85.499l-25.423,188.255
	l-69.614,27.826c-9.114,3.643-15.092,12.47-15.092,22.286V653c0,13.255,10.745,24,24,24h210v259c0,13.255,10.745,24,24,24
	s24-10.745,24-24V677h210c13.255,0,24-10.745,24-24V528.023C770,518.208,764.022,509.381,754.908,505.738z M722,629H302v-84.724
	l67.524-26.991c8.034-3.211,13.718-10.499,14.876-19.073l28.91-214.074c1.015-7.515-1.582-15.067-7.002-20.369L317.5,176.904V112
	h389v64.904l-88.809,86.865c-5.421,5.302-8.017,12.854-7.002,20.369l28.91,214.074c1.158,8.575,6.842,15.862,14.876,19.073
	L722,544.276V629z"/>
</svg>
