<?xml version="1.0" encoding="utf-8"?>
<!-- Generator: Adobe Illustrator 14.0.0, SVG Export Plug-In . SVG Version: 6.00 Build 43363)  -->
<!DOCTYPE svg PUBLIC "-//W3C//DTD SVG 1.1//EN" "http://www.w3.org/Graphics/SVG/1.1/DTD/svg11.dtd">
<svg version="1.1" id="Ebene_1" xmlns="http://www.w3.org/2000/svg" xmlns:xlink="http://www.w3.org/1999/xlink" x="0px" y="0px"
	 width="1024px" height="1024px" viewBox="0 0 1024 1024" enable-background="new 0 0 1024 1024" xml:space="preserve">
<path  d="M668,128V64H356v64H171.5v832h681V128H668z M404,112h216v67.511l35.689,73.601H368.311L404,179.511V112z
	 M804.5,912h-585V176h132.857l-60.667,125.112h440.621L671.643,176H804.5V912z"/>
<g>
	<path  d="M512,354.023L282.974,783.988h458.052L512,354.023z M499.036,470.428c0-7.16,5.804-12.964,12.963-12.964
		s12.964,5.804,12.964,12.964v175.82c0,7.16-5.805,12.964-12.964,12.964s-12.963-5.804-12.963-12.964V470.428z M512,738.074
		c-14.296,0-25.927-11.631-25.927-25.927c0-14.297,11.631-25.928,25.927-25.928s25.928,11.631,25.928,25.928
		C537.928,726.443,526.296,738.074,512,738.074z"/>
</g>
</svg>
