<?xml version="1.0" encoding="utf-8"?>
<!-- Generator: Adobe Illustrator 14.0.0, SVG Export Plug-In . SVG Version: 6.00 Build 43363)  -->
<!DOCTYPE svg PUBLIC "-//W3C//DTD SVG 1.1//EN" "http://www.w3.org/Graphics/SVG/1.1/DTD/svg11.dtd">
<svg version="1.1" id="Ebene_1" xmlns="http://www.w3.org/2000/svg" xmlns:xlink="http://www.w3.org/1999/xlink" x="0px" y="0px"
	 width="1024px" height="1024px" viewBox="0 0 1024 1024" enable-background="new 0 0 1024 1024" xml:space="preserve">
<path  d="M668,128V64H356v64H171.5v832h681V128H668z M404,112h216v67.511l35.689,73.601H368.311L404,179.511V112z
	 M804.5,912h-585V176h132.857l-60.667,125.112h440.621L671.643,176H804.5V912z"/>
<g>
	<path  d="M498.963,763.848c-6.721,0-13.187-2.825-17.764-7.864L332.761,592.547
		c-8.912-9.812-8.182-24.99,1.63-33.902c9.812-8.912,24.99-8.181,33.902,1.631l125.808,138.52l163.017-297.358
		c6.371-11.624,20.959-15.88,32.582-9.508c11.623,6.372,15.88,20.959,9.508,32.582L520.011,751.385
		c-3.729,6.803-10.518,11.384-18.222,12.296C500.846,763.793,499.901,763.848,498.963,763.848L498.963,763.848z"/>
</g>
</svg>
