<?xml version="1.0" encoding="utf-8"?>
<!-- Generator: Adobe Illustrator 22.0.0, SVG Export Plug-In . SVG Version: 6.00 Build 0)  -->
<svg version="1.1" id="Ebene_1" xmlns="http://www.w3.org/2000/svg" xmlns:xlink="http://www.w3.org/1999/xlink" x="0px" y="0px"
	 viewBox="0 0 1024 1024" style="enable-background:new 0 0 1024 1024;" xml:space="preserve">
<style type="text/css">
	.st0{display:none;}
</style>
<g id="HG" class="st0">
</g>
<path class="st1" d="M838.3,496.5L666.8,293.3c-8.5-10.1-23.7-11.4-33.8-2.9c-10.1,8.5-11.4,23.7-2.9,33.8L768.3,488H494
	c-13.3,0-24,10.7-24,24s10.7,24,24,24h274.3L630.2,699.7c-8.5,10.1-7.3,25.3,2.9,33.8c4.5,3.8,10,5.7,15.5,5.7
	c6.8,0,13.6-2.9,18.4-8.5l171.5-203.2C845.9,518.5,845.9,505.5,838.3,496.5z"/>
</svg>
