<?xml version="1.0" encoding="utf-8"?>
<!-- Generator: Adobe Illustrator 22.0.0, SVG Export Plug-In . SVG Version: 6.00 Build 0)  -->
<svg version="1.1" id="Ebene_1" xmlns="http://www.w3.org/2000/svg" xmlns:xlink="http://www.w3.org/1999/xlink" x="0px" y="0px"
	 viewBox="0 0 1024 1024" style="enable-background:new 0 0 1024 1024;" xml:space="preserve">
<style type="text/css">
	.st0{display:none;}
</style>
<g id="HG" class="st0">
</g>
<path class="st1" d="M907,383.5c-0.1-0.6-0.2-1.2-0.3-1.8c-14.6-77-62.5-147.4-135-198.2C705.3,137,622,109.8,535,105.8V89
	c0-13.3-10.7-24-24-24s-24,10.7-24,24v17c-95.8,5-185.2,37.7-254.1,93.5c-37,29.9-66.1,64.9-86.4,103.9
	c-21.3,40.9-32.2,84.3-32.2,129.2l-0.9,55.4c-0.2,11.6,8,21.7,19.4,24c11.4,2.2,22.8-4.1,27-14.9c0.2-0.5,20.6-51.8,78.7-46.9
	c60.9,5.1,85.2,46.7,86.9,49.6c3.3,6.5,9.3,11,16.5,12.5c1.5,0.3,3,0.5,4.6,0.5c5.7,0,11.2-2.1,15.6-5.9
	c0.6-0.5,53.1-44.4,124.9-54.3v402.6l0.3,1.7c1.5,10.5,1.5,35.9-8.3,47.4c-2.6,3-6.8,6.4-17.1,6.5c-11.1,0-19.1-2.7-24.5-8.4
	c-10-10.7-10.7-30.7-10.2-37.5l0,0.1l-47.8-4.4c-0.4,4.6-3.4,45.9,22.5,74.1c10.1,11,28.6,24.1,59.5,24.1c0.2,0,0.4,0,0.7,0
	c21.9-0.1,40.3-8.1,53.2-23.2c24.6-28.6,20.9-72.9,19.6-83.7V451.5c74.2,7.6,133.2,55,133.8,55.5c10.2,8.4,25.2,7,33.7-3.2
	c10.7-12.8,48.6-49.4,81.8-50.4c0.4,0,0.8,0,1.2,0c32.4,0,70.7,36.4,82.9,50.6c6.5,7.6,17,10.4,26.4,7c9.4-3.4,15.7-12.2,15.9-22.2
	l0.9-55.1c0-0.1,0-0.3,0-0.4v-0.8C911.5,425.1,908.3,395.8,907,383.5z M863.5,435.2c-28.1-20.5-55.3-30.5-80.7-29.7
	c-26.6,0.8-54.6,12.6-83.2,35.2c-7.1,5.6-13.3,11.2-18.5,16.1c-29.6-19.7-92.1-54.3-165.9-54.3c-0.9,0-1.8,0-2.7,0
	c-71.9,0.8-131.1,32.9-160.9,52.6c-18.3-20.4-53-48.1-109.2-52.8c-34.8-2.9-61,7-79.9,19.7c7-149.1,161.5-268.6,350.3-268.6
	c171.6,0,320.3,101.6,346.5,236.5c2,17.7,4.1,38.8,4.1,42.8L863.5,435.2z"/>
</svg>
