<?xml version="1.0" encoding="utf-8"?>
<!-- Generator: Adobe Illustrator 22.0.0, SVG Export Plug-In . SVG Version: 6.00 Build 0)  -->
<svg version="1.1" id="Ebene_1" xmlns="http://www.w3.org/2000/svg" xmlns:xlink="http://www.w3.org/1999/xlink" x="0px" y="0px"
	 viewBox="0 0 1024 1024" style="enable-background:new 0 0 1024 1024;" xml:space="preserve">
<style type="text/css">
	.st0{display:none;}
	.st1{fill:none;stroke:#2368BC;stroke-width:48;}
	.st2{fill:#2368BC;}
	.st3{fill:#2368BC;}
</style>
<g id="HG" class="st0">
</g>
<g id="vwicn212">
	<path class="st1" d="M875.5,893.1"/>
	<path class="st2" d="M875.4,107H148.5c-46.6,0-84.5,37.3-84.5,83.1v643.8c0,45.8,37.9,83.1,84.5,83.1H550v-48H148.5
		c-20.1,0-36.5-15.7-36.5-35.1V343h799.9v199h48V190.1C959.9,144.3,922,107,875.4,107z M112,295V190.1c0-19.4,16.4-35.1,36.5-35.1
		h726.9c20.1,0,36.5,15.7,36.5,35.1V295H112z"/>
	<path class="st3" d="M937,773h-82.1l58.2-58.2c9.4-9.4,9.4-24.6,0-33.9c-9.4-9.4-24.6-9.4-33.9,0L821,739.1V657
		c0-13.3-10.7-24-24-24s-24,10.7-24,24v81.7l-57.8-57.8c-9.4-9.4-24.6-9.4-33.9,0c-9.4,9.4-9.4,24.6,0,33.9l58.2,58.2H657
		c-13.3,0-24,10.7-24,24s10.7,24,24,24h82.1l-57.8,57.8c-9.4,9.4-9.4,24.6,0,33.9c4.7,4.7,10.8,7,17,7s12.3-2.3,17-7l57.8-57.8V937
		c0,13.3,10.7,24,24,24s24-10.7,24-24v-82.5l58.2,58.2c4.7,4.7,10.8,7,17,7s12.3-2.3,17-7c9.4-9.4,9.4-24.6,0-33.9L855.3,821H937
		c13.3,0,24-10.7,24-24S950.3,773,937,773z"/>
</g>
</svg>
