<?xml version="1.0" encoding="utf-8"?>
<!-- Generator: Adobe Illustrator 22.0.0, SVG Export Plug-In . SVG Version: 6.00 Build 0)  -->
<svg version="1.1" id="Ebene_1" xmlns="http://www.w3.org/2000/svg" xmlns:xlink="http://www.w3.org/1999/xlink" x="0px" y="0px"
	 viewBox="0 0 1024 1024" style="enable-background:new 0 0 1024 1024;" xml:space="preserve">
<style type="text/css">
	.st0{display:none;}
	.st1{fill:#2368BC;}
</style>
<g id="HG" class="st0">
</g>
<g id="vwicn015_1_">
	<g>
		<path class="st1" d="M627,967.2c-5.7,0-11.3-2-15.8-5.9L336.8,722H132c-13.3,0-24-10.7-24-24V352c0-13.3,10.7-24,24-24h203.8
			L610.3,63.5c6.9-6.7,17.2-8.6,26-4.8c8.9,3.8,14.6,12.5,14.6,22.1v862.4c0,9.4-5.5,18-14.1,21.8
			C633.8,966.5,630.4,967.2,627,967.2z M156,674h189.8c5.8,0,11.4,2.1,15.8,5.9L603,890.4V137.2l-240.8,232
			c-4.5,4.3-10.4,6.7-16.7,6.7H156V674z"/>
		<path class="st1" d="M717.5,709.7c-5.1,0-10.1-1.6-14.5-4.9c-10.6-8-12.6-23.1-4.6-33.6c33.7-44.5,52.3-101.1,52.3-159.2
			s-18.6-114.7-52.3-159.2c-8-10.6-5.9-25.6,4.6-33.6c10.6-8,25.6-5.9,33.6,4.6c40,52.8,62.1,119.6,62.1,188.2
			c0,68.6-22,135.4-62.1,188.2C731.9,706.4,724.7,709.7,717.5,709.7z"/>
		<path class="st1" d="M773.2,856.8c-5.5,0-11-1.9-15.5-5.7c-10.1-8.6-11.3-23.7-2.8-33.8c72.7-85.6,112.7-194,112.7-305.3
			s-40-219.7-112.7-305.3c-8.6-10.1-7.3-25.2,2.8-33.8c10.1-8.6,25.3-7.3,33.8,2.8c39.1,46,69.7,97.8,90.8,153.9
			c22.1,58.4,33.3,119.8,33.3,182.5s-11.2,124-33.3,182.5c-21.2,56.1-51.7,107.8-90.8,153.9C786.7,853.9,780,856.8,773.2,856.8z"/>
	</g>
</g>
</svg>
