<?xml version="1.0" encoding="utf-8"?>
<!-- Generator: Adobe Illustrator 14.0.0, SVG Export Plug-In . SVG Version: 6.00 Build 43363)  -->
<!DOCTYPE svg PUBLIC "-//W3C//DTD SVG 1.1//EN" "http://www.w3.org/Graphics/SVG/1.1/DTD/svg11.dtd">
<svg version="1.1" id="Ebene_1" xmlns="http://www.w3.org/2000/svg" xmlns:xlink="http://www.w3.org/1999/xlink" x="0px" y="0px"
	 width="1024px" height="1024px" viewBox="0 0 1024 1024" enable-background="new 0 0 1024 1024" xml:space="preserve">
<path  d="M913.538,152.019c-60.519-60.519-158.989-60.519-219.508,0L295.321,550.727
	c-0.453,0.453-0.885,0.921-1.294,1.4c-15.396,16.276-24.673,36.832-26.201,58.186c-1.684,23.547,6.105,45.23,21.934,61.059
	c31.715,31.713,86.12,28.911,121.279-6.246L685.854,390.31l-33.941-33.941L377.098,631.184
	c-16.443,16.44-40.399,19.244-53.398,6.246c-5.832-5.832-8.672-14.246-7.997-23.692c0.768-10.738,5.826-21.287,14.243-29.704
	c0.311-0.311,0.612-0.629,0.903-0.952L727.972,185.96c20.25-20.25,47.175-31.403,75.813-31.403s55.563,11.153,75.813,31.403
	C899.848,206.21,911,233.135,911,261.773c0,28.213-10.825,54.764-30.509,74.908c-0.404,0.354-0.797,0.721-1.178,1.101
	L396.251,820.845c-31.339,31.34-73.006,48.599-117.327,48.599s-85.987-17.259-117.326-48.599
	C130.259,789.506,113,747.839,113,703.519s17.259-85.987,48.599-117.326L598.91,148.88l-33.941-33.941L127.657,552.251
	C87.252,592.656,65,646.377,65,703.519s22.252,110.862,62.657,151.268c40.405,40.405,94.126,62.657,151.268,62.657
	s110.863-22.252,151.268-62.657l482.088-482.089c0.433-0.375,0.852-0.765,1.257-1.169
	C974.057,311.008,974.057,212.538,913.538,152.019z"/>
</svg>
