<?xml version="1.0" encoding="utf-8"?>
<!-- Generator: Adobe Illustrator 22.0.0, SVG Export Plug-In . SVG Version: 6.00 Build 0)  -->
<svg version="1.1" id="Ebene_1" xmlns="http://www.w3.org/2000/svg" xmlns:xlink="http://www.w3.org/1999/xlink" x="0px" y="0px"
	 viewBox="0 0 1024 1024" style="enable-background:new 0 0 1024 1024;" xml:space="preserve">
<style type="text/css">
	.st0{display:none;}
</style>
<g id="HG" class="st0">
</g>
<g>
	<path class="st1" d="M839.1,440.1L728,327h1v-29.6c0-6.3-2.5-12.4-6.9-16.8L514.9,70.2c-4.5-4.6-10.7-7.2-17.1-7.2H469H203
		c-13.3,0-24,10.7-24,24v690c0,13.3,10.7,24,24,24h93v135c0,13.3,10.7,24,24,24h502c13.3,0,24-10.7,24-24V486v-29.1
		C846,450.6,843.5,444.6,839.1,440.1z M610,275.4L793.4,462H610V275.4z M597.1,222H586h-93V116.3L597.1,222z M296,246v507h-69V111
		h218v111H320C306.7,222,296,232.7,296,246z M798,912H344V270h218v216c0,13.3,10.7,24,24,24h212V912z"/>
	<path class="st1" d="M555.1,608.1c-8.5,10.2-7.2,25.3,3,33.8l85,71.1H412c-13.3,0-24,10.7-24,24s10.7,24,24,24h232.2l-85.9,70.4
		c-10.2,8.4-11.7,23.5-3.3,33.8c4.7,5.8,11.6,8.8,18.6,8.8c5.4,0,10.7-1.8,15.2-5.4l136.7-112.1c5.5-4.5,8.7-11.3,8.8-18.4
		c0-7.1-3.1-13.9-8.6-18.5L588.9,605.1C578.7,596.6,563.6,597.9,555.1,608.1z"/>
</g>
</svg>
