<?xml version="1.0" encoding="utf-8"?>
<!-- Generator: Adobe Illustrator 22.0.0, SVG Export Plug-In . SVG Version: 6.00 Build 0)  -->
<svg version="1.1" id="Ebene_1" xmlns="http://www.w3.org/2000/svg" xmlns:xlink="http://www.w3.org/1999/xlink" x="0px" y="0px"
	 viewBox="0 0 1024 1024" style="enable-background:new 0 0 1024 1024;" xml:space="preserve">
<style type="text/css">
	.st0{display:none;}
	.st1{fill:#2368BC;}
</style>
<g id="HG" class="st0">
</g>
<path class="st1" d="M960,154.6c0-11.2-7.7-20.9-18.6-23.4c-8.6-2-210.6-48.2-313.8-48.2c0,0,0,0,0,0c-61.7,0-96.2,25.8-114.3,47.5
	c-0.4,0.5-0.9,1.1-1.3,1.6c-0.4-0.5-0.9-1.1-1.3-1.6C492.6,108.8,458.1,83,396.4,83c-103.1,0-305.2,46.2-313.8,48.2
	C71.7,133.7,64,143.4,64,154.6v633.2c0,3.7,0.9,7.3,2.4,10.5l0,0l63,129.2c4.7,9.7,15.3,15,25.9,13.1L512,875.4l356.7,65.2
	c1.4,0.3,2.9,0.4,4.3,0.4c9,0,17.5-5.1,21.6-13.5l62.4-127.9c2-3.5,3.1-7.6,3.1-11.7V154.6z M627.6,131
	c80.2,0,231.7,31.4,284.4,42.9V758c-61.4-13.2-203.5-41.7-284.4-41.7c-41.9,0-71.3,13.7-91.6,30.5V187.6c1.1-4,4.9-15.2,14.2-26.3
	C566.9,141.2,593,131,627.6,131z M901,804.8l-11.2,22.9c-30.5-7-94.1-21.4-159.3-33.9c-53.2-10.2-97.1-17.2-130.6-20.9
	c-4.5-0.5-8.9-0.9-12.9-1.3c11.8-4.9,25.3-7.3,40.5-7.3C702.8,764.3,840.7,791.9,901,804.8z M112,173.9
	c52.7-11.5,204.2-42.9,284.4-42.9c33.7,0,59.3,9.7,76.1,28.7c10.2,11.6,14.3,23.6,15.5,27.9v559.2c-20.3-16.8-49.7-30.5-91.6-30.5
	c-81,0-223,28.5-284.4,41.6V173.9z M436.7,771.5c-4.1,0.4-8.4,0.8-13,1.3c-33.5,3.7-77.6,10.7-130.9,20.9
	C228.1,806.2,165,820.4,134,827.5l-11.1-22.8c60.3-12.9,198.2-40.4,273.5-40.4C411.5,764.3,424.9,766.7,436.7,771.5z M155.6,871.8
	c31.4-7.1,83.4-18.7,137.6-29.2c50.3-9.8,92.3-16.8,125.1-20.8c39.2-4.8,56.8-4.3,64.2-3.4c2.2,5.1,3.6,9.6,4.5,12.8l-322.4,58.9
	L155.6,871.8z M537,831.2c0.9-3.2,2.3-7.7,4.5-12.7c7.4-0.9,25.1-1.4,64,3.4c32.6,4,74.6,11,124.7,20.7
	c54.5,10.6,107,22.2,138.2,29.4l-8.8,18.1L537,831.2z"/>
</svg>
