<?xml version="1.0" encoding="utf-8"?>
<!-- Generator: Adobe Illustrator 14.0.0, SVG Export Plug-In . SVG Version: 6.00 Build 43363)  -->
<!DOCTYPE svg PUBLIC "-//W3C//DTD SVG 1.1//EN" "http://www.w3.org/Graphics/SVG/1.1/DTD/svg11.dtd">
<svg version="1.1" id="Ebene_1" xmlns="http://www.w3.org/2000/svg" xmlns:xlink="http://www.w3.org/1999/xlink" x="0px" y="0px"
	 width="1024px" height="1024px" viewBox="0 0 1024 1024" enable-background="new 0 0 1024 1024" xml:space="preserve">
<path  d="M848,584c0,185.271-150.729,336-336,336c-185.271,0-336-150.729-336-336c0-185.271,150.729-336,336-336
	h250.552L607.075,381.809l31.311,36.382l204.5-176c7.606-6.546,10.337-17.132,6.846-26.54c-2.28-6.145-6.9-10.939-12.627-13.526
	L636.886,29.809l-31.311,36.382L761.052,200H512c-51.829,0-102.121,10.156-149.478,30.187
	c-45.729,19.342-86.793,47.026-122.051,82.285c-35.258,35.258-62.943,76.322-82.285,122.051C138.156,481.879,128,532.171,128,584
	s10.156,102.12,30.187,149.478c19.342,45.729,47.026,86.793,82.285,122.052c35.258,35.258,76.322,62.942,122.051,82.284
	C409.879,957.844,460.171,968,512,968s102.12-10.156,149.478-30.187c45.729-19.342,86.793-47.026,122.052-82.284
	c35.258-35.259,62.942-76.322,82.284-122.052C885.844,686.12,896,635.829,896,584H848z"/>
</svg>
