<?xml version="1.0" encoding="utf-8"?>
<!-- Generator: Adobe Illustrator 22.0.0, SVG Export Plug-In . SVG Version: 6.00 Build 0)  -->
<svg version="1.1" id="Ebene_1" xmlns="http://www.w3.org/2000/svg" xmlns:xlink="http://www.w3.org/1999/xlink" x="0px" y="0px"
	 viewBox="0 0 1024 1024" style="enable-background:new 0 0 1024 1024;" xml:space="preserve">
<style type="text/css">
	.st0{display:none;}
	.st1{fill:#2368BC;}
</style>
<g id="HG" class="st0">
</g>
<g>
	<path class="st1" d="M873.2,327.9c3.3-37.5-24.5-60.6-42.3-71.5c0.7-8.6,0.1-19.5-4.5-30.6c-3.5-8.3-9.9-14.6-18.2-17.8
		c-4.4-1.7-8.9-2.3-13.4-2.3c-2.3-12.5-8.9-25.1-23.6-32.2c-12.5-6.1-25.8-7.9-36.6-8c-0.6-3.9-1.4-8-2.5-12.3
		c-6.8-25.7-22.2-44.2-44.6-53.2c-29-11.7-65.2,5.1-85.3,17c-18.5-18.7-57.6-49.8-113.1-49.8c-58.8,0-93.4,38.6-108.1,60.1
		c-6.9-1.8-15.8-3.9-25.4-5.7c-31.8-5.9-54.5-5.1-69.5,2.5c-14.8,7.6-27.6,23.4-38,46.9c-3.5,7.8-6.1,15.2-7.9,20.7
		c-15,6.1-40.4,19.5-47.4,42.4c-5.1,16.8-4.2,41.1-2.7,57.6c-13.1,5.6-26.7,17.3-31.8,39.5c-4.7,20.5-0.2,37.6,6.4,49.6
		c-8.5,11.7-15.9,28.3-13.9,47.6c4.2,40.1,26.6,60.4,41.3,69.6c0.3,5.4,1,12,2.5,19.1c5.3,24.9,17.9,42.2,36.5,50.2
		c23,9.9,47.9,12.8,62.4,13.7c5.8,10.7,15.7,27.1,28.2,39.2c8.8,8.6,21.9,12.8,39.6,12.8c5.7,0,12-0.4,18.7-1.3
		c17.3-2.3,32.1-6.7,32.7-6.9c10-3,15.7-13.6,12.7-23.7c-3-10-13.6-15.7-23.7-12.7c-0.1,0-12.1,3.6-25.8,5.5
		c-21.1,2.9-27.3-0.8-27.7-1c-14.3-13.9-25.2-38-25.3-38.3c-3.1-7-10.1-11.4-17.7-11.2c-0.3,0-32.3,0.5-58.9-11
		c-15-6.4-16.6-35.1-16-44.6c0.6-8.8-4.4-16.7-12.8-19.3c-2.2-0.9-25.1-10.6-28.6-44c-1.6-15,11.6-26.7,12.6-27.6
		c4.6-3.6,7.5-8.7,7.5-14.5c0-5.8-2.4-11-7-14.6c-1.6-1.6-10.4-11.1-6.5-28c1.9-8.1,5.6-11,8.3-12.4c3.1-1.7,6.2-1.9,7-2
		c5.7,0.4,10.9-1.9,14.8-6.1c3.9-4.3,5.3-10.1,4.4-15.9c-2.4-15.4-4.7-44.8-0.6-58.2c2.1-6.8,18.7-16.6,32.1-20.8
		c6.4-2,11.2-7.1,12.9-13.5c4.4-17.6,16.8-46.6,29.3-53c11.5-5.8,51,0.3,80.6,9.8c9,2.9,18.8-1.3,22.9-9.9
		c0.3-0.5,26-52.5,82.2-52.5c57.9,0,94.1,47.5,94.4,47.9c3,4.1,7.5,6.8,12.5,7.5c5,0.8,10.1-0.5,14.1-3.5
		c16.8-12.4,48.5-27.9,63.1-22c27,11,24.6,47.9,24.5,49.4c-0.6,6.1,1.8,11.9,6.3,15.9c4.6,4,10.8,5.5,16.7,4.2
		c0.2,0,19.7-3.9,33.8,2.9c5.4,2.6,2.5,15.9,2.3,16.8c-2.2,7.2,0.1,15,5.9,19.9c5.8,4.9,13.9,5.8,20.7,2.4c2.7-1.3,6.3-2.4,9-2.8
		c1.8,7.8-0.4,15.4-0.7,16.4c-3.7,9.7,1.1,20.2,10.8,24.1c0.4,0.1,35.1,14.9,32.9,40.4c-2.3,27.1-31.6,40.1-33,40.7
		c-6,2.3-10.2,7.5-11.5,13.8c-1.3,6.3,0.8,12.8,5.3,17.3c13.4,13.4,39.1,47.6,28.3,62.6c-13.1,18.2-50.8,12.5-62.9,9.1
		c-8.1-2.3-16.8,1-21.3,8.1c-4.5,7.1-3.8,16.4,1.8,22.7c2,2.3,4.1,5,5.8,7.6c-5.8,0.8-12.1,1.1-16.5,0.9
		c-8.1-0.4-15.5,4.4-18.5,11.9c-2.5,6.3-11.5,26.2-19.1,34.9c-2.7,1.4-11.3,1.5-17.7,0.2c-10.3-2.2-20.4,4.3-22.6,14.5
		c-2.2,10.3,4.3,20.4,14.5,22.6c6,1.3,37,6.9,53.6-11.6c8.6-9.5,16.4-24.4,21.3-34.8c9.5-0.6,22.2-2.4,32.4-7.3
		c7.5-3.7,12.8-10.4,14.4-18.4c0.6-3.1,0.7-6.3,0.3-9.7c22.3-0.1,48.9-5.7,65.3-28.4c10.2-14.1,17.6-39-5.2-77
		c-3.7-6.1-7.7-11.8-11.5-16.7C853.5,376.2,870.8,356.9,873.2,327.9z"/>
	<path class="st1" d="M472.7,566.4c-10.4,1.4-17.7,10.9-16.4,21.3c0,0.3,4,31.7,4.1,122.4c0.1,60.6-22.3,112.3-66.6,153.6
		c-33.5,31.3-67.8,44.8-68.7,45.2c-9.8,3.7-14.7,14.7-11,24.5c2.9,7.6,10.1,12.3,17.8,12.3c2.2,0,4.5-0.4,6.7-1.2
		c1.6-0.6,40.8-15.7,80-51.8c52.3-48.2,79.9-111.3,79.8-182.5c-0.1-93.2-4.3-126-4.5-127.4C492.7,572.3,483.1,565,472.7,566.4z"/>
	<path class="st1" d="M752.4,920c-0.3-0.1-27.9-10.8-61.1-41.1c-95.6-87.3-83.6-290.5-83.5-292.5c0.7-10.5-7.2-19.5-17.7-20.2
		c-10.5-0.7-19.5,7.2-20.2,17.7c-0.1,2.3-3.5,56.1,6.1,122.4c5.7,39.3,14.8,74.8,27.1,105.7c15.7,39.5,36.8,71.5,62.5,95
		c39.2,35.8,72.3,48.2,73.7,48.7c2.2,0.8,4.4,1.2,6.5,1.2c7.7,0,15-4.8,17.8-12.5C767.4,934.5,762.3,923.6,752.4,920z"/>
	<path class="st1" d="M394.1,298.9c7.1-0.6,15.5,5.3,18,7.5c4.9,4.7,11.9,6.3,18.5,4.3c6.6-2,11.5-7.5,13-14.2
		c3.5-15.5,14.1-38.1,22.8-38.1c0,0,0.1,0,0.1,0c10.5,0,19-8.5,19-18.9c0-10.5-8.4-19-18.9-19.1c-0.1,0-0.1,0-0.2,0
		c-27.6,0-43.6,24.2-52,43.9c-6.6-2.4-14.3-4-22.6-3.4c-10,0.7-24.7,4.8-37.7,20.8c-13.2,16.2-19.3,39.3-17.8,66.8
		c1.1,19.4,5.6,34.7,5.8,35.3c2.5,8.2,10,13.5,18.2,13.5c1.8,0,3.6-0.3,5.4-0.8c10-3,15.8-13.6,12.8-23.6c-3.7-12.5-10-48.8,5-67.3
		C388.6,299.4,392.7,299,394.1,298.9z"/>
	<path class="st1" d="M722.4,417.4c2.2,0.8,4.5,1.2,6.7,1.2c7.7,0,14.9-4.7,17.8-12.3c10.4-27.7,9.1-48.9-3.8-62.9
		c-10.8-11.8-26.6-14.4-39.5-14.1c-3.1-17.7-10-41.6-25.4-53.6c-11.2-8.7-28.6-12.6-53.1-11.7c-15.9,0.5-29.4,2.9-30,3
		c-10.3,1.9-17.2,11.7-15.3,22.1c1.9,10.3,11.7,17.2,22.1,15.3c0.1,0,11.3-2,24.5-2.5c22.4-0.8,28.2,3.6,28.4,3.8
		c6.3,4.9,12.1,28.3,13.1,46c0.3,5.8,3.2,11.1,7.9,14.5c4.7,3.4,10.6,4.4,16.2,2.9c9.5-2.6,21-2.1,23,0.1c0.7,0.8,2.3,7.6-3.8,23.9
		C707.6,402.8,712.6,413.7,722.4,417.4z"/>
</g>
</svg>
