<?xml version="1.0" encoding="utf-8"?>
<!-- Generator: Adobe Illustrator 22.0.0, SVG Export Plug-In . SVG Version: 6.00 Build 0)  -->
<svg version="1.1" id="Ebene_1" xmlns="http://www.w3.org/2000/svg" xmlns:xlink="http://www.w3.org/1999/xlink" x="0px" y="0px"
	 viewBox="0 0 1024 1024" style="enable-background:new 0 0 1024 1024;" xml:space="preserve">
<style type="text/css">
	.st0{display:none;}
</style>
<g id="HG" class="st0">
</g>
<path class="st1" d="M920.1,498.3c-20.9-39.5-50.6-74.8-88.4-105.1C755,331.8,653.4,298,545.6,298H161.7L385,105.9l-31.3-36.4
	L86.1,299.7c-6.2,2.5-11.2,7.5-13.6,13.9c-3.5,9.4-0.8,20,6.8,26.5l272.3,234.4l31.3-36.4L159.7,346h385.9
	C743.8,346,905,473,905,629S743.8,912,545.6,912H163v48h382.6c107.8,0,209.4-33.8,286.1-95.2c37.8-30.3,67.5-65.6,88.4-105.1
	C941.9,718.4,953,674.4,953,629S941.9,539.6,920.1,498.3z"/>
</svg>
