<?xml version="1.0" encoding="utf-8"?>
<!-- Generator: Adobe Illustrator 22.0.0, SVG Export Plug-In . SVG Version: 6.00 Build 0)  -->
<svg version="1.1" id="Ebene_1" xmlns="http://www.w3.org/2000/svg" xmlns:xlink="http://www.w3.org/1999/xlink" x="0px" y="0px"
	 viewBox="0 0 1024 1024" style="enable-background:new 0 0 1024 1024;" xml:space="preserve">
<style type="text/css">
	.st0{display:none;}
	.st1{fill:#2368BC;}
</style>
<g id="HG" class="st0">
</g>
<g>
	<path class="st1" d="M957.2,617.2l-87.1-100.9c-4.6-5.3-11.2-8.3-18.2-8.3H679v-59c0-13.3-10.7-24-24-24H403.1l55.8-91.2l22-0.1
		c0.1,0,0.1,0,0.2,0c19.1-0.4,36.6-3.3,52-8.5c0.1,0,0.1,0,0.2-0.1l19.5-6.9c8.1-2.9,29.5-10.7,29.2-27.9c0-0.1,0-0.2,0-0.2
		c-0.6-14.6-16.6-21.4-30.6-25.7l-19.7-5.9c0,0-0.1,0-0.1,0c-15.3-4.4-32.6-6.4-51.4-6c-0.1,0-0.1,0-0.2,0l-23,0.9l-129.6-189
		c-2.3-3.4-6.1-5.3-10.2-5.2L272,60.1c-4,0.1-7.7,2.2-9.8,5.6c-2.1,3.4-2.5,7.6-0.8,11.3l81,183.8l-151.2,8.5l-29.5-42.6
		c-2.3-3.3-6.1-5.3-10.2-5.2l-33.9,0.9c-4.1,0.1-7.8,2.3-9.9,5.7c-2.1,3.5-2.3,7.8-0.6,11.4l29.7,62.3l-26.4,63.6
		c-1.6,3.8-1.1,8,1.2,11.4c2.3,3.4,6.1,5.3,10.2,5.2l33.9-0.9c4-0.1,7.8-2.2,9.9-5.7l27.3-44l151.4,0.9L308.9,425H88
		c-13.3,0-24,10.7-24,24v324c0,13.3,10.7,24,24,24h567h109.3l34,45.4c4.5,6,11.6,9.6,19.2,9.6H939c13.3,0,24-10.7,24-24V632.9
		C963,627.1,960.9,621.6,957.2,617.2z M112,473h178.5l-18,47c-1.4,3.7-0.9,7.9,1.4,11.2c2.3,3.2,5.9,5.1,9.8,5.1c0.1,0,0.2,0,0.3,0
		l45.2-1.1c4.1-0.1,7.8-2.3,9.9-5.7l34.6-56.5H631v59v217H112V473z M915,804h-85.5l-34-45.4c-4.5-6-11.6-9.6-19.2-9.6H679V556h161.9
		l74.1,85.8V804z"/>
	<path class="st1" d="M180.4,804.4c0,0-0.1,0-0.1,0c-47.5,0-86.2,38.6-86.3,86.2c-0.1,47.6,38.6,86.4,86.2,86.4c0,0,0.1,0,0.1,0
		c47.5,0,86.2-38.6,86.3-86.2c0-23.1-8.9-44.7-25.2-61.1C225.1,813.5,203.5,804.4,180.4,804.4z M180.3,929
		C180.3,929,180.3,929,180.3,929c-21.2,0-38.3-17.2-38.3-38.4c0,0,0,0,0,0c0-21.1,17.2-38.2,38.3-38.2c0,0,0,0,0.1,0
		c10.2,0,19.8,4,27.1,11.3s11.2,16.9,11.2,27.1C218.6,911.9,201.4,929,180.3,929z"/>
	<path class="st1" d="M685.1,804.5c-47.6,0-86.3,38.7-86.3,86.3s38.7,86.3,86.3,86.3s86.3-38.7,86.3-86.3S732.7,804.5,685.1,804.5z
		 M685.1,929.1c-21.1,0-38.3-17.2-38.3-38.3c0-21.1,17.2-38.3,38.3-38.3c21.1,0,38.3,17.2,38.3,38.3
		C723.4,911.9,706.2,929.1,685.1,929.1z"/>
</g>
</svg>
