<?xml version="1.0" encoding="utf-8"?>
<!-- Generator: Adobe Illustrator 14.0.0, SVG Export Plug-In . SVG Version: 6.00 Build 43363)  -->
<!DOCTYPE svg PUBLIC "-//W3C//DTD SVG 1.1//EN" "http://www.w3.org/Graphics/SVG/1.1/DTD/svg11.dtd">
<svg version="1.1" id="Ebene_1" xmlns="http://www.w3.org/2000/svg" xmlns:xlink="http://www.w3.org/1999/xlink" x="0px" y="0px"
	 width="1024px" height="1024px" viewBox="0 0 1024 1024" enable-background="new 0 0 1024 1024" xml:space="preserve">
<g>
	<path  d="M64.522,786.383l-0.541,2.504v2.561"/>
</g>
<g>
	<path  d="M959.611,559.451V358.804c0.512-4.739,0.777-9.509,0.777-14.309c0-66.074-48.822-126.819-137.474-171.044
		c-83.346-41.579-193.626-64.477-310.527-64.477c-116.9,0-227.181,22.898-310.527,64.477
		C113.21,217.676,64.388,278.421,64.388,344.495c0,1.095,0.015,2.188,0.042,3.28c-0.531,1.985-0.819,4.069-0.819,6.222v205.457
		c-0.002,0.148,0,0.297,0,0.445v166.816c-0.013,0.919,0.029,1.842,0.124,2.766c0.001,0.01,0.002,0.02,0.003,0.029
		c0.039,0.373,0.085,0.746,0.142,1.119c0.012,0.082,0.027,0.162,0.041,0.244c0.048,0.294,0.098,0.588,0.157,0.881
		c0.031,0.155,0.067,0.309,0.101,0.463c0.048,0.216,0.095,0.432,0.149,0.646c0.057,0.229,0.121,0.454,0.184,0.68
		c0.04,0.141,0.077,0.281,0.12,0.421c0.089,0.298,0.187,0.592,0.288,0.884c0.025,0.071,0.047,0.144,0.073,0.215
		c0.126,0.355,0.261,0.706,0.403,1.053c0.007,0.018,0.013,0.034,0.02,0.051c0.233,0.565,0.489,1.119,0.763,1.662
		c12.606,26.422,33.69,51.142,62.696,73.476c27.482,21.161,61.504,39.766,101.12,55.296c80.809,31.681,178.19,48.426,281.617,48.426
		c103.426,0,200.807-16.745,281.616-48.426c39.616-15.53,73.638-34.135,101.12-55.296c28.996-22.326,50.076-47.036,62.684-73.448
		c0.28-0.554,0.542-1.119,0.779-1.697c0.002-0.004,0.003-0.008,0.005-0.012c0.147-0.359,0.287-0.723,0.417-1.091
		c0.022-0.062,0.041-0.123,0.063-0.185c0.104-0.302,0.205-0.605,0.298-0.913c0.04-0.132,0.075-0.265,0.112-0.397
		c0.066-0.233,0.132-0.466,0.19-0.702c0.053-0.209,0.099-0.419,0.146-0.629c0.035-0.159,0.072-0.318,0.104-0.479
		c0.059-0.29,0.108-0.581,0.156-0.871c0.014-0.085,0.029-0.168,0.042-0.253c0.056-0.37,0.103-0.741,0.141-1.111
		c0.002-0.013,0.003-0.024,0.005-0.037c0.094-0.923,0.136-1.847,0.123-2.766V559.902
		C959.612,559.752,959.613,559.602,959.611,559.451z M140.014,277.682c19.242-22.695,47.259-43.312,83.274-61.279
		c76.82-38.324,179.491-59.429,289.1-59.429c109.608,0,212.279,21.105,289.1,59.429c36.015,17.967,64.032,38.584,83.274,61.279
		c18.331,21.621,27.626,44.1,27.626,66.813c0,1.279-0.039,2.557-0.098,3.834c-0.44,1.818-0.68,3.714-0.68,5.667v1.674
		c-2.547,18.902-11.53,37.569-26.849,55.637c-19.242,22.695-47.26,43.312-83.274,61.279c-76.821,38.323-179.492,59.429-289.1,59.429
		c-109.608,0-212.279-21.105-289.1-59.429c-36.015-17.967-64.033-38.584-83.274-61.279c-18.331-21.621-27.626-44.1-27.626-66.813
		S121.683,299.303,140.014,277.682z M201.861,515.539c83.346,41.578,193.626,64.477,310.527,64.477
		c116.901,0,227.181-22.898,310.527-64.477c36.547-18.232,66.317-39.274,88.696-62.337v100.876
		c-20.491,38.567-68.468,74.134-135.903,100.571c-74.208,29.093-167.999,45.114-264.097,45.114
		c-96.099,0-189.891-16.021-264.098-45.114c-67.435-26.438-115.412-62.005-135.902-100.572V451.594
		C134.158,475.289,164.466,496.883,201.861,515.539z M775.708,821.911c-74.208,29.093-167.999,45.114-264.097,45.114
		c-96.099,0-189.891-16.021-264.098-45.114c-67.435-26.438-115.412-62.005-135.902-100.572V629.6
		c5.406,4.914,11.148,9.734,17.263,14.442c27.482,21.161,61.504,39.766,101.12,55.296c80.809,31.681,178.19,48.426,281.617,48.426
		c103.426,0,200.807-16.745,281.616-48.426c39.616-15.53,73.638-34.135,101.12-55.296c6.115-4.709,11.857-9.529,17.264-14.443
		v91.741C891.12,759.907,843.144,795.474,775.708,821.911z"/>
	<path  d="M451.577,307.953l45.035-35.92V466.19c0,13.255,10.745,24,24,24s24-10.745,24-24v-244
		c0-9.219-5.281-17.624-13.588-21.624c-8.308-4.001-18.17-2.887-25.377,2.861l-84,67c-10.362,8.265-12.063,23.366-3.797,33.728
		C426.115,314.518,441.214,316.219,451.577,307.953z"/>
</g>
</svg>
