<?xml version="1.0" encoding="utf-8"?>
<!-- Generator: Adobe Illustrator 14.0.0, SVG Export Plug-In . SVG Version: 6.00 Build 43363)  -->
<!DOCTYPE svg PUBLIC "-//W3C//DTD SVG 1.1//EN" "http://www.w3.org/Graphics/SVG/1.1/DTD/svg11.dtd">
<svg version="1.1" id="Ebene_1" xmlns="http://www.w3.org/2000/svg" xmlns:xlink="http://www.w3.org/1999/xlink" x="0px" y="0px"
	 width="1024px" height="1024px" viewBox="0 0 1024 1024" enable-background="new 0 0 1024 1024" xml:space="preserve">
<g>
	<path  d="M872,64H152c-48.523,0-88,39.477-88,88v720c0,48.523,39.477,88,88,88h720c48.523,0,88-39.477,88-88V152
		C960,103.477,920.523,64,872,64z M912,872c0,22.056-17.944,40-40,40H152c-22.056,0-40-17.944-40-40V152c0-22.056,17.944-40,40-40
		h720c22.056,0,40,17.944,40,40V872z"/>
	<path  d="M817.984,234.513H512h0H206.015c-13.255,0-24,10.745-24,24v197.99c0,13.255,10.745,24,24,24H511.98
		c0.006,0,0.013,0,0.019,0h305.985c13.255,0,24-10.745,24-24v-197.99C841.984,245.258,831.239,234.513,817.984,234.513z
		 M230.015,282.513H488v149.99H230.015V282.513z M793.984,432.503H536v-149.99h257.984V432.503z"/>
	<path  d="M817.984,543.497H512H206.015c-13.255,0-24,10.745-24,24v197.99c0,13.255,10.745,24,24,24H512h305.985
		c13.255,0,24-10.745,24-24v-197.99C841.984,554.242,831.239,543.497,817.984,543.497z M230.015,591.497H488v149.99H230.015V591.497
		z M793.984,741.487H536v-149.99h257.984V741.487z"/>
</g>
</svg>
