<?xml version="1.0" encoding="utf-8"?>
<!-- Generator: Adobe Illustrator 22.0.0, SVG Export Plug-In . SVG Version: 6.00 Build 0)  -->
<svg version="1.1" id="Ebene_1" xmlns="http://www.w3.org/2000/svg" xmlns:xlink="http://www.w3.org/1999/xlink" x="0px" y="0px"
	 viewBox="0 0 1024 1024" style="enable-background:new 0 0 1024 1024;" xml:space="preserve">
<style type="text/css">
	.st0{display:none;}
</style>
<g id="HG" class="st0">
</g>
<path class="st1" d="M961.9,372c-1.6-13.2-13.6-22.5-26.8-20.9L620.6,390H147H95.7H86c-13.3,0-24,10.7-24,24s10.7,24,24,24h3.9
	c-1.4,21.3-2.1,52.5,2.2,85c13.7,104.1,65.9,135.8,107.3,144.1c22.1,4.4,144,5.6,157.8,5.7c11.5,0.1,27.4,0.2,44.8,0.2
	c45.1,0,100.3-0.7,115.5-3.9l0,0c44.3-9.3,75.9-56.6,94-140.5c7.4-34.3,11.1-68.3,12.8-90.8L941,398.7
	C954.2,397.1,963.5,385.1,961.9,372z M564,521.2c-13.1,59.5-33.7,96.3-56.3,101l4.9,23.5l-4.9-23.5c-9.1,1.9-63.6,3.4-150,2.6
	c-81.6-0.7-139.8-3-148.9-4.8c-37.7-7.6-60.9-42-69-102.4c-4.1-30.5-3.2-60.6-1.8-79.6h8.9h429.1C574.4,458.5,571,489.6,564,521.2z"
	/>
</svg>
