<?xml version="1.0" encoding="utf-8"?>
<!-- Generator: Adobe Illustrator 14.0.0, SVG Export Plug-In . SVG Version: 6.00 Build 43363)  -->
<!DOCTYPE svg PUBLIC "-//W3C//DTD SVG 1.1//EN" "http://www.w3.org/Graphics/SVG/1.1/DTD/svg11.dtd">
<svg version="1.1" id="Ebene_1" xmlns="http://www.w3.org/2000/svg" xmlns:xlink="http://www.w3.org/1999/xlink" x="0px" y="0px"
	 width="1024px" height="1024px" viewBox="0 0 1024 1024" enable-background="new 0 0 1024 1024" xml:space="preserve">
<path  d="M913.537,112.084c-30.127-30.126-63.247-45.402-98.44-45.402c-40.594,0-68.033,20.752-71.028,23.119
	l-1.101,0.87l-516.148,516.14c-5.267,2.176-9.784,6.22-12.453,11.756L66.38,925.579c-4.457,9.246-2.54,20.304,4.769,27.511
	c4.597,4.532,10.686,6.911,16.857,6.911c3.641-0.001,7.311-0.828,10.717-2.53l303.438-151.563c2.863-1.431,5.312-3.359,7.301-5.624
	c0.579-0.256,1.001-0.451,1.242-0.564l3.771-1.781l516.893-516.885l0.619-0.62l0.573-0.664c1.826-2.114,17.997-21.525,23.577-51.797
	C961.342,199.742,958.175,156.721,913.537,112.084z M249.45,770.273c14.922,14.922,31.958,26.011,50.5,33.033l-113.356,56.619
	l-23.807-23.807l54.835-113.761C223.761,738.174,233.743,754.567,249.45,770.273z M909.237,217.489
	c-2.556,16.365-10.782,27.979-12.736,30.549L386.916,757.615c-6.209,2.28-20.287,6.622-37.42,6.622
	c-25.348-0.001-47.589-9.39-66.106-27.905c-40.621-40.62-23.813-87.702-18.53-99.68l509.745-509.736
	c3.605-2.447,19.374-12.234,40.492-12.234c22,0,43.701,10.545,64.499,31.343C903.012,169.441,912.985,193.485,909.237,217.489z"/>
</svg>
