<?xml version="1.0" encoding="utf-8"?>
<!-- Generator: Adobe Illustrator 20.0.0, SVG Export Plug-In . SVG Version: 6.00 Build 0)  -->
<svg version="1.1" id="Ebene_1" xmlns="http://www.w3.org/2000/svg" xmlns:xlink="http://www.w3.org/1999/xlink" x="0px" y="0px"
	 width="1024px" height="922px" viewBox="0 0 1024 922" style="enable-background:new 0 0 1024 922;" xml:space="preserve">
<style type="text/css">
	.st0{fill:#2368BC;}
</style>
<g>
	<path class="st0" d="M837.1,279L582.9,20.2c-4.5-4.6-10.7-7.2-17.1-7.2H204c-13.3,0-24,10.7-24,24v848c0,13.3,10.7,24,24,24h616
		c13.3,0,24-10.7,24-24V295.8C844,289.5,841.5,283.5,837.1,279z M796,305.6v2.4H555V61h0.8L796,305.6z M228,861V61h279v271
		c0,13.3,10.7,24,24,24h265v505H228z"/>
	<rect x="307" y="308" class="st0" width="154" height="48"/>
	<rect x="307" y="457" class="st0" width="409" height="48"/>
	<rect x="307" y="606" class="st0" width="409" height="48"/>
</g>
</svg>
