<?xml version="1.0" encoding="utf-8"?>
<!-- Generator: Adobe Illustrator 22.0.0, SVG Export Plug-In . SVG Version: 6.00 Build 0)  -->
<svg version="1.1" id="Ebene_1" xmlns="http://www.w3.org/2000/svg" xmlns:xlink="http://www.w3.org/1999/xlink" x="0px" y="0px"
	 viewBox="0 0 1024 1024" style="enable-background:new 0 0 1024 1024;" xml:space="preserve">
<style type="text/css">
	.st0{display:none;}
	.st2{stroke:#2368BC;stroke-width:48;stroke-linejoin:round;}
</style>
<g id="HG" class="st0">
</g>
<g id="vwicn210">
	<g>
		<path class="st1" d="M875.4,107H148.5c-46.6,0-84.5,37.3-84.5,83.1v643.8c0,45.8,37.9,83.1,84.5,83.1H546v-48H148.5
			c-20.1,0-36.5-15.7-36.5-35.1V343h799.9v199h48V190.1C959.9,144.3,922,107,875.4,107z M112,295V190.1c0-19.4,16.4-35.1,36.5-35.1
			H299v92h48v-92h330v92h48v-92h150.4c20.1,0,36.5,15.7,36.5,35.1V295H112z"/>
		<g>
			<path class="st1" d="M397.9,786.8c-66.2,0-120-52.8-120-117.8h48c0,38.5,32.3,69.8,72,69.8c39.8,0,72.1-31.3,72.1-69.8
				s-32.3-69.8-71.9-69.8c-13.3,0-24-10.7-24-24s10.7-24,24-24c29.7,0,53.9-20.5,53.9-45.7s-24.3-45.7-54.2-45.7
				c-29.8,0-54,20.5-54,45.7h-48c0-51.7,45.8-93.7,102-93.7c56.4,0,102.2,42,102.2,93.7c0,26.7-12.2,50.9-31.8,68
				c30.2,21.4,49.8,56.3,49.8,95.5C518,734,464.1,786.8,397.9,786.8z"/>
		</g>
		<g>
			<path class="st2" d="M661.8,762.8"/>
			<path class="st1" d="M609.1,545.3l-38.3-29l72-95c6.2-8.2,17-11.5,26.8-8.3c9.8,3.3,16.4,12.4,16.4,22.7V544h-48v-36.8
				L609.1,545.3z"/>
			<path class="st2" d="M722.3,753.6"/>
			<path class="st2" d="M603,753.6"/>
		</g>
	</g>
	<path class="st3" d="M785.5,960.8c-6.7,0-13.2-2.8-17.8-7.9l-127.2-140c-8.9-9.8-8.2-25,1.6-33.9c9.8-8.9,25-8.2,33.9,1.6
		l104.6,115.1L918,645.3c6.4-11.6,21-15.9,32.6-9.5s15.9,21,9.5,32.6l-153.5,280c-3.7,6.8-10.5,11.4-18.2,12.3
		C787.4,960.7,786.4,960.8,785.5,960.8z"/>
</g>
</svg>
