<?xml version="1.0" encoding="utf-8"?>
<!-- Generator: Adobe Illustrator 14.0.0, SVG Export Plug-In . SVG Version: 6.00 Build 43363)  -->
<!DOCTYPE svg PUBLIC "-//W3C//DTD SVG 1.1//EN" "http://www.w3.org/Graphics/SVG/1.1/DTD/svg11.dtd">
<svg version="1.1" id="Ebene_1" xmlns="http://www.w3.org/2000/svg" xmlns:xlink="http://www.w3.org/1999/xlink" x="0px" y="0px"
	 width="1024px" height="1024px" viewBox="0 0 1024 1024" enable-background="new 0 0 1024 1024" xml:space="preserve">
<path  d="M848.134,912h-80.03c0.042-0.584,0.071-1.172,0.071-1.768c0-60.422-17.727-145.526-45.16-216.814
	C699.815,633.133,660.18,557.628,600,526.271v-35.007c59.934-31.516,99.521-105.37,122.72-164.153
	c27.612-69.972,45.455-153.713,45.455-213.342c0-0.595-0.029-1.184-0.071-1.768h80.03c13.255,0,24-10.745,24-24s-10.745-24-24-24
	H175.866c-13.255,0-24,10.745-24,24s10.745,24,24,24h80.031c-0.042,0.584-0.072,1.173-0.072,1.768
	c0,60.047,17.75,144.051,45.219,214.008C324.201,386.75,363.791,460.712,424,491.844v35.007
	c-59.909,31.735-99.536,107.133-122.779,167.233c-27.577,71.306-45.396,156.148-45.396,216.147c0,0.596,0.029,1.184,0.072,1.768
	h-80.031c-13.255,0-24,10.745-24,24s10.745,24,24,24h672.268c13.255,0,24-10.745,24-24S861.389,912,848.134,912z M456.505,564.711
	L472,558.839v-99.31l-15.701-5.787c-40.885-15.068-80.155-66.034-110.576-143.51c-28.943-73.71-41.898-151.786-41.898-196.465
	c0-0.595-0.029-1.184-0.072-1.768h416.493c-0.042,0.584-0.071,1.173-0.071,1.768c0,44.314-13.019,122.019-42.104,195.722
	c-30.516,77.327-69.785,128.425-110.575,143.883L552,459.246v99.31l15.7,5.786c40.736,15.013,79.985,66.976,110.518,146.315
	c16.396,42.606,27.665,86.448,34.363,124.655l-200.475-114.02L311.937,833.106c6.784-37.41,17.957-80.088,34.053-121.707
	C376.617,632.207,415.865,580.112,456.505,564.711z M303.825,910.232c0-6.004,0.243-12.641,0.721-19.783
	c2.785-0.417,5.542-1.329,8.146-2.783l199.202-111.273l199.252,113.325c2.696,1.533,5.564,2.479,8.459,2.893
	c0.378,6.316,0.569,12.221,0.569,17.622c0,0.596,0.029,1.184,0.071,1.768H303.753C303.796,911.416,303.825,910.828,303.825,910.232z
	"/>
</svg>
