<?xml version="1.0" encoding="utf-8"?>
<!-- Generator: Adobe Illustrator 14.0.0, SVG Export Plug-In . SVG Version: 6.00 Build 43363)  -->
<!DOCTYPE svg PUBLIC "-//W3C//DTD SVG 1.1//EN" "http://www.w3.org/Graphics/SVG/1.1/DTD/svg11.dtd">
<svg version="1.1" id="Ebene_1" xmlns="http://www.w3.org/2000/svg" xmlns:xlink="http://www.w3.org/1999/xlink" x="0px" y="0px"
	 width="1024px" height="1024px" viewBox="0 0 1024 1024" enable-background="new 0 0 1024 1024" xml:space="preserve">
<g>
	<path  d="M837.319,329.979L582.941,71.176C578.43,66.586,572.262,64,565.825,64H203.797c-13.255,0-24,10.745-24,24
		v848c0,13.255,10.745,24,24,24h616.406c13.255,0,24-10.745,24-24V346.803C844.203,340.509,841.73,334.468,837.319,329.979z
		 M796.203,356.623v2.183H555.049V112h0.714L796.203,356.623z M227.797,912V112h279.251v270.806c0,13.255,10.745,24,24,24h265.154
		V912H227.797z"/>
	<path  d="M533.958,473.313C530.12,464.613,521.508,459,512,459c-9.508,0-18.12,5.613-21.958,14.313l-120,272
		c-5.35,12.127,0.144,26.295,12.271,31.646c12.125,5.347,26.295-0.145,31.646-12.271L454.85,672H569.15l40.892,92.688
		c3.96,8.977,12.751,14.319,21.971,14.318c3.235,0,6.524-0.658,9.675-2.048c12.127-5.351,17.621-19.519,12.271-31.646
		L533.958,473.313z M476.026,624L512,542.459L547.974,624H476.026z"/>
</g>
</svg>
