<?xml version="1.0" encoding="utf-8"?>
<!-- Generator: Adobe Illustrator 14.0.0, SVG Export Plug-In . SVG Version: 6.00 Build 43363)  -->
<!DOCTYPE svg PUBLIC "-//W3C//DTD SVG 1.1//EN" "http://www.w3.org/Graphics/SVG/1.1/DTD/svg11.dtd">
<svg version="1.1" id="Ebene_1" xmlns="http://www.w3.org/2000/svg" xmlns:xlink="http://www.w3.org/1999/xlink" x="0px" y="0px"
	 width="1024px" height="1024px" viewBox="0 0 1024 1024" enable-background="new 0 0 1024 1024" xml:space="preserve">
<g>
	<path  d="M64.522,786.383l-0.541,2.504v2.561"/>
</g>
<path  d="M953.116,329.979L698.738,71.176c-4.512-4.59-10.68-7.176-17.116-7.176H319.594c-13.255,0-24,10.745-24,24
	v375.38l-14.224,14.243l-0.734,0.769c-7.372,8.066-19.308,22.8-36.486,45.037l-15.086,18.849l-0.184,0.232
	c-21.038,26.959-28.058,32.326-29.252,33.128c-0.173,0.117-4.415,2.856-18.682,2.856h-78.471l-6.618,13.323
	C74.718,634.373,64,678.768,64,723.766c0,43.554,9.632,87.753,28.63,131.37l6.279,14.416h86.366
	c37.481,38.848,78.486,68.069,122.013,86.93l3.721,1.612l4.044,0.301c14.552,1.08,25.091,1.605,32.217,1.605H452h1.262H936
	c13.255,0,24-10.745,24-24V346.803C960,340.509,957.528,334.467,953.116,329.979z M912,356.623v2.184H670.846V112h0.714L912,356.623
	z M452,912H347.27c-5.22,0-13.468-0.396-24.551-1.177c-38.845-17.507-75.651-44.927-109.46-81.551l-7.127-7.721h-75.374
	C118.303,788.786,112,755.961,112,723.766c0-32.897,6.943-65.554,20.658-97.271h48.288c19.554,0,34.421-3.603,45.452-11.015
	c6.281-4.22,16.529-12.959,40.232-43.323l15.126-18.897l0.257-0.326c15.915-20.605,27.253-34.657,33.713-41.783l105.499-105.642
	l23.181-97.309c52.376,14.171,59.323,44.777,59.323,70.249c0,8.001-3.338,27.319-25.693,66.792l-8.151,14.391l-0.11,0.196
	c-1.323,2.387-2.605,4.686-3.848,6.913c-14.37,25.761-24.753,44.374-29.365,77.056l-3.86,27.354h42.845
	c43.84,0,82.792,8.969,115.77,26.656c23.749,12.741,35.791,28.917,35.791,48.076c0,14.326-3.842,21.054-22.84,39.992l-13.939,13.896
	l10.899,16.39c3.683,5.539,7.944,27.979,7.944,38.44c0,10.138-2.012,21.47-26.029,27.627l-21.685,5.559l4.038,22.019
	c1.113,6.068,1.279,9.229,1.279,10.571c0,10.199,0,25.611-36.587,28.492l-26.023,2.049l4.224,25.76
	c0.674,4.115,0.764,5.712,0.774,5.952c-0.019,12.237-4.686,17.033-9.24,20.103c-6.283,4.229-19.479,9.27-46.661,9.27H452z
	 M551.766,912c2.361-5.848,3.968-12.146,4.777-18.863c14.378-3.614,26.279-9.587,35.541-17.856
	c10.188-9.098,22.304-25.738,22.683-53.563c27.521-13.017,42.405-36.284,42.405-67.118c0-7.897-1.972-28.705-7.647-46.565
	c15.096-16.746,25.583-34.306,25.583-62.153c0-37.14-21.698-69.235-61.101-90.375c-36.021-19.319-77.346-30.069-123.032-32.029
	c4.013-10.305,9.519-20.175,16.871-33.354c1.247-2.235,2.533-4.542,3.859-6.935l8.097-14.293
	c21.483-37.934,31.927-67.52,31.927-90.447c0-31.506-9.292-57.823-27.619-78.219c-17.631-19.622-43.505-33.334-76.902-40.756
	l-38.376-9.072l-31.156,130.789l-34.081,34.127V112h279.251v270.806c0,13.255,10.745,24,24,24H912V912H551.766z"/>
</svg>
