<?xml version="1.0" encoding="utf-8"?>
<!-- Generator: Adobe Illustrator 14.0.0, SVG Export Plug-In . SVG Version: 6.00 Build 43363)  -->
<!DOCTYPE svg PUBLIC "-//W3C//DTD SVG 1.1//EN" "http://www.w3.org/Graphics/SVG/1.1/DTD/svg11.dtd">
<svg version="1.1" id="Ebene_1" xmlns="http://www.w3.org/2000/svg" xmlns:xlink="http://www.w3.org/1999/xlink" x="0px" y="0px"
	 width="1024px" height="1024px" viewBox="0 0 1024 1024" enable-background="new 0 0 1024 1024" xml:space="preserve">
<path  d="M954.714,147.08c-0.772-12.665-11.269-22.54-23.956-22.54H826.431V88c0-13.255-10.745-24-24-24H428.95
	c-13.255,0-24,10.745-24,24v36.54H274.74c-6.684,0-13.065,2.788-17.608,7.692c-4.542,4.904-6.833,11.48-6.322,18.145
	c0.089,1.156,8.862,117.078,8.397,247.377c-0.764,214.002-24.736,300.777-44.712,335.888
	c-71.56,125.779-140.94,183.169-141.596,183.705c-7.902,6.396-10.917,17.079-7.523,26.663S77.833,960,88,960h648.644
	c5.497,0,10.828-1.887,15.101-5.346c3.095-2.505,76.661-62.893,153.116-197.276c33.154-58.274,51.55-179.205,54.676-359.435
	C961.828,265.79,954.785,148.251,954.714,147.08z M452.95,112h325.481v36.54v21.955H452.95V148.54V112z M911.543,397.111
	c-3.718,214.364-28.374,301.326-48.403,336.531C803.866,837.826,746.088,895.087,727.602,912H146.329
	c28.901-32.003,68.981-82.722,109.888-154.622c33.212-58.377,50.368-179.42,50.992-359.768c0.33-95.381-4.216-183.155-6.806-225.071
	H404.95v21.955c0,13.255,10.745,24,24,24h373.481c13.255,0,24-10.745,24-24V172.54h81.544
	C909.865,212.54,913.214,300.828,911.543,397.111z"/>
</svg>
