<?xml version="1.0" encoding="utf-8"?>
<!-- Generator: Adobe Illustrator 22.0.0, SVG Export Plug-In . SVG Version: 6.00 Build 0)  -->
<svg version="1.1" id="Ebene_1" xmlns="http://www.w3.org/2000/svg" xmlns:xlink="http://www.w3.org/1999/xlink" x="0px" y="0px"
	 viewBox="0 0 1024 1024" style="enable-background:new 0 0 1024 1024;" xml:space="preserve">
<style type="text/css">
	.st0{display:none;}
	.st1{fill:#2368BC;}
</style>
<g id="HG" class="st0">
</g>
<path class="st1" d="M816.9,126.7c-40.6-40.6-94.6-63-152.1-63s-111.5,22.4-152.1,63c-40.6,40.6-63,94.6-63,152.1
	c0,16.7,1.9,33.1,5.6,49L183,605.7l0.6,10.6c0.2,3.4,2.5,29.5,27.1,62.3c-23.2,19.5-64.5,61.7-66.5,117.3
	c-1.8,50.6,24.6,67.4,43.9,79.6c18.2,11.6,31.4,19.9,32.8,61.3c0.4,13,11.1,23.2,24,23.2c0.3,0,0.6,0,0.8,0
	c13.2-0.5,23.6-11.6,23.2-24.8c-1-28.9-7.4-51.4-19.4-68.8c-11-15.8-24.6-24.5-35.6-31.4c-16.4-10.4-22.5-14.3-21.6-37.4
	c1.4-38.9,35.4-70.9,51.8-84.2c34.3,28.7,66.1,37.5,67.6,37.9l11.8,3.2l324.2-260.3l-0.9-1.1c6,0.5,12,0.8,18.1,0.8
	c57.5,0,111.5-22.4,152.1-63c40.6-40.6,63-94.6,63-152.1S857.5,167.3,816.9,126.7z M313.4,700.9c-11.9-5.2-31.9-16.1-51.3-35.9
	c-17.4-17.8-25-33.3-28.3-42.7l239.7-244.7c10.1,19.4,23.2,37.4,39.1,53.3c21.9,21.9,47.7,38.5,75.8,49.1L313.4,700.9z M497.7,278.8
	c0-26.7,6.3-51.9,17.5-74.3c12.3,52.7,38.9,101,77.9,140.4c41.6,41.9,93.7,69.9,150.3,81.3c-23.5,12.6-50.2,19.7-78.7,19.7
	C572.7,445.9,497.7,370.9,497.7,278.8z M794.6,384C667,379.8,563.7,278.6,555.9,152.2c29.3-25.2,67.3-40.5,108.9-40.5
	c92.1,0,167.1,75,167.1,167.1C831.9,318.6,817.9,355.2,794.6,384z"/>
</svg>
