<?xml version="1.0" encoding="utf-8"?>
<!-- Generator: Adobe Illustrator 22.0.0, SVG Export Plug-In . SVG Version: 6.00 Build 0)  -->
<svg version="1.1" id="Ebene_1" xmlns="http://www.w3.org/2000/svg" xmlns:xlink="http://www.w3.org/1999/xlink" x="0px" y="0px"
	 viewBox="0 0 1024 1024" style="enable-background:new 0 0 1024 1024;" xml:space="preserve">
<style type="text/css">
	.st0{display:none;}
</style>
<g id="HG" class="st0">
</g>
<path class="st1" d="M820,743c-4.1-50.4-17.3-143.6-59.3-201.4c-46.2-63.5-124-135.7-148.3-157.6c-0.4-16.5,1.9-47.6,4.3-72.3
	c10.7-7.2,28.1-19.7,44.7-35.2c39.8-37.1,54.9-72,44.7-103.8c-10.3-31.8-29.1-46.8-43.1-53.9c-18-9.1-36.4-9.7-49.6-8.2
	c-15-18.9-46.1-49.4-88.8-47.3c-40.2,2-67.4,25.1-80.8,39.8c-30.2-1.7-98,0.3-118,48.7c-5.3,12.8-5.7,27.4-1.2,43.9
	c-16.5,1.4-38.3,10.6-54.2,44.6c-11.5,24.9-5.4,44.2,1.8,55.9c4.4,7.2,10.5,13.7,18.3,19.6c-12.5,6.7-21.9,15-28.4,25.1
	c-9.3,14.4-16.3,39,2.8,73.9c14.1,25.7,33.8,31.9,47.9,32.5c0.8,0,1.6,0.1,2.5,0.1c6.1,0,12.3-1,18.7-2.9
	c-27,29.5-55.6,64.2-84.5,110.2c-37.1,58.9-45.3,156.5-47.2,195.7c-2.8,60.8,2,139.9,24,179.7c13.4,24.3,30.4,29.4,42.4,29.4
	c10.3,0,37.5,0.1,75.1,0.3c101.6,0.5,207.4,1,287.9,1c71,0,122.5-0.4,134-1.5c11.1-1,26.6-7.6,37.9-32.6
	C819.9,891,826.3,818.9,820,743z M370.3,170c7.8-18.9,56.7-21.1,81.2-18.1l15,1.9l8.2-12.7c0.2-0.3,19.1-28.2,52.3-29.9
	c30.6-1.5,54.9,37.7,55.1,38l9.7,16.9l18.6-6.3c0.2-0.1,17.2-5.1,30.9,1.9c8.6,4.3,14.8,12.8,19,25.7c3.7,11.7-7.9,31.7-31.2,53.5
	c-22.3,20.9-47.3,36.2-47.6,36.3l-9,5.5l-130.1,0.6l0-2.1l-7.4-7.2c-0.1-0.1-3.4-3.3-8.6-8.8c-1.5-2-3-3.9-4.5-5.9
	c-7.6-9.6-15-18.2-22.2-25.6c-1.3-1.7-2.6-3.5-4-5.3C370.8,194.2,368,175.6,370.3,170z M314.1,260.4c2.3-5,8.5-16.8,15-17
	c0.1,0,0.2,0,0.4,0c6.4,0,18.3,6.1,34.3,22.1c9.2,11.8,18.3,22.2,25.3,29.8c-6.3,0.2-13,0.6-19.9,1.2c-34.3-7.8-51.4-18-55.9-25.4
	C312.4,269.6,310.9,267.2,314.1,260.4z M315.1,399.2c-1.1,0-3.8-0.2-7.9-7.6c-4.3-7.9-8.6-18.6-4.5-24.9
	c2.5-3.9,14.4-16.8,63.6-21.8c1.8,0.4,3.7,0.7,5.6,1.1c3,0.6,6.1,1.1,9,1.6c-2.4,2.8-4.9,5.7-7.5,8.6
	C344.2,388.6,323.7,399.7,315.1,399.2z M770.1,866.7c-4,27.2-9.6,40.4-12.6,45.1c-41,2-300.2,0.6-413.4,0
	c-34.9-0.2-60.8-0.3-72.7-0.3c-3.1-3.6-9.6-15.5-14.8-42.3c-5.1-26.6-7.5-61.1-6.9-97.3c1.4-80.8,16.9-154.2,40.4-191.6
	c40.4-64.3,79.1-104,116.5-142.5c4.6-4.7,9.1-9.4,13.5-14l3.3,65.6c0.7,12.8,11.3,22.8,23.9,22.8c0.4,0,0.8,0,1.2,0
	c13.2-0.7,23.4-12,22.7-25.2l-5.3-104.3l38.9,49.8c4.7,6.1,11.8,9.2,18.9,9.2c5.2,0,10.4-1.7,14.8-5.1c10.4-8.2,12.3-23.2,4.1-33.7
	l-56.1-71.7l79.8-0.3c-1.9,24.1-3.5,53.6-1.3,68.2l1.3,8.7l6.6,5.8c1,0.9,97.7,86.3,148.6,156.4c27.9,38.4,47.2,111.9,51.6,196.7
	C775.4,802.9,774.2,838.5,770.1,866.7z"/>
</svg>
