<?xml version="1.0" encoding="utf-8"?>
<!-- Generator: Adobe Illustrator 22.0.0, SVG Export Plug-In . SVG Version: 6.00 Build 0)  -->
<svg version="1.1" id="Ebene_1" xmlns="http://www.w3.org/2000/svg" xmlns:xlink="http://www.w3.org/1999/xlink" x="0px" y="0px"
	 viewBox="0 0 1024 1024" style="enable-background:new 0 0 1024 1024;" xml:space="preserve">
<style type="text/css">
	.st0{display:none;}
	.st1{fill:#2368BC;}
</style>
<g id="HG" class="st0">
</g>
<g>
	<path class="st1" d="M772.2,64h-0.3H252H148.6C102,64,64,102,64,148.6v726.9c0,46.6,38,84.5,84.6,84.5h726.9
		c46.6,0,84.6-38,84.6-84.6V251.8L772.2,64z M723.9,112v263.2c0,18.6-15.8,33.8-35.3,33.8H335.3c-19.5,0-35.3-15.2-35.3-33.8V112
		H723.9z M912.1,875.4c0,20.2-16.4,36.6-36.6,36.6H148.6c-20.2,0-36.6-16.4-36.6-36.5V148.6c0-20.2,16.4-36.6,36.6-36.6H252v263.2
		c0,45.1,37.4,81.8,83.3,81.8h353.3c45.9,0,83.3-36.7,83.3-81.8V131.5l140.2,140.1V875.4z"/>
	<rect x="365" y="167" class="st1" width="94" height="188"/>
	<path class="st1" d="M512,538.4c-84.3,0-152.8,68.5-152.8,152.8S427.7,844,512,844s152.8-68.5,152.8-152.8S596.3,538.4,512,538.4z
		 M512,796c-57.8,0-104.8-47-104.8-104.8s47-104.8,104.8-104.8c57.8,0,104.8,47,104.8,104.8S569.8,796,512,796z"/>
</g>
</svg>
