<?xml version="1.0" encoding="utf-8"?>
<!-- Generator: Adobe Illustrator 14.0.0, SVG Export Plug-In . SVG Version: 6.00 Build 43363)  -->
<!DOCTYPE svg PUBLIC "-//W3C//DTD SVG 1.1//EN" "http://www.w3.org/Graphics/SVG/1.1/DTD/svg11.dtd">
<svg version="1.1" id="Ebene_1" xmlns="http://www.w3.org/2000/svg" xmlns:xlink="http://www.w3.org/1999/xlink" x="0px" y="0px"
	 width="1024px" height="1024px" viewBox="0 0 1024 1024" enable-background="new 0 0 1024 1024" xml:space="preserve">
<path  d="M875.928,279H471.501v-24.984c0-48.523-39.477-88-88-88H148.072c-48.523,0-88,39.477-88,88v107.978
	c0,0.838,0.02,1.671,0.047,2.502c-0.028,0.832-0.047,1.666-0.047,2.505v505c0,48.523,39.477,88,88,88h727.855
	c48.523,0,88-39.477,88-88V367C963.928,318.477,924.451,279,875.928,279z M108.118,363.565c-0.021-0.522-0.045-1.044-0.045-1.572
	V254.016c0-22.056,17.944-40,40-40h235.429c22.056,0,40,17.944,40,40V327h452.427c22.056,0,40,17.944,40,40v57H108.072v-57
	c0-0.528,0.025-1.051,0.045-1.574l0.036-0.931L108.118,363.565z M875.928,912H148.072c-22.056,0-40-17.944-40-40V472h807.855v400
	C915.928,894.056,897.983,912,875.928,912z"/>
</svg>
