<?xml version="1.0" encoding="utf-8"?>
<!-- Generator: Adobe Illustrator 14.0.0, SVG Export Plug-In . SVG Version: 6.00 Build 43363)  -->
<!DOCTYPE svg PUBLIC "-//W3C//DTD SVG 1.1//EN" "http://www.w3.org/Graphics/SVG/1.1/DTD/svg11.dtd">
<svg version="1.1" id="Ebene_1" xmlns="http://www.w3.org/2000/svg" xmlns:xlink="http://www.w3.org/1999/xlink" x="0px" y="0px"
	 width="1024px" height="1024px" viewBox="0 0 1024 1024" enable-background="new 0 0 1024 1024" xml:space="preserve">
<g>
	<path  d="M951.598,432.346l-424-362.586c-8.98-7.68-22.215-7.68-31.196,0l-424,362.586
		C67.07,436.906,64,443.57,64,450.586V936c0,13.255,10.745,24,24,24h151.464c13.255,0,24-10.745,24-24V560h181.189v376
		c0,13.255,10.745,24,24,24H936c13.255,0,24-10.745,24-24V450.586C960,443.57,956.93,436.906,951.598,432.346z M912,912H492.653V536
		c0-13.255-10.745-24-24-24H239.464c-13.255,0-24,10.745-24,24v376H112V461.641l400-342.063l400,342.063V912z"/>
	<path  d="M599,756h208c13.255,0,24-10.745,24-24V536c0-13.255-10.745-24-24-24H599c-13.255,0-24,10.745-24,24v196
		C575,745.255,585.745,756,599,756z M623,560h160v148H623V560z"/>
</g>
</svg>
