<?xml version="1.0" encoding="utf-8"?>
<!-- Generator: Adobe Illustrator 22.0.0, SVG Export Plug-In . SVG Version: 6.00 Build 0)  -->
<svg version="1.1" id="Ebene_1" xmlns="http://www.w3.org/2000/svg" xmlns:xlink="http://www.w3.org/1999/xlink" x="0px" y="0px"
	 viewBox="0 0 1024 1024" style="enable-background:new 0 0 1024 1024;" xml:space="preserve">
<style type="text/css">
	.st0{display:none;}
	.st1{fill:#2368BC;}
</style>
<g id="HG" class="st0">
</g>
<g>
	<path class="st1" d="M712,294c-1.3,0-2.6,0.1-3.8,0.3H315.8c-1.2-0.2-2.5-0.3-3.8-0.3c-13.3,0-24,10.7-24,24v52
		c0,13.3,10.7,24,24,24s24-10.7,24-24v-27.7h152V695h-82c-13.3,0-24,10.7-24,24s10.7,24,24,24h212c13.3,0,24-10.7,24-24
		s-10.7-24-24-24h-82V342.3h152V370c0,13.3,10.7,24,24,24s24-10.7,24-24v-52C736,304.7,725.3,294,712,294z"/>
	<path class="st1" d="M878.3,167H148.8C102,167,64,204.3,64,250.1v523.8c0,45.8,38,83.1,84.8,83.1h729.4c38.2,0,70.7-24.9,81.2-59.1
		h3.7V250.1C963.1,204.3,925.1,167,878.3,167z M915.1,749.9L915.1,749.9l-0.1,24c0,19.4-16.5,35.1-36.8,35.1H148.8
		c-20.3,0-36.8-15.7-36.8-35.1V250.1c0-19.4,16.5-35.1,36.8-35.1h729.5c20.3,0,36.8,15.7,36.8,35.1V749.9z"/>
</g>
</svg>
