<?xml version="1.0" encoding="utf-8"?>
<!-- Generator: Adobe Illustrator 22.0.0, SVG Export Plug-In . SVG Version: 6.00 Build 0)  -->
<svg version="1.1" id="Ebene_1" xmlns="http://www.w3.org/2000/svg" xmlns:xlink="http://www.w3.org/1999/xlink" x="0px" y="0px"
	 viewBox="0 0 1024 1024" style="enable-background:new 0 0 1024 1024;" xml:space="preserve">
<style type="text/css">
	.st0{display:none;}
</style>
<g id="HG" class="st0">
</g>
<g>
	<path class="st1" d="M927.2,343.4c-22.5-55.6-55.7-105.5-98.4-148.2s-92.6-75.9-148.2-98.4C626.9,75,570.2,64,512,64
		c-58.2,0-114.9,11-168.6,32.8c-55.6,22.5-105.5,55.7-148.2,98.4c-42.8,42.8-75.9,92.6-98.4,148.2C75,397.1,64,453.8,64,512
		c0,58.2,11,114.9,32.8,168.6c22.5,55.6,55.7,105.5,98.4,148.2c42.8,42.8,92.6,75.9,148.2,98.4C397.1,949,453.8,960,512,960
		c58.2,0,114.9-11,168.6-32.8c55.6-22.5,105.5-55.7,148.2-98.4s75.9-92.6,98.4-148.2C949,626.9,960,570.2,960,512
		C960,453.8,949,397.1,927.2,343.4z M794.8,794.8C719.3,870.4,618.8,912,512,912s-207.3-41.6-282.8-117.2
		c-156-156-156-409.7,0-565.7C304.7,153.6,405.2,112,512,112s207.3,41.6,282.8,117.2C950.8,385.1,950.8,638.9,794.8,794.8z"/>
	<circle class="st1" cx="374" cy="386" r="67"/>
	<circle class="st1" cx="642.8" cy="386" r="67"/>
	<path class="st1" d="M767.8,623.9c-11.1-7.3-26-4.2-33.2,6.9C688,701.6,603.5,745.5,514,745.5c-91.1,0-176.3-45.1-222.3-117.6
		c-7.1-11.2-21.9-14.5-33.1-7.4c-11.2,7.1-14.5,21.9-7.4,33.1c26.6,41.8,64.5,76.9,109.6,101.4c46.4,25.2,99.4,38.5,153.2,38.5
		c53.1,0,105.4-13,151.4-37.5c44.6-23.8,82.4-58,109.3-98.9C781.9,646.1,778.9,631.2,767.8,623.9z"/>
</g>
</svg>
