<?xml version="1.0" encoding="utf-8"?>
<!-- Generator: Adobe Illustrator 22.0.0, SVG Export Plug-In . SVG Version: 6.00 Build 0)  -->
<svg version="1.1" id="Ebene_1" xmlns="http://www.w3.org/2000/svg" xmlns:xlink="http://www.w3.org/1999/xlink" x="0px" y="0px"
	 viewBox="0 0 1024 1024" style="enable-background:new 0 0 1024 1024;" xml:space="preserve">
<style type="text/css">
	.st0{display:none;}
	.st1{fill:#2368BC;}
</style>
<g id="HG" class="st0">
</g>
<g>
	<rect x="449" y="481" class="st1" width="113" height="81"/>
	<rect x="589" y="481" class="st1" width="113" height="81"/>
	<rect x="730" y="481" class="st1" width="112" height="81"/>
	<rect x="449" y="593" class="st1" width="113" height="81"/>
	<rect x="589" y="593" class="st1" width="113" height="81"/>
	<rect x="730" y="593" class="st1" width="112" height="81"/>
	<rect x="449" y="698" class="st1" width="113" height="81"/>
	<rect x="589" y="698" class="st1" width="113" height="81"/>
	<rect x="730" y="698" class="st1" width="112" height="81"/>
	<path class="st1" d="M875.5,235H844v-91c0-13.3-10.7-24-24-24H469c-13.3,0-24,10.7-24,24v91h-57.3c-0.7-61.5-14.7-105.3-42.8-133.7
		c-25.7-26-61.8-38.5-110.3-38.3c-38.2,0.2-86,4.7-116.7,38.5c-24.5,27-35.7,68.7-36.3,135.4c-1,100.9,43.6,150.9,65.9,169.6
		l-2.7,227.9c-7.8,5.6-17.5,14.3-27.1,27.4c-23.9,32.9-36.1,78.4-36.1,135c0,70.6,11.9,111,39.8,135c30.1,25.9,75.7,28.1,123.7,28.1
		c0.2,0,0.5,0,0.7,0c59,0,100-6.2,122.2-36.7c1-1.4,1.9-2.8,2.8-4.2h504.7c46.6,0,84.5-37.3,84.5-83.1V318.1
		C960,272.3,922.1,235,875.5,235z M493,168h303v182H493V168z M339.8,798.2c-0.2,48-0.4,82.6-10.7,96.8c-8.7,12-32.9,16.9-83.3,16.9
		c-0.2,0-0.4,0-0.7,0c-45.2,0-76.5-2.8-92.4-16.5c-16-13.7-23.1-44.1-23.1-98.6c0-55.2,13.5-86.9,24.8-103.7
		c10.8-16.1,21.3-21.8,23.2-22.7c9.5-3.3,14.9-11.9,15-22l3-253.6c0.1-8.9-4.2-16.8-12-21c-1.4-0.9-14.5-9.5-27.2-29.2
		c-18.2-28.1-27.3-64.2-26.8-107.2c0.5-53.3,8.1-86.2,23.9-103.6c14.3-15.8,38.6-22.5,81.3-22.7c34.9-0.2,59.8,7.7,76,24.1
		c20.3,20.5,29.7,56.7,28.9,110.7c-0.6,39.1-9.1,72.7-25.4,99.7c-11.4,19-22.8,27.9-24.1,28.8c-6.7,4.4-10.3,11.6-10.3,19.7v262
		c0,12.5,7.5,22.7,19.8,23.7c4.6,1.6,40.3,17.7,40,117L339.8,798.2z M912,835.9c0,19.4-16.4,35.1-36.5,35.1H385.4
		c2.2-19.7,2.3-43.4,2.4-72.6l0-1.5c0.2-60.2-11.5-105.6-35-134.9c-8.5-10.6-17.3-17.5-24.8-21.9V405c16.5-15.8,47.6-53.8,57-122h60
		v91c0,13.3,10.7,24,24,24h351c13.3,0,24-10.7,24-24v-91h31.5c20.1,0,36.5,15.7,36.5,35.1V835.9z"/>
</g>
</svg>
