<?xml version="1.0" encoding="utf-8"?>
<!-- Generator: Adobe Illustrator 22.0.0, SVG Export Plug-In . SVG Version: 6.00 Build 0)  -->
<svg version="1.1" id="Ebene_1" xmlns="http://www.w3.org/2000/svg" xmlns:xlink="http://www.w3.org/1999/xlink" x="0px" y="0px"
	 viewBox="0 0 1024 1024" style="enable-background:new 0 0 1024 1024;" xml:space="preserve">
<style type="text/css">
	.st0{display:none;}
	.st1{fill:#2368BC;}
</style>
<g id="HG" class="st0">
</g>
<g>
	<path class="st1" d="M938,183H86c-13.3,0-24,10.7-24,24v608.5c0,13.2,10.7,24,24,24l852,1.1c0,0,0,0,0,0c6.4,0,12.5-2.5,17-7
		c4.5-4.5,7-10.6,7-17V207C962,193.7,951.3,183,938,183z M914,792.6l-804-1V231h804V792.6z"/>
	<rect x="196" y="330" class="st1" width="622" height="48"/>
	<rect x="196" y="478" class="st1" width="279" height="48"/>
	<rect x="547" y="478" class="st1" width="279" height="48"/>
	<rect x="196" y="626" class="st1" width="279" height="48"/>
	<rect x="547" y="626" class="st1" width="279" height="48"/>
</g>
</svg>
