<?xml version="1.0" encoding="utf-8"?>
<!-- Generator: Adobe Illustrator 22.0.0, SVG Export Plug-In . SVG Version: 6.00 Build 0)  -->
<svg version="1.1" id="Ebene_1" xmlns="http://www.w3.org/2000/svg" xmlns:xlink="http://www.w3.org/1999/xlink" x="0px" y="0px"
	 viewBox="0 0 1024 1024" style="enable-background:new 0 0 1024 1024;" xml:space="preserve">
<style type="text/css">
	.st0{display:none;}
	.st1{fill:#2368BC;}
</style>
<g id="HG" class="st0">
</g>
<g>
	<path class="st1" d="M875.4,63H148.5C101.9,63,64,100.3,64,146.2V790c0,45.8,37.9,83,84.5,83H432v63c0,13.3,10.7,24,24,24h387
		c13.3,0,24-10.7,24-24v-63h8.4c46.6,0,84.5-37.2,84.5-83V146.2C959.9,100.3,922,63,875.4,63z M148.5,111H299v92h48v-92h330v92h48
		v-92h150.4c20.1,0,36.5,15.8,36.5,35.2V251H112V146.2C112,126.8,128.4,111,148.5,111z M521.6,614.3c-0.6-43.2-2.2-144.5,47.1-194.7
		c20.3-20.7,47.1-30.8,82-30.9c0.2,0,0.4,0,0.6,0c36.5,0,63.9,9.7,83.6,29.8c18.8,19.1,31,47.4,37.1,86.7c5.6,35.4,5,72.1,4.5,101.5
		c-0.1,3.2-0.1,6.3-0.1,9.4H521.6C521.6,615.4,521.6,614.9,521.6,614.3z M819,912H480V664h339V912z M875.4,825H867V640
		c0-13.3-10.7-24-24-24h-18.6c0-2.8,0.1-5.7,0.1-8.6c0.5-29.6,1.1-70.2-5-109.7c-7.8-49.5-24.2-86.5-50.4-113
		c-29-29.4-68.9-44.2-118.6-44.1c-47.7,0.2-86.8,15.4-116.1,45.3c-27.7,28.2-46.2,69.4-54.9,122.4c-6.9,41.9-6.3,82.4-5.9,106.6
		c0,0.3,0,0.7,0,1H456c-13.3,0-24,10.7-24,24v185H148.5c-20.1,0-36.5-15.7-36.5-35V299h799.9v491C911.9,809.3,895.5,825,875.4,825z"
		/>
	<path class="st1" d="M628,816.4V859h42v-42.1c11-6.9,18.4-19.1,18.4-33.1c0-21.5-17.5-39-39-39s-39,17.5-39,39
		C610.4,797.4,617.4,809.4,628,816.4z"/>
</g>
</svg>
