<?xml version="1.0" encoding="utf-8"?>
<!-- Generator: Adobe Illustrator 22.0.0, SVG Export Plug-In . SVG Version: 6.00 Build 0)  -->
<svg version="1.1" id="Ebene_1" xmlns="http://www.w3.org/2000/svg" xmlns:xlink="http://www.w3.org/1999/xlink" x="0px" y="0px"
	 viewBox="0 0 1024 1024" style="enable-background:new 0 0 1024 1024;" xml:space="preserve">
<style type="text/css">
	.st0{display:none;}
</style>
<g id="HG" class="st0">
</g>
<g>
	<path class="st1" d="M943.8,406.9l-85.2-25.1l92-62.8c10.9-7.5,13.8-22.4,6.3-33.4c-7.5-10.9-22.4-13.8-33.4-6.3l-82.5,56.4
		l21.8-78.1c3.6-12.8-3.9-26-16.7-29.6c-12.8-3.6-26,3.9-29.6,16.7l-36,129c-0.2,0.6-0.3,1.2-0.4,1.8l-74.3,45.6
		c-8.1-37.4-27-71.9-54.5-99.2c15.6-25.2,24.6-54.8,24.6-86.5c0-90.9-73.9-164.8-164.8-164.8s-164.8,73.9-164.8,164.8
		c0,31.7,9,61.3,24.6,86.4C343,349.5,324,384.3,316,422.2l-71.7-44c-0.1-1.5-0.4-3-0.8-4.5l-36-129c-3.6-12.8-16.8-20.2-29.6-16.7
		c-12.8,3.6-20.2,16.8-16.7,29.6l21.8,78.1l-82.5-56.4c-10.9-7.5-25.9-4.7-33.4,6.3c-7.5,10.9-4.7,25.9,6.3,33.4l92,62.8l-85.2,25.1
		c-12.7,3.7-20,17.1-16.3,29.8c3.1,10.5,12.6,17.2,23,17.2c2.2,0,4.5-0.3,6.8-1l118-34.7c1.3-0.4,2.5-0.9,3.7-1.4l96.7,59.3
		c2.4,37.9,15.4,73,36.1,102.2c-28.9,16.9-53.4,38.2-71.5,62.5c-23.4,31.4-35.7,67.4-35.7,104c0,29.1,7.5,57.2,22.4,83.6
		c14,24.9,34,47.1,59.3,66.1c50.6,37.9,117.5,58.8,188.4,58.8c70.9,0,137.8-20.9,188.4-58.8c25.3-18.9,45.2-41.2,59.3-66.1
		c14.9-26.4,22.4-54.5,22.4-83.6c0-66.2-39.8-127.3-107.3-166.6c20.9-29.6,33.9-65,36.1-103.4l96.5-59.2c1.8,1.1,3.7,2,5.8,2.6
		l118,34.7c2.3,0.7,4.5,1,6.8,1c10.4,0,19.9-6.8,23-17.2C963.8,424,956.5,410.6,943.8,406.9z M511,118.7
		c64.4,0,116.8,52.4,116.8,116.8S575.4,352.3,511,352.3c-64.4,0-116.8-52.4-116.8-116.8S446.6,118.7,511,118.7z M401.8,358.8
		c29.1,25.8,67.3,41.5,109.2,41.5c41.8,0,80.1-15.7,109.2-41.5c26.9,28,42.1,65.5,42.1,104.7c0,83.4-67.9,151.3-151.3,151.3
		s-151.3-67.9-151.3-151.3C359.7,424.2,374.9,386.8,401.8,358.8z M733.2,744.8c0,41.5-22.2,81.1-62.5,111.3
		c-42.4,31.8-99,49.2-159.6,49.2s-117.3-17.5-159.6-49.2c-40.3-30.2-62.5-69.7-62.5-111.3c0-51.5,34.4-99.7,92.4-130
		c34.9,29.9,80.1,48,129.6,48c49.5,0,94.8-18.1,129.7-48.1C698.7,645.1,733.2,693.4,733.2,744.8z"/>
	<circle class="st1" cx="471.9" cy="196.1" r="20.8"/>
	<circle class="st1" cx="550.1" cy="196.1" r="20.8"/>
	<path class="st1" d="M482.9,254.1c-5.4,16.2,4.1,23.2,8.6,25.8c4.5,2.6,78,10.3,79.6-7.1c1.7-17.4-66.6-32.4-66.6-32.4
		S488.3,237.9,482.9,254.1z"/>
</g>
</svg>
