<?xml version="1.0" encoding="utf-8"?>
<!-- Generator: Adobe Illustrator 22.0.0, SVG Export Plug-In . SVG Version: 6.00 Build 0)  -->
<svg version="1.1" id="Ebene_1" xmlns="http://www.w3.org/2000/svg" xmlns:xlink="http://www.w3.org/1999/xlink" x="0px" y="0px"
	 viewBox="0 0 1024 1024" style="enable-background:new 0 0 1024 1024;" xml:space="preserve">
<style type="text/css">
	.st0{display:none;}
</style>
<g id="HG" class="st0">
</g>
<path class="st1" d="M899,574.9V132.1c0-25.3-19.2-58.1-50.1-66.9c-18.8-5.4-55.8-5.7-92.4,52.7c-7,11.2-3.6,26,7.6,33.1
	c11.2,7,26,3.6,33.1-7.6c14.1-22.5,28.9-34.8,38.5-32c8.9,2.5,15.4,15.2,15.4,20.8v355.6c-3.9-3.7-7.9-7.3-12.2-10.7
	c-38.8-31.4-90-48.7-144.2-48.7s-105.5,17.3-144.2,48.7c-15.6,12.6-28.4,27-38.4,42.5c-9.9-15.5-22.8-29.9-38.4-42.5
	c-38.8-31.4-90-48.7-144.2-48.7s-105.5,17.3-144.2,48.7c-4.3,3.5-8.3,7-12.2,10.7V132.1c0-5.6,6.5-18.3,15.4-20.8
	c9.6-2.8,24.4,9.5,38.5,32c7,11.2,21.8,14.6,33.1,7.6c11.2-7,14.6-21.8,7.6-33.1c-36.6-58.5-73.6-58.1-92.4-52.7
	c-31,8.9-50.1,41.7-50.1,66.9v442.8c-1.5,8.3-2.2,16.8-2.2,25.4c0,46.9,22.1,90.7,62.4,123.4c38.8,31.4,90,48.7,144.2,48.7
	c14.9,0,29.5-1.3,43.7-3.8c-24.4,21.7-33.3,52.8-24.9,87.8c7.5,31.4,29.1,53.4,60.6,62c7.9,2.1,15.4,3.2,22,3.6
	c11.6,17.5,34.7,43,77.1,43c35.9,0,61.4-25,75-43.1c30.3,1.5,70.6-7.7,86.7-50c13.8-36.3,7.3-71.8-18.2-99.9c-1.3-1.4-2.5-2.7-3.8-4
	c15.2,2.9,31,4.4,47,4.4c54.3,0,105.5-17.3,144.2-48.7c40.2-32.6,62.4-76.4,62.4-123.4C901.2,591.7,900.5,583.3,899,574.9z
	 M173,620.8c0-0.3,0-0.5,0-0.8v-40.3c12.6-58.7,77.9-103.5,156.4-103.5c87.5,0,158.6,55.7,158.6,124.1
	c0,68.4-71.1,124.1-158.6,124.1C250.9,724.4,185.5,679.5,173,620.8z M556.9,732c1.1,4.1,2.6,7.6,4.6,10.8c5.9,20.7,9.9,34,10.1,34.6
	c2.5,8.2,8.4,14.8,16.3,18.2c0.1,0,11.6,5.4,20.6,15.3c10.8,11.9,12.9,24.4,6.9,40.4c-6.9,18.2-37.8,11.7-39.7,11.2
	c-13.1-3.4-26.4,2.7-32.7,14.7c-4.2,7.9-20.2,29.7-35.1,29.7c-16.5,0-24.7-9.1-33.3-24.8c-0.9-1.7-1.8-3.2-2.7-4.8
	c-6.1-9.8-17-15.2-28.4-13.4c-1.2,0.1-10.9,1-20.6-2c-10.3-3.1-15.8-8.9-18.2-19.2c-4.2-17.5,1.1-25.4,6.2-30.2
	c6.4-6.1,14.7-8.8,15.9-9.2c8.6-1.9,15.1-7.5,19-15.5c0.4-0.9,10.5-21.9,21.5-50.4c1.3-3.5,2-7,1.9-10.5c1.5-1.1,3-2.3,4.4-3.5
	c15.6-12.6,28.4-27,38.4-42.5c9.9,15.5,22.8,29.9,38.4,42.5c1.9,1.6,3.9,3.1,5.9,4.6C556.4,729.5,556.6,730.8,556.9,732z
	 M694.6,724.4c-87.5,0-158.6-55.7-158.6-124.1c0-68.4,71.1-124.1,158.6-124.1c78.5,0,143.8,44.8,156.4,103.5V620c0,0.3,0,0.5,0,0.8
	C838.5,679.5,773.1,724.4,694.6,724.4z"/>
</svg>
