<?xml version="1.0" encoding="utf-8"?>
<!-- Generator: Adobe Illustrator 22.0.0, SVG Export Plug-In . SVG Version: 6.00 Build 0)  -->
<svg version="1.1" id="Ebene_1" xmlns="http://www.w3.org/2000/svg" xmlns:xlink="http://www.w3.org/1999/xlink" x="0px" y="0px"
	 viewBox="0 0 1024 1024" style="enable-background:new 0 0 1024 1024;" xml:space="preserve">
<style type="text/css">
	.st0{display:none;}
	.st1{fill:#2368BC;}
</style>
<g id="HG" class="st0">
</g>
<g>
	<path class="st1" d="M858,67H168.1C110.7,67,64,113.7,64,171.1v689.8C64,918.3,110.7,965,168.1,965h689.8
		c56.6,0,102.7-45.3,104.1-101.6c0.1-0.8,0.1-1.7,0.1-2.5V171.1C962.1,113.7,915.4,67,858,67z M914.1,858.7
		c-0.1,0.7-0.1,1.5-0.1,2.2c0,30.9-25.2,56.1-56.1,56.1H168.1c-30.9,0-56.1-25.2-56.1-56.1V171.1c0-30.9,25.2-56.1,56.1-56.1H858
		c30.9,0,56.1,25.2,56.1,56.1V858.7z"/>
	<path class="st1" d="M802,488H536V222c0-13.3-10.7-24-24-24s-24,10.7-24,24v266H222c-13.3,0-24,10.7-24,24s10.7,24,24,24h266v266
		c0,13.3,10.7,24,24,24s24-10.7,24-24V536h266c13.3,0,24-10.7,24-24S815.3,488,802,488z"/>
</g>
</svg>
