<?xml version="1.0" encoding="utf-8"?>
<!-- Generator: Adobe Illustrator 22.0.0, SVG Export Plug-In . SVG Version: 6.00 Build 0)  -->
<svg version="1.1" id="Ebene_1" xmlns="http://www.w3.org/2000/svg" xmlns:xlink="http://www.w3.org/1999/xlink" x="0px" y="0px"
	 viewBox="0 0 1024 1024" style="enable-background:new 0 0 1024 1024;" xml:space="preserve">
<style type="text/css">
	.st0{display:none;}
	.st1{fill:#2368BC;}
</style>
<g id="HG" class="st0">
</g>
<path class="st1" d="M925,439h-89.2c-4.7-22.1-16.2-38.3-31.6-54.8c8-22.8,10.7-51.4,10.7-61.9c0-22.9-6.7-42.3-20.1-57.7
	c-8.8-10.2-20.5-18.4-34.7-24.5c0-0.9,0-1.8,0-2.7c0-28.2-10.3-74.5-74.7-88.3c-2-27.3-14.3-49.2-35.9-63.7
	C628.3,71,598.5,64,558.7,64H421.8c-9.5,0-23.3,0.9-41,2.2l-4.1,0.3l-3.7,1.6C317.2,92.2,264.3,130.2,215.6,181H105.7l-6.3,14.3
	C75.3,250.2,63,306.4,63,362.3c0,29.3,3.6,58.3,10.7,87c-6.6,6.5-10.7,15.4-10.7,25.3v210c0,20.1,16.1,36.4,36,36.4h286v-2.6
	l82.3,82.5l39.1,163.9l42.8-10c107.1-23.7,129.6-92.9,129.6-146.8c0-22.9-8.6-51.6-26.3-87H925c19.9,0,36-16.3,36-36.4v-210
	C961,455,944.9,439,925,439z M111,542.9h96c19,0,25.9,3.3,28,4.7c2.4,1.6,12.4,9.6,39.4,44.2l19.7,24.6c21.2,27.5,36.2,46,45.7,56.6
	H111V542.9z M542,907.2l-31.1-130.7L376,641.4c-8.5-9.3-23.2-27.6-43.9-54.5l-19.9-24.8c-29.9-38.2-42.6-49.1-50.3-54.3
	c-12.9-8.7-30.8-12.9-54.8-12.9h-66.9c-19.3-43.1-29.1-87.7-29.1-132.6c0-44.4,8.9-89.2,26.4-133.3h99.1l7.1-7.7
	c45.1-48.6,93.7-84.8,144.8-107.6c12.6-0.9,25.8-1.7,33.4-1.7h136.9c36.8,0,55.2,7.2,64.2,13.2c7,4.7,15,12.6,15,31.9
	c0,0.3-0.1,2.3-1.1,8.9l-4,25.6l25.9,2c47.2,3.7,53.7,23.2,53.7,43.8c0,2-0.2,6.6-1.8,14.7l-4.2,22.2l21.8,5.6
	c34.2,8.7,38.8,26.4,38.8,42.4c0,13.7-5.5,44.7-11.4,53.5l-10.9,16.4l13.9,13.9c24.5,24.5,31.6,34.9,31.6,56.6
	c0,27.5-16.8,50.4-49.9,68.1c-43.6,23.4-95,35.3-152.8,35.3h-47.3l3.8,27.3c5.7,40.9,18.8,64.3,36.9,96.7c1.7,3,3.4,6.1,5.2,9.4
	l10.6,18.8c28.2,49.8,34.1,76.2,34.1,89.7C630.8,861.4,602.6,893,542,907.2z M913,673H626.3c-1.2-2.1-2.3-4.2-3.5-6.2
	c-11.7-21-19.8-35.6-25.3-52.8c61.7-1.3,117.3-15.1,165.4-40.8c24-12.8,42.6-28.7,55.3-47.1c8.4-12.2,14.2-25.2,17.3-39.1H913V673z"
	/>
</svg>
