<?xml version="1.0" encoding="utf-8"?>
<!-- Generator: Adobe Illustrator 22.0.0, SVG Export Plug-In . SVG Version: 6.00 Build 0)  -->
<svg version="1.1" id="Ebene_1" xmlns="http://www.w3.org/2000/svg" xmlns:xlink="http://www.w3.org/1999/xlink" x="0px" y="0px"
	 viewBox="0 0 1024 1024" style="enable-background:new 0 0 1024 1024;" xml:space="preserve">
<style type="text/css">
	.st0{display:none;}
	.st1{stroke:#2368BC;stroke-width:48;}
</style>
<g id="HG" class="st0">
</g>
<g id="vwicn188_1_">
	<g>
		<path class="st1" d="M935.1,776.7"/>
		<path class="st1" d="M874.5,835.9"/>
		<path class="st2" d="M874.5,164H147.6C101,164,63,201.4,63,247.3v529.4c0,45.9,38,83.3,84.6,83.3H549v-48H147.6
			c-2.1,0-4.1-0.2-6.1-0.5l264.8-300.6l90.4,67c4.2,3.1,9.3,4.7,14.3,4.7c5,0,10-1.6,14.2-4.7l91.6-67.6l43.6,49.5l5.4,6.2
			l36.2-31.5l-5.4-6.2l-40.9-46.5L911,293.3V543h48V247.3C959,201.4,921.1,164,874.5,164z M111,773.6V292l256.6,190.2L111,773.6z
			 M511,528.8L113.6,234.2c5.4-13,18.6-22.2,34-22.2h726.9c15.8,0,29.2,9.7,34.3,23.3L511,528.8z"/>
	</g>
	<path class="st3" d="M937,773h-82.1l58.2-58.2c9.4-9.4,9.4-24.6,0-33.9c-9.4-9.4-24.6-9.4-33.9,0L821,739.1V657
		c0-13.3-10.7-24-24-24s-24,10.7-24,24v81.7l-57.8-57.8c-9.4-9.4-24.6-9.4-33.9,0c-9.4,9.4-9.4,24.6,0,33.9l58.2,58.2H657
		c-13.3,0-24,10.7-24,24s10.7,24,24,24h82.1l-57.8,57.8c-9.4,9.4-9.4,24.6,0,33.9c4.7,4.7,10.8,7,17,7s12.3-2.3,17-7l57.8-57.8V937
		c0,13.3,10.7,24,24,24s24-10.7,24-24v-82.5l58.2,58.2c4.7,4.7,10.8,7,17,7s12.3-2.3,17-7c9.4-9.4,9.4-24.6,0-33.9L855.3,821H937
		c13.3,0,24-10.7,24-24S950.3,773,937,773z"/>
</g>
</svg>
