<?xml version="1.0" encoding="utf-8"?>
<!-- Generator: Adobe Illustrator 14.0.0, SVG Export Plug-In . SVG Version: 6.00 Build 43363)  -->
<!DOCTYPE svg PUBLIC "-//W3C//DTD SVG 1.1//EN" "http://www.w3.org/Graphics/SVG/1.1/DTD/svg11.dtd">
<svg version="1.1" id="Ebene_1" xmlns="http://www.w3.org/2000/svg" xmlns:xlink="http://www.w3.org/1999/xlink" x="0px" y="0px"
	 width="1024px" height="1024px" viewBox="0 0 1024 1024" enable-background="new 0 0 1024 1024" xml:space="preserve">
<path  d="M543.332,816.854l406.453-285.209c0.05-0.034,0.095-0.072,0.145-0.107c0.287-0.206,0.57-0.417,0.848-0.635
	c0.097-0.075,0.193-0.149,0.288-0.226c0.287-0.232,0.568-0.472,0.845-0.716c0.061-0.055,0.124-0.105,0.185-0.16
	c0.323-0.293,0.639-0.595,0.945-0.904c0.091-0.092,0.178-0.188,0.268-0.28c0.217-0.227,0.431-0.455,0.639-0.689
	c0.102-0.114,0.201-0.229,0.3-0.346c0.2-0.234,0.396-0.473,0.586-0.714c0.082-0.104,0.164-0.205,0.243-0.31
	c0.248-0.324,0.489-0.654,0.721-0.992c0.014-0.02,0.028-0.039,0.042-0.059c0.522-0.767,0.999-1.567,1.433-2.395
	c0.019-0.035,0.036-0.071,0.055-0.106c0.2-0.387,0.39-0.779,0.568-1.178c0.011-0.024,0.021-0.048,0.032-0.072
	c0.75-1.682,1.312-3.465,1.658-5.324c0.016-0.079,0.029-0.159,0.043-0.238c0.063-0.36,0.119-0.724,0.166-1.09
	c0.015-0.113,0.03-0.227,0.043-0.34c0.04-0.345,0.07-0.692,0.096-1.042c0.008-0.116,0.02-0.232,0.026-0.35
	c0.025-0.455,0.042-0.912,0.042-1.373s-0.017-0.918-0.042-1.372c-0.007-0.117-0.019-0.233-0.026-0.351
	c-0.025-0.35-0.056-0.697-0.096-1.042c-0.013-0.113-0.028-0.226-0.043-0.339c-0.047-0.366-0.103-0.73-0.166-1.092
	c-0.015-0.078-0.027-0.157-0.042-0.235c-0.348-1.861-0.91-3.646-1.66-5.33c-0.01-0.021-0.02-0.041-0.028-0.063
	c-0.181-0.402-0.372-0.798-0.574-1.188c-0.017-0.032-0.033-0.065-0.05-0.098c-0.435-0.829-0.912-1.632-1.437-2.4
	c-0.011-0.016-0.021-0.03-0.032-0.045c-0.234-0.342-0.479-0.677-0.729-1.006c-0.078-0.103-0.16-0.203-0.24-0.305
	c-0.191-0.243-0.388-0.482-0.589-0.718c-0.099-0.115-0.197-0.23-0.298-0.344c-0.208-0.234-0.422-0.463-0.639-0.688
	c-0.09-0.094-0.178-0.19-0.27-0.283c-0.306-0.309-0.62-0.609-0.942-0.901c-0.064-0.059-0.132-0.113-0.197-0.171
	c-0.271-0.24-0.547-0.475-0.828-0.702c-0.101-0.08-0.202-0.159-0.304-0.238c-0.271-0.212-0.546-0.417-0.825-0.617
	c-0.054-0.038-0.104-0.08-0.157-0.117l-406.453-285.21c-10.85-7.613-25.817-4.99-33.431,5.86
	c-7.614,10.85-4.988,25.818,5.859,33.432L860.015,488H88c-13.255,0-24,10.745-24,24s10.745,24,24,24h772.015L515.761,777.563
	c-6.656,4.671-10.216,12.108-10.216,19.666c0,4.762,1.414,9.571,4.356,13.765C517.515,821.845,532.482,824.469,543.332,816.854z"/>
</svg>
