<?xml version="1.0" encoding="utf-8"?>
<!-- Generator: Adobe Illustrator 14.0.0, SVG Export Plug-In . SVG Version: 6.00 Build 43363)  -->
<!DOCTYPE svg PUBLIC "-//W3C//DTD SVG 1.1//EN" "http://www.w3.org/Graphics/SVG/1.1/DTD/svg11.dtd">
<svg version="1.1" id="Ebene_1" xmlns="http://www.w3.org/2000/svg" xmlns:xlink="http://www.w3.org/1999/xlink" x="0px" y="0px"
	 width="1024px" height="1024px" viewBox="0 0 1024 1024" enable-background="new 0 0 1024 1024" xml:space="preserve">
<g>
	<path  d="M798.81,257.093c-37.286-36.114-80.695-64.464-129.021-84.262C619.792,152.348,566.704,141.963,512,141.963
		c-54.705,0-107.792,10.385-157.788,30.868c-48.327,19.798-91.736,48.148-129.021,84.262
		c-37.339,36.166-66.665,78.303-87.162,125.241c-21.25,48.663-32.025,100.349-32.025,153.623s10.775,104.962,32.025,153.624
		c20.497,46.938,49.823,89.076,87.162,125.242c37.286,36.114,80.695,64.464,129.021,84.263
		c49.996,20.481,103.083,30.867,157.788,30.867c54.704,0,107.792-10.386,157.788-30.867c48.327-19.799,91.735-48.148,129.021-84.263
		c37.339-36.166,66.664-78.304,87.161-125.242c21.251-48.662,32.025-100.35,32.025-153.624s-10.774-104.96-32.025-153.623
		C865.474,335.396,836.148,293.258,798.81,257.093z M512,881.953c-197.4,0-357.996-155.213-357.996-345.996
		c0-190.782,160.596-345.994,357.996-345.994c197.399,0,357.996,155.212,357.996,345.994
		C869.996,726.74,709.399,881.953,512,881.953z"/>
	<path  d="M119.621,303.006c40.621-68.216,98.589-124.954,167.638-164.078c11.532-6.534,15.584-21.18,9.049-32.712
		c-6.535-11.532-21.182-15.585-32.712-9.049c-76.291,43.228-140.338,105.914-185.217,181.281c-6.781,11.389-3.047,26.119,8.342,32.9
		c3.85,2.292,8.08,3.383,12.256,3.383C107.158,314.731,115.131,310.545,119.621,303.006z"/>
	<path  d="M945.621,278.448c-44.88-75.368-108.927-138.054-185.217-181.281c-11.535-6.537-26.179-2.483-32.713,9.049
		s-2.482,26.178,9.05,32.712c69.048,39.124,127.017,95.861,167.638,164.078c4.49,7.54,12.463,11.725,20.644,11.725
		c4.177,0,8.408-1.091,12.257-3.383C948.668,304.566,952.402,289.836,945.621,278.448z"/>
	<path  d="M512,250.751c-13.255,0-24,10.745-24,24v237.206H304.799c-13.255,0-24,10.745-24,24s10.745,24,24,24H512
		c13.255,0,24-10.745,24-24V274.751C536,261.496,525.255,250.751,512,250.751z"/>
</g>
</svg>
