<?xml version="1.0" encoding="utf-8"?>
<!-- Generator: Adobe Illustrator 22.0.0, SVG Export Plug-In . SVG Version: 6.00 Build 0)  -->
<svg version="1.1" id="Ebene_1" xmlns="http://www.w3.org/2000/svg" xmlns:xlink="http://www.w3.org/1999/xlink" x="0px" y="0px"
	 viewBox="0 0 1024 1024" style="enable-background:new 0 0 1024 1024;" xml:space="preserve">
<style type="text/css">
	.st0{display:none;}
	.st1{fill:#2368BC;}
</style>
<g id="HG" class="st0">
</g>
<path class="st1" d="M530,488H255.7l138.2-163.7c8.5-10.1,7.3-25.3-2.9-33.8c-10.1-8.5-25.3-7.3-33.8,2.9L185.7,496.5
	c-7.5,8.9-7.5,22,0,31l171.5,203.2c4.7,5.6,11.5,8.5,18.4,8.5c5.5,0,11-1.9,15.5-5.7c10.1-8.5,11.4-23.7,2.9-33.8L255.7,536H530
	c13.3,0,24-10.7,24-24S543.3,488,530,488z"/>
</svg>
