<?xml version="1.0" encoding="utf-8"?>
<!-- Generator: Adobe Illustrator 22.0.0, SVG Export Plug-In . SVG Version: 6.00 Build 0)  -->
<svg version="1.1" id="Ebene_1" xmlns="http://www.w3.org/2000/svg" xmlns:xlink="http://www.w3.org/1999/xlink" x="0px" y="0px"
	 viewBox="0 0 1024 1024" style="enable-background:new 0 0 1024 1024;" xml:space="preserve">
<style type="text/css">
	.st0{display:none;}
	.st1{fill:#2368BC;}
	.st2{fill:#2368BC;}
</style>
<g id="HG" class="st0">
</g>
<g id="vwicn037">
	<path class="st1" d="M785.5,960.8c-6.7,0-13.2-2.8-17.8-7.9l-127.2-140c-8.9-9.8-8.2-25,1.6-33.9c9.8-8.9,25-8.2,33.9,1.6
		l104.6,115.1L918,645.3c6.4-11.6,21-15.9,32.6-9.5s15.9,21,9.5,32.6l-153.5,280c-3.7,6.8-10.5,11.4-18.2,12.3
		C787.4,960.7,786.4,960.8,785.5,960.8z"/>
	<path class="st2" d="M837.1,330L582.9,71.2c-4.5-4.6-10.7-7.2-17.1-7.2H204c-13.3,0-24,10.7-24,24v848c0,13.3,10.7,24,24,24h345
		v-48H228V112h279v271c0,13.3,10.7,24,24,24h265v138h48V346.8C844,340.5,841.5,334.5,837.1,330z M555,359V112h0.7L796,356.6v2.4H555
		z"/>
</g>
</svg>
