<?xml version="1.0" encoding="utf-8"?>
<!-- Generator: Adobe Illustrator 22.0.0, SVG Export Plug-In . SVG Version: 6.00 Build 0)  -->
<svg version="1.1" id="Ebene_1" xmlns="http://www.w3.org/2000/svg" xmlns:xlink="http://www.w3.org/1999/xlink" x="0px" y="0px"
	 viewBox="0 0 1024 1024" style="enable-background:new 0 0 1024 1024;" xml:space="preserve">
<style type="text/css">
	.st0{display:none;}
	.st1{fill:#2368BC;}
</style>
<g id="HG" class="st0">
</g>
<g id="vwicn045">
	<g>
		<path class="st1" d="M238,453.7c-44.1,0-85.5-16.1-117.1-45.8c-31.1-29.1-48.9-68.2-50.2-110l0,0c-1.1-36.7,11-73,34.2-102.3
			c22.5-28.4,54.4-49.2,90.1-58.6c45.9-14.7,167.1-48.1,315.1-48.1c0.2,0,0.5,0,0.7,0c185.3,0.1,303,27.4,311.8,29.5
			c74.8,15.9,128.6,78.4,130.8,151.9c1.3,43.3-15.1,84.5-46.3,116c-30.8,31.2-72.4,49.2-117.2,50.7c-2.1,0.1-4.1,0.1-6.1,0.1
			c-44.1,0-85.5-16.1-117.1-45.8c-29.3-27.4-46.8-63.6-49.8-102.6c-27.7-3.9-71.4-9.1-115.1-10.1c-36.4-0.9-70.2,3.3-94.3,7.5
			c0,0.3,0,0.5,0,0.8c1.3,43.2-15.1,84.4-46.3,116c-30.8,31.2-72.4,49.2-117.2,50.7C242.1,453.7,240,453.7,238,453.7z M510.1,136.9
			c-142,0-257.9,32.2-301.1,46.1l-1.3,0.4c-54,14-90.7,60.5-89,113.1v0c0.9,28.9,13.3,56.1,35,76.4c23.7,22.2,55.2,33.8,88.8,32.7
			c66.5-2.2,119-54.9,117.1-117.3c-0.2-5.7-0.8-11.4-1.9-17l-4.5-23l22.9-5c24.2-5.3,72.8-14,126.8-12.8
			c59.7,1.4,118.9,10.1,141.5,13.7l21.7,3.5l-1.6,22c-0.3,3.5-0.3,6.6-0.2,9.7l0,0.4c0.9,28.9,13.3,56.1,35,76.4
			c23.7,22.2,55.2,33.8,88.8,32.7c66.5-2.2,119-54.9,117.1-117.3c-1.5-51.4-39.8-95.2-93.1-106.4l-0.7-0.2
			c-1.2-0.3-118.5-28.1-300.8-28.2C510.6,136.9,510.3,136.9,510.1,136.9z"/>
		<path class="st1" d="M812,935H212.6c-46.6,0-84.6-37.2-84.8-83c-0.2-4.9-1.5-48.9,0.3-97.9c3.6-97.5,16.4-125.5,25.7-138.1
			c19.4-26.2,85-65.7,168.6-114.6c26.9-15.7,57.3-33.5,62.9-38.4c0.3-0.3,7.4-6.8,14.6-36.2c4.1-16.9,5.9-31.8,5.9-32
			c1.5-13.2,13.5-22.6,26.6-21.1c13.2,1.5,22.6,13.5,21.1,26.6c-0.1,0.7-2.1,18-6.9,37.7c-7.3,29.9-17,49.9-29.6,60.9
			c-8.6,7.5-30,20.2-70.3,43.7c-30.9,18.1-65.9,38.5-96,57.8c-44.2,28.4-55.5,40.2-58.3,43.9c-2.2,2.9-13.1,21.9-16.3,111.3
			c-1.8,49.2-0.3,94.5-0.3,94.9c0,0.3,0,0.6,0,0.8c0,19.5,16.5,35.4,36.8,35.4H812c20.3,0,36.8-15.9,36.8-35.4c0-0.3,0-0.7,0-1
			c0-0.4,1.8-44.5-0.9-92.9c-4.7-84.9-18.8-106.8-23-111.5c-22.1-24.7-83.1-60.4-132.2-89c-61.3-35.8-83.5-49.6-91.9-64.1
			c-13.7-23.4-21.2-81.3-22.6-92.6c-1.6-13.2,7.8-25.1,21-26.7c13.2-1.6,25.1,7.8,26.7,21c3.3,27.3,10.3,62.6,16,73.4
			c7.7,8.2,46.6,30.9,75.1,47.6c54.7,31.9,116.6,68.1,143.8,98.5c19.6,22,31.1,68.2,35.1,141.2c2.7,48.4,1.1,91.4,0.9,96.7
			C896.5,897.9,858.6,935,812,935z M642.3,468.8C642.3,468.9,642.3,468.9,642.3,468.8C642.3,468.9,642.3,468.9,642.3,468.8z"/>
		<path class="st1" d="M512,855.2c-82.1,0-148.9-66.8-148.9-148.9S429.9,557.4,512,557.4s148.9,66.8,148.9,148.9
			S594.1,855.2,512,855.2z M512,605.4c-55.6,0-100.9,45.3-100.9,100.9c0,55.6,45.3,100.9,100.9,100.9c55.6,0,100.9-45.3,100.9-100.9
			C612.9,650.7,567.6,605.4,512,605.4z"/>
	</g>
</g>
</svg>
