<?xml version="1.0" encoding="utf-8"?>
<!-- Generator: Adobe Illustrator 22.0.0, SVG Export Plug-In . SVG Version: 6.00 Build 0)  -->
<svg version="1.1" id="Ebene_1" xmlns="http://www.w3.org/2000/svg" xmlns:xlink="http://www.w3.org/1999/xlink" x="0px" y="0px"
	 viewBox="0 0 1024 1024" style="enable-background:new 0 0 1024 1024;" xml:space="preserve">
<style type="text/css">
	.st0{display:none;}
</style>
<g id="HG" class="st0">
</g>
<path class="st1" d="M959.3,243.4c-4.4-24.6-20.1-58.8-69.9-81.3c-49.4-22.5-86-12.4-108,0c-23.6,13.3-35.4,32-36.6,34.1l-0.7,1.2
	L594.7,528.6c-24.1-16.2-51-29.4-80.5-39.5c-4.7-1.6-9.4-3.1-14.2-4.5c15.8-9.5,30.5-20.9,43.8-34.3c42.8-42.8,66.4-99.7,66.4-160.3
	s-23.6-117.5-66.4-160.3C501,86.9,444.1,63.3,383.5,63.3S266,86.9,223.2,129.7s-66.4,99.7-66.4,160.3s23.6,117.5,66.4,160.3
	c13.3,13.3,28,24.8,43.8,34.3c-39.7,11.8-76.3,29.8-107.5,53.2c-29.9,22.4-53.5,48.7-70,78c-17.5,31-26.4,64.1-26.4,98.3
	s8.9,67.2,26.4,98.3c16.6,29.4,40.1,55.6,70,78c60.1,45.1,139.7,69.9,224.1,69.9c45.3,0,89.9-7.3,130.7-21.3
	c0.8,8.5,6.1,16,14.1,19.6c3.1,1.4,6.5,2.1,9.8,2.1c6.5,0,13-2.7,17.6-7.7l193.8-208.7c2-2.1,3.5-4.6,4.6-7.1
	c0.1-0.1,0.1-0.1,0.2-0.2l2.9-3l198.1-439.3l0.4-0.8l0.3-0.8C956.8,290.8,964.1,269.8,959.3,243.4z M571.2,837.3l8.8-98.1
	c9,8.6,20.3,16.6,34.5,23c13.9,6.3,28.2,10.1,42.5,11.1l-67.2,72.4L571.2,837.3z M204.8,290c0-98.5,80.2-178.7,178.7-178.7
	S562.2,191.5,562.2,290c0,93.8-72.6,171-164.6,178.1c-4.7-0.2-9.4-0.2-14.1-0.2c-4.7,0-9.4,0.1-14.1,0.2
	C277.4,460.9,204.8,383.8,204.8,290z M188.2,852c-49.8-37.3-77.2-86.3-77.2-137.9s27.4-100.6,77.2-137.9
	c48.4-36.2,111.9-57.3,180.3-60c5,0.3,9.9,0.5,15,0.5c5,0,10-0.2,14.9-0.5c66.2,2.7,128.8,23,176.2,57l-27.8,61.5
	c-3.9,3.8-6.4,9-7,14.8l-21.3,236.5c-41,17.2-87.4,26.2-135.1,26.2C309.4,912.3,240.1,890.9,188.2,852z M911,276.2L717.1,706
	c-9.2,7.9-41.6,31.3-82.8,12.5c-19.5-8.9-32.4-23.1-38.3-42.4c-3.4-11.2-3.6-21.3-3.4-26.2l193.9-429.9c1.8-2.5,8-10.4,18.5-16.3
	c17.9-10.1,39.6-9.4,64.6,1.9c24,10.9,38.2,25.8,42.2,44.4C914.4,262.7,911.7,273.5,911,276.2z"/>
</svg>
