<?xml version="1.0" encoding="utf-8"?>
<!-- Generator: Adobe Illustrator 22.0.0, SVG Export Plug-In . SVG Version: 6.00 Build 0)  -->
<svg version="1.1" id="Ebene_1" xmlns="http://www.w3.org/2000/svg" xmlns:xlink="http://www.w3.org/1999/xlink" x="0px" y="0px"
	 viewBox="0 0 1024 1024" style="enable-background:new 0 0 1024 1024;" xml:space="preserve">
<style type="text/css">
	.st0{display:none;}
</style>
<g id="HG" class="st0">
</g>
<g>
	<path class="st1" d="M940,234h-76.7c-7.7,0-15,3.7-19.5,10l-98.1,136h-76.9l-51.6-130.8c-3.6-9.2-12.5-15.2-22.3-15.2h-5.6l5.1-14
		H710c13.3,0,24-10.7,24-24V88c0-13.3-10.7-24-24-24H338c-13.3,0-24,10.7-24,24v108c0,13.3,10.7,24,24,24h114l4.4,14h-6.7
		c-9.8,0-18.7,6-22.3,15.1L375.3,380h-107c-53.7,0-107.6,35.2-148.1,96.5C82,534.6,60,609.5,60,682c0,13.3,10.7,24,24,24h145.7
		c13.3,0,24-10.7,24-24c0-30.4,5.9-56.6,16.6-73.8c10.1-16.3,24.1-24.2,42.7-24.2h430.7l93.4,129.1c4.5,6.2,11.7,9.9,19.4,9.9H940
		c13.3,0,24-10.7,24-24V258C964,244.7,953.3,234,940,234z M492.5,188.8c-3.1-10-12.4-16.8-22.9-16.8H362v-60h324v60H577.6
		c-10.1,0-19.1,6.3-22.6,15.8L538.3,234h-31.6L492.5,188.8z M916,675h-47.1l-93.4-129.1c-4.5-6.2-11.7-9.9-19.4-9.9H313
		c-35.5,0-64.4,16.2-83.4,46.8c-12.4,19.9-20.1,45.6-22.8,75.2h-97.8c9-119.4,83.5-230,159.4-230h123.3c9.8,0,18.7-6,22.3-15.1
		L466,282h23.1h66h23.5l51.6,130.8c3.6,9.2,12.5,15.2,22.3,15.2H758c7.7,0,15-3.7,19.5-10l98.1-136H916V675z"/>
	<path class="st1" d="M197.9,793c-14.5-20.9-28.2-38-28.8-38.8l-20.4-25.4l-18.2,27c-4.7,7-46.2,68.8-55.7,91.4
		c-8.4,19.9-9.8,53,7.1,78.4c9.9,14.9,29.9,32.8,68.5,32.8c29.8,0,52.4-8.6,66.9-25.4c14.7-17,19.9-41.2,15.4-71.8
		C231.3,851.4,226.2,833.8,197.9,793z M181,901.6c-6.3,7.3-20.1,8.8-30.6,8.8c-21,0-26.7-8.5-28.5-11.3c-7.2-10.8-5.4-27.2-2.9-33.2
		c4-9.4,18.5-33.1,32.7-55c2.2,3.1,4.6,6.4,6.9,9.7c24.2,35,26.5,46.3,26.6,47.5C187.6,884.3,186.2,895.6,181,901.6z"/>
</g>
</svg>
