<?xml version="1.0" encoding="utf-8"?>
<!-- Generator: Adobe Illustrator 22.0.0, SVG Export Plug-In . SVG Version: 6.00 Build 0)  -->
<svg version="1.1" id="Ebene_1" xmlns="http://www.w3.org/2000/svg" xmlns:xlink="http://www.w3.org/1999/xlink" x="0px" y="0px"
	 viewBox="0 0 1024 1024" style="enable-background:new 0 0 1024 1024;" xml:space="preserve">
<style type="text/css">
	.st0{display:none;}
	.st1{fill:#2368BC;}
</style>
<g id="HG" class="st0">
</g>
<g>
	<path class="st1" d="M624.3,328.9c0-83.5-68.4-151.4-152.4-151.4c-53.9,0-101.3,27.9-128.4,69.9c-27.1-42-74.5-69.9-128.4-69.9
		c-84,0-152.4,67.9-152.4,151.4c0,67.3,44.4,124.4,105.6,144.1H87c-13.3,0-24,10.7-24,24v326c0,13.3,10.7,24,24,24h513
		c13.3,0,24-10.7,24-24V497c0-13.3-10.7-24-24-24h-81.3C579.9,453.3,624.3,396.2,624.3,328.9z M110.7,328.9
		c0-57,46.8-103.4,104.4-103.4s104.4,46.4,104.4,103.4c0,57-46.8,103.4-104.4,103.4S110.7,385.9,110.7,328.9z M576,799H111V521h465
		V799z M471.9,432.3c-57.6,0-104.4-46.4-104.4-103.4c0-57,46.8-103.4,104.4-103.4c57.6,0,104.4,46.4,104.4,103.4
		C576.3,385.9,529.5,432.3,471.9,432.3z"/>
	<path class="st1" d="M953.9,384.4c-4.5-4.5-10.6-7-17-7c0,0,0,0,0,0l-121.8,0.2c-8.4,0-16.1,4.4-20.5,11.5
		c-4.6,7.6-32.5,59.1-45.9,84.1h-56.6c-1-0.1-2.1-0.2-3.1-0.2c-13.3,0-24,10.7-24,24v209c0,13.3,10.7,24,24,24h52.3l60.9,79.9
		c4.5,5.9,11.4,9.4,18.9,9.4l115.6,1.1c0.1,0,0.2,0,0.2,0c6.3,0,12.4-2.5,16.9-6.9c4.6-4.5,7.1-10.6,7.1-17.1v-395
		C960.9,395,958.4,388.9,953.9,384.4z M912.9,772.2l-79.6-0.8l-61-80c-4.5-6-11.6-9.4-19.1-9.4H713V521.2h50
		c8.8,0,16.9-4.8,21.1-12.6c13.7-25.4,34.4-63.7,45-83l83.8-0.1V772.2z"/>
</g>
</svg>
