<?xml version="1.0" encoding="utf-8"?>
<!-- Generator: Adobe Illustrator 22.0.0, SVG Export Plug-In . SVG Version: 6.00 Build 0)  -->
<svg version="1.1" xmlns="http://www.w3.org/2000/svg" xmlns:xlink="http://www.w3.org/1999/xlink" x="0px" y="0px"
	 viewBox="0 0 1024 1024" style="enable-background:new 0 0 1024 1024;" xml:space="preserve">
<style type="text/css">
	.st0{display:none;}
	.st1{fill:#2368BC;}
</style>
<g id="HG" class="st0">
</g>
<g id="vwicn162_1_">
	<g>
		<path class="st1" d="M956,497L529,70c-9.4-9.4-24.6-9.4-33.9,0L68,497c-9.4,9.4-9.4,24.6,0,33.9l427,427c4.7,4.7,10.8,7,17,7
			c6.1,0,12.3-2.3,17-7l427-427C965.3,521.6,965.3,506.4,956,497z M512,907.1L118.9,514L512,120.9L905.1,514L512,907.1z"/>
		<path class="st1" d="M421.8,363.1c-14.8,28.4-16.5,56-16.6,59l48,2.2l0,0.1c0-0.2,1.3-20.8,11.8-40.3c12.7-23.5,33-34.9,62-34.9
			c31.6,0,52.3,9.1,63.2,27.8c9.5,16.2,10.6,36.9,10.6,51.1c0,20.2-17.3,34.4-45.9,55.5c-29.6,21.8-66.4,49-67.8,96.3
			c-1,35,0,55.4,0,56.3c0.6,12.8,11.2,22.8,24,22.8c0.4,0,0.8,0,1.2,0c13.2-0.6,23.4-11.9,22.8-25.1c0-0.2-0.9-19.6,0-52.6
			c0.6-22.3,18.7-37.2,48.3-59c14.8-10.9,30-22.1,42.1-36c15.6-17.9,23.2-36.9,23.2-58.1c0-19.8-1.8-49.1-17.1-75.3
			c-13.8-23.5-43.1-51.6-104.7-51.6c-26.2,0-49.1,6.5-68.1,19.5C443.6,331.1,431.1,345.4,421.8,363.1z"/>
		<path class="st1" d="M512.2,698c-16.6,0-30,13.4-30,30c0,16.6,13.4,30,30,30c16.6,0,30-13.4,30-30
			C542.2,711.4,528.7,698,512.2,698z"/>
	</g>
</g>
</svg>
