<?xml version="1.0" encoding="utf-8"?>
<!-- Generator: Adobe Illustrator 22.0.0, SVG Export Plug-In . SVG Version: 6.00 Build 0)  -->
<svg version="1.1" id="Ebene_1" xmlns="http://www.w3.org/2000/svg" xmlns:xlink="http://www.w3.org/1999/xlink" x="0px" y="0px"
	 viewBox="0 0 1024 1024" style="enable-background:new 0 0 1024 1024;" xml:space="preserve">
<style type="text/css">
	.st0{display:none;}
	.st1{display:none;}
	.st2{display:none;}
	.st3{display:none;}
</style>
<g id="HG" class="st0">
</g>
<g id="vwicn137_1_">
	<path class="st1" d="M529,85c0,0,254.9,61.1,330.8,184.4C963,437,910,679.1,878,726.1s-202.9-98.4-202.9-98.4
		s55.2-112.3,29.8-168.7c-25.4-56.3-120.5-148.2-167.4-147S512,88,512,88L529,85z"/>
	<path class="st2" d="M482.5,85c0,0-254.9,61.1-330.8,184.4C48.5,437,101.5,679.1,133.5,726.1s202.9-98.4,202.9-98.4
		S281.2,515.4,306.6,459S427.1,310.9,474,312s25.5-224,25.5-224L482.5,85z"/>
	<path class="st3" d="M512,712c80.9-3.8,163.1-84.3,163.1-84.3l175.4,139.5c0,0-129.6,183.8-338.6,168.8S165.2,756,165.2,756
		l183.6-128.3C348.9,627.7,405,717,512,712z"/>
	<path class="st4" d="M927.2,343.4c-22.5-55.6-55.7-105.5-98.4-148.2s-92.6-75.9-148.2-98.4C626.9,75,570.2,64,512,64
		c-58.2,0-114.9,11-168.6,32.8c-55.6,22.5-105.5,55.7-148.2,98.4c-42.8,42.8-75.9,92.6-98.4,148.2C75,397.1,64,453.8,64,512
		c0,58.2,11,114.9,32.8,168.6c22.5,55.6,55.7,105.5,98.4,148.2c42.8,42.8,92.6,75.9,148.2,98.4C397.1,949,453.8,960,512,960
		c58.2,0,114.9-11,168.6-32.8c55.6-22.5,105.5-55.7,148.2-98.4s75.9-92.6,98.4-148.2C949,626.9,960,570.2,960,512
		C960,453.8,949,397.1,927.2,343.4z M636.4,636.4C603.2,669.7,559,688,512,688s-91.2-18.3-124.4-51.5C354.3,603.2,336,559,336,512
		c0-47,18.3-91.2,51.5-124.4c34.3-34.3,79.4-51.5,124.4-51.5s90.1,17.2,124.4,51.5C669.7,420.8,688,465,688,512
		C688,559,669.7,603.2,636.4,636.4z M229.2,229.2c71.5-71.5,165.4-112.6,265.8-116.8V285c0,1.2,0.1,2.4,0.3,3.6
		c-53.5,3.9-103.3,26.7-141.7,65C311.3,395.9,288,452.2,288,512c0,38.3,9.6,75.2,27.6,107.9l-142.9,104
		C76.3,569.5,95.1,363.2,229.2,229.2z M512,912c-106.8,0-207.3-41.6-282.8-117.2c-10.2-10.2-19.8-20.9-28.6-31.9l142.6-103.8
		c3.3,3.8,6.8,7.6,10.5,11.2C395.9,712.7,452.2,736,512,736s116.1-23.3,158.4-65.6c3.1-3.1,6.1-6.3,9-9.6l142.7,103.9
		c-8.5,10.4-17.6,20.5-27.3,30.2C719.3,870.4,618.8,912,512,912z M850.1,725.7L707.3,621.8C726,588.6,736,551.1,736,512
		c0-59.8-23.3-116.1-65.6-158.4c-35-35-79.6-57-127.9-63.5c0.4-1.6,0.5-3.3,0.5-5.1V113.2c95.2,7.2,183.6,47.8,251.8,116
		C929.4,363.8,947.9,571.2,850.1,725.7z"/>
</g>
</svg>
