<?xml version="1.0" encoding="utf-8"?>
<!-- Generator: Adobe Illustrator 22.0.0, SVG Export Plug-In . SVG Version: 6.00 Build 0)  -->
<svg version="1.1" id="Ebene_1" xmlns="http://www.w3.org/2000/svg" xmlns:xlink="http://www.w3.org/1999/xlink" x="0px" y="0px"
	 viewBox="0 0 1024 1024" style="enable-background:new 0 0 1024 1024;" xml:space="preserve">
<style type="text/css">
	.st0{display:none;}
	.st1{fill:#2368BC;}
</style>
<g id="HG" class="st0">
</g>
<g id="vwicn039">
	<path class="st1" d="M837.1,330L582.9,71.2c-4.5-4.6-10.7-7.2-17.1-7.2H204c-13.3,0-24,10.7-24,24v848c0,13.3,10.7,24,24,24h616
		c13.3,0,24-10.7,24-24V346.8C844,340.5,841.5,334.5,837.1,330z M796,356.6v2.4H555V112h0.7L796,356.6z M228,912V112h279v271
		c0,13.3,10.7,24,24,24h265v505H228z"/>
	<path class="st1" d="M360,771.8c-26.5,0-48-21.5-48-48s21.5-48,48-48s48,21.5,48,48S386.5,771.8,360,771.8z M360,723.8L360,723.8
		C360,723.8,360,723.8,360,723.8z"/>
	<path class="st1" d="M633.8,771.8c-26.5,0-48-21.5-48-48s21.5-48,48-48s48,21.5,48,48S660.3,771.8,633.8,771.8z M633.8,723.8
		C633.8,723.8,633.8,723.8,633.8,723.8L633.8,723.8z"/>
	<path class="st1" d="M633.8,589.8c-26.5,0-48-21.5-48-48s21.5-48,48-48s48,21.5,48,48S660.3,589.8,633.8,589.8z M633.8,541.8
		C633.8,541.8,633.8,541.8,633.8,541.8L633.8,541.8z"/>
	<path class="st1" d="M359.4,636c-12.7,0-23.3-9.9-23.9-22.8c0-0.7-0.8-16.9,0-44.5c1.1-39.6,31.1-61.8,55.2-79.5
		c20.9-15.5,33.8-25.6,33.8-39.2c0-40.7-14.7-56.6-52.6-56.6c-21.2,0-35.4,8.1-44.4,25.5c-7.2,13.9-8.2,28.3-8.2,28.4
		c-0.6,13.2-11.8,23.5-25.1,22.9c-13.2-0.6-23.5-11.8-22.9-25.1c0.1-2.5,1.5-25.2,13.6-48.4c17.3-33.1,48.1-51.3,87-51.3
		c50.7,0,75,23.4,86.5,43c12.7,21.7,14.1,45.5,14.1,61.6c0,38.6-29.5,60.4-53.3,77.9c-21.9,16.2-35.3,27.1-35.7,42.3
		c-0.8,25.6,0,40.6,0,40.7c0.7,13.2-9.5,24.5-22.8,25.2C360.2,636,359.8,636,359.4,636z"/>
</g>
</svg>
