<?xml version="1.0" encoding="utf-8"?>
<!-- Generator: Adobe Illustrator 14.0.0, SVG Export Plug-In . SVG Version: 6.00 Build 43363)  -->
<!DOCTYPE svg PUBLIC "-//W3C//DTD SVG 1.1//EN" "http://www.w3.org/Graphics/SVG/1.1/DTD/svg11.dtd">
<svg version="1.1" id="Ebene_1" xmlns="http://www.w3.org/2000/svg" xmlns:xlink="http://www.w3.org/1999/xlink" x="0px" y="0px"
	 width="1024px" height="1024px" viewBox="0 0 1024 1024" enable-background="new 0 0 1024 1024" xml:space="preserve">
<g>
	<path  d="M469.626,775.189c-6.721,0-13.188-2.825-17.764-7.864L251.758,547.003
		c-8.912-9.812-8.182-24.99,1.63-33.902c9.812-8.911,24.99-8.181,33.902,1.631l177.473,195.405l225.39-411.129
		c6.371-11.624,20.958-15.881,32.582-9.508c11.623,6.372,15.88,20.959,9.508,32.582l-241.57,440.645
		c-3.729,6.803-10.517,11.384-18.221,12.296C471.508,775.135,470.564,775.189,469.626,775.189L469.626,775.189z"/>
</g>
<g>
	<path  d="M872,960H152c-48.523,0-88-39.477-88-88V152c0-48.523,39.477-88,88-88h720c48.523,0,88,39.477,88,88v720
		C960,920.523,920.523,960,872,960L872,960z M152,112c-22.056,0-40,17.944-40,40v720c0,22.056,17.944,40,40,40h720
		c22.056,0,40-17.944,40-40V152c0-22.056-17.944-40-40-40H152L152,112z"/>
</g>
</svg>
