<?xml version="1.0" encoding="utf-8"?>
<!-- Generator: Adobe Illustrator 22.0.0, SVG Export Plug-In . SVG Version: 6.00 Build 0)  -->
<svg version="1.1" id="Ebene_1" xmlns="http://www.w3.org/2000/svg" xmlns:xlink="http://www.w3.org/1999/xlink" x="0px" y="0px"
	 viewBox="0 0 1024 1024" style="enable-background:new 0 0 1024 1024;" xml:space="preserve">
<style type="text/css">
	.st0{display:none;}
	.st1{fill:#2368BC;}
</style>
<g id="HG" class="st0">
</g>
<g>
	<path class="st1" d="M927.2,343.4c-22.5-55.6-55.7-105.5-98.4-148.2s-92.6-75.9-148.2-98.4C626.9,75,570.2,64,512,64
		c-58.2,0-114.9,11-168.6,32.8c-55.6,22.5-105.5,55.7-148.2,98.4c-42.8,42.8-75.9,92.6-98.4,148.2C75,397.1,64,453.8,64,512
		c0,58.2,11,114.9,32.8,168.6c22.5,55.6,55.7,105.5,98.4,148.2c42.8,42.8,92.6,75.9,148.2,98.4C397.1,949,453.8,960,512,960
		c58.2,0,114.9-11,168.6-32.8c55.6-22.5,105.5-55.7,148.2-98.4s75.9-92.6,98.4-148.2C949,626.9,960,570.2,960,512
		C960,453.8,949,397.1,927.2,343.4z M794.8,794.8C719.3,870.4,618.8,912,512,912s-207.3-41.6-282.8-117.2
		c-156-156-156-409.7,0-565.7C304.7,153.6,405.2,112,512,112s207.3,41.6,282.8,117.2C950.8,385.1,950.8,638.9,794.8,794.8z"/>
	<path class="st1" d="M693,728.3C693,728.3,693,728.3,693,728.3l-275.1,0.1c23.6-25.1,55-60,86.6-99.5
		C590.9,521,634.7,434,634.8,370.2c0-31.7-10.5-58-31.1-78.1c-33.8-32.8-72.1-47.6-113.9-44c-96.5,8.3-174.9,114.4-178.2,118.9
		c-7.8,10.7-5.4,25.7,5.2,33.5c10.7,7.8,25.7,5.5,33.5-5.2c0.7-0.9,68.9-93.1,143.6-99.4c27.7-2.3,52.7,7.7,76.3,30.6
		c11.2,10.8,16.6,25.1,16.6,43.6c0,51.8-41.3,130.7-119.4,228.3c-60.8,76-122.6,136.1-123.2,136.6c-7,6.8-9.2,17.2-5.5,26.2
		c3.7,9.1,12.5,15,22.2,15c0,0,0,0,0,0l332.1-0.1c13.3,0,24-10.8,24-24C717,739,706.3,728.3,693,728.3z"/>
</g>
</svg>
