<?xml version="1.0" encoding="utf-8"?>
<!-- Generator: Adobe Illustrator 14.0.0, SVG Export Plug-In . SVG Version: 6.00 Build 43363)  -->
<!DOCTYPE svg PUBLIC "-//W3C//DTD SVG 1.1//EN" "http://www.w3.org/Graphics/SVG/1.1/DTD/svg11.dtd">
<svg version="1.1" id="Ebene_1" xmlns="http://www.w3.org/2000/svg" xmlns:xlink="http://www.w3.org/1999/xlink" x="0px" y="0px"
	 width="1024px" height="1024px" viewBox="0 0 1024 1024" enable-background="new 0 0 1024 1024" xml:space="preserve">
<path  d="M899.554,561.386c0-22.973-6.704-44.308-19.926-63.411c-12.758-18.433-31.357-34.288-55.284-47.125
	c-48.053-25.772-103.634-39.495-165.354-40.842c5.468-17.287,13.672-31.993,25.475-53.15c1.61-2.888,3.273-5.868,4.987-8.961
	l10.473-18.488c27.129-47.904,40.316-84.979,40.316-113.344c0-53.861-22.479-123.038-129.527-146.811l-42.814-10.122l-39.07,164.013
	L403.08,349.064l-0.734,0.769c-9.387,10.271-24.687,29.163-46.771,57.751l-19.524,24.392l-0.184,0.232
	c-27.12,34.753-37,42.677-39.385,44.279c-2.182,1.466-9.279,4.876-28.019,4.876H171.47l-6.618,13.323
	c-26.811,53.977-40.405,110.254-40.405,167.268c0,55.272,12.242,111.405,36.387,166.839l6.279,14.416h109.918
	c48.31,50.563,101.201,88.494,157.348,112.823l3.721,1.612l4.044,0.301c18.622,1.383,32.061,2.055,41.083,2.055h136.86
	c39.868,0,69.619-6.98,90.965-21.347c21.602-14.556,33.917-36.45,35.917-63.646c64.359-13.793,74.682-60.074,74.682-88.307
	c0-0.896-0.016-1.813-0.048-2.757c14.247-6.09,25.878-14.286,34.715-24.491c13.322-15.383,20.077-34.791,20.077-57.684
	c0-10.449-2.733-39.051-10.77-61.848C885.999,618.063,899.554,596.794,899.554,561.386z M816.967,648.263
	c5.893,8.862,11.428,39.844,11.428,53.506c0,16.062-4.617,33.664-38.863,42.443l-21.685,5.559l4.037,22.018
	c1.537,8.384,1.767,12.941,1.767,14.912c0,20.532-6.504,40.044-53.684,43.759l-26.021,2.049l4.221,25.758
	c1.067,6.514,1.092,8.641,1.093,8.724c0,19.261-8.031,27.143-15.019,31.851c-8.92,6.004-27.291,13.16-64.153,13.16h-136.86
	c-7.09,0-18.324-0.546-33.433-1.625c-51.439-22.971-100.118-59.103-144.744-107.445l-7.127-7.721h-99.057
	c-17.54-44.596-26.419-89.35-26.419-133.255c0-44.901,9.785-89.438,29.104-132.591h66.912c23.816,0,41.739-4.265,54.79-13.034
	c7.681-5.161,20.346-16.017,50.362-54.471l19.561-24.438l0.256-0.327c20.753-26.868,35.553-45.199,44-54.5l134.947-135.13
	l31.117-130.623c60.521,14.291,88.746,45.89,88.746,99.223c0,13.46-5.913,39.947-34.082,89.688l-10.526,18.583l-0.11,0.197
	c-1.711,3.088-3.37,6.062-4.977,8.942c-18.188,32.604-31.328,56.161-37.102,97.07l-3.86,27.354h47.278
	c57.772,0,109.181,11.86,152.792,35.25c33.11,17.764,49.899,40.722,49.899,68.237c0,21.675-7.49,32.609-31.547,56.591
	l-13.939,13.896L816.967,648.263z"/>
</svg>
