<?xml version="1.0" encoding="utf-8"?>
<!-- Generator: Adobe Illustrator 14.0.0, SVG Export Plug-In . SVG Version: 6.00 Build 43363)  -->
<!DOCTYPE svg PUBLIC "-//W3C//DTD SVG 1.1//EN" "http://www.w3.org/Graphics/SVG/1.1/DTD/svg11.dtd">
<svg version="1.1" id="Ebene_1" xmlns="http://www.w3.org/2000/svg" xmlns:xlink="http://www.w3.org/1999/xlink" x="0px" y="0px"
	 width="1024px" height="1024px" viewBox="0 0 1024 1024" enable-background="new 0 0 1024 1024" xml:space="preserve">
<path  d="M936,411H812.744L631.078,180.158c-4.551-5.782-11.502-9.158-18.86-9.158H167.055
	c-10.362,0-19.554,6.65-22.795,16.491l-79.055,240C64.407,429.914,64,432.449,64,435v236c0,13.255,10.745,24,24,24h53.907
	c-0.592,5.254-0.907,10.591-0.907,16c0,78.299,63.701,142,142,142s142-63.701,142-142c0-5.409-0.315-10.746-0.907-16h157.813
	c-0.592,5.254-0.906,10.591-0.906,16c0,78.299,63.701,142,142,142s142-63.701,142-142c0-5.409-0.314-10.746-0.906-16H936
	c13.255,0,24-10.745,24-24V435C960,421.745,949.255,411,936,411z M283,805c-51.832,0-94-42.168-94-94
	c0-27.385,11.774-52.07,30.522-69.266c0.138-0.127,0.274-0.255,0.414-0.381c0.428-0.388,0.862-0.771,1.297-1.15
	c0.569-0.496,1.142-0.987,1.722-1.469c0.231-0.192,0.464-0.383,0.696-0.573c0.755-0.614,1.518-1.219,2.291-1.81
	c0.086-0.065,0.172-0.133,0.259-0.198c14.987-11.358,33.328-18.23,52.798-19.063c0.219-0.009,0.438-0.018,0.658-0.025
	c1.111-0.039,2.225-0.065,3.343-0.065s2.231,0.026,3.343,0.065c0.219,0.008,0.438,0.017,0.658,0.025
	c19.471,0.832,37.811,7.704,52.798,19.063c0.086,0.065,0.172,0.133,0.259,0.198c0.773,0.591,1.536,1.195,2.291,1.81
	c0.232,0.19,0.465,0.381,0.696,0.573c0.581,0.481,1.153,0.973,1.722,1.469c0.435,0.38,0.869,0.763,1.297,1.15
	c0.139,0.126,0.275,0.254,0.414,0.381C365.226,658.93,377,683.615,377,711C377,762.832,334.832,805,283,805z M723,805
	c-51.832,0-94-42.168-94-94c0-27.391,11.778-52.079,30.532-69.275c0.134-0.122,0.266-0.246,0.4-0.368
	c0.431-0.39,0.866-0.774,1.304-1.156c0.563-0.49,1.129-0.977,1.704-1.453c0.238-0.198,0.478-0.395,0.718-0.591
	c0.751-0.61,1.509-1.213,2.278-1.8c0.09-0.068,0.179-0.138,0.269-0.206c14.986-11.356,33.325-18.228,52.794-19.06
	c0.22-0.009,0.438-0.018,0.658-0.025c1.111-0.039,2.225-0.065,3.343-0.065s2.231,0.026,3.343,0.065
	c0.22,0.008,0.438,0.017,0.658,0.025c19.469,0.832,37.808,7.703,52.794,19.06c0.09,0.068,0.18,0.138,0.269,0.206
	c0.769,0.587,1.525,1.188,2.276,1.798c0.242,0.198,0.485,0.397,0.727,0.598c0.572,0.475,1.136,0.959,1.697,1.447
	c0.438,0.383,0.873,0.768,1.304,1.157c0.135,0.122,0.267,0.246,0.4,0.368C805.222,658.921,817,683.609,817,711
	C817,762.832,774.832,805,723,805z M912,647h-62.219c-7.771-15.365-18.205-28.968-30.584-40.351c-0.43-0.396-0.86-0.792-1.295-1.183
	c-0.492-0.441-0.984-0.881-1.481-1.315c-22.6-19.783-51.504-32.528-83.264-34.784c-0.136-0.01-0.271-0.017-0.407-0.026
	c-1.361-0.093-2.729-0.164-4.1-0.219c-0.357-0.014-0.716-0.029-1.074-0.041c-1.52-0.048-3.044-0.081-4.576-0.081
	s-3.057,0.033-4.576,0.081c-0.358,0.012-0.717,0.027-1.074,0.041c-1.371,0.055-2.738,0.126-4.1,0.219
	c-0.136,0.01-0.271,0.017-0.407,0.026c-31.76,2.256-60.664,15.001-83.264,34.784c-0.497,0.435-0.989,0.874-1.481,1.315
	c-0.435,0.391-0.865,0.786-1.295,1.183c-12.379,11.383-22.813,24.985-30.584,40.351H409.782
	c-7.771-15.365-18.206-28.968-30.585-40.351c-0.43-0.396-0.86-0.792-1.295-1.183c-0.492-0.441-0.984-0.881-1.481-1.314
	c-22.599-19.784-51.503-32.529-83.264-34.785c-0.135-0.01-0.271-0.017-0.407-0.026c-1.361-0.093-2.728-0.164-4.1-0.219
	c-0.358-0.014-0.715-0.029-1.074-0.041C286.056,569.033,284.532,569,283,569s-3.056,0.033-4.577,0.081
	c-0.358,0.012-0.716,0.027-1.074,0.041c-1.372,0.055-2.738,0.126-4.1,0.219c-0.136,0.01-0.272,0.017-0.407,0.026
	c-31.76,2.256-60.665,15.001-83.264,34.785c-0.498,0.434-0.99,0.873-1.481,1.314c-0.435,0.391-0.865,0.786-1.295,1.183
	c-12.379,11.383-22.813,24.985-30.585,40.351H112V438.851L184.417,219h416.147L782.23,449.842c4.551,5.782,11.502,9.158,18.86,9.158
	H912V647z"/>
</svg>
