<?xml version="1.0" encoding="utf-8"?>
<!-- Generator: Adobe Illustrator 14.0.0, SVG Export Plug-In . SVG Version: 6.00 Build 43363)  -->
<!DOCTYPE svg PUBLIC "-//W3C//DTD SVG 1.1//EN" "http://www.w3.org/Graphics/SVG/1.1/DTD/svg11.dtd">
<svg version="1.1" id="Ebene_1" xmlns="http://www.w3.org/2000/svg" xmlns:xlink="http://www.w3.org/1999/xlink" x="0px" y="0px"
	 width="1024px" height="1024px" viewBox="0 0 1024 1024" enable-background="new 0 0 1024 1024" xml:space="preserve">
<g>
	<path  d="M875.429,64H148.571C101.938,64,64,101.938,64,148.571v623.647L251.781,960h0.663h519.112h103.873
		C922.062,960,960,922.062,960,875.429V148.571C960,101.938,922.062,64,875.429,64z M300.444,912V648.847
		c0-18.929,15.651-34.328,34.89-34.328h353.333c19.237,0,34.889,15.399,34.889,34.328V912H300.444z M912,875.429
		C912,895.594,895.594,912,875.429,912H771.556V648.847c0-45.396-37.184-82.328-82.889-82.328H335.333
		c-45.706,0-82.89,36.933-82.89,82.328V892.78L112,752.336V148.571C112,128.406,128.406,112,148.571,112h726.857
		C895.594,112,912,128.406,912,148.571V875.429z"/>
	<rect x="565" y="669.037"  width="94.223" height="188.444"/>
</g>
</svg>
