<?xml version="1.0" encoding="utf-8"?>
<!-- Generator: Adobe Illustrator 22.0.0, SVG Export Plug-In . SVG Version: 6.00 Build 0)  -->
<svg version="1.1" id="Ebene_1" xmlns="http://www.w3.org/2000/svg" xmlns:xlink="http://www.w3.org/1999/xlink" x="0px" y="0px"
	 viewBox="0 0 1024 1024" style="enable-background:new 0 0 1024 1024;" xml:space="preserve">
<style type="text/css">
	.st0{display:none;}
	.st1{fill:#2368BC;}
</style>
<g id="HG" class="st0">
</g>
<g id="vwicn007_1_">
	<g>
		<path class="st1" d="M325,680.6c-35.2,0-63.9-28.7-63.9-63.9s28.7-63.9,63.9-63.9s63.9,28.7,63.9,63.9S360.2,680.6,325,680.6z
			 M325,600.8c-8.8,0-15.9,7.1-15.9,15.9s7.1,15.9,15.9,15.9s15.9-7.1,15.9-15.9S333.8,600.8,325,600.8z"/>
		<path class="st1" d="M694.9,680.6c-35.2,0-63.9-28.7-63.9-63.9s28.7-63.9,63.9-63.9s63.9,28.7,63.9,63.9S730.1,680.6,694.9,680.6z
			 M694.9,600.8c-8.8,0-15.9,7.1-15.9,15.9s7.1,15.9,15.9,15.9c8.8,0,15.9-7.1,15.9-15.9S703.7,600.8,694.9,600.8z"/>
		<circle class="st1" cx="423.2" cy="360" r="46.6"/>
		<circle class="st1" cx="598.4" cy="360" r="46.6"/>
		<path class="st1" d="M959.7,670.5c-9.4-52.8-39.2-99.5-86.2-135.1c-18.8-14.3-36.9-24.1-49.8-30.2c4.7-38.1,9.8-124.7-25.8-197.7
			c0.1,0.3,0.3,0.5,0.4,0.8c6.1-4.5,11.8-9.8,17-15.9c17-20.1,26.3-46.6,26.3-74.6s-9.4-54.5-26.3-74.6c-18-21.3-42.2-33-68.3-33
			s-50.3,11.7-68.3,33c-10.3,12.1-17.7,26.6-22,42.4c-8.8-3.2-17.8-6-27.2-8.4c-45.1-11.5-90.4-12.3-132.7-11.4
			c-42.7,0.9-82.1,3.6-121.7,18.3c-4.4-15.2-11.7-29.2-21.7-41c-18-21.3-42.2-33-68.3-33s-50.3,11.7-68.3,33
			c-17,20.1-26.3,46.6-26.3,74.6s9.4,54.5,26.3,74.6c4.3,5,8.7,9.4,13.6,13.3c-36.8,68.1-40.6,159.5-40.4,197.3
			c-13,6.1-31.9,16.3-51.3,31.6C92.8,570.8,66,618.6,61.3,672.7c-3.3,38.8-0.2,74.6,9.4,106.5c8.9,29.5,23.3,55.8,42.8,78
			c33.5,38.1,81.8,63.6,136.1,71.7c13.7,2.1,26.6,3,38.8,3c63.6,0,108-25.1,147.9-47.7c32.6-18.5,60.8-34.4,95.3-34.4
			c47.9,0,69.3,16.2,96.4,36.7c32,24.2,67.9,51.4,146,51.4c8.4,0,17.3-0.3,26.5-1.2c46.3-3.2,85.8-24.5,114.5-61.3
			C960.8,816.6,970.4,730.1,959.7,670.5z M747,158.1c25.7,0,46.6,26.7,46.6,59.6c0,20.8-8.4,39.1-21,49.8c-2.6-3.2-5.2-6.3-8-9.4
			c-19.2-20.9-40.2-38.1-63.4-51.7C705.3,179,724.3,158.1,747,158.1z M796,303.8c-0.2-0.4-0.4-0.8-0.6-1.2
			C795.6,303,795.8,303.4,796,303.8z M285.1,158.1c22.5,0,41.3,20.4,45.7,47.6c-23.4,14.4-47.3,34-72.5,60.7
			c-12-10.8-19.8-28.6-19.8-48.7C238.5,184.8,259.4,158.1,285.1,158.1z M877.3,846.2c-20.4,26.1-47.3,40.6-80,42.9
			c-79.1,5.6-108.8-16.9-140.3-40.8c-28.7-21.8-61.3-46.5-125.3-46.5c-47.2,0-83.7,20.7-119,40.7c-44.8,25.3-87.2,49.3-156,39
			c-78.8-11.8-159-71.8-147.5-204.6c3.6-40.8,23.1-75.7,58.2-103.8c27.5-22.1,54.6-31.5,54.8-31.6l17.3-5.8l-1-18.2
			c-0.1-1.5-7.4-151.5,54.3-217.3c72.7-77.7,128.5-84.6,205.2-86.2c79.9-1.7,163.6,2.8,231.4,76.8c71.7,78.3,44.7,223.5,44.4,224.9
			l-4.1,20.5l19.8,6.8c0.3,0,27.5,9.6,56.3,31.8c37,28.5,59.5,63.6,66.8,104.4C921.2,726.8,913.8,799.3,877.3,846.2z"/>
	</g>
</g>
</svg>
