<?xml version="1.0" encoding="utf-8"?>
<!-- Generator: Adobe Illustrator 22.0.0, SVG Export Plug-In . SVG Version: 6.00 Build 0)  -->
<svg version="1.1" id="Ebene_1" xmlns="http://www.w3.org/2000/svg" xmlns:xlink="http://www.w3.org/1999/xlink" x="0px" y="0px"
	 viewBox="0 0 1024 1024" style="enable-background:new 0 0 1024 1024;" xml:space="preserve">
<style type="text/css">
	.st0{display:none;}
</style>
<g id="HG" class="st0">
</g>
<g id="vwicn046">
	<path class="st1" d="M879.1,857H148.8C102,857,64,819.7,64,773.9V250.1c0-45.8,38-83.1,84.8-83.1h730.3c21.1,0,42.4,8.7,58.5,23.8
		c17,16,26.4,37.1,26.4,59.3v523.8C964,819.7,925.9,857,879.1,857z M148.8,215c-20.3,0-36.8,15.7-36.8,35.1v523.8
		c0,19.4,16.5,35.1,36.8,35.1h730.3c20.3,0,36.9-15.7,36.9-35.1V250.1c0-19.8-19.8-35.1-36.9-35.1H148.8z"/>
	<path class="st1" d="M820,576H204c-13.3,0-24-10.7-24-24V308c0-13.3,10.7-24,24-24h616c13.3,0,24,10.7,24,24v244
		C844,565.3,833.3,576,820,576z M228,528h568V332H228V528z"/>
</g>
</svg>
