<?xml version="1.0" encoding="utf-8"?>
<!-- Generator: Adobe Illustrator 14.0.0, SVG Export Plug-In . SVG Version: 6.00 Build 43363)  -->
<!DOCTYPE svg PUBLIC "-//W3C//DTD SVG 1.1//EN" "http://www.w3.org/Graphics/SVG/1.1/DTD/svg11.dtd">
<svg version="1.1" id="Ebene_1" xmlns="http://www.w3.org/2000/svg" xmlns:xlink="http://www.w3.org/1999/xlink" x="0px" y="0px"
	 width="1024px" height="1024px" viewBox="0 0 1024 1024" enable-background="new 0 0 1024 1024" xml:space="preserve">
<path  d="M904.681,106.483c-20.817-5.968-61.878-6.154-103.026,59.687c-7.025,11.24-3.608,26.047,7.632,33.072
	c11.24,7.023,26.047,3.608,33.072-7.632c17.609-28.177,35.962-42.754,49.089-38.986C903.175,155.987,912,171.787,912,180.39v424.9
	c-6.956-7.567-14.617-14.772-22.972-21.551c-44.304-35.944-102.912-55.74-165.027-55.74c-62.116,0-120.725,19.796-165.028,55.74
	C539.447,599.58,523.68,617.734,512,637.479c-11.68-19.744-27.448-37.898-46.973-53.739C420.724,547.795,362.116,528,300,528
	s-120.724,19.795-165.027,55.739c-8.355,6.778-16.017,13.984-22.973,21.552V180.39c0-8.604,8.825-24.403,20.552-27.767
	c13.129-3.765,31.48,10.809,49.09,38.986c7.025,11.24,21.831,14.658,33.072,7.632c11.24-7.025,14.657-21.832,7.632-33.072
	c-41.149-65.84-82.213-65.654-103.027-59.687C85.15,116.283,64,152.477,64,180.39v566.972c0,4.98,1.518,9.606,4.115,13.442
	c8.854,39.17,31.822,75.029,66.857,103.455C179.276,900.204,237.884,920,300,920s120.724-19.796,165.028-55.74
	c19.525-15.842,35.292-33.996,46.972-53.74c11.68,19.744,27.447,37.898,46.973,53.74C603.276,900.204,661.885,920,724.001,920
	c62.115,0,120.724-19.796,165.027-55.74c35.035-28.426,58.003-64.285,66.856-103.455c2.598-3.836,4.115-8.462,4.115-13.442V180.39
	C960,152.477,938.85,116.283,904.681,106.483z M300,872c-103.664,0-188-66.393-188-148.001C112,642.392,196.336,576,300,576
	s188,66.392,188,147.999C488,805.607,403.664,872,300,872z M724.001,872C620.337,872,536,805.607,536,723.999
	c0-81.607,84.337-148,188.001-148c103.663,0,187.999,66.393,187.999,148C912,805.607,827.664,872,724.001,872z"/>
</svg>
