<?xml version="1.0" encoding="utf-8"?>
<!-- Generator: Adobe Illustrator 22.0.0, SVG Export Plug-In . SVG Version: 6.00 Build 0)  -->
<svg version="1.1" id="Ebene_1" xmlns="http://www.w3.org/2000/svg" xmlns:xlink="http://www.w3.org/1999/xlink" x="0px" y="0px"
	 viewBox="0 0 1024 1024" style="enable-background:new 0 0 1024 1024;" xml:space="preserve">
<style type="text/css">
	.st0{display:none;}
</style>
<g id="HG" class="st0">
</g>
<g>
	<path class="st1" d="M542.5,387.8c9.4-8.4,15.4-20.6,15.4-34.3c0-25.3-20.6-45.9-45.9-45.9s-45.9,20.6-45.9,45.9
		c0,14.5,6.8,27.5,17.3,35.9l-226.6,537c-5.2,12.2,0.6,26.3,12.8,31.4c3,1.3,6.2,1.9,9.3,1.9c9.4,0,18.3-5.5,22.1-14.7l95-225h249.6
		l106.2,225.9c5.6,12,19.9,17.2,31.9,11.5c12-5.6,17.2-19.9,11.5-31.9L542.5,387.8z M416.2,672l97.8-231.9L623,672H416.2z"/>
	<path class="st1" d="M401.1,479.6c6,0,12-2.2,16.7-6.7c9.5-9.2,9.8-24.4,0.6-33.9c-23.4-24.3-36.3-56.3-36.3-90
		c0-31,11.1-61.1,31.3-84.6c8.6-10.1,7.5-25.2-2.6-33.8c-10.1-8.6-25.2-7.5-33.8,2.6c-27.7,32.2-42.9,73.3-42.9,115.8
		c0,46.3,17.7,90.1,49.7,123.4C388.5,477.1,394.8,479.6,401.1,479.6z"/>
	<path class="st1" d="M607.1,472.3c4.6,4.4,10.6,6.6,16.5,6.6c6.4,0,12.7-2.5,17.4-7.5c31.5-33.2,48.9-76.7,48.9-122.5
		c0-42.1-15-82.9-42.2-115c-8.6-10.1-23.7-11.3-33.8-2.7c-10.1,8.6-11.3,23.7-2.7,33.8c19.8,23.3,30.8,53.1,30.8,83.8
		c0,33.4-12.7,65.2-35.7,89.5C597.1,448,597.5,463.2,607.1,472.3z"/>
	<path class="st1" d="M761.5,348.9c0,63.3-23.8,123.7-67,170.2c-9,9.7-8.5,24.9,1.2,33.9c4.6,4.3,10.5,6.4,16.3,6.4
		c6.4,0,12.8-2.6,17.6-7.7c51.5-55.3,79.8-127.4,79.8-202.8c0-72-26.1-141.6-73.4-195.8c-8.7-10-23.9-11-33.9-2.3s-11,23.9-2.3,33.9
		C739.6,230.2,761.5,288.5,761.5,348.9z"/>
	<path class="st1" d="M294.8,552.4c4.7,5,11.1,7.6,17.5,7.6c5.9,0,11.8-2.1,16.4-6.5c9.7-9.1,10.2-24.2,1.1-33.9
		c-43.5-46.4-67.4-107-67.4-170.6c0-60.6,22-119.1,62-164.7c8.7-10,7.8-25.1-2.2-33.9c-10-8.7-25.1-7.8-33.9,2.2
		c-47.7,54.3-74,124.1-74,196.3C214.4,424.8,242.9,497.1,294.8,552.4z"/>
	<path class="st1" d="M824.6,72.5c-8.8-9.9-23.9-10.9-33.9-2.1c-9.9,8.8-10.9,23.9-2.1,33.9c59.7,67.6,92.6,154.5,92.6,244.6
		c0,93.3-34.8,182.4-98.1,250.7c-9,9.7-8.4,24.9,1.3,33.9c4.6,4.3,10.5,6.4,16.3,6.4c6.5,0,12.9-2.6,17.6-7.7
		c71.5-77.2,110.9-177.9,110.9-283.3C929.2,247,892,148.9,824.6,72.5z"/>
	<path class="st1" d="M142.8,349c0-90.3,32.9-177.3,92.8-244.8c8.8-9.9,7.9-25.1-2-33.9c-9.9-8.8-25.1-7.9-33.9,2
		C132,148.7,94.8,246.9,94.8,349c0,105.6,39.5,206.3,111.2,283.5c4.7,5.1,11.2,7.7,17.6,7.7c5.8,0,11.7-2.1,16.3-6.4
		c9.7-9,10.3-24.2,1.3-33.9C177.7,531.6,142.8,442.5,142.8,349z"/>
</g>
</svg>
