<?xml version="1.0" encoding="utf-8"?>
<!-- Generator: Adobe Illustrator 22.0.0, SVG Export Plug-In . SVG Version: 6.00 Build 0)  -->
<svg version="1.1" id="Ebene_1" xmlns="http://www.w3.org/2000/svg" xmlns:xlink="http://www.w3.org/1999/xlink" x="0px" y="0px"
	 viewBox="0 0 1024 1024" style="enable-background:new 0 0 1024 1024;" xml:space="preserve">
<style type="text/css">
	.st0{display:none;}
	.st1{fill:#2368BC;}
	.st2{fill:#2368BC;}
</style>
<g id="HG" class="st0">
</g>
<g id="vwicn185">
	<polygon class="st1" points="926,495.7 926.4,494 89.1,494 88.1,496.6 98.2,528 90.6,560.1 105.2,589.6 102.5,622.4 121.3,649.4 
		123.5,682.2 146.2,706.1 153.2,738.3 179.2,758.5 190.9,789.2 219.7,805.3 235.8,834 266.6,845.6 286.9,871.6 319.1,878.5 
		343,901.1 375.9,903.2 402.9,922 435.7,919.1 465.2,933.7 497.2,925.9 528.6,936 559.1,923.5 591.6,928.8 619.9,911.9 652.8,912.3 
		678.3,891.4 710.9,886.8 733,862.4 764.6,853 782.8,825.6 812.6,811.6 826.5,781.7 853.9,763.4 863.2,731.9 887.5,709.7 892,677.1 
		912.8,651.5 912.4,618.6 929.1,590.3 923.8,557.8 936.1,527.1 	"/>
	<path class="st2" d="M529.6,961.5l-33.3-10.7l-33.9,8.3l-31.3-15.5l-34.8,3.1l-28.7-19.9l-34.9-2.2l-25.3-23.9l-34.1-7.3
		l-21.5-27.6l-32.7-12.3l-17.1-30.4l-30.5-17.1l-12.4-32.6l-27.6-21.4l-7.4-34.1l-24-25.3l-2.3-34.8L77.9,629l2.9-34.8L65.2,563
		l8.1-33.9l-10.7-33.2l13-32.4L70,429l17.8-30l-0.5-34.8l22.1-27.2l4.8-34.6l25.9-23.5l9.9-33.4l29-19.4l14.7-31.7l31.6-14.9
		l19.3-29l33.4-10l23.4-25.9l34.5-4.9l27.1-22.2l34.9,0.4l30-17.9l34.5,5.6l32.3-13.3l33.3,10.7l33.9-8.3l31.3,15.5l34.8-3.1
		l28.7,19.9l34.9,2.2l25.3,23.9l34.1,7.3l21.5,27.6l32.6,12.3l17.2,30.4l30.4,17.1l12.4,32.5l27.6,21.4l7.4,34.1l24,25.3l2.3,34.8
		l20.1,28.6l-3,34.8L959,461l-8,33.9l10.7,33.2l-13,32.4l5.6,34.5l-17.7,30l0.4,34.9l-22,27.1l-4.8,34.5l-25.8,23.5l-9.9,33.4
		l-29,19.4l-14.7,31.7l-31.6,14.9l-19.3,29.1l-33.5,10l-23.4,25.9l-34.5,4.9l-27.1,22.2l-34.9-0.4l-30,17.9l-34.5-5.6L529.6,961.5z
		 M498.1,901l29.5,9.5l28.7-11.7l30.5,5l26.6-15.9l30.9,0.4l23.9-19.6l30.7-4.3l20.8-22.9l29.7-8.8l17.1-25.7l28-13.1l13.1-28.1
		l25.8-17.2l8.7-29.6l22.8-20.9l4.2-30.7l19.6-24.1l-0.4-30.9l15.7-26.6l-5-30.5l11.6-28.8l-9.5-29.4l7.1-30.1L894.5,439l2.6-30.8
		l-17.7-25.4l-2.1-30.8L856,329.6l-6.6-30.3l-24.4-19l-11-28.9l-27-15.1l-15.2-27l-29-10.9L723.7,174l-30.3-6.5L671,146.3l-30.9-2
		l-25.3-17.7l-30.8,2.7l-27.7-13.7l-30.1,7.3l-29.5-9.5l-28.7,11.7l-30.5-5l-26.6,15.9l-30.9-0.4l-23.9,19.6l-30.7,4.3l-20.8,22.9
		l-29.6,8.8l-17.1,25.8l-28,13.1l-13.1,28.1L191,275.7l-8.7,29.6l-22.9,20.9l-4.2,30.6l-19.5,24l0.5,31l-15.8,26.6l5,30.5
		l-11.6,28.8l9.5,29.4l-7.1,30.1l13.7,27.7l-2.5,30.8l17.7,25.4l2.1,30.8l21.4,22.5l6.6,30.3l24.4,19l11,28.8l27.1,15.1l15.1,27
		l28.9,10.9l19.1,24.4l30.3,6.5l22.5,21.3l30.9,2l25.3,17.7l30.8-2.7l27.7,13.7L498.1,901z"/>
</g>
</svg>
