<?xml version="1.0" encoding="utf-8"?>
<!-- Generator: Adobe Illustrator 14.0.0, SVG Export Plug-In . SVG Version: 6.00 Build 43363)  -->
<!DOCTYPE svg PUBLIC "-//W3C//DTD SVG 1.1//EN" "http://www.w3.org/Graphics/SVG/1.1/DTD/svg11.dtd">
<svg version="1.1" id="Ebene_1" xmlns="http://www.w3.org/2000/svg" xmlns:xlink="http://www.w3.org/1999/xlink" x="0px" y="0px"
	 width="1024px" height="1024px" viewBox="0 0 1024 1024" enable-background="new 0 0 1024 1024" xml:space="preserve">
<path  d="M545.941,512l327.029-327.029c9.372-9.373,9.372-24.569,0-33.941c-9.373-9.372-24.568-9.372-33.941,0
	L512,478.059L184.971,151.029c-9.373-9.372-24.568-9.372-33.941,0c-9.373,9.373-9.373,24.569,0,33.941L478.059,512L151.029,839.029
	c-9.373,9.373-9.373,24.568,0,33.941C155.716,877.657,161.858,880,168,880s12.284-2.343,16.971-7.029L512,545.941l327.029,327.029
	C843.716,877.657,849.857,880,856,880s12.284-2.343,16.971-7.029c9.372-9.373,9.372-24.568,0-33.941L545.941,512z"/>
</svg>
