<?xml version="1.0" encoding="utf-8"?>
<!-- Generator: Adobe Illustrator 22.0.0, SVG Export Plug-In . SVG Version: 6.00 Build 0)  -->
<svg version="1.1" id="Ebene_1" xmlns="http://www.w3.org/2000/svg" xmlns:xlink="http://www.w3.org/1999/xlink" x="0px" y="0px"
	 viewBox="0 0 1024 1024" style="enable-background:new 0 0 1024 1024;" xml:space="preserve">
<style type="text/css">
	.st0{display:none;}
	.st2{stroke:#2368BC;stroke-width:48;stroke-linecap:round;stroke-linejoin:round;}
</style>
<g id="HG" class="st0">
</g>
<g id="vwicn098">
	<polygon class="st1" points="512,516.7 512,928 928,512 512,512 	"/>
	<path class="st2" d="M512,512"/>
	<path class="st3" d="M950.2,502.8c-1.4-3.5-3.7-6.5-6.4-8.9L530.1,80.3c-4.4-5.1-10.9-8.3-18.1-8.3c-1.6,0-3.1,0.2-4.6,0.4
		c-0.1,0-0.1,0-0.2,0c-0.6,0.1-1.3,0.3-1.9,0.5c-0.2,0-0.3,0.1-0.5,0.1c-0.5,0.2-1,0.3-1.5,0.5c-0.5,0.2-0.9,0.4-1.3,0.6
		c-0.2,0.1-0.4,0.2-0.6,0.3c-2.4,1.1-4.6,2.7-6.5,4.6L79,495c-9.4,9.4-9.4,24.6,0,33.9l416,416c3.4,3.4,7.7,5.7,12.4,6.6
		c0.3,0.1,0.5,0.1,0.8,0.1c0.1,0,0.2,0,0.3,0.1c1.2,0.2,2.4,0.3,3.6,0.3c6.2,0,12.4-2.4,17-7l416-416
		C951.8,522.1,953.9,511.8,950.2,502.8z M536,154l334,334H536V154z M488,488H153.9L488,153.9V488z M488,536v334.1L153.9,536H488z
		 M536,536h334L536,870V536z"/>
</g>
</svg>
