<?xml version="1.0" encoding="utf-8"?>
<!-- Generator: Adobe Illustrator 22.0.0, SVG Export Plug-In . SVG Version: 6.00 Build 0)  -->
<svg version="1.1" id="Ebene_1" xmlns="http://www.w3.org/2000/svg" xmlns:xlink="http://www.w3.org/1999/xlink" x="0px" y="0px"
	 viewBox="0 0 1024 1024" style="enable-background:new 0 0 1024 1024;" xml:space="preserve">
<style type="text/css">
	.st0{display:none;}
</style>
<g id="HG" class="st0">
</g>
<g>
	<path class="st1" d="M801.9,390.7L246.1,66c-7.4-4.3-16.6-4.4-24.1-0.1c-7.5,4.3-12.1,12.2-12.1,20.8V936c0,13.3,10.7,24,24,24
		s24-10.7,24-24V587.5l538.4-153c9.3-2.6,16-10.5,17.2-20.1C814.8,404.9,810.2,395.5,801.9,390.7z M258,537.6V128.5l471.1,275.2
		L258,537.6z"/>
	<path class="st1" d="M897,819c13.3,0,24-10.7,24-24V87c0-13.3-10.7-24-24-24s-24,10.7-24,24v708C873,808.3,883.7,819,897,819z"/>
	<circle class="st1" cx="897.2" cy="932.4" r="30"/>
</g>
</svg>
