<?xml version="1.0" encoding="utf-8"?>
<!-- Generator: Adobe Illustrator 22.0.0, SVG Export Plug-In . SVG Version: 6.00 Build 0)  -->
<svg version="1.1" id="Ebene_1" xmlns="http://www.w3.org/2000/svg" xmlns:xlink="http://www.w3.org/1999/xlink" x="0px" y="0px"
	 viewBox="0 0 1024 1024" style="enable-background:new 0 0 1024 1024;" xml:space="preserve">
<style type="text/css">
	.st0{display:none;}
</style>
<g id="HG" class="st0">
</g>
<g>
	<path class="st1" d="M924.7,342.5c-22.6-51.8-55-98.3-96.2-138.2c-41.1-39.9-89-71.1-142.4-93C631,88.8,572.4,77.3,512,77.3
		c-60.4,0-119,11.5-174.1,34.1c-53.3,21.8-101.2,53.1-142.4,93c-41.2,39.9-73.6,86.4-96.2,138.2C75.9,396.2,64,453.2,64,512
		s11.9,115.8,35.3,169.5c22.6,51.8,55,98.3,96.2,138.2c41.1,39.9,89,71.1,142.4,93c55.2,22.6,113.8,34.1,174.1,34.1
		c60.4,0,119-11.5,174.1-34.1c53.3-21.8,101.2-53.1,142.4-93c41.2-39.9,73.5-86.4,96.2-138.2C948.1,627.8,960,570.8,960,512
		S948.1,396.2,924.7,342.5z M512,898.7c-220.6,0-400-173.5-400-386.7c0-213.2,179.4-386.7,400-386.7c220.6,0,400,173.5,400,386.7
		C912,725.2,732.6,898.7,512,898.7z"/>
	<path class="st1" d="M512,198.1c-13.3,0-24,10.7-24,24V488H282c-13.3,0-24,10.7-24,24s10.7,24,24,24h230c13.3,0,24-10.7,24-24
		V222.1C536,208.8,525.3,198.1,512,198.1z"/>
</g>
</svg>
