<?xml version="1.0" encoding="utf-8"?>
<!-- Generator: Adobe Illustrator 14.0.0, SVG Export Plug-In . SVG Version: 6.00 Build 43363)  -->
<!DOCTYPE svg PUBLIC "-//W3C//DTD SVG 1.1//EN" "http://www.w3.org/Graphics/SVG/1.1/DTD/svg11.dtd">
<svg version="1.1" id="Ebene_1" xmlns="http://www.w3.org/2000/svg" xmlns:xlink="http://www.w3.org/1999/xlink" x="0px" y="0px"
	 width="1024px" height="1024px" viewBox="0 0 1024 1024" enable-background="new 0 0 1024 1024" xml:space="preserve">
<path  d="M924.784,337.611c-22.565-53.351-54.864-101.259-96-142.395c-41.136-41.136-89.045-73.435-142.395-96
	C632.142,76.271,574.588,64.441,515.277,64.02c-0.438-0.006-0.876-0.02-1.314-0.02c-0.188,0-0.374,0.007-0.562,0.009
	C512.934,64.007,512.467,64,512,64c-60.469,0-119.142,11.849-174.389,35.216c-53.351,22.565-101.259,54.864-142.395,96
	c-41.136,41.136-73.435,89.044-96,142.395C75.849,392.858,64,451.531,64,512c0,60.469,11.849,119.143,35.216,174.39
	c22.565,53.35,54.864,101.259,96,142.395c41.136,41.136,89.044,73.435,142.395,96C392.858,948.151,451.531,960,512,960
	c0.467,0,0.934-0.007,1.401-0.009c0.188,0.001,0.374,0.009,0.562,0.009c0.438,0,0.876-0.014,1.314-0.021
	c59.311-0.42,116.864-12.251,171.112-35.195c53.35-22.565,101.259-54.864,142.395-96s73.435-89.045,96-142.395
	C948.151,631.143,960,572.469,960,512C960,451.531,948.151,392.858,924.784,337.611z M910.609,478.58H908
	c0,10.231-22.024,35.642-105.382,58.578c-31.852,8.764-68.107,15.901-107.422,21.271c0.608-15.326,0.926-30.814,0.926-46.429
	c0-116.047-16.989-225.502-47.837-308.201c-11.911-31.932-25.511-58.796-40.558-80.219
	C771.746,164.011,896.258,305.899,910.609,478.58z M514.834,911.982c-0.444,0.003-0.888,0.007-1.333,0.008
	c-30.461-0.405-63.654-40.921-88.887-108.564c-19.877-53.288-33.611-118.895-40.248-190.611
	c40.833,3.507,83.747,5.332,127.634,5.332c45.308,0,89.577-1.944,131.59-5.679c-6.624,71.852-20.369,137.584-40.278,190.958
	C578.192,870.767,545.184,911.221,514.834,911.982z M512,570.146c-45.268,0-89.366-1.984-130.983-5.796
	c-0.801-17.222-1.212-34.695-1.212-52.351c0-110.462,15.914-213.959,44.81-291.425c25.232-67.645,58.426-108.16,88.887-108.565
	c0.445,0.001,0.889,0.005,1.333,0.008c30.35,0.761,63.358,41.215,88.478,108.557c28.896,77.466,44.811,180.963,44.811,291.425
	c0,17.527-0.404,34.878-1.193,51.979C604.155,568.03,558.703,570.146,512,570.146z M421.008,122.443
	c-15.368,21.607-29.243,48.853-41.367,81.355C348.793,286.498,331.804,395.953,331.804,512c0,15.794,0.326,31.459,0.947,46.957
	c-40.835-5.426-78.455-12.742-111.369-21.799C138.025,514.222,116,488.812,116,478.58h-2.609
	C127.88,304.241,254.655,161.289,421.008,122.443z M113.32,544.564c23.13,14.747,55.174,27.824,95.328,38.874
	c37.423,10.297,80.442,18.459,127.104,24.278c6.683,79.669,21.701,152.998,43.89,212.484c12.124,32.502,25.999,59.747,41.367,81.355
	C254.383,862.647,127.465,719.291,113.32,544.564z M607.728,900.421c15.047-21.425,28.646-48.288,40.558-80.22
	c22.235-59.61,37.268-133.124,43.93-212.986c45.133-5.783,86.777-13.771,123.138-23.776c40.153-11.049,72.197-24.127,95.327-38.873
	C896.669,717.633,772.017,859.923,607.728,900.421z"/>
</svg>
