<?xml version="1.0" encoding="utf-8"?>
<!-- Generator: Adobe Illustrator 22.0.0, SVG Export Plug-In . SVG Version: 6.00 Build 0)  -->
<svg version="1.1" id="Ebene_1" xmlns="http://www.w3.org/2000/svg" xmlns:xlink="http://www.w3.org/1999/xlink" x="0px" y="0px"
	 viewBox="0 0 1024 1024" style="enable-background:new 0 0 1024 1024;" xml:space="preserve">
<style type="text/css">
	.st0{display:none;}
</style>
<g id="HG" class="st0">
</g>
<path class="st1" d="M880,524h-95V346.8c0-6.3-2.5-12.3-6.9-16.8L523.5,71.2c-4.5-4.6-10.7-7.2-17.1-7.2H144c-13.3,0-24,10.7-24,24
	v848c0,13.3,10.7,24,24,24h617c13.3,0,24-10.7,24-24V811h95c13.3,0,24-10.7,24-24V548C904,534.7,893.3,524,880,524z M737,356.6v2.4
	H496V112h0.3L737,356.6z M737,912H168V112h280v271c0,13.3,10.7,24,24,24h265v117H384c-13.3,0-24,10.7-24,24v239
	c0,13.3,10.7,24,24,24h353V912z M856,763H408V572h448V763z"/>
</svg>
