<?xml version="1.0" encoding="utf-8"?>
<!-- Generator: Adobe Illustrator 22.0.0, SVG Export Plug-In . SVG Version: 6.00 Build 0)  -->
<svg version="1.1" id="Ebene_1" xmlns="http://www.w3.org/2000/svg" xmlns:xlink="http://www.w3.org/1999/xlink" x="0px" y="0px"
	 viewBox="0 0 1024 1024" style="enable-background:new 0 0 1024 1024;" xml:space="preserve">
<style type="text/css">
	.st0{display:none;}
</style>
<g id="HG" class="st0">
</g>
<path class="st1" d="M951.5,313.6c-2.4-6.5-7.4-11.5-13.6-13.9L670.4,69.5L639,105.9L862.3,298H478.4
	c-107.8,0-209.4,33.8-286.1,95.2c-37.8,30.3-67.5,65.6-88.4,105.1C82.1,539.6,71,583.6,71,629c0,45.4,11.1,89.4,32.9,130.7
	c20.9,39.5,50.6,74.8,88.4,105.1C269,926.2,370.6,960,478.4,960H861v-48H478.4C280.2,912,119,785,119,629s161.2-283,359.4-283h385.9
	L641,538.2l31.3,36.4l272.3-234.4C952.3,333.6,955,323.1,951.5,313.6z"/>
</svg>
