<?xml version="1.0" encoding="utf-8"?>
<!-- Generator: Adobe Illustrator 22.0.0, SVG Export Plug-In . SVG Version: 6.00 Build 0)  -->
<svg version="1.1" id="Ebene_1" xmlns="http://www.w3.org/2000/svg" xmlns:xlink="http://www.w3.org/1999/xlink" x="0px" y="0px"
	 viewBox="0 0 1024 1024" style="enable-background:new 0 0 1024 1024;" xml:space="preserve">
<style type="text/css">
	.st0{display:none;}
	.st1{fill:#2368BC;}
</style>
<g id="HG" class="st0">
</g>
<g>
	<path class="st1" d="M467.5,533H90.7c-0.3,0-0.5,0.2-0.5,0.4c0,0.3-3.8,31.2,6.8,78.1c9.8,43.3,34.1,109.5,94.5,179.2
		c26.2,30.2,57.1,55.4,91.6,74.9c27.7,15.6,57.8,27.5,89.5,35.6c39.2,9.9,71.3,11.3,86.1,11.3c5.6,0,8.7-0.2,8.8-0.2
		c0.3,0,0.5-0.2,0.5-0.5V533.5C468,533.2,467.8,533,467.5,533z"/>
	<path class="st1" d="M927.5,297.8c-8.8-20.9-19.3-40.9-31.2-60c-0.1-0.1-0.1-0.2-0.2-0.4c-0.1-0.1-0.1-0.2-0.2-0.3
		c-16.8-26.7-36.6-51.6-59.3-74.2c-38.9-38.9-84.3-69.5-134.8-90.9C649.6,50,594,38.8,536.8,38.8c-57.2,0-112.6,11.2-164.9,33.3
		c-50.4,21.3-95.8,51.8-134.7,90.7c-38.9,38.8-69.5,84.1-90.9,134.5c-22.2,52.2-33.4,107.6-33.5,164.7l0,24H514v400.9l24.1-0.1
		c57.1-0.2,112.5-11.5,164.6-33.7c50.4-21.4,95.6-52,134.4-90.9c38.8-38.9,69.3-84.2,90.5-134.6c22-52.2,33.2-107.6,33.2-164.8
		C960.8,405.6,949.6,350,927.5,297.8z M536.8,86.8c125.4,0,236.6,61.7,305,156.3L531.1,438H161.6C174.4,242.2,337.9,86.8,536.8,86.8
		z M562,838V516.8l235,217.1C735,793.4,652.9,831.9,562,838z M829.4,698.5L577.3,465.7l290-181.9c29,53.3,45.4,114.3,45.4,179
		C912.8,551.9,881.5,634,829.4,698.5z"/>
</g>
</svg>
