<?xml version="1.0" encoding="utf-8"?>
<!-- Generator: Adobe Illustrator 22.0.0, SVG Export Plug-In . SVG Version: 6.00 Build 0)  -->
<svg version="1.1" id="Ebene_1" xmlns="http://www.w3.org/2000/svg" xmlns:xlink="http://www.w3.org/1999/xlink" x="0px" y="0px"
	 viewBox="0 0 1024 1024" style="enable-background:new 0 0 1024 1024;" xml:space="preserve">
<g id="HG">
</g>
<path class="st0" d="M805.8,615.9c-16.6-29.3-40.1-55.5-70-77.9c-31.2-23.4-67.7-41.3-107.3-53.1c15.7-9.5,30.4-20.9,43.7-34.2
	c42.7-42.8,66.3-99.7,66.3-160.2S715,173.1,672.2,130.3C629.4,87.6,572.5,64,512,64s-117.5,23.5-160.2,66.3
	c-42.7,42.8-66.3,99.7-66.3,160.2S309,408,351.8,450.7c13.3,13.3,28,24.7,43.7,34.2c-39.6,11.8-76.1,29.7-107.3,53.1
	c-29.9,22.3-53.4,48.6-70,77.9c-17.5,31-26.4,64-26.4,98.2s8.9,67.2,26.4,98.2c16.6,29.3,40.1,55.5,70,77.9
	c60.1,45,139.6,69.8,223.8,69.8s163.7-24.8,223.8-69.8c29.9-22.3,53.4-48.6,70-77.9c17.5-31,26.4-64.1,26.4-98.2
	C832.2,679.9,823.3,646.9,805.8,615.9z M333.5,290.5c0-98.4,80.1-178.5,178.5-178.5s178.5,80.1,178.5,178.5
	c0,93.7-72.6,170.7-164.4,177.9c-4.7-0.2-9.4-0.2-14.1-0.2s-9.4,0.1-14.1,0.2C406.1,461.2,333.5,384.2,333.5,290.5z M707,851.8
	C655.2,890.6,586,912,512,912s-143.2-21.4-195-60.2c-49.7-37.3-77.1-86.2-77.1-137.7s27.4-100.4,77.1-137.7
	c48.3-36.2,111.8-57.2,180.1-59.9c5,0.3,9.9,0.5,14.9,0.5s10-0.2,14.9-0.5c68.3,2.7,131.8,23.7,180.1,59.9
	c49.7,37.3,77.1,86.2,77.1,137.7S756.7,814.5,707,851.8z"/>
</svg>
