<?xml version="1.0" encoding="utf-8"?>
<!-- Generator: Adobe Illustrator 14.0.0, SVG Export Plug-In . SVG Version: 6.00 Build 43363)  -->
<!DOCTYPE svg PUBLIC "-//W3C//DTD SVG 1.1//EN" "http://www.w3.org/Graphics/SVG/1.1/DTD/svg11.dtd">
<svg version="1.1" id="Ebene_1" xmlns="http://www.w3.org/2000/svg" xmlns:xlink="http://www.w3.org/1999/xlink" x="0px" y="0px"
	 width="1024px" height="1024px" viewBox="0 0 1024 1024" enable-background="new 0 0 1024 1024" xml:space="preserve">
<path  d="M865.625,384.079c8.036-22.797,10.77-51.398,10.77-61.848c0-22.893-6.755-42.301-20.077-57.684
	c-8.837-10.205-20.468-18.402-34.715-24.491c0.032-0.943,0.048-1.861,0.048-2.757c0-28.232-10.322-74.513-74.682-88.307
	c-2-27.196-14.315-49.092-35.928-63.653C689.706,70.98,659.955,64,620.087,64h-136.86c-9.022,0-22.461,0.672-41.083,2.055
	l-4.044,0.3l-3.721,1.612c-56.147,24.329-109.039,62.26-157.348,112.823H167.112l-6.279,14.416
	c-24.145,55.434-36.387,111.566-36.387,166.839c0,57.014,13.594,113.291,40.405,167.268l6.618,13.323h96.993
	c18.74,0,25.837,3.41,28.022,4.878c2.382,1.601,12.261,9.522,39.382,44.276l19.707,24.623c22.089,28.594,37.39,47.487,46.773,57.754
	l0.358,0.392l126.125,126.296l39.07,164.013l42.814-10.121c107.049-23.774,129.527-92.95,129.527-146.812
	c0-28.365-13.188-65.441-40.318-113.347l-10.473-18.487c-1.714-3.094-3.377-6.074-4.987-8.963
	c-11.801-21.154-20.005-35.862-25.473-53.147c61.72-1.347,117.301-15.069,165.355-40.843c23.925-12.835,42.524-28.689,55.282-47.123
	c13.222-19.104,19.926-40.438,19.926-63.411C899.554,427.206,885.999,405.938,865.625,384.079z M801.656,530.85
	c-43.613,23.392-95.021,35.252-152.794,35.252h-47.278l3.86,27.354c5.773,40.909,18.913,64.465,37.099,97.067
	c1.607,2.881,3.268,5.856,4.979,8.945l10.636,18.777c28.171,49.742,34.084,76.229,34.084,89.69
	c0,53.333-28.226,84.933-88.746,99.223l-31.117-130.623L437.432,641.406c-8.442-9.295-23.242-27.626-44-54.501l-19.816-24.763
	c-30.018-38.455-42.684-49.312-50.361-54.47c-13.053-8.772-30.976-13.036-54.792-13.036H201.55
	c-19.319-43.152-29.104-87.69-29.104-132.591c0-43.906,8.879-88.66,26.419-133.255h99.057l7.127-7.721
	c44.626-48.343,93.305-84.474,144.744-107.445c15.108-1.079,26.343-1.625,33.433-1.625h136.86c36.862,0,55.233,7.157,64.143,13.153
	c6.998,4.715,15.029,12.597,15.029,31.853c-0.001,0.088-0.025,2.214-1.093,8.728l-4.221,25.758l26.021,2.049
	c47.18,3.715,53.684,23.227,53.684,43.759c0,1.971-0.229,6.529-1.767,14.912l-4.037,22.018l21.685,5.559
	c34.246,8.779,38.863,26.382,38.863,42.443c0,13.662-5.535,44.644-11.428,53.505l-10.899,16.39l13.939,13.896
	c24.057,23.981,31.547,34.916,31.547,56.591C851.554,490.129,834.765,513.088,801.656,530.85z"/>
</svg>
