<?xml version="1.0" encoding="utf-8"?>
<!-- Generator: Adobe Illustrator 22.0.0, SVG Export Plug-In . SVG Version: 6.00 Build 0)  -->
<svg version="1.1" id="Ebene_1" xmlns="http://www.w3.org/2000/svg" xmlns:xlink="http://www.w3.org/1999/xlink" x="0px" y="0px"
	 viewBox="0 0 1024 1024" style="enable-background:new 0 0 1024 1024;" xml:space="preserve">
<style type="text/css">
	.st0{display:none;}
	.st1{fill:#2368BC;}
</style>
<g id="HG" class="st0">
</g>
<g>
	<path class="st1" d="M497.1,590.5c-1-0.4-2-0.8-3-1.2c5.2-8.5,8.3-18.4,8.8-28.9c0.1-0.9,0.2-1.9,0.2-2.8v-21.1
		c0-33.9-27.6-61.5-61.5-61.5H198.5c-33.9,0-61.5,27.6-61.5,61.5v21.1c0,11.7,3.3,22.7,9,32.1c-61.8,25-76.8,61.6-78.3,88.2
		c-2.2,38-4.2,179-4.2,185c0,0.1,0,0.2,0,0.3c0,45.8,38.1,83,84.9,83h340.3c46.7,0,84.8-37.1,84.9-82.8c0.1-8.6,2.4-162.5,2.1-184.5
		C575.3,653.3,561.3,617.4,497.1,590.5z M185,536.4c0-7.4,6.1-13.5,13.5-13.5h243.1c7.4,0,13.5,6.1,13.5,13.5v18.9
		c-0.1,0.7-0.1,1.5-0.1,2.2c0,7.4-6.1,13.5-13.5,13.5h-9.7c-1.8-0.3-2.9-0.5-3.2-0.6c-1.3-0.2-2.6-0.3-3.9-0.3h-200
		c-0.9,0-1.7,0-2.6,0.1c-0.3,0-2.4,0.3-5.8,0.8h-17.8c-7.4,0-13.5-6.1-13.5-13.5V536.4z M525.6,862.6c0,0.1,0,0.2,0,0.4
		c0,19.3-16.6,35-36.9,35H148.4c-20.3,0-36.8-15.6-36.9-34.9c0.1-6,2-146.3,4.2-182.7c2.1-37.9,71-56.3,103.9-61.5h207.7
		c35.4,7.2,99.9,29.6,100.4,60.4C528,700.8,525.6,861,525.6,862.6z"/>
	<path class="st1" d="M927.7,751c0.8-4,0.6-8.3-0.8-12.5c-1.9-5.6-29.5-85.2-60.7-167.3c14.4-10.8,25.1-26.1,31.4-45.1
		c1.7-5,26.5-81.4-2.6-149.5c-10.4-24.3-49.4-89.6-95.3-149.1c-63-81.6-120.3-130.4-170.5-145c-30.5-8.9-59.3-5.1-83.2,11.2
		c-26.6,18-42.5,40.9-47.2,67.9c-10.4,58.8,34.6,121.1,74.3,176c17.9,24.8,34.8,48.2,42.2,65.7c8.2,19.4,14.6,37.6,20.8,55.2
		c17.6,49.8,32.8,92.8,74,109.6c27,11,61.4,21.6,94.1,21.6c5.8,0,11.5-0.3,17.2-1.1c31.6,83.1,59.7,164.3,60.2,165.7
		c0.9,2.5,2.2,4.9,3.7,6.9c10.7,26.5,45.6,102.1,49.9,101.3C939.3,861.5,932.9,782.3,927.7,751z M728.2,523.5
		c-20.3-8.3-30.6-34.9-46.9-81.1c-6.2-17.4-13.1-37.2-21.9-57.9c-9.5-22.5-28-48.1-47.5-75.2c-32.4-44.9-72.8-100.8-65.9-139.6
		c2.5-13.9,11.3-25.9,26.9-36.5c7.5-5.1,15.6-7.6,24.7-7.6c5.6,0,11.6,1,18.1,2.8c39.1,11.4,90.9,57,146,128.3
		c46.6,60.3,81.6,121.1,89.2,138.7c22.1,51.6,1.5,114.4,1.2,115.3l-0.1,0.2c-1.4,4.2-3,7.8-5,11.1c-16.7-42-33.2-80.7-46.4-106.1
		C747.8,314,648.1,196.3,643.9,191.4c-8.6-10.1-23.7-11.3-33.8-2.7c-10.1,8.6-11.3,23.7-2.7,33.8c1,1.2,100.3,118.5,150.8,215.5
		c12.6,24.2,28.7,62.2,45,103.5C782.8,541.3,756.9,535.2,728.2,523.5z"/>
</g>
</svg>
