<?xml version="1.0" encoding="utf-8"?>
<!-- Generator: Adobe Illustrator 22.0.0, SVG Export Plug-In . SVG Version: 6.00 Build 0)  -->
<svg version="1.1" id="Ebene_1" xmlns="http://www.w3.org/2000/svg" xmlns:xlink="http://www.w3.org/1999/xlink" x="0px" y="0px"
	 viewBox="0 0 1024 1024" style="enable-background:new 0 0 1024 1024;" xml:space="preserve">
<style type="text/css">
	.st0{display:none;}
</style>
<g id="HG" class="st0">
</g>
<g>
	<path class="st1" d="M927.2,343.4c-22.5-55.6-55.7-105.5-98.4-148.2s-92.6-75.9-148.2-98.4C626.9,75,570.2,64,512,64
		c-58.2,0-114.9,11-168.6,32.8c-55.6,22.5-105.5,55.7-148.2,98.4c-42.8,42.8-75.9,92.6-98.4,148.2C75,397.1,64,453.8,64,512
		c0,58.2,11,114.9,32.8,168.6c22.5,55.6,55.7,105.5,98.4,148.2c42.8,42.8,92.6,75.9,148.2,98.4C397.1,949,453.8,960,512,960
		c58.2,0,114.9-11,168.6-32.8c55.6-22.5,105.5-55.7,148.2-98.4s75.9-92.6,98.4-148.2C949,626.9,960,570.2,960,512
		C960,453.8,949,397.1,927.2,343.4z M794.8,794.8C719.3,870.4,618.8,912,512,912s-207.3-41.6-282.8-117.2
		c-156-156-156-409.7,0-565.7C304.7,153.6,405.2,112,512,112s207.3,41.6,282.8,117.2C950.8,385.1,950.8,638.9,794.8,794.8z"/>
	<path class="st1" d="M612.6,526.7c-13.1-12.2-27.8-21.4-42.9-28.5c17.7-8.7,34.6-20.2,48.3-35.5c25-27.9,35.4-63,31.1-104.6
		c-4.1-39.4-21.3-69.4-51.1-89.3c-32.3-21.5-78-29.7-135.7-24.3c-41.1,3.9-73.4,13.4-74.8,13.8c-12.7,3.8-19.9,17.2-16.1,29.9
		c3.8,12.7,17.2,19.9,29.9,16.1c0.3-0.1,29.1-8.6,65.5-12c45.8-4.3,81.9,1.4,104.6,16.5c17.6,11.7,27.4,29.5,30,54.3
		c2.9,27.8-3.3,49.9-19,67.4c-34.4,38.5-103.4,44.6-122.2,45.6c-3.6,0.1-5.8,0.2-6.3,0.2c-12.9,0.8-22.9,11.8-22.4,24.8
		c0.5,12.9,11.1,23.2,24,23.2c0,0,0.1,0,0.1,0c0.6,0,2.7,0,6.1-0.2c17.4-0.2,79.8,1.8,118.5,37.8c21.8,20.3,32.5,47.8,32.9,84.1
		c0.3,26.4-8,46-25.1,59.9c-48.5,39.4-157.7,26.2-195.7,17.8c-12.9-2.9-25.8,5.3-28.6,18.2c-2.9,12.9,5.3,25.8,18.2,28.6
		c1.6,0.4,39.7,8.7,86.9,10c4.3,0.1,8.5,0.2,12.6,0.2c60,0,106-12.6,136.8-37.6c28.9-23.4,43.3-56.3,42.9-97.7
		C660.5,596.1,644.3,556.1,612.6,526.7z"/>
</g>
</svg>
