<?xml version="1.0" encoding="utf-8"?>
<!-- Generator: Adobe Illustrator 22.0.0, SVG Export Plug-In . SVG Version: 6.00 Build 0)  -->
<svg version="1.1" id="Ebene_1" xmlns="http://www.w3.org/2000/svg" xmlns:xlink="http://www.w3.org/1999/xlink" x="0px" y="0px"
	 viewBox="0 0 1024 1024" style="enable-background:new 0 0 1024 1024;" xml:space="preserve">
<style type="text/css">
	.st0{display:none;}
</style>
<g id="HG" class="st0">
</g>
<g>
	<path class="st1" d="M937,821h-74v-95h51c13.3,0,24-10.7,24-24V587c0-13.3-10.7-24-24-24H764c-13.3,0-24,10.7-24,24v115
		c0,13.3,10.7,24,24,24h51v95H661V374c0-13.3-10.7-24-24-24H387c-13.3,0-24,10.7-24,24v447H212v-96h51c13.3,0,24-10.7,24-24V585
		c0-13.3-10.7-24-24-24H113c-13.3,0-24,10.7-24,24v116c0,13.3,10.7,24,24,24h51v96H86c-13.3,0-24,10.7-24,24s10.7,24,24,24h301h250
		h300c13.3,0,24-10.7,24-24S950.3,821,937,821z M788,611h102v67H788V611z M137,609h102v68H137V609z M411,821V398h202v423H411z"/>
	<rect x="451" y="443" class="st1" width="122" height="134"/>
</g>
</svg>
