<?xml version="1.0" encoding="utf-8"?>
<!-- Generator: Adobe Illustrator 14.0.0, SVG Export Plug-In . SVG Version: 6.00 Build 43363)  -->
<!DOCTYPE svg PUBLIC "-//W3C//DTD SVG 1.1//EN" "http://www.w3.org/Graphics/SVG/1.1/DTD/svg11.dtd">
<svg version="1.1" id="Ebene_1" xmlns="http://www.w3.org/2000/svg" xmlns:xlink="http://www.w3.org/1999/xlink" x="0px" y="0px"
	 width="1024px" height="1024px" viewBox="0 0 1024 1024" enable-background="new 0 0 1024 1024" xml:space="preserve">
<g>
	<path  d="M875.46,106.914H148.54c-46.636,0-84.577,37.323-84.577,83.2v643.771c0,45.877,37.941,83.201,84.577,83.201
		h726.92c46.636,0,84.577-37.324,84.577-83.201V190.114C960.037,144.237,922.096,106.914,875.46,106.914z M148.54,154.914h150.467
		v91.828h48v-91.828h329.987v91.828h48v-91.828H875.46c20.169,0,36.577,15.791,36.577,35.2v105.005H111.963V190.114
		C111.963,170.705,128.371,154.914,148.54,154.914z M875.46,869.086H148.54c-20.168,0-36.577-15.791-36.577-35.201V343.119h800.074
		v490.766C912.037,853.295,895.629,869.086,875.46,869.086z"/>
	<path  d="M467.891,573.479c19.624-17.086,31.88-41.237,31.88-67.967c0-51.662-45.761-93.691-102.008-93.691
		s-102.008,42.03-102.008,93.691h48c0-25.194,24.228-45.691,54.008-45.691c29.78,0,54.008,20.497,54.008,45.691
		c0,24.839-23.571,45.112-52.8,45.68c-0.419-0.005-0.837-0.007-1.257-0.007c-13.255,0-24,10.764-24,24.019s10.745,24,24,24
		c0.433,0,0.863-0.003,1.294-0.008c39.113,0.671,70.715,31.727,70.715,69.806c0,38.496-32.304,69.815-72.01,69.815
		c-39.706,0-72.009-31.319-72.009-69.815h-48c0,64.964,53.836,117.815,120.009,117.815c66.174,0,120.01-52.852,120.01-117.815
		C517.725,629.739,498.059,594.9,467.891,573.479z"/>
	<path  d="M685.79,435.821c0-10.307-6.58-19.462-16.349-22.748c-9.771-3.286-20.545,0.033-26.773,8.244
		l-72.008,94.935l38.244,29.008l28.886-38.083v222.402h-34.829v48h119.333v-48H685.79V435.821z"/>
</g>
</svg>
