<?xml version="1.0" encoding="utf-8"?>
<!-- Generator: Adobe Illustrator 22.0.0, SVG Export Plug-In . SVG Version: 6.00 Build 0)  -->
<svg version="1.1" id="Ebene_1" xmlns="http://www.w3.org/2000/svg" xmlns:xlink="http://www.w3.org/1999/xlink" x="0px" y="0px"
	 viewBox="0 0 1024 1024" style="enable-background:new 0 0 1024 1024;" xml:space="preserve">
<style type="text/css">
	.st0{display:none;}
</style>
<g id="HG" class="st0">
</g>
<g id="vwicn173">
	<path class="st1" d="M364.7,892.1c-6.8,0-13.5-1.4-20-4.7c-7.6-3.8-17.7-11.8-22.6-28c-6.1-20-8.1-60.1,44.7-176.5
		c15-33.1,30.5-63.7,41.8-85.1l-147.7-20.3c-10.3,12.9-28.6,35.2-48.5,57.1c-17.9,19.7-33.4,35-46.1,45.4
		c-8.6,7.1-16.2,12.1-23,15.3c-16,7.5-27.6,4.5-34.4,0.6c-6.7-3.7-17.7-13.3-16.7-35.2c0.3-8.2,2.3-18.1,5.9-30.5
		c6-20.4,15.9-44.8,24.6-66.3c1.4-3.6,2.9-7.1,4.2-10.5c-3.8-0.9-7.7-1.8-10.8-2.4c-8.9-1.9-18.1-3.9-25.8-6.6
		c-22.8-8.1-26.2-22.9-26.2-30.9c0-13.1,7.9-23.6,23.5-31c7.3-3.5,16.1-6.4,24.7-9.2c3.9-1.3,9.1-3,13.7-4.7
		c-2.2-6.1-4.7-12.5-7.2-19.1c-22.1-58.5-36.8-97.1-13.2-115.9c5.6-4.5,17.9-10.7,36.4-1.6c6.3,3.1,13.5,8,22,15
		c12.4,10.3,28.1,25.4,46.5,45.1c21,22.3,40.7,45.2,51.5,58l148.9-18.4c-12.7-26-31.2-65.4-47.8-106.4
		c-16.9-41.5-28.4-76.2-34.1-102.9c-3.8-17.6-5.2-31.9-4.2-43.8c1.8-23,12.5-34.1,21.2-39.3c8-4.8,21.5-9.6,39.9-5
		c23.2,5.8,50.5,25.8,83.5,61.1c24.2,25.8,51.7,60.2,81.7,102c38.8,54,71.4,106,85.3,128.6c41.3-0.3,163.5-1.1,212.1,0.1
		c32.3,0.8,60.2,10.2,80.5,27.3c19.5,16.4,30.6,39.1,30.6,62.4c0,41.4-37.9,86.5-108.2,88.5c-42.3,1.2-172.1-1.5-214.4-2.5
		c-16.6,24.9-59,87.1-105.5,146.4c-35.4,45.2-66.5,80-92.3,103.6C419.2,870,391.4,892.1,364.7,892.1z M250.6,527.8
		c1.1,0,2.2,0.1,3.3,0.2l195.6,26.9c7.9,1.1,14.7,6,18.2,13.1c3.5,7.1,3.3,15.5-0.6,22.4c-0.3,0.6-31.8,56.8-59.3,118.4
		c-15.9,35.6-27.3,65.9-34,90c-7.5,27.3-7,39.9-6.2,44.8c9.6-2.7,45.3-20.4,133.5-134.6c55.3-71.4,102.7-144.1,103.2-144.8
		c4.5-7,12.4-11.1,20.7-10.9c1.8,0,176.6,4.2,225.2,2.8c38.5-1.1,61.6-21.4,61.6-40.5c0-9.1-4.9-18.4-13.6-25.7
		c-8.3-7-23.8-15.4-50.7-16c-57-1.4-222.6,0-224.2,0c-0.1,0-0.1,0-0.2,0c-8.4,0-16.3-4.4-20.6-11.7c-0.5-0.8-46.8-78.1-101.1-151.9
		c-84.7-115-120.1-128.4-128.6-129.8c-1.3,8.9-0.9,41.7,40,139.2c26.3,62.8,55.8,119.9,56.1,120.5c3.6,7,3.6,15.3-0.1,22.2
		c-3.7,7-10.5,11.7-18.3,12.6l-195.6,24.1c-8.1,1-16.2-2.2-21.4-8.5c-0.2-0.3-22.9-27.8-49.1-56.2C171.2,420,160.6,409,152,400.7
		c3.6,10.2,7.7,21,11.7,31.7c4.6,12.2,9,23.8,12.7,34.4c2.6,7.7,2.1,16-1.5,23.2c-4.7,9.5-13.3,15.4-24,20.2
		c11.4,3.8,20.6,9.1,25.8,18.8c4.2,7.7,4.7,16.5,1.6,24.8c-3.2,8.5-7.1,18-11.1,28c-6.6,16.2-14,34.6-19.4,50.4
		c9.2-8.6,21.3-21,36.9-38.7c25.2-28.5,46.8-56.2,47-56.5C236.2,531.2,243.2,527.8,250.6,527.8z M133.4,536.8
		C133.3,536.8,133.3,536.8,133.4,536.8C133.3,536.8,133.3,536.8,133.4,536.8z"/>
</g>
</svg>
