<?xml version="1.0" encoding="utf-8"?>
<!-- Generator: Adobe Illustrator 22.0.0, SVG Export Plug-In . SVG Version: 6.00 Build 0)  -->
<svg version="1.1" id="Ebene_1" xmlns="http://www.w3.org/2000/svg" xmlns:xlink="http://www.w3.org/1999/xlink" x="0px" y="0px"
	 viewBox="0 0 1024 1024" style="enable-background:new 0 0 1024 1024;" xml:space="preserve">
<style type="text/css">
	.st0{display:none;}
</style>
<g id="HG" class="st0">
</g>
<g>
	<path class="st1" d="M183.2,416.3c-10.4,6.3-20.8,11.8-31.1,16.9c-10.3,5.1-20.8,9.6-31.3,13.8c-10.5,4.2-21.8,8.1-32.8,11.8V517
		c18-4.7,34.2-10.1,48.4-16.3c14.2-6.2,27.6-13.7,39.6-22.5V826h69V395h-29.3C204.5,403,193.7,410,183.2,416.3z"/>
	<path class="st1" d="M417,566.7c0-8.4,3-16.8,8.6-25.1c5.6-8.3,13.1-16.7,22.1-25c9-8.4,19.1-16.9,30.4-25.6s22.6-17.7,34-26.9
		c13.5-11.1,25.7-22,36.7-32.6c11-10.6,20.4-21.7,28.1-33.5c7.7-11.8,13.7-24.5,17.9-38.1c4.2-13.6,6.3-28.9,6.3-46
		c0-18.8-3-35.5-9-50s-14.4-26.6-25.4-36.3s-24.2-17-39.7-22c-15.4-5-32.7-7.5-51.7-7.5c-11.7,0-22.8,0.8-33.2,2.4
		c-10.4,1.6-20.3,4-29.7,7.2c-9.4,3.3-18.5,7.3-27.3,12.1c-8.8,4.8-17.1,10.4-26.1,16.9v65.6c16-16.1,33.6-28.2,51.4-36.2
		C428.3,258,445.8,254,463,254c10,0,19.2,1.5,27.6,4.3c8.4,2.8,15.7,7,21.9,12.6c6.2,5.6,11,12.6,14.4,20.9
		c3.4,8.4,5.1,18.1,5.1,29.3c0,10.2-1.5,19.7-4.4,28.4c-2.9,8.7-7,17-12.3,24.8c-5.3,7.9-11.7,15.5-19.1,22.8
		c-7.5,7.4-15.7,14.9-24.7,22.5c-9.6,8.1-19.4,16.1-29.4,24c-10,7.9-19.8,16.2-29.4,24.7c-9.6,8.6-18.6,17.4-27,26.5
		c-8.5,9.1-15.8,18.8-22.1,29.1c-6.3,10.3-11.3,21.2-15,32.9S343,581,343,594.3V627h265v-59.2H417V566.7z"/>
	<path class="st1" d="M909.9,571.8c-17.7-18.3-41.9-29-71.9-31.9v-1.2c56-15.9,84.5-51.5,84.5-107c0-29.4-11.5-53.5-34-72.3
		s-52.6-28.2-90-28.2c-39,0-72.5,8-101.5,24.1v60.6c25-20.2,51.6-30.2,79.8-30.2c50.5,0,75.9,20.9,75.9,62.4
		c0,45-32.4,67.8-97.3,67.8H724v54h32.8c73.1,0,109.6,24.1,109.6,71.9c0,21.8-8.4,39.2-25.2,51.9c-16.7,12.7-39.2,19.1-67.2,19.1
		c-34.5,0-65-10.8-93-32.6v64.1c25,15.1,58.4,22.6,100.1,22.5c46.5,0,84.1-11.6,112.5-34.8c28.4-23.2,42.7-53.8,42.7-91.6
		C936.3,613,927.5,590.1,909.9,571.8z"/>
</g>
</svg>
