<?xml version="1.0" encoding="utf-8"?>
<!-- Generator: Adobe Illustrator 14.0.0, SVG Export Plug-In . SVG Version: 6.00 Build 43363)  -->
<!DOCTYPE svg PUBLIC "-//W3C//DTD SVG 1.1//EN" "http://www.w3.org/Graphics/SVG/1.1/DTD/svg11.dtd">
<svg version="1.1" id="Ebene_1" xmlns="http://www.w3.org/2000/svg" xmlns:xlink="http://www.w3.org/1999/xlink" x="0px" y="0px"
	 width="1024px" height="1024px" viewBox="0 0 1024 1024" enable-background="new 0 0 1024 1024" xml:space="preserve">
<g>
	<path  d="M837.319,329.979L582.94,71.176c-4.512-4.59-10.68-7.176-17.116-7.176H203.797c-13.255,0-24,10.745-24,24
		v848c0,10.035,6.243,19.011,15.651,22.501c2.725,1.011,5.548,1.5,8.344,1.5c6.857,0,13.546-2.942,18.196-8.346l143.333-166.559
		l137.777,121.879c5.251,4.646,12.276,6.759,19.214,5.795c6.943-0.968,13.117-4.923,16.897-10.827l101.544-158.551l167.29,98.3
		c7.422,4.36,16.61,4.413,24.079,0.138c7.471-4.274,12.08-12.223,12.08-20.83V346.803
		C844.203,340.509,841.73,334.468,837.319,329.979z M796.203,779.062l-151.045-88.754c-11.118-6.534-25.413-3.112-32.368,7.749
		l-98.883,154.396L378.902,733.024c-4.81-4.255-11.12-6.403-17.532-5.969c-6.407,0.436-12.372,3.422-16.561,8.289L227.797,871.317
		V112h279.252v270.806c0,13.255,10.745,24,24,24h265.154V779.062z M796.203,358.806H555.049V112h0.713l240.441,244.623V358.806z"/>
	<rect x="293.687" y="358.665"  width="154.32" height="48"/>
	<rect x="292.01" y="508.33"  width="408.533" height="48"/>
</g>
</svg>
