<?xml version="1.0" encoding="utf-8"?>
<!-- Generator: Adobe Illustrator 22.0.0, SVG Export Plug-In . SVG Version: 6.00 Build 0)  -->
<svg version="1.1" id="Ebene_1" xmlns="http://www.w3.org/2000/svg" xmlns:xlink="http://www.w3.org/1999/xlink" x="0px" y="0px"
	 viewBox="0 0 1024 1024" style="enable-background:new 0 0 1024 1024;" xml:space="preserve">
<style type="text/css">
	.st0{display:none;}
	.st1{fill:#2368BC;}
</style>
<g id="HG" class="st0">
</g>
<g>
	<path class="st1" d="M847.6,455c2.3-9,3.5-18.1,3.5-27.4c0-53.1-38.1-101.3-107.3-135.8c-62.8-31.3-145.6-48.6-233.3-48.6
		S340,260.5,277.2,291.8c-44.1,22-75.6,49.6-92.6,80.5C147.5,388,117.7,407.5,96,430c-25.2,26.2-38.5,56.4-38.5,87.2
		c0,47.3,31.1,91.8,87.6,125.2C195.3,672,264,692.1,338.7,699c0.8,0.2,1.7,0.5,2.5,0.6c14.5,11.8,31.7,22.8,51.4,32.6
		c62.8,31.3,145.6,48.6,233.3,48.6c87.7,0,170.5-17.2,233.3-48.5c69.2-34.5,107.3-82.8,107.3-135.9
		C966.5,540.4,923.4,489.4,847.6,455z M303.1,343.7c54.9-27.4,128.6-42.5,207.4-42.5c78.8,0,152.5,15.1,207.4,42.5
		c47.8,23.8,75.2,54.4,75.2,83.9c0,9.5-2.8,19.2-8.4,28.7c-15.1,26-49.1,50-95.8,67.8C637.6,543.7,575.9,554,510.5,554
		c-78.8,0-152.5-15.1-207.4-42.5c-47.8-23.8-75.2-54.4-75.2-83.9C227.9,398.1,255.3,367.5,303.1,343.7z M115.5,517.2
		c0-25.3,20.2-51.3,55.7-73.1c7.1,46.5,44.1,88.4,106.1,119.3c3.8,1.9,7.7,3.7,11.6,5.5c-2.4,9.1-3.6,18.3-3.6,27.4
		c0,12.8,2.2,25.3,6.6,37.5C189.6,614.1,115.5,566.9,115.5,517.2z M833.3,680.4c-54.9,27.4-128.5,42.4-207.4,42.4
		c-78.8,0-152.5-15.1-207.4-42.5c-47.8-23.8-75.2-54.4-75.2-83.9c0-2.4,0.2-4.8,0.5-7.2C394,604.1,451.2,612,510.5,612
		c72.4,0,141.2-11.6,199.1-33.6c48.7-18.5,86.4-43.2,110.6-72.1c55.5,24.4,88.3,57.7,88.3,90.1C908.5,625.9,881.1,656.5,833.3,680.4
		z"/>
	<path class="st1" d="M473.4,409.6l14.6-11.7V517c0,16,13,29,29,29c16,0,29-13,29-29V337.7c0-11.1-6.4-21.3-16.4-26.1
		c-10-4.8-22-3.5-30.7,3.5l-61.7,49.2c-12.5,10-14.6,28.2-4.6,40.8C442.6,417.5,460.9,419.6,473.4,409.6z"/>
</g>
</svg>
