<?xml version="1.0" encoding="utf-8"?>
<!-- Generator: Adobe Illustrator 22.0.0, SVG Export Plug-In . SVG Version: 6.00 Build 0)  -->
<svg version="1.1" id="Ebene_1" xmlns="http://www.w3.org/2000/svg" xmlns:xlink="http://www.w3.org/1999/xlink" x="0px" y="0px"
	 viewBox="0 0 1024 1024" style="enable-background:new 0 0 1024 1024;" xml:space="preserve">
<style type="text/css">
	.st0{display:none;}
	.st1{fill:#2368BC;}
</style>
<g id="HG" class="st0">
</g>
<path class="st1" d="M880,143.6C826.3,91.6,755.1,63,679.3,63c-57,0-111.4,16.2-158.4,46.9C481.5,79.5,433.4,63,382.8,63
	c-60.6,0-117.5,23.6-160.3,66.4s-66.4,99.7-66.4,160.3s23.6,117.5,66.4,160.3c13.3,13.3,28,24.8,43.8,34.3
	c-39.7,11.8-76.3,29.8-107.5,53.2c-29.9,22.4-53.5,48.7-70.1,78c-17.5,31-26.4,64.1-26.4,98.3s8.9,67.2,26.4,98.3
	c16.6,29.4,40.1,55.6,70.1,78c43.1,32.3,96.2,54.2,153.8,64c0.2,0,0.3,0.1,0.5,0.1c1.7,0.3,3.5,0.6,5.2,0.8c0.8,0.1,1.6,0.3,2.4,0.4
	c0.9,0.1,1.9,0.3,2.8,0.4c14.3,2,28.9,3.4,43.6,3.9c0.5,0,1,0,1.6,0c4.7,0.2,9.4,0.2,14.2,0.2c84.4,0,163.9-24.8,224.1-69.9
	c29.9-22.4,53.5-48.7,70-78c13.8-24.5,22.3-50.3,25.2-76.9c0.1-0.8,0.2-1.5,0.3-2.3c0-0.3,0-0.6,0.1-0.8c0.6-6.1,0.9-12.1,0.9-18.3
	c0-1.9,0-3.8-0.1-5.7c0-0.6,0-1.3-0.1-1.9c0-1.3-0.1-2.5-0.2-3.8c0-0.7-0.1-1.5-0.1-2.2c-0.1-1.3-0.2-2.6-0.3-4
	c-0.1-1.4-0.3-2.7-0.4-4.1c-0.1-0.8-0.2-1.6-0.3-2.4c-0.1-1.2-0.3-2.3-0.5-3.5c-0.1-0.5-0.2-1-0.2-1.6c-1.6-10.5-4.1-20.9-7.4-31.1
	c0,0,0,0,0,0c-0.5-1.5-1-3-1.5-4.5c0,0,0,0,0,0c-1.5-4.2-3.1-8.3-4.8-12.4c-0.2-0.5-0.5-1.1-0.7-1.6c-0.5-1.1-1-2.2-1.5-3.3
	c-0.3-0.7-0.6-1.4-1-2.1c-0.7-1.6-1.5-3.1-2.3-4.7c-0.5-0.9-0.9-1.9-1.4-2.8c-0.4-0.9-0.9-1.7-1.4-2.6c-0.5-0.9-0.9-1.7-1.4-2.6
	c-0.3-0.6-0.6-1.1-0.9-1.7c-0.1-0.2-0.2-0.4-0.3-0.5c0.9,0,1.8,0,2.7,0c75.8,0,147-28.6,200.7-80.6c53.9-52.2,83.5-121.6,83.5-195.4
	S933.8,195.7,880,143.6z M204.1,289.7c0-98.5,80.2-178.7,178.7-178.7c98.5,0,178.7,80.2,178.7,178.7c0,93.8-72.6,170.9-164.5,178.1
	c-1.9-0.1-3.7-0.1-5.6-0.1c-0.5,0-1,0-1.5,0c-2.3,0-4.7-0.1-7-0.1c0,0,0,0-0.1,0s0,0-0.1,0c-4.7,0-9.4,0.1-14.1,0.2
	C276.7,460.6,204.1,383.5,204.1,289.7z M401.2,516.1c2.2,0.1,4.3,0.2,6.4,0.4c0.4,0,0.8,0.1,1.2,0.1c39.5,2.7,77.1,11.7,110.7,26
	c0,0,0,0,0,0c2,0.9,4.1,1.8,6.1,2.7c1.1,0.5,2.2,1,3.3,1.5c0.8,0.4,1.6,0.7,2.4,1.1c16.7,8,32.4,17.4,46.7,28.1
	c7,5.3,13.6,10.8,19.8,16.5c0.9,0.8,1.7,1.6,2.6,2.4c0.4,0.4,0.9,0.8,1.3,1.3c3.2,3.1,6.2,6.3,9.2,9.6
	c23.5,26.2,38.1,55.7,42.8,86.4c0,0.2,0.1,0.4,0.1,0.6c0.1,1,0.3,2,0.4,3c0.1,0.5,0.1,0.9,0.2,1.4c0.1,1.3,0.3,2.5,0.4,3.8
	c0.1,0.9,0.2,1.8,0.2,2.7c0,0.6,0.1,1.1,0.1,1.7c0.1,1,0.1,1.9,0.1,2.9c0,0.5,0,1,0.1,1.4c0,1.4,0.1,2.9,0.1,4.3
	c0,1.9,0,3.8-0.1,5.7c-1.9,49.5-29.1,96.3-77.1,132.2C526.2,890.6,456.8,912,382.8,912c-15.8,0-31.4-1-46.7-2.9
	c-0.4,0-0.8-0.1-1.1-0.1c-0.1,0-0.2,0-0.4,0C279,901.7,228,882,187.6,851.7c-49.8-37.3-77.2-86.3-77.2-137.9
	c0-51.6,27.4-100.6,77.2-137.9c48.3-36.2,111.9-57.3,180.3-60c4.9,0.3,9.9,0.5,14.9,0.5c5,0,9.9-0.2,14.8-0.5c0.4,0,0.8,0,1.2,0
	C399.6,516,400.4,516,401.2,516.1z M679.3,567c-10.4,0-20.7-0.6-30.8-1.9c-4.6-0.6-8.3-1.1-11.7-1.8c-0.2-0.2-0.4-0.4-0.6-0.5
	c-0.7-0.7-1.5-1.5-2.2-2.2c-0.6-0.5-1.1-1.1-1.7-1.6c-1.3-1.3-2.7-2.5-4-3.8c-0.2-0.2-0.4-0.4-0.7-0.6c-10-9.1-20.8-17.5-32.2-25.3
	c0,0-0.1,0-0.1-0.1c-1.6-1.1-3.3-2.2-4.9-3.3c-0.7-0.5-1.5-0.9-2.2-1.4c-0.7-0.4-1.4-0.9-2-1.3c-26.3-16.6-55.6-29.7-86.8-39
	c15.7-9.5,30.4-20.9,43.8-34.3c24.9-24.9,43.3-54.6,54.3-87H679c13.3,0,24-10.7,24-24V161.1c0-13.3-10.7-24-24-24s-24,10.7-24,24
	V315h-46.9c0.9-8.3,1.4-16.8,1.4-25.3c0-53.8-18.7-104.8-52.9-145.5c36.9-21.8,78.9-33.2,122.7-33.2c130.2,0,236.2,102.3,236.2,228
	S809.5,567,679.3,567z"/>
</svg>
