<?xml version="1.0" encoding="utf-8"?>
<!-- Generator: Adobe Illustrator 22.0.0, SVG Export Plug-In . SVG Version: 6.00 Build 0)  -->
<svg version="1.1" id="Ebene_1" xmlns="http://www.w3.org/2000/svg" xmlns:xlink="http://www.w3.org/1999/xlink" x="0px" y="0px"
	 viewBox="0 0 1024 1024" style="enable-background:new 0 0 1024 1024;" xml:space="preserve">
<style type="text/css">
	.st0{display:none;}
	.st1{fill:#2368BC;}
</style>
<g id="HG" class="st0">
</g>
<path class="st1" d="M955,313.4c-6.9-14.9-16.3-25.1-28.6-31.5c-12.9-6.6-28.5-8.8-49-6.8c-25.1,2.5-84.1,8.4-108.9,10.9
	c-1.3-13.6-3-27.9-4.9-42.1c-7.9-58.8-18-99.3-30.1-120.3c-28.5-50.3-61.4-60.9-84-60.9c-33.9,0.1-54.7,5.3-73,9.8l-0.7,0.2
	c-18.9,4.6-36.8,8.9-64.8,8.9c-27.9,0-45.8-4.3-64.8-8.9l-0.7-0.2c-18.4-4.5-39.2-9.7-73-9.7c-22.3,0-55,10.5-83.6,60.8
	c-19.4,34.1-30.4,113.6-35.4,172.1c-8.5-1.7-19.1-4-26.8-5.6c-8.3-1.8-15.5-3.3-19.9-4.2c-11-2.1-18.1-3.9-25.5-5.7
	c-9.3-2.3-19-4.6-36.6-8c-39.3-7.5-70.3,11.6-80.7,49.6l-0.2,0.8l-0.2,0.9c-5.4,27.5,3.4,56.6,13.8,84
	c24.4,64.7,80.5,121.6,157.9,160.2c9.3,4.7,18.9,9,28.8,13.1c-23.4,31.5-43.1,67.7-57.3,105.9c-18.2,48.8-27.5,99-27.5,149.3
	c0,25.9,2.2,51.6,6.6,76.8H119c-13.3,0-24,10.7-24,24s10.7,24,24,24h172c13.3,0,24-10.7,24-24s-10.7-24-24-24h-56.2
	c-5-25.1-7.5-50.9-7.5-76.8c0-84.6,31.5-173.3,84.4-238.2c14.7,4.5,29.9,8.4,45.6,11.8c47.4,10.3,99,15.5,153.4,15.5
	c75.8,0,145-9.4,201.7-26.8c53.6,63.6,83.1,147.8,83.1,237.6c0,25.9-2.5,51.6-7.4,76.8h-59c-13.3,0-24,10.7-24,24s10.7,24,24,24h172
	c13.3,0,24-10.7,24-24s-10.7-24-24-24h-64.2c4.4-25.2,6.6-51,6.6-76.8c0-51.5-8.6-101.5-25.7-148.6c-14.2-39.3-33.7-75.1-58.1-106.8
	c5.9-2.7,11.6-5.5,17-8.4c76.2-40.8,113-70,167.3-152.4c9.3-14.2,15.6-33.5,17.6-54.5C962.6,353.6,963.3,331.1,955,313.4z
	 M298,358.1c0-44.2,13-176.2,32.6-210.6c7.8-13.7,23.6-36.6,42-36.6c28,0,44.3,4,61.5,8.3l0.9,0.2c20.9,5.1,42.4,10.3,76.1,10.3
	c33.7,0,55.2-5.2,76.1-10.3l0.9-0.2c16.5-4.1,33.6-8.3,61.6-8.4c18.6,0,34.4,22.9,42.2,36.6C711.8,182.2,725,314,725,358.1v17.5
	c0,2.5-7.2,14.2-42.3,27.1c-41.8,15.3-104.3,24.1-171.5,24.1c-61.8,0-121.2-7.8-163.1-21.4l-0.1,0c-37.8-12-50-25.2-50-29.7V358.1z
	 M913.7,360.9c-1.2,12.9-4.9,25.1-9.8,32.6c-49,74.4-80.4,99.4-149.9,136.5c-56.3,30.1-145,47.4-243.4,47.4
	c-97.3,0-185.1-18.1-253.9-52.5c-66.6-33.2-114.3-80.9-134.5-134.2c-7.7-20.4-14.4-41.3-11.8-56.9c3.8-13,11-17,25.2-14.3
	c16.4,3.1,25.5,5.3,34.3,7.5c7.7,1.9,15.6,3.8,27.6,6.1c4,0.8,11.4,2.4,19.1,4c13.9,3,25.4,5.4,33.7,7c-0.2,5.8-0.3,10.5-0.3,14
	v17.5c0,14.5,6.2,35.7,36,54.4c12.5,7.9,28.5,15,47.4,21c47.1,15.3,110.3,23.8,177.9,23.8c72.6,0,141.2-9.9,188-27.1
	c48.9-17.9,73.8-42.2,73.8-72.1v-17.5c0-6.3-0.3-14.5-0.8-24.2c24.2-2.4,84.4-8.4,109.9-11c23.3-2.3,25.7,2.9,29.4,10.8
	C912.9,336.7,915.1,346.1,913.7,360.9z"/>
</svg>
