<?xml version="1.0" encoding="utf-8"?>
<!-- Generator: Adobe Illustrator 22.0.0, SVG Export Plug-In . SVG Version: 6.00 Build 0)  -->
<svg version="1.1" id="Ebene_1" xmlns="http://www.w3.org/2000/svg" xmlns:xlink="http://www.w3.org/1999/xlink" x="0px" y="0px"
	 viewBox="0 0 1024 1024" style="enable-background:new 0 0 1024 1024;" xml:space="preserve">
<style type="text/css">
	.st0{display:none;}
</style>
<g id="HG" class="st0">
</g>
<g>
	<path class="st1" d="M511.5,348c-90.4,0-164,73.6-164,164s73.6,164,164,164s164-73.6,164-164S601.9,348,511.5,348z M511.5,628
		c-64,0-116-52-116-116c0-64,52-116,116-116c64,0,116,52,116,116C627.5,576,575.5,628,511.5,628z"/>
	<path class="st1" d="M311,512c0-13.3-10.7-24-24-24H86c-13.3,0-24,10.7-24,24s10.7,24,24,24h201C300.3,536,311,525.3,311,512z"/>
	<path class="st1" d="M937,488H736c-13.3,0-24,10.7-24,24s10.7,24,24,24h201c13.3,0,24-10.7,24-24S950.3,488,937,488z"/>
	<path class="st1" d="M512,713c-13.3,0-24,10.7-24,24v201c0,13.3,10.7,24,24,24s24-10.7,24-24V737C536,723.7,525.3,713,512,713z"/>
	<path class="st1" d="M512,312c13.3,0,24-10.7,24-24V87c0-13.3-10.7-24-24-24s-24,10.7-24,24v201C488,301.3,498.7,312,512,312z"/>
	<path class="st1" d="M687.7,653.7c-9.4-9.4-24.6-9.4-33.9,0c-9.4,9.4-9.4,24.6,0,33.9l142.2,142.2c4.7,4.7,10.8,7,17,7
		s12.3-2.3,17-7c9.4-9.4,9.4-24.6,0-33.9L687.7,653.7z"/>
	<path class="st1" d="M336.3,370.3c4.7,4.7,10.8,7,17,7c6.1,0,12.3-2.3,17-7c9.4-9.4,9.4-24.6,0-33.9L228.1,194.1
		c-9.4-9.4-24.6-9.4-33.9,0c-9.4,9.4-9.4,24.6,0,33.9L336.3,370.3z"/>
	<path class="st1" d="M336.3,653.7L194.1,795.9c-9.4,9.4-9.4,24.6,0,33.9c4.7,4.7,10.8,7,17,7s12.3-2.3,17-7l142.2-142.2
		c9.4-9.4,9.4-24.6,0-33.9C360.9,644.4,345.7,644.4,336.3,653.7z"/>
	<path class="st1" d="M670.7,377.3c6.1,0,12.3-2.3,17-7l142.2-142.2c9.4-9.4,9.4-24.6,0-33.9c-9.4-9.4-24.6-9.4-33.9,0L653.7,336.3
		c-9.4,9.4-9.4,24.6,0,33.9C658.4,375,664.6,377.3,670.7,377.3z"/>
</g>
</svg>
