<?xml version="1.0" encoding="utf-8"?>
<!-- Generator: Adobe Illustrator 20.0.0, SVG Export Plug-In . SVG Version: 6.00 Build 0)  -->
<svg version="1.1" id="Ebene_1" xmlns="http://www.w3.org/2000/svg" xmlns:xlink="http://www.w3.org/1999/xlink" x="0px" y="0px"
	 width="1024px" height="922px" viewBox="0 0 1024 922" style="enable-background:new 0 0 1024 922;" xml:space="preserve">
<g>
	<path class="st0" d="M647.5,427.9c48.9,0,88.5-39.6,88.5-88.5s-39.6-88.5-88.5-88.5S559,290.5,559,339.4S598.6,427.9,647.5,427.9z"
		/>
	<path class="st0" d="M820,129.5H204c-13.3,0-24,10.7-24,24v616c0,13.3,10.7,24,24,24h616c13.3,0,24-10.7,24-24v-616
		C844,140.2,833.3,129.5,820,129.5z M796,177.5v406.6l-82.7-78.4l-112.6,95.9L432.8,429.5L228,631.4V177.5H796z M228,745.5v-46.7
		l204.1-201.3l165.6,169.7l113.9-97l84.4,80v95.3H228z"/>
</g>
</svg>
