<?xml version="1.0" encoding="utf-8"?>
<!-- Generator: Adobe Illustrator 22.0.0, SVG Export Plug-In . SVG Version: 6.00 Build 0)  -->
<svg version="1.1" id="Ebene_1" xmlns="http://www.w3.org/2000/svg" xmlns:xlink="http://www.w3.org/1999/xlink" x="0px" y="0px"
	 viewBox="0 0 1024 1024" style="enable-background:new 0 0 1024 1024;" xml:space="preserve">
<style type="text/css">
	.st0{display:none;}
</style>
<g id="HG" class="st0">
</g>
<g>
	<path class="st1" d="M937,161H87c-13.3,0-24,10.7-24,24v461c0,13.3,10.7,24,24,24h91v169c0,13.3,10.7,24,24,24h387
		c13.3,0,24-10.7,24-24V670h324c13.3,0,24-10.7,24-24V185C961,171.7,950.3,161,937,161z M267.6,517.6
		c-0.6-43.2-2.1-144.5,47.1-194.7c20.3-20.7,47.1-30.8,82-30.9c36.8-0.1,64.4,9.6,84.3,29.8c18.8,19.1,31,47.4,37.1,86.7
		c5.6,35.4,5,72.1,4.5,101.5c-0.1,3.4-0.1,6.8-0.2,10.1H267.6C267.6,519.2,267.6,518.4,267.6,517.6z M565,815H226V568h339V815z
		 M913,622H613v-78c0-13.3-10.7-24-24-24h-18.6c0-3,0.1-6.1,0.1-9.3c0.5-29.6,1.1-70.2-5-109.7c-7.8-49.5-24.2-86.5-50.4-113
		c-29-29.4-68.9-44.2-118.6-44.1c-47.7,0.2-86.8,15.4-116.1,45.3c-27.7,28.2-46.2,69.4-54.9,122.4c-6.9,41.9-6.3,82.4-5.9,106.6
		c0,0.6,0,1.1,0,1.7H202c-13.3,0-24,10.7-24,24v78h-67V209h802V622z"/>
	<path class="st1" d="M374,719.8V762h42v-41.7c11-6.9,18.4-19.1,18.4-33.1c0-21.5-17.5-39-39-39c-21.5,0-39,17.5-39,39
		C356.4,700.8,363.4,712.8,374,719.8z"/>
</g>
</svg>
