<?xml version="1.0" encoding="utf-8"?>
<!-- Generator: Adobe Illustrator 22.0.0, SVG Export Plug-In . SVG Version: 6.00 Build 0)  -->
<svg version="1.1" id="Ebene_1" xmlns="http://www.w3.org/2000/svg" xmlns:xlink="http://www.w3.org/1999/xlink" x="0px" y="0px"
	 viewBox="0 0 1024 1024" style="enable-background:new 0 0 1024 1024;" xml:space="preserve">
<style type="text/css">
	.st0{display:none;}
	.st1{fill:#2368BC;}
</style>
<g id="HG" class="st0">
</g>
<path class="st1" d="M872.1,159.6c-61.1-61.1-142.1-95.2-228.5-96.1c-0.8,0-1.5,0-2.3,0c-0.2,0-0.5,0-0.7,0c-0.2,0-0.4,0-0.7,0
	c-69.1,0-135.2,21.2-191.2,61.4c-50.8,36.5-89.7,85.7-113,143.2c-9.7-1.7-19.7-2.5-29.9-2.5c0,0,0,0,0,0s0,0,0,0
	c-98.4,0-178.5,80.1-178.5,178.5c0,60.6,30.4,114.2,76.6,146.5c-26.5,9.1-51,21.8-72.3,37.8c-23.4,17.6-41.9,38.2-54.9,61.2
	c-13.8,24.5-20.9,50.7-20.9,77.7s7,53.2,20.9,77.7c13,23.1,31.5,43.7,54.9,61.2c46.8,35.1,108.6,54.4,174.1,54.4
	c65.5,0,127.3-19.3,174.1-54.4c23.4-17.6,41.9-38.2,54.9-61.2c13.8-24.5,20.9-50.7,20.9-77.7c0-21.2-4.3-41.9-12.9-61.7
	c31.2,9.7,63.8,14.6,97.2,14.6c0.2,0,0.4,0,0.7,0c0.2,0,0.5,0,0.7,0c0.8,0,1.5,0,2.3,0c43-0.5,84.7-9.1,124.1-25.8
	c39.1-16.5,74.2-40.2,104.3-70.3c62-62,96.2-144.5,96.2-232.2C968.2,304.1,934.1,221.6,872.1,159.6z M919.2,367.7l-1.8,0
	c-0.6,3.8-15.2,21-75.2,36.8c-19.3,5.1-40.7,9.3-63.7,12.7c0.3-8.4,0.4-16.9,0.4-25.4c0-84.1-12.3-163.5-34.8-223.6
	c-6.1-16.5-12.9-31.1-20.3-43.9C830.1,157.7,909.3,253,919.2,367.7z M641.9,672.1c-0.3,0-0.6,0-1,0c-14.7-0.3-37.4-19.7-57.4-73.5
	c-13.3-35.7-22.7-79.3-27.7-127.1c27.1,2.1,55.3,3.2,84,3.2c29.8,0,59.1-1.2,87-3.4c-4.9,47.8-14.4,91.5-27.7,127.3
	C679.1,652,656.6,671.5,641.9,672.1z M305.7,573.9c-3.5,0-7,0.1-10.5,0.2c-67-5.4-119.9-61.7-119.9-130.1
	c0-71.9,58.5-130.5,130.5-130.5c71.9,0,130.5,58.6,130.5,130.5c0,68.4-52.9,124.7-120,130.1C312.7,574,309.2,573.9,305.7,573.9z
	 M427.3,574.5c30.6-28.6,51.2-67.7,55.9-111.6c7.8,1.3,15.8,2.4,23.9,3.5c5.1,55.7,15.8,107,31.4,148.9c6.3,17,13.4,32.1,21,45.1
	C508.6,645.4,462.8,615.9,427.3,574.5z M639.8,426.7c-30,0-59.4-1.2-87.4-3.6c-0.4-10.3-0.6-20.8-0.6-31.3
	c0-78.5,11.3-151.9,31.7-206.8c20.1-53.8,42.8-73.2,57.4-73.5c0.3,0,0.6,0,1,0c14.7,0.5,37.2,20.1,57.1,73.5
	c20.5,54.9,31.7,128.3,31.7,206.8c0,10.4-0.2,20.8-0.6,31C701.4,425.4,670.9,426.7,639.8,426.7z M559.4,123.3
	c-7.6,13-14.5,28-20.8,44.9c-22.4,60.1-34.8,139.5-34.8,223.6c0,8.7,0.1,17.3,0.4,25.8c-7.7-1.1-15.1-2.3-22.4-3.6
	c-9.9-58.6-48.3-107.2-100.1-131.6C414.6,204.9,480.6,147.1,559.4,123.3z M451,867.7c-38.5,28.9-90.2,44.8-145.3,44.8
	s-106.8-15.9-145.3-44.8c-36.5-27.3-56.6-63-56.6-100.5c0-37.5,20.1-73.2,56.6-100.5c35.9-26.9,83.1-42.5,134-44.6
	c3.7,0.2,7.5,0.4,11.3,0.4s7.6-0.1,11.3-0.4c50.9,2,98.1,17.7,134,44.6c36.5,27.3,56.6,63,56.6,100.5S487.5,840.4,451,867.7z
	 M723.8,659.3c7.4-12.8,14.1-27.4,20.3-43.9c15.7-42,26.4-93.4,31.5-149.3c30.6-4.1,58.9-9.7,83.9-16.5c23.4-6.4,42.9-13.8,58.6-22
	C903.9,537.1,826.5,627,723.8,659.3z"/>
</svg>
