<?xml version="1.0" encoding="utf-8"?>
<!-- Generator: Adobe Illustrator 22.0.0, SVG Export Plug-In . SVG Version: 6.00 Build 0)  -->
<svg version="1.1" id="Ebene_1" xmlns="http://www.w3.org/2000/svg" xmlns:xlink="http://www.w3.org/1999/xlink" x="0px" y="0px"
	 viewBox="0 0 1024 1024" style="enable-background:new 0 0 1024 1024;" xml:space="preserve">
<style type="text/css">
	.st0{display:none;}
	.st1{fill:#666666;}
	.st2{fill:#666666;}
	.st3{fill:#666666;}
</style>
<g id="HG" class="st0">
</g>
<g id="vwicn121_1_">
	<g>
		<path class="st1" d="M821,488c0,6.6-5.4,12-12,12H677c-6.6,0-12-5.4-12-12V323c0-6.6,5.4-12,12-12h132c6.6,0,12,5.4,12,12V488z"/>
		<path class="st2" d="M809,524H677c-19.9,0-36-16.1-36-36V323c0-19.9,16.1-36,36-36h132c19.9,0,36,16.1,36,36v165
			C845,507.9,828.9,524,809,524z M689,476h108V335H689V476z"/>
	</g>
	<g>
		<path class="st3" d="M878.3,164H148.8C102,164,64,201.4,64,247.3v529.4c0,45.9,38,83.3,84.8,83.3h729.4c38.3,0,70.7-25,81.2-59.3
			h3.7V247.3C963.1,201.4,925.1,164,878.3,164z M915.1,752.7L915.1,752.7l-0.1,24c0,19.5-16.5,35.3-36.8,35.3H148.8
			c-20.3,0-36.8-15.8-36.8-35.3V247.3c0-19.5,16.5-35.3,36.8-35.3h729.5c20.3,0,36.8,15.8,36.8,35.3V752.7z"/>
		<path class="st3" d="M502,599H204c-13.3,0-24,10.7-24,24s10.7,24,24,24h298c13.3,0,24-10.7,24-24S515.3,599,502,599z"/>
		<path class="st3" d="M502,693H204c-13.3,0-24,10.7-24,24s10.7,24,24,24h298c13.3,0,24-10.7,24-24S515.3,693,502,693z"/>
	</g>
</g>
</svg>
