<?xml version="1.0" encoding="utf-8"?>
<!-- Generator: Adobe Illustrator 14.0.0, SVG Export Plug-In . SVG Version: 6.00 Build 43363)  -->
<!DOCTYPE svg PUBLIC "-//W3C//DTD SVG 1.1//EN" "http://www.w3.org/Graphics/SVG/1.1/DTD/svg11.dtd">
<svg version="1.1" id="Ebene_1" xmlns="http://www.w3.org/2000/svg" xmlns:xlink="http://www.w3.org/1999/xlink" x="0px" y="0px"
	 width="1024px" height="1024px" viewBox="0 0 1024 1024" enable-background="new 0 0 1024 1024" xml:space="preserve">
<path  d="M480.668,207.145L74.215,492.354c-0.05,0.034-0.095,0.072-0.145,0.107c-0.287,0.206-0.57,0.417-0.848,0.635
	c-0.097,0.075-0.193,0.149-0.288,0.226c-0.287,0.232-0.568,0.472-0.845,0.716c-0.061,0.055-0.124,0.105-0.185,0.16
	c-0.323,0.293-0.639,0.595-0.945,0.904c-0.091,0.092-0.178,0.188-0.268,0.28c-0.217,0.227-0.431,0.455-0.639,0.689
	c-0.102,0.114-0.201,0.229-0.3,0.346c-0.2,0.234-0.396,0.473-0.586,0.714c-0.082,0.104-0.164,0.205-0.243,0.31
	c-0.248,0.324-0.489,0.654-0.721,0.992c-0.014,0.02-0.028,0.039-0.042,0.059c-0.522,0.767-0.999,1.567-1.433,2.395
	c-0.019,0.035-0.036,0.071-0.055,0.106c-0.2,0.387-0.39,0.779-0.568,1.178c-0.011,0.024-0.021,0.048-0.032,0.072
	c-0.75,1.682-1.312,3.465-1.658,5.324c-0.016,0.079-0.029,0.159-0.043,0.238c-0.063,0.36-0.119,0.724-0.166,1.09
	c-0.015,0.113-0.03,0.227-0.043,0.34c-0.04,0.345-0.07,0.692-0.096,1.042c-0.008,0.116-0.02,0.232-0.026,0.35
	c-0.025,0.455-0.042,0.912-0.042,1.373s0.017,0.918,0.042,1.372c0.007,0.117,0.019,0.234,0.026,0.352
	c0.025,0.35,0.056,0.697,0.096,1.041c0.013,0.113,0.028,0.227,0.043,0.34c0.047,0.365,0.103,0.73,0.166,1.092
	c0.015,0.078,0.027,0.156,0.042,0.234c0.348,1.861,0.91,3.646,1.66,5.33c0.01,0.021,0.02,0.041,0.028,0.063
	c0.181,0.402,0.372,0.799,0.574,1.189c0.017,0.031,0.033,0.064,0.05,0.098c0.435,0.828,0.912,1.631,1.437,2.4
	c0.011,0.016,0.021,0.029,0.032,0.045c0.234,0.342,0.479,0.676,0.729,1.006c0.078,0.102,0.16,0.203,0.24,0.305
	c0.191,0.242,0.388,0.482,0.589,0.717c0.099,0.115,0.197,0.23,0.298,0.344c0.208,0.234,0.422,0.463,0.639,0.689
	c0.09,0.094,0.178,0.189,0.27,0.283c0.306,0.309,0.62,0.609,0.942,0.9c0.064,0.059,0.132,0.113,0.197,0.172
	c0.271,0.24,0.547,0.475,0.828,0.701c0.101,0.08,0.202,0.16,0.304,0.238c0.271,0.213,0.546,0.418,0.825,0.617
	c0.054,0.039,0.104,0.08,0.157,0.117l406.453,285.211c10.85,7.613,25.817,4.989,33.431-5.86c7.614-10.851,4.988-25.818-5.859-33.432
	L163.985,536H936c13.255,0,24-10.745,24-24c0-13.255-10.745-24-24-24l-772.015,0L508.24,246.436
	c6.655-4.671,10.215-12.108,10.215-19.666c0-4.762-1.414-9.571-4.356-13.765C506.486,202.154,491.518,199.53,480.668,207.145z"/>
</svg>
