<?xml version="1.0" encoding="utf-8"?>
<!-- Generator: Adobe Illustrator 14.0.0, SVG Export Plug-In . SVG Version: 6.00 Build 43363)  -->
<!DOCTYPE svg PUBLIC "-//W3C//DTD SVG 1.1//EN" "http://www.w3.org/Graphics/SVG/1.1/DTD/svg11.dtd">
<svg version="1.1" id="Ebene_1" xmlns="http://www.w3.org/2000/svg" xmlns:xlink="http://www.w3.org/1999/xlink" x="0px" y="0px"
	 width="1024px" height="1024px" viewBox="0 0 1024 1024" enable-background="new 0 0 1024 1024" xml:space="preserve">
<path  d="M924.784,337.611c-22.563-53.343-54.856-101.246-95.984-142.378c-0.006-0.005-0.01-0.012-0.016-0.017
	s-0.012-0.01-0.018-0.016c-41.132-41.128-89.034-73.422-142.378-95.984C631.142,75.849,572.469,64,512,64
	S392.858,75.849,337.611,99.216c-53.35,22.565-101.259,54.865-142.395,96s-73.435,89.044-96,142.395
	C75.849,392.858,64,451.531,64,512c0,60.469,11.849,119.143,35.216,174.39c22.564,53.348,54.862,101.254,95.995,142.389
	c0.002,0.002,0.003,0.004,0.005,0.006s0.004,0.003,0.006,0.005c41.135,41.134,89.042,73.431,142.389,95.995
	C392.858,948.151,451.531,960,512,960c60.469,0,119.142-11.849,174.389-35.216c53.351-22.565,101.259-54.864,142.395-96
	c41.137-41.136,73.436-89.044,96.001-142.395C948.151,631.143,960,572.469,960,512C960,451.531,948.151,392.858,924.784,337.611z
	 M512,112c101.663,0,194.59,38.123,265.234,100.824l-564.41,564.41C150.123,706.59,112,613.663,112,512
	C112,291.439,291.439,112,512,112z M512,912c-101.663,0-194.59-38.123-265.234-100.824l564.41-564.41
	C873.877,317.41,912,410.336,912,512C912,732.561,732.561,912,512,912z"/>
</svg>
