<?xml version="1.0" encoding="utf-8"?>
<!-- Generator: Adobe Illustrator 22.0.0, SVG Export Plug-In . SVG Version: 6.00 Build 0)  -->
<svg version="1.1" id="Ebene_1" xmlns="http://www.w3.org/2000/svg" xmlns:xlink="http://www.w3.org/1999/xlink" x="0px" y="0px"
	 viewBox="0 0 1024 1024" style="enable-background:new 0 0 1024 1024;" xml:space="preserve">
<style type="text/css">
	.st0{display:none;}
</style>
<g id="HG" class="st0">
</g>
<path class="st1" d="M937,63H87c-13.3,0-24,10.7-24,24v2v423v2v423c0,13.3,10.7,24,24,24h425h425c13.3,0,24-10.7,24-24V514v-2V89v-2
	C961,73.7,950.3,63,937,63z M488,113v375H111V113H488z M536,488V113h377v375H536z M111,538h377v375H111V538z M536,913V538h377v375
	H536z"/>
</svg>
