<?xml version="1.0" encoding="utf-8"?>
<!-- Generator: Adobe Illustrator 22.0.0, SVG Export Plug-In . SVG Version: 6.00 Build 0)  -->
<svg version="1.1" id="Ebene_1" xmlns="http://www.w3.org/2000/svg" xmlns:xlink="http://www.w3.org/1999/xlink" x="0px" y="0px"
	 viewBox="0 0 1024 1024" style="enable-background:new 0 0 1024 1024;" xml:space="preserve">
<style type="text/css">
	.st0{display:none;}
</style>
<g id="HG" class="st0">
</g>
<g id="vwicn035">
	<path class="st1" d="M785.5,960.8c-6.7,0-13.2-2.8-17.8-7.9l-127.2-140c-8.9-9.8-8.2-25,1.6-33.9c9.8-8.9,25-8.2,33.9,1.6
		l104.6,115.1L918,645.3c6.4-11.6,21-15.9,32.6-9.5s15.9,21,9.5,32.6l-153.5,280c-3.7,6.8-10.5,11.4-18.2,12.3
		C787.4,960.7,786.4,960.8,785.5,960.8z"/>
	<path class="st2" d="M956.1,330L701.4,71.2c-4.5-4.6-10.7-7.2-17.1-7.2H322c-13.3,0-24,10.7-24,24v520.7
		c-25.6-18.1-57.7-27.9-91.5-27.9c-34.7,0-67.6,10.4-93.5,29.3V397.3c0.3-1.7,2.2-4.6,3.6-5.4c2,0.6,8,4.6,15.8,17.1
		c7,11.2,21.8,14.7,33.1,7.6c11.2-7,14.7-21.8,7.6-33.1c-26.7-42.7-55-42.1-69.5-37.9C79.4,352.5,65,377.2,65,397v289.5
		c-0.7,4.7-1,9.5-1,14.4c0,5.1,0.4,10.1,1.1,15c0.1,1.5,0.4,2.9,0.7,4.2c4.8,25.6,19.2,49.1,41.8,67.4
		c26.6,21.6,61.8,33.5,98.9,33.5c33.8,0,65.9-9.9,91.5-27.9V936c0,13.3,10.7,24,24,24h225v-48H346V788.6
		c26.5,20.9,61,32.4,97.5,32.4c37.1,0,72.3-11.9,98.9-33.5c22.6-18.3,37-41.7,41.8-67.4c0.4-1.4,0.6-2.8,0.7-4.2
		c0.7-4.9,1.1-9.9,1.1-15c0-4.8-0.3-9.6-1-14.4V397c0-19.8-14.4-44.5-38.6-51.4c-14.5-4.2-42.8-4.8-69.5,37.9
		c-7,11.2-3.6,26,7.6,33.1c11.2,7,26,3.6,33.1-7.6c7.8-12.5,13.8-16.5,15.8-17.1c1.3,0.8,3.2,3.7,3.6,5.4v212.9
		c-25.9-19-58.8-29.3-93.5-29.3c-36.5,0-71,11.5-97.5,32.4V112h279v271c0,13.3,10.7,24,24,24h266v138h48V346.8
		C963,340.5,960.5,334.5,956.1,330z M275.2,750.2c-18.1,14.7-42.5,22.8-68.7,22.8s-50.6-8.1-68.7-22.8c-13.5-10.9-22-24.5-24.8-38.9
		v-20.8c2.8-14.5,11.4-28,24.8-38.9c18.1-14.7,42.5-22.8,68.7-22.8s50.6,8.1,68.7,22.8c11.1,9,18.9,19.8,22.8,31.5v35.7
		C294.1,730.4,286.3,741.2,275.2,750.2z M374.8,651.6c18.1-14.7,42.5-22.8,68.7-22.8s50.6,8.1,68.7,22.8
		c13.5,10.9,22,24.5,24.8,38.9v20.8c-2.8,14.5-11.4,28-24.8,38.9c-18.1,14.7-42.5,22.8-68.7,22.8s-50.6-8.1-68.7-22.8
		c-16.7-13.5-25.8-31-25.8-49.3S358.2,665.1,374.8,651.6z M673,359V112h1.2L915,356.6v2.4H673z"/>
</g>
</svg>
