<?xml version="1.0" encoding="utf-8"?>
<!-- Generator: Adobe Illustrator 22.0.0, SVG Export Plug-In . SVG Version: 6.00 Build 0)  -->
<svg version="1.1" id="Ebene_1" xmlns="http://www.w3.org/2000/svg" xmlns:xlink="http://www.w3.org/1999/xlink" x="0px" y="0px"
	 viewBox="0 0 1024 1024" style="enable-background:new 0 0 1024 1024;" xml:space="preserve">
<style type="text/css">
	.st0{display:none;}
	.st1{fill:#2368BC;}
</style>
<g id="HG" class="st0">
</g>
<g>
	<path class="st1" d="M953.9,229.5c-9.6-83.5-24-143.8-24.6-146.3l-5.3-22.1L360.7,163.9l3.6,23.1c0.5,3.4,12.1,76.5,40.2,168.4
		l-289.3-75.9l-6.5,22.5c-0.7,2.4-17.3,60.3-30.6,141.7c-18,109.8-21,205.4-9,283.9c7,46.1,37.2,98.5,89.7,155.6
		c37.9,41.3,73.5,69.6,75,70.8l8.1,6.4l10.3-1.5c1.8-0.3,45.4-6.8,96.8-23.1c71.4-22.7,121.6-52.4,149-88.3
		c36.2-47.5,69.6-108.9,99.4-182.8c71.2,39.7,152.4,59.3,156.3,60.2l10.1,2.4l8.7-5.7c1.5-1,38.2-25.4,77.9-62
		c55.1-50.8,87.9-99,97.6-143.2C964.9,438.8,966.9,342.3,953.9,229.5z M459.8,818.3c-40.4,52.8-152.7,82.2-204.4,91.4
		c-12.1-10.3-36.4-31.7-61.5-59c-45.3-49.3-72.1-94.3-77.6-130.4c-11-72.4-8-165.1,8.9-268.3c8-49.3,17.5-90.2,23.5-114.1l285.8,75
		l177.7,46.6c-7.6,31.5-23.8,93.2-49.4,161.2C532.2,702.5,497.5,768.9,459.8,818.3z M901.1,506.1c-14.2,65-103.5,139.2-146.4,169.4
		c-24.1-6.6-87.1-25.5-140-56.3c9.5-26.4,17.5-51.4,24.2-73.8c20.1,6.4,44.1,11.7,68.6,11.7c9.2,0,18.4-0.7,27.6-2.4
		c68.5-12.5,118.9-75.4,121-78c8.2-10.4,6.5-25.5-3.9-33.7c-10.4-8.2-25.5-6.5-33.7,3.9c-0.4,0.5-41.9,51.5-92,60.6
		c-25,4.6-52.5-1-74.6-8.3c8.1-30.8,12.2-50.4,12.5-52.1l4.5-22.3l-211.2-55.4l1.4-0.4c-23.1-70.1-36.9-133.7-43.2-166.4l471.5-86
		C900.2,179.6,932.1,364,901.1,506.1z"/>
	<path class="st1" d="M626,245.5c-10.9-7.5-25.9-4.8-33.4,6.1c-2.1,3.1-13.2,16.1-24.3,18.1c-11.3,2.1-27.6-5.8-32.4-8.7l0.1,0.1
		L510.8,302c3,1.9,26.9,16.1,53.7,16.1c4.1,0,8.4-0.3,12.6-1.1c32.1-5.9,52.9-34.8,55.1-38.1C639.7,268,636.9,253.1,626,245.5z"/>
	<path class="st1" d="M846.6,205.2c-10.9-7.5-25.9-4.8-33.4,6.1c-2.1,3.1-13.2,16.1-24.3,18.1c-11.3,2.1-27.6-5.8-32.4-8.7l0.1,0.1
		l-25.3,40.8c3,1.9,26.9,16.1,53.7,16.1c4.1,0,8.4-0.3,12.6-1.1c32.1-5.9,52.9-34.8,55.1-38.1C860.3,227.7,857.5,212.8,846.6,205.2z
		"/>
	<path class="st1" d="M410.1,729.8c-0.6,0.3-59.7,28.9-108.9,15.9c-49.9-13.1-90.5-68.1-91.3-69.1c-7.8-10.7-22.8-13.1-33.5-5.4
		c-10.7,7.8-13.1,22.8-5.4,33.5c2.1,2.8,51.1,69.8,117.9,87.3c13.4,3.5,26.9,4.9,40,4.9c53.2,0,100.2-23.2,102.6-24.4
		c11.8-5.9,16.6-20.4,10.7-32.2C436.4,728.7,422,723.9,410.1,729.8z"/>
	<path class="st1" d="M246.3,509.9c6,1.6,12,2.2,17.8,2.2c24.6,0,45.4-11.7,48.2-13.3l-24.3-41.4l0.1-0.1
		c-4.4,2.5-19.2,8.9-29.7,6.2c-11.1-2.9-22.5-16.9-25.6-21.6l0.1,0.1l-40.2,26.2C194.9,471.6,215.4,501.8,246.3,509.9z"/>
	<path class="st1" d="M505.2,514.2c0,0-3,1.7-7.4,3.4c-8.7,3.3-16.8,4.3-22.4,2.8c-11.1-2.9-22.5-16.9-25.6-21.6l0.1,0.1l-40.2,26.2
		c2.2,3.4,22.7,33.6,53.6,41.7c6,1.6,11.9,2.2,17.7,2.2c13,0,24.9-3.3,33.8-6.6c8-3,13.5-6.1,14.5-6.7L505,514.3L505.2,514.2z"/>
</g>
</svg>
