<?xml version="1.0" encoding="utf-8"?>
<!-- Generator: Adobe Illustrator 14.0.0, SVG Export Plug-In . SVG Version: 6.00 Build 43363)  -->
<!DOCTYPE svg PUBLIC "-//W3C//DTD SVG 1.1//EN" "http://www.w3.org/Graphics/SVG/1.1/DTD/svg11.dtd">
<svg version="1.1" id="Ebene_1" xmlns="http://www.w3.org/2000/svg" xmlns:xlink="http://www.w3.org/1999/xlink" x="0px" y="0px"
	 width="1024px" height="1024px" viewBox="0 0 1024 1024" enable-background="new 0 0 1024 1024" xml:space="preserve">
<path  d="M959.833,808.793c-1.339-20.671-10.505-40.484-25.811-55.79L682.014,500.994
	C696.439,464.218,704,424.691,704,383.999c0-85.475-33.286-165.833-93.727-226.274C549.834,97.285,469.475,64,384,64
	c-85.475,0-165.834,33.286-226.274,93.726C97.286,218.166,64,298.524,64,383.999c0,85.475,33.286,165.835,93.726,226.274
	C218.166,670.714,298.525,704,384,704c40.692,0,80.218-7.56,116.994-21.986l252.009,252.009
	c16.507,16.507,38.721,25.976,60.945,25.978c0.002,0,0.005,0,0.007,0c19.818,0,38.15-7.417,51.62-20.886l73.539-73.539
	C953.89,850.8,961.247,830.635,959.833,808.793z M112,383.999c0-149.981,122.019-272,272-272s272,122.019,272,272
	C656,533.98,533.981,656,384,656S112,533.98,112,383.999z M905.173,831.634l-73.538,73.539c-5.644,5.643-12.729,6.827-17.68,6.827
	c-0.001,0-0.002,0-0.003,0c-9.59-0.001-19.435-4.345-27.008-11.919l-240.34-240.34c12.288-7.275,24.129-15.406,35.45-24.362
	c1.346-1.061,2.683-2.132,4.01-3.213c0.308-0.252,0.617-0.499,0.924-0.752c16.225-13.315,31.103-28.193,44.419-44.417
	c0.26-0.316,0.515-0.635,0.773-0.951c1.071-1.315,2.133-2.64,3.184-3.973c8.962-11.327,17.098-23.174,24.377-35.47l240.34,240.341
	c7.059,7.058,11.268,15.919,11.853,24.95C912.442,819.755,910.041,826.766,905.173,831.634z"/>
</svg>
