<?xml version="1.0" encoding="utf-8"?>
<!-- Generator: Adobe Illustrator 14.0.0, SVG Export Plug-In . SVG Version: 6.00 Build 43363)  -->
<!DOCTYPE svg PUBLIC "-//W3C//DTD SVG 1.1//EN" "http://www.w3.org/Graphics/SVG/1.1/DTD/svg11.dtd">
<svg version="1.1" id="Ebene_1" xmlns="http://www.w3.org/2000/svg" xmlns:xlink="http://www.w3.org/1999/xlink" x="0px" y="0px"
	 width="1024px" height="1024px" viewBox="0 0 1024 1024" enable-background="new 0 0 1024 1024" xml:space="preserve">
<g>
	<path  d="M917.325,108.202c-27.551-27.55-57.897-41.52-90.197-41.52c-37.308,0-62.588,19.122-65.348,21.302
		l-1.124,0.888L621.752,228.474L467.144,71.176C462.632,66.586,456.465,64,450.028,64H88c-13.255,0-24,10.745-24,24v848
		c0,13.255,10.745,24,24,24h616.405c13.255,0,24-10.745,24-24V469.484l204.99-206.018l0.598-0.6l0.553-0.641
		c1.686-1.951,16.61-19.864,21.742-47.703C961.07,188.576,958.192,149.068,917.325,108.202z M680.405,912H112V112h327.965
		l147.928,150.502l-189.708,190.66c-5.071,2.217-9.406,6.183-11.997,11.559L359.062,521H201v48h134.924l-82.749,171.671
		c-4.457,9.246-2.54,20.304,4.769,27.511c4.597,4.532,10.686,6.911,16.857,6.911c3.641-0.001,7.311-0.828,10.717-2.53
		l272.737-136.229c2.691-1.345,5.016-3.13,6.938-5.221c0.306-0.138,0.537-0.246,0.691-0.318l3.799-1.795l110.72-111.275V912z
		 M418.193,603.851c12.299,12.298,26.167,21.752,41.199,28.21l-97.79,48.845l-17.769-17.77l47.297-98.121
		C396.85,577.921,405.476,591.134,418.193,603.851z M909.375,204.089c-2.146,14.063-9.172,24.115-10.928,26.447L542.104,588.668
		c-5.635,2.022-17.692,5.611-32.27,5.611c-22.116-0.001-41.529-8.2-57.7-24.37c-16.651-16.651-24.373-36.277-22.948-58.334
		c0.84-13.011,4.667-23.5,6.679-28.228l356.461-358.25c3.313-2.225,16.755-10.415,34.803-10.415
		c19.106,0,38.034,9.239,56.256,27.461C903.788,162.546,912.532,183.388,909.375,204.089z"/>
	<rect x="201" y="225"  width="184" height="48"/>
	<rect x="203" y="373"  width="184" height="48"/>
</g>
</svg>
