<?xml version="1.0" encoding="utf-8"?>
<!-- Generator: Adobe Illustrator 14.0.0, SVG Export Plug-In . SVG Version: 6.00 Build 43363)  -->
<!DOCTYPE svg PUBLIC "-//W3C//DTD SVG 1.1//EN" "http://www.w3.org/Graphics/SVG/1.1/DTD/svg11.dtd">
<svg version="1.1" id="Ebene_1" xmlns="http://www.w3.org/2000/svg" xmlns:xlink="http://www.w3.org/1999/xlink" x="0px" y="0px"
	 width="1024px" height="1024px" viewBox="0 0 1024 1024" enable-background="new 0 0 1024 1024" xml:space="preserve">
<path  d="M974.028,491.199l-20.999-361.482c-0.451-7.754-4.627-14.812-11.207-18.939
	c-6.579-4.128-14.751-4.815-21.93-1.845c-0.422,0.175-42.757,17.676-88.377,35.154c-84.351,32.316-102.211,34.85-105.063,35.019
	c-14.527-0.045-49.139-7.646-72.064-12.681c-30.44-6.685-36.794-7.973-44.269-6.188c-4.398,0.807-24.779,2.664-41.372,3.94
	l0.027,0.355c-11.758-2.43-27.475-5.334-48.847-9.028c-14.292-2.471-32.026-5.537-36.068-6.826c-2.972-1.267-6.172-1.92-9.407-1.92
	h-0.172c-0.167,0-0.335,0.001-0.502,0.005c-10.979,0.229-25.413,6.603-55.743,21.095l-0.099,0.047
	c-13.642,6.517-27.749,13.255-36.306,16.11c-8.246,2.742-22.646,10.239-66.934,45.053c-20.696,16.27-42.769,34.516-58.516,47.835
	l-108.286-47.248c-6.289-2.744-13.452-2.665-19.68,0.217c-6.228,2.883-10.923,8.293-12.9,14.864
	c-8.067,26.808-34.915,119.209-41.717,182.684c-8.134,76.091-9.402,152.932-9.597,174.671c-0.087,9.73,5.71,18.551,14.678,22.331
	l57.506,24.237c2.784,16.558,7.67,41.175,13.821,53.879c11.233,23.197,33.699,35.969,63.268,35.969
	c2.011-0.047,3.966-0.059,5.884-0.163c3.918,14.007,12.777,29.572,29.97,44.076c29.218,24.647,58.167,27.519,78.722,24.88
	c5.714,15.539,16.623,33.394,37.404,42.629c16.353,7.268,37.415,7.517,62.604,0.745c2.9-0.78,5.691-1.611,8.327-2.454
	c11.313,15.518,31.227,30.274,63.107,31.337c2.183,0.073,4.322,0.108,6.426,0.108c24.164-0.001,43.102-4.612,56.286-9.414
	c7.879,13.286,24.076,28.209,51.155,28.209c13.392,0,28.149-3.858,43.893-11.471c13.627-4.285,74.679-26.846,138.387-103.296
	c29.332-35.199,50.853-70.329,63.963-104.415c7.675-19.954,10.28-34.239,11.147-40.86c5.787-17.415,7.023-43.747-15.542-75.292
	c-3.718-5.197-7.601-9.846-11.262-13.848c15.116-9.654,31.598-18.655,42.887-21.343c29.738-7.081,65.938-11.475,66.297-11.519
	C965.521,514.909,974.764,503.861,974.028,491.199z M121.325,432.532c4.927-45.971,21.535-109.619,32.38-147.969l97.035,42.339
	c8.438,3.682,18.238,2.212,25.226-3.782l2.706-2.321c14.764-12.667,40.523-34.168,64.527-53.077
	c41.628-32.791,52.401-37.677,53.705-38.199c11.382-3.811,26.122-10.852,41.723-18.304l0.117-0.056
	c8.974-4.288,26.301-12.568,34.716-15.583c6.849,1.711,17.698,3.662,38.292,7.223c12.619,2.181,47.229,8.163,62.501,12.137
	c5.15,12.336,13.514,36.236,15.536,44.517c2.121,8.78,7.954,19.319,18.954,38.755c3.438,6.074,10.729,18.958,14.004,25.669
	c-1.554,18.172-4.276,26.221-5.909,29.561c-0.003-0.001-0.006-0.002-0.009-0.003c-35.602-12.705-65.31-50.013-65.546-50.312
	l-1.506-1.938c-3.641-4.687-8.89-7.858-14.732-8.901l-57.874-10.335c-6.944-1.238-14.079,0.637-19.514,5.131l-85.049,70.329
	c-1.27,1.05-2.429,2.229-3.457,3.516l-0.452,0.565c-52.695,66.016-94.194,114.638-105.485,125.46
	c-8.057,3.627-24.053,13.491-59.443,43.59c-48.129,40.909-57.632,56.785-60.739,67.87c-0.086,0.312-0.174,0.623-0.262,0.935
	l-30.54-12.872C112.837,554.79,114.825,493.338,121.325,432.532z M824.618,624.336c-0.944,2.439-1.457,4.482-1.569,7.075
	c-0.303,2.869-6.296,51.728-64.486,121.557c-59.111,70.935-114.101,87.716-116.473,88.409c-1.688,0.423-3.013,0.951-4.579,1.735
	c-12.137,6.075-19.942,7.351-24.353,7.351c-5.087,0-8.492-1.766-10.132-5.247c-0.798-3.18-1.859-4.585-3.98-7.256l-53.992-67.97
	c29.038-25.565,86.858-77.613,116.802-112.424c29.827-34.676,69.975-100.75,90.059-134.927c9.015,9.11,19.734,21.302,25.541,27.906
	c11.27,12.815,15.976,18.06,20.575,21.211C806.675,578.772,832.303,604.485,824.618,624.336z M875.514,481.244
	c-21.569,5.135-47.642,20.69-66.014,33.068c-30.404-34.374-46.246-49.529-64.036-49.529c-5.129,0-10.111,1.375-14.407,3.975
	c-3.521,2.132-6.436,5.133-8.463,8.717c-0.592,1.047-59.676,105.25-97.129,148.792c-37.778,43.919-128.193,121.712-129.102,122.493
	c-9.783,8.402-11.177,23.035-3.155,33.134l37.625,47.365c-8.151,1.64-18.154,2.723-29.942,2.329
	c-10.704-0.357-18.795-3.477-24.052-9.273c-3.585-3.952-5.006-8.143-5.33-9.222l-4.496-30.642l-29.324,13.878
	c-15.198,7.194-42.053,14.58-52.941,9.74c-11.025-4.899-14.771-24.792-15.198-30.052l-1.847-37.685l-33.523,18.137
	c-0.053,0.028-6.175,2.918-15.127,3.506c-13.602,0.895-26.712-3.897-38.974-14.241c-17.082-14.409-15.752-25.915-15.288-28.161
	l17.574-47.153l-48.014,16.832c-1.353,0.414-33.609,9.926-41.141-5.629c-3.186-6.578-7.827-28.771-10.793-47.787
	c2.016-6.198,4.409-13.848,6.579-21.553c1.242-2.129,9.089-13.908,45.868-45.17c26.782-22.776,42.786-33.906,47.386-36.073
	c2.003-0.599,3.921-1.457,5.704-2.555c3.843-2.365,9.651-5.939,47.21-50.315c20.022-23.656,45.457-54.691,69.945-85.346
	l74.57-61.663l38.168,6.816c11.327,13.142,42.858,46.399,82.872,60.678c6.373,2.267,12.606,3.417,18.527,3.417
	c0.043,0,0.086,0,0.128,0l0.459-0.002c0.129,0,0.258-0.002,0.387-0.005c11.188-0.24,31.593-5,42.55-34.178
	c5.314-14.15,7.104-30.837,7.994-42.248c0.088-1.195,0.151-2.102,0.231-2.827c0.309-2.813,0.118-5.66-0.564-8.407
	c-1.771-7.131-7.321-17.583-19.927-39.857c-5.43-9.592-12.85-22.703-14.108-26.57c-1.722-6.973-7.182-23.846-12.949-39.096
	c5.869,1.183,13.773,2.919,20.646,4.428c27.992,6.147,62.829,13.798,82.489,13.798c7.221,0,22.245,0,120.506-37.582
	c22.047-8.433,43.448-16.919,59.968-23.558l17.771,305.918C910.908,474.021,892.501,477.199,875.514,481.244z"/>
</svg>
