<?xml version="1.0" encoding="utf-8"?>
<!-- Generator: Adobe Illustrator 14.0.0, SVG Export Plug-In . SVG Version: 6.00 Build 43363)  -->
<!DOCTYPE svg PUBLIC "-//W3C//DTD SVG 1.1//EN" "http://www.w3.org/Graphics/SVG/1.1/DTD/svg11.dtd">
<svg version="1.1" id="Ebene_1" xmlns="http://www.w3.org/2000/svg" xmlns:xlink="http://www.w3.org/1999/xlink" x="0px" y="0px"
	 width="1024px" height="1024px" viewBox="0 0 1024 1024" enable-background="new 0 0 1024 1024" xml:space="preserve">
<path  d="M816.854,480.667L531.646,74.214c-0.034-0.049-0.072-0.095-0.107-0.144c-0.206-0.288-0.417-0.57-0.635-0.848
	c-0.075-0.096-0.149-0.193-0.226-0.288c-0.232-0.287-0.472-0.569-0.716-0.845c-0.055-0.061-0.105-0.124-0.16-0.185
	c-0.293-0.323-0.595-0.638-0.904-0.945c-0.092-0.091-0.188-0.178-0.28-0.268c-0.227-0.217-0.455-0.431-0.689-0.639
	c-0.114-0.101-0.229-0.201-0.346-0.299c-0.234-0.2-0.473-0.396-0.714-0.586c-0.104-0.082-0.205-0.164-0.31-0.243
	c-0.324-0.248-0.654-0.489-0.992-0.72c-0.02-0.014-0.039-0.028-0.059-0.042c-0.767-0.523-1.567-1-2.395-1.433
	c-0.035-0.019-0.071-0.037-0.106-0.055c-0.387-0.2-0.779-0.39-1.178-0.568c-0.024-0.011-0.048-0.022-0.072-0.033
	c-1.682-0.75-3.465-1.311-5.324-1.658c-0.079-0.015-0.159-0.029-0.238-0.042c-0.36-0.064-0.724-0.119-1.09-0.167
	c-0.113-0.015-0.227-0.03-0.34-0.043c-0.345-0.04-0.692-0.07-1.042-0.095c-0.116-0.008-0.232-0.02-0.35-0.027
	C512.918,64.016,512.461,64,512,64s-0.918,0.016-1.373,0.042c-0.117,0.007-0.233,0.019-0.35,0.027
	c-0.35,0.025-0.697,0.056-1.042,0.095c-0.113,0.013-0.226,0.028-0.339,0.043c-0.367,0.047-0.73,0.103-1.092,0.167
	c-0.079,0.014-0.157,0.027-0.236,0.042c-1.861,0.348-3.646,0.91-5.33,1.66c-0.021,0.01-0.042,0.019-0.063,0.028
	c-0.402,0.181-0.798,0.372-1.188,0.574c-0.032,0.017-0.065,0.033-0.098,0.05c-0.829,0.434-1.632,0.912-2.4,1.436
	c-0.016,0.011-0.03,0.022-0.045,0.032c-0.342,0.234-0.676,0.479-1.005,0.73c-0.103,0.078-0.203,0.16-0.305,0.24
	c-0.243,0.192-0.482,0.388-0.718,0.589c-0.116,0.099-0.23,0.197-0.344,0.298c-0.234,0.208-0.463,0.421-0.688,0.638
	c-0.094,0.09-0.19,0.178-0.283,0.27c-0.309,0.306-0.61,0.62-0.901,0.942c-0.059,0.064-0.114,0.132-0.171,0.198
	c-0.24,0.271-0.474,0.547-0.702,0.828c-0.081,0.1-0.159,0.202-0.238,0.304c-0.212,0.271-0.417,0.545-0.618,0.825
	c-0.038,0.053-0.08,0.103-0.117,0.157L207.145,480.667c-7.613,10.85-4.99,25.818,5.86,33.431c10.85,7.614,25.818,4.988,33.432-5.86
	L488,163.985V936c0,13.255,10.745,24,24,24s24-10.745,24-24V163.985l241.563,344.253c4.671,6.657,12.108,10.216,19.666,10.216
	c4.762,0,9.571-1.414,13.765-4.356C821.845,506.485,824.469,491.518,816.854,480.667z"/>
</svg>
