<?xml version="1.0" encoding="utf-8"?>
<!-- Generator: Adobe Illustrator 22.0.0, SVG Export Plug-In . SVG Version: 6.00 Build 0)  -->
<svg version="1.1" id="Ebene_1" xmlns="http://www.w3.org/2000/svg" xmlns:xlink="http://www.w3.org/1999/xlink" x="0px" y="0px"
	 viewBox="0 0 1024 1024" style="enable-background:new 0 0 1024 1024;" xml:space="preserve">
<style type="text/css">
	.st0{display:none;}
</style>
<g id="HG" class="st0">
</g>
<g>
	<path class="st1" d="M648,601.7V152c0-48.5-39.4-88-87.9-88h-91c-48.6,0-88.1,39.5-88.1,88v449.7c-20.1,17.4-36.9,38.8-48.8,62.5
		c-14.4,28.5-21.6,59.4-21.6,91.7c0,112.5,91.5,204,204,204c54.5,0,105.7-21.2,144.2-59.8c38.5-38.5,59.7-89.8,59.7-144.2
		c0-32.2-7.3-63.1-21.7-91.6C684.9,640.5,668.1,619.1,648,601.7z"/>
	<path class="st1" d="M282,283H78c-13.3,0-24,10.7-24,24s10.7,24,24,24h204c13.3,0,24-10.7,24-24S295.3,283,282,283z"/>
	<path class="st1" d="M267.3,399.3L75.6,469.1c-12.5,4.5-18.9,18.3-14.3,30.8c3.5,9.7,12.8,15.8,22.6,15.8c2.7,0,5.5-0.5,8.2-1.5
		l191.7-69.8c12.5-4.5,18.9-18.3,14.3-30.8C293.5,401.2,279.7,394.8,267.3,399.3z"/>
	<path class="st1" d="M75.6,145.8l191.7,69.8c2.7,1,5.5,1.5,8.2,1.5c9.8,0,19-6.1,22.6-15.8c4.5-12.5-1.9-26.2-14.3-30.8L92,100.6
		c-12.5-4.5-26.2,1.9-30.8,14.3C56.7,127.4,63.1,141.2,75.6,145.8z"/>
	<path class="st1" d="M742,331h204c13.3,0,24-10.7,24-24s-10.7-24-24-24H742c-13.3,0-24,10.7-24,24S728.7,331,742,331z"/>
	<path class="st1" d="M948.4,469.1l-191.7-69.8c-12.5-4.5-26.2,1.9-30.8,14.3c-4.5,12.5,1.9,26.2,14.3,30.8L932,514.3
		c2.7,1,5.5,1.5,8.2,1.5c9.8,0,19-6.1,22.6-15.8C967.3,487.5,960.9,473.7,948.4,469.1z"/>
	<path class="st1" d="M748.5,217c2.7,0,5.5-0.5,8.2-1.5l191.7-69.8c12.5-4.5,18.9-18.3,14.3-30.8c-4.5-12.5-18.3-18.9-30.8-14.3
		l-191.7,69.8c-12.5,4.5-18.9,18.3-14.3,30.8C729.5,211,738.7,217,748.5,217z"/>
</g>
</svg>
