<?xml version="1.0" encoding="utf-8"?>
<!-- Generator: Adobe Illustrator 22.0.0, SVG Export Plug-In . SVG Version: 6.00 Build 0)  -->
<svg version="1.1" id="Ebene_1" xmlns="http://www.w3.org/2000/svg" xmlns:xlink="http://www.w3.org/1999/xlink" x="0px" y="0px"
	 viewBox="0 0 1024 1024" style="enable-background:new 0 0 1024 1024;" xml:space="preserve">
<g id="HG" class="st0">
</g>
<g id="vwicn187_2_">
	<path  d="M874.5,164H147.6C101,164,63,201.4,63,247.3v529.4c0,45.9,38,83.3,84.6,83.3h726.9c46.6,0,84.5-37.4,84.5-83.3
		V247.3C959,201.4,921.1,164,874.5,164z M655.7,481.7L911,293.3v478.4L655.7,481.7z M147.6,212h726.9c15.8,0,29.2,9.7,34.3,23.3
		L511,528.8L113.6,234.2C119,221.2,132.2,212,147.6,212z M111,773.6V292l256.6,190.2L111,773.6z M147.6,812c-2.1,0-4.1-0.2-6.1-0.5
		l264.8-300.6l90.4,67c4.2,3.1,9.3,4.7,14.3,4.7c5,0,10-1.6,14.2-4.7l91.6-67.6l265,301c-2.4,0.5-4.8,0.7-7.4,0.7H147.6z"/>
</g>
</svg>
