<?xml version="1.0" encoding="utf-8"?>
<!-- Generator: Adobe Illustrator 14.0.0, SVG Export Plug-In . SVG Version: 6.00 Build 43363)  -->
<!DOCTYPE svg PUBLIC "-//W3C//DTD SVG 1.1//EN" "http://www.w3.org/Graphics/SVG/1.1/DTD/svg11.dtd">
<svg version="1.1" id="Ebene_1" xmlns="http://www.w3.org/2000/svg" xmlns:xlink="http://www.w3.org/1999/xlink" x="0px" y="0px"
	 width="1024px" height="1024px" viewBox="0 0 1024 1024" enable-background="new 0 0 1024 1024" xml:space="preserve">
<g>
	<path  d="M761.036,488H258.518c-13.255,0-24,10.745-24,24s10.745,24,24,24h502.518c13.255,0,24-10.745,24-24
		S774.291,488,761.036,488z"/>
	<path  d="M924.784,337.611c-22.565-53.351-54.865-101.259-96.001-142.395s-89.044-73.435-142.395-96
		C631.142,75.849,572.469,64,512,64S392.858,75.849,337.611,99.216c-53.35,22.565-101.259,54.865-142.395,96
		s-73.435,89.044-96,142.395C75.849,392.858,64,451.531,64,512c0,60.469,11.849,119.143,35.216,174.39
		c22.565,53.351,54.865,101.259,96,142.395s89.044,73.435,142.395,96C392.858,948.151,451.531,960,512,960
		c60.469,0,119.142-11.849,174.389-35.216c53.351-22.565,101.259-54.864,142.395-96c41.137-41.136,73.436-89.044,96.001-142.395
		C948.151,631.143,960,572.469,960,512C960,451.531,948.151,392.858,924.784,337.611z M512,912c-220.561,0-400-179.439-400-400
		c0-220.561,179.439-400,400-400c220.561,0,400,179.439,400,400C912,732.561,732.561,912,512,912z"/>
</g>
</svg>
