<?xml version="1.0" encoding="utf-8"?>
<!-- Generator: Adobe Illustrator 22.0.0, SVG Export Plug-In . SVG Version: 6.00 Build 0)  -->
<svg version="1.1" id="Ebene_1" xmlns="http://www.w3.org/2000/svg" xmlns:xlink="http://www.w3.org/1999/xlink" x="0px" y="0px"
	 viewBox="0 0 1024 1024" style="enable-background:new 0 0 1024 1024;" xml:space="preserve">
<style type="text/css">
	.st0{display:none;}
	.st1{fill:#2368BC;}
</style>
<g id="HG" class="st0">
</g>
<g>
	<path class="st1" d="M840.6,442.3c-18-21.3-42.2-33-68.2-33s-50.2,11.7-68.2,33c-17,20.1-26.3,46.6-26.3,74.5
		c0,28,9.3,54.4,26.3,74.5c18,21.3,42.2,33,68.2,33s50.2-11.7,68.2-33c17-20.1,26.3-46.6,26.3-74.5
		C866.9,488.8,857.6,462.4,840.6,442.3z M772.4,576.3c-25.6,0-46.5-26.7-46.5-59.5c0-32.8,20.9-59.5,46.5-59.5
		c11.6,0,22.8,5.7,31.5,15.9c9.7,11.4,15,26.9,15,43.6C818.9,549.6,798,576.3,772.4,576.3z"/>
	<path class="st1" d="M905.9,357.8c-17.6-20.4-38.1-36.4-60.9-47.7c-23.9-11.9-49.3-17.9-75.2-17.9c-74.8,0-142.3,51.5-172.4,129.8
		H62v163h72v116.9h234v-117h223.6c11.6,38.6,32.5,73.1,60.1,98.6c33.2,30.7,75.1,47.6,118.1,47.6c26,0,51.3-6,75.3-17.9
		c22.8-11.3,43.3-27.4,60.9-47.8c35.8-41.5,55.5-96.2,55.5-153.9C961.5,453.8,941.8,399.2,905.9,357.8z M769.8,683.1
		c-64.1,0-120.1-52.3-136.1-127.2l-4.1-19H320v117h-59V578h-48v75.9h-31V537h-72v-67h522.3l5.1-17.1
		c20.3-67.4,73.5-112.7,132.3-112.7c77.9,0,143.7,78.4,143.7,171.3C913.5,604.5,847.7,683.1,769.8,683.1z"/>
</g>
</svg>
