<?xml version="1.0" encoding="utf-8"?>
<!-- Generator: Adobe Illustrator 14.0.0, SVG Export Plug-In . SVG Version: 6.00 Build 43363)  -->
<!DOCTYPE svg PUBLIC "-//W3C//DTD SVG 1.1//EN" "http://www.w3.org/Graphics/SVG/1.1/DTD/svg11.dtd">
<svg version="1.1" id="Ebene_1" xmlns="http://www.w3.org/2000/svg" xmlns:xlink="http://www.w3.org/1999/xlink" x="0px" y="0px"
	 width="1024px" height="1024px" viewBox="0 0 1024 1024" enable-background="new 0 0 1024 1024" xml:space="preserve">
<path  d="M207.145,543.332l285.209,406.453c0.034,0.05,0.072,0.095,0.107,0.145c0.206,0.287,0.417,0.57,0.635,0.848
	c0.075,0.097,0.149,0.193,0.226,0.288c0.232,0.287,0.472,0.568,0.716,0.845c0.055,0.061,0.105,0.124,0.16,0.185
	c0.293,0.323,0.595,0.639,0.904,0.945c0.092,0.091,0.188,0.178,0.28,0.268c0.227,0.217,0.455,0.431,0.689,0.639
	c0.114,0.102,0.229,0.201,0.346,0.3c0.234,0.2,0.473,0.396,0.714,0.586c0.104,0.082,0.205,0.164,0.31,0.243
	c0.324,0.248,0.654,0.489,0.992,0.721c0.02,0.014,0.039,0.028,0.059,0.042c0.767,0.522,1.567,0.999,2.395,1.433
	c0.035,0.019,0.071,0.036,0.106,0.055c0.387,0.2,0.779,0.39,1.178,0.568c0.024,0.011,0.048,0.021,0.072,0.032
	c1.682,0.75,3.465,1.312,5.324,1.658c0.079,0.016,0.159,0.029,0.238,0.043c0.36,0.063,0.724,0.119,1.09,0.166
	c0.113,0.015,0.227,0.03,0.34,0.043c0.345,0.04,0.692,0.07,1.042,0.096c0.116,0.008,0.232,0.02,0.35,0.026
	c0.455,0.025,0.912,0.042,1.373,0.042s0.918-0.017,1.373-0.042c0.117-0.007,0.233-0.019,0.351-0.026
	c0.35-0.025,0.697-0.056,1.042-0.096c0.113-0.013,0.226-0.028,0.339-0.043c0.366-0.047,0.73-0.103,1.092-0.166
	c0.078-0.015,0.157-0.027,0.235-0.042c1.861-0.348,3.646-0.91,5.33-1.66c0.021-0.01,0.041-0.02,0.063-0.028
	c0.402-0.181,0.798-0.372,1.188-0.574c0.032-0.017,0.065-0.033,0.098-0.05c0.829-0.435,1.632-0.912,2.4-1.437
	c0.016-0.011,0.03-0.021,0.045-0.032c0.342-0.234,0.677-0.479,1.006-0.729c0.103-0.078,0.203-0.16,0.305-0.24
	c0.243-0.191,0.482-0.388,0.718-0.589c0.115-0.099,0.23-0.197,0.344-0.298c0.234-0.208,0.463-0.422,0.688-0.639
	c0.094-0.09,0.19-0.178,0.283-0.27c0.309-0.306,0.609-0.62,0.901-0.942c0.059-0.064,0.113-0.132,0.171-0.197
	c0.24-0.271,0.475-0.547,0.702-0.828c0.08-0.101,0.159-0.202,0.238-0.304c0.212-0.271,0.417-0.546,0.617-0.825
	c0.038-0.054,0.08-0.104,0.117-0.157l285.21-406.453c7.613-10.85,4.989-25.817-5.86-33.431c-10.851-7.614-25.818-4.988-33.432,5.86
	L536,860.015V88c0-13.255-10.745-24-24-24s-24,10.745-24,24l0,772.015L246.436,515.76c-4.671-6.656-12.108-10.215-19.666-10.215
	c-4.762,0-9.571,1.414-13.765,4.356C202.155,517.514,199.531,532.482,207.145,543.332z"/>
</svg>
