<?xml version="1.0" encoding="utf-8"?>
<!-- Generator: Adobe Illustrator 22.0.0, SVG Export Plug-In . SVG Version: 6.00 Build 0)  -->
<svg version="1.1" id="Ebene_1" xmlns="http://www.w3.org/2000/svg" xmlns:xlink="http://www.w3.org/1999/xlink" x="0px" y="0px"
	 viewBox="0 0 1024 1024" style="enable-background:new 0 0 1024 1024;" xml:space="preserve">
<style type="text/css">
	.st0{display:none;}
</style>
<g id="HG" class="st0">
</g>
<g>
	<path class="st1" d="M435.5,663.6c-29.6-28.2-67.5-43.9-107.3-44.6c-5.6-28-13.4-72.6-16.9-117.1c-2.9-36.8-0.5-71.8,2.4-96.8
		c0.4,0,0.8,0,1.2,0c44-1.1,84.9-20.2,115.2-53.6c30-33.1,45.9-76.3,44.9-121.9c-1-47.3-20-90.8-53.4-122.6
		c-31.3-29.9-72-45.7-114.4-44.6c-37.3,0.9-73.5,15.3-101.9,40.4c-27.6,24.4-46.9,58-54.4,94.7c-12.3,47.5-39.6,172.7-31.2,324.2
		c10.6,188.7,45,306.9,47.6,315.6c20,73.8,84.4,124.4,157.5,124.4c1.4,0,2.8,0,4.1-0.1c44-1.1,84.9-20.2,115.2-53.6
		c30-33.1,45.9-76.3,44.9-121.9C487.8,739,468.9,695.5,435.5,663.6z M327.6,913.7c-1,0-1.9,0-2.9,0c-51.5,0-97-36.3-111.2-89.2
		l-0.2-0.7c-0.4-1.2-35.3-119.1-45.7-304.8c-8.1-145.3,18.2-265.2,29.9-310l0.3-1.3c11.3-56,56.8-96.1,110.7-97.4l0,0
		c1,0,1.9,0,2.9,0c28.6,0,55.9,11.1,77.2,31.4c24.1,23,37.8,54.6,38.5,89c1.5,68-49.3,124.7-113.4,126.4c-5.9,0.2-11.7-0.2-17.2-1
		l-23.4-3.4l-3.7,23.4c-4.9,30.8-9.9,78.2-5.8,129.6c4.8,60.3,17,120.3,22,143.3l4.6,21.3l21.6-2.6c3.4-0.4,7-0.7,10.6-0.7
		c29.6-0.8,58,10.4,80,31.4c24.1,23,37.8,54.6,38.5,89C442.4,855.4,391.6,912.1,327.6,913.7z"/>
	<path class="st1" d="M882,735H622.6l103.2-138c7.9-10.6,5.8-25.7-4.8-33.6c-10.6-7.9-25.7-5.8-33.6,4.8l-131.6,176
		c-6.4,8.5-6.4,20.3,0.1,28.8l132.6,176c4.7,6.3,11.9,9.6,19.2,9.6c5,0,10.1-1.6,14.4-4.8c10.6-8,12.7-23,4.7-33.6L623.4,783H882
		c13.3,0,24-10.7,24-24S895.3,735,882,735z"/>
	<path class="st1" d="M575,288h259.2L730.2,426c-8,10.6-5.9,25.6,4.7,33.6c4.3,3.3,9.4,4.8,14.4,4.8c7.3,0,14.5-3.3,19.2-9.6
		l132.6-176c6.4-8.5,6.4-20.3,0.1-28.8L769.6,74c-7.9-10.6-23-12.8-33.6-4.8c-10.6,7.9-12.8,23-4.8,33.6L833.8,240H575
		c-13.3,0-24,10.7-24,24S561.7,288,575,288z"/>
</g>
</svg>
