<?xml version="1.0" encoding="utf-8"?>
<!-- Generator: Adobe Illustrator 14.0.0, SVG Export Plug-In . SVG Version: 6.00 Build 43363)  -->
<!DOCTYPE svg PUBLIC "-//W3C//DTD SVG 1.1//EN" "http://www.w3.org/Graphics/SVG/1.1/DTD/svg11.dtd">
<svg version="1.1" id="Ebene_1" xmlns="http://www.w3.org/2000/svg" xmlns:xlink="http://www.w3.org/1999/xlink" x="0px" y="0px"
	 width="1024px" height="1024px" viewBox="0 0 1024 1024" enable-background="new 0 0 1024 1024" xml:space="preserve">
<g>
	<path  d="M97.985,303.824L512,114.393l414.015,189.432c3.236,1.481,6.63,2.182,9.971,2.182
		c9.101,0,17.805-5.204,21.839-14.021c5.515-12.053,0.215-26.294-11.839-31.81L512,61.607L78.015,260.176
		c-12.053,5.515-17.354,19.757-11.839,31.81C71.691,304.039,85.933,309.338,97.985,303.824z"/>
	<path  d="M828,360.097c0-13.255-10.745-24-24-24s-24,10.745-24,24V808H645.5V280.271c0-13.255-10.745-24-24-24
		s-24,10.745-24,24V808h-171V280.271c0-13.255-10.745-24-24-24s-24,10.745-24,24V808H244V360.097c0-13.255-10.745-24-24-24
		s-24,10.745-24,24V808H64v152h48V856h800v104h48V808H828V360.097z"/>
</g>
</svg>
