<?xml version="1.0" encoding="utf-8"?>
<!-- Generator: Adobe Illustrator 22.0.0, SVG Export Plug-In . SVG Version: 6.00 Build 0)  -->
<svg version="1.1" id="Ebene_1" xmlns="http://www.w3.org/2000/svg" xmlns:xlink="http://www.w3.org/1999/xlink" x="0px" y="0px"
	 viewBox="0 0 1024 1024" style="enable-background:new 0 0 1024 1024;" xml:space="preserve">
<style type="text/css">
	.st0{display:none;}
	.st1{fill:#2368BC;}
</style>
<g id="HG" class="st0">
</g>
<path class="st1" d="M959.9,853.8V474.1c0-43.1-33.5-78.6-76.3-82.7c-5.4-30.9-23.7-59.1-52.8-81c-11.5-8.6-24.3-15.9-38.1-21.8
	c27-23.6,44.2-58.3,44.2-97c0-71-57.7-128.7-128.7-128.7s-128.7,57.7-128.7,128.7c0,38.6,17.1,73.4,44.2,97
	c-13.8,5.8-26.6,13.1-38.1,21.8c-29,21.7-47.2,49.8-52.7,80.6H491c-5.5-30.7-23.7-58.8-52.7-80.6c-11.5-8.6-24.3-15.9-38-21.7
	c27.1-23.6,44.2-58.3,44.2-97c0-71-57.7-128.7-128.7-128.7s-128.7,57.7-128.7,128.7c0,38.6,17.1,73.3,44.1,96.9
	c-13.8,5.8-26.6,13.1-38.2,21.8c-29.1,21.8-47.4,50.1-52.8,81C97.5,395.5,64,431,64,474.1v403.7c0,45.9,37.9,83.2,84.5,83.2H234h105
	h121h105h310.5c46.6,0,84.5-37.3,84.5-83.2L959.9,853.8z M627.5,191.7c0-44.5,36.2-80.7,80.7-80.7s80.7,36.2,80.7,80.7
	c0,42.3-32.7,77-74.1,80.4c-2.2-0.1-4.4-0.1-6.6-0.1s-4.4,0-6.6,0.1C660.2,268.7,627.5,234,627.5,191.7z M614.4,348.8
	c23-17.3,53.4-27.3,86.2-28.7c2.5,0.2,5.1,0.2,7.7,0.2s5.1-0.1,7.7-0.2c32.8,1.4,63.2,11.4,86.2,28.7c16.1,12.1,27,26.6,32.1,42.2
	H582.3C587.3,375.4,598.3,360.9,614.4,348.8z M235.1,191.7c0-44.5,36.2-80.7,80.7-80.7s80.7,36.2,80.7,80.7
	c0,42.3-32.7,77-74.1,80.4c-2.2-0.1-4.5-0.1-6.7-0.1c-2.2,0-4.4,0-6.6,0.1C267.7,268.7,235.1,234,235.1,191.7z M221.9,348.8
	c23-17.3,53.4-27.3,86.2-28.7c2.6,0.2,5.1,0.2,7.7,0.2c2.6,0,5.1-0.1,7.6-0.2c32.8,1.4,63.1,11.4,86.1,28.7
	c16.1,12.1,27,26.6,32.1,42.2H189.8C194.8,375.4,205.8,360.9,221.9,348.8z M258,913V655h57v258H258z M484,913V616h57v297H484z
	 M710,912V765h57v147H710z M911.9,880.4c-1.4,18.2-17.2,32.6-36.4,32.6H815V741c0-13.3-10.7-24-24-24H686c-13.3,0-24,10.7-24,24v172
	h-73V592c0-13.3-10.7-24-24-24H460c-13.3,0-24,10.7-24,24v321h-73V631c0-13.3-10.7-24-24-24H234c-13.3,0-24,10.7-24,24v282h-61.5
	c-20.1,0-36.5-15.8-36.5-35.2V474.1c0-19.4,16.4-35.1,36.5-35.1h726.9c20.1,0,36.5,15.7,36.5,35.1V880.4z"/>
</svg>
