<?xml version="1.0" encoding="utf-8"?>
<!-- Generator: Adobe Illustrator 22.0.0, SVG Export Plug-In . SVG Version: 6.00 Build 0)  -->
<svg version="1.1" id="Ebene_1" xmlns="http://www.w3.org/2000/svg" xmlns:xlink="http://www.w3.org/1999/xlink" x="0px" y="0px"
	 viewBox="0 0 1024 1024" style="enable-background:new 0 0 1024 1024;" xml:space="preserve">
<style type="text/css">
	.st0{display:none;}
</style>
<g id="HG" class="st0">
</g>
<g>
	<rect x="166" y="415" class="st1" width="105" height="105"/>
	<rect x="313" y="415" class="st1" width="104" height="105"/>
	<rect x="753" y="415" class="st1" width="105" height="105"/>
	<rect x="607" y="415" class="st1" width="104" height="105"/>
	<rect x="460" y="415" class="st1" width="104" height="105"/>
	<rect x="166" y="556" class="st1" width="105" height="105"/>
	<rect x="313" y="556" class="st1" width="104" height="105"/>
	<rect x="753" y="556" class="st1" width="105" height="105"/>
	<rect x="607" y="556" class="st1" width="104" height="105"/>
	<rect x="460" y="556" class="st1" width="104" height="105"/>
	<rect x="166" y="699" class="st1" width="105" height="104"/>
	<rect x="313" y="699" class="st1" width="104" height="104"/>
	<rect x="753" y="699" class="st1" width="105" height="104"/>
	<rect x="607" y="699" class="st1" width="104" height="104"/>
	<rect x="460" y="699" class="st1" width="104" height="104"/>
	<path class="st1" d="M959.9,809.9V190.1c0-45.8-37.9-83.1-84.5-83.1H148.5c-46.6,0-84.5,37.3-84.5,83.1v643.8
		c0,45.8,37.9,83.1,84.5,83.1h727c46.6,0,84.5-37.3,84.5-83.1L959.9,809.9z M148.5,155H299v92h48v-92h330v92h48v-92h150.4
		c20.1,0,36.5,15.7,36.5,35.1V295H112V190.1C112,170.7,128.4,155,148.5,155z M875.5,869h-727c-20.1,0-36.5-15.7-36.5-35.1V343h799.9
		v493.5C910.5,854.6,894.7,869,875.5,869z"/>
</g>
</svg>
