<?xml version="1.0" encoding="utf-8"?>
<!-- Generator: Adobe Illustrator 22.0.0, SVG Export Plug-In . SVG Version: 6.00 Build 0)  -->
<svg version="1.1" id="Ebene_1" xmlns="http://www.w3.org/2000/svg" xmlns:xlink="http://www.w3.org/1999/xlink" x="0px" y="0px"
	 viewBox="0 0 1024 1024" style="enable-background:new 0 0 1024 1024;" xml:space="preserve">
<style type="text/css">
	.st0{display:none;}
</style>
<g id="HG" class="st0">
</g>
<path class="st1" d="M878.3,167H148.8C102,167,64,204.3,64,250.1v523.8c0,45.8,38,83.1,84.8,83.1h729.4c38.2,0,70.7-24.9,81.2-59.1
	h3.7V250.1C963.1,204.3,925.1,167,878.3,167z M258,369h94v112h-94V369z M400,369h94v112h-94V369z M258,529h94v112h-94V529z M400,529
	h94v112h-94V529z M542,529h94v112h-94V529z M542,481V369h94v112H542z M684,369h94v112h-94V369z M258,689h94v120h-94V689z M400,689
	h94v120h-94V689z M542,689h94v120h-94V689z M684,689h94v120h-94V689z M684,641V529h94v112H684z M826,529h89.1v112H826V529z M826,481
	V369h89.1v112H826z M915,749.9v24c0,19.4-16.5,35.1-36.8,35.1H826V689h89.1L915,749.9L915,749.9z"/>
</svg>
