<?xml version="1.0" encoding="utf-8"?>
<!-- Generator: Adobe Illustrator 22.0.0, SVG Export Plug-In . SVG Version: 6.00 Build 0)  -->
<svg version="1.1" id="Ebene_1" xmlns="http://www.w3.org/2000/svg" xmlns:xlink="http://www.w3.org/1999/xlink" x="0px" y="0px"
	 viewBox="0 0 1024 1024" style="enable-background:new 0 0 1024 1024;" xml:space="preserve">
<style type="text/css">
	.st0{display:none;}
	.st1{fill:#2368BC;}
</style>
<g id="HG" class="st0">
</g>
<g id="vwicn074">
	<path class="st1" d="M476,960.4c-44.2,0-84.3-4-119.5-12c-40.5-9.2-75.9-23.8-105.2-43.6c-27.9-18.8-51.1-42.8-68.8-71.2
		c-16.1-25.9-28.2-56.2-36-90.1c-3.5-15.3-10.1-52.8-13.9-93.3c-5.1-54.5-3.9-97.5,3.7-127.8l9.5-38.2l29.6,26
		c14.8,13,32.8,27.7,47.1,38.3c13.9-132.7,66.4-198.8,68.8-201.7l38.5-47.3l4.1,60.8c0.9,12.7,8.1,49.2,29.8,65.2
		c11.6,8.6,26.5,10.7,45.6,6.4c32-7.2,34.5-61.3,34.5-131.3c0-19.9,0-38.6,1.2-56.1c2-28.2,17.4-57.3,45.9-86.5
		c19.9-20.4,39.3-33.5,40.1-34.1l65.8-44.4l-30.1,73.2c-0.1,0.3-15.6,40.7-0.6,72.4c9,19,32.1,35.8,56.5,53.5
		c37.6,27.3,80.2,58.2,90.7,111c6.9,34.7,3.3,70.6,0.1,102.2c-5.4,54-4.5,71.6,11.8,76.5c18.8,5.7,25.8,0,28.4-2.2
		c10.3-8.5,17.6-30,20.1-58.9c2.2-25.6-0.1-48.3-0.1-48.5l-5.2-50.4l42.3,27.9c3.2,2.1,78.3,53.2,83.5,194.1
		c1.5,41.5-4,80.5-16.4,116.1c-12.5,35.7-31.9,67.9-57.8,95.7C752.2,914.5,642,955.3,501.2,960C492.6,960.3,484.2,960.4,476,960.4z
		 M177.8,574.5c-2.3,57.4,9.4,131.6,15.5,158.2c18.3,80.7,70.1,187.1,306.3,179.3c127.8-4.2,226.4-39.8,285.2-102.8
		c43.3-46.5,64-106.1,61.4-177.2c-1.9-50.3-13.9-86-25.9-109.4c-4.8,37.5-16.9,64.5-36.1,80.3c-13.4,11.1-36.9,22-72.9,11.1
		c-18.1-5.5-40.9-19.6-47.1-55.8c-3.6-21.1-1.2-45.6,1.5-71.5c3-29.7,6.1-60.4,0.6-88c-6.9-34.3-38.4-57.3-71.8-81.5
		c-28.3-20.5-57.5-41.7-71.7-71.8c-6.2-13.1-9.3-26.6-10.5-39.5c-10.4,13.1-18.4,27.7-19.4,41.7c-1.1,15.8-1.1,33.7-1.1,52.7
		c0,35.7,0.1,72.6-7.2,103.9c-9.7,41.8-31.5,66.8-64.7,74.3c-41.4,9.3-69.1-2.9-85-14.8c-14.6-10.9-24.9-25.4-32.1-40
		c-0.6,1.5-1.3,3-1.9,4.5c-13.1,31.5-29.5,84.2-33,156.8c-0.5,10.4-6.6,19.4-16,23.4c-14.2,6-28-1.4-39.9-8.9
		c-8-5.1-18.1-12.3-30-21.6C180.6,576.8,179.2,575.6,177.8,574.5z M219.9,582.7C219.9,582.7,219.9,582.8,219.9,582.7
		C219.9,582.8,219.9,582.7,219.9,582.7z"/>
</g>
</svg>
