<?xml version="1.0" encoding="utf-8"?>
<!-- Generator: Adobe Illustrator 22.0.0, SVG Export Plug-In . SVG Version: 6.00 Build 0)  -->
<svg version="1.1" id="Ebene_1" xmlns="http://www.w3.org/2000/svg" xmlns:xlink="http://www.w3.org/1999/xlink" x="0px" y="0px"
	 viewBox="0 0 1024 1024" style="enable-background:new 0 0 1024 1024;" xml:space="preserve">
<style type="text/css">
	.st0{display:none;}
</style>
<g id="HG" class="st0">
</g>
<g id="vwicn038">
	<path class="st1" d="M832.9,796.8l123-123c9.4-9.4,9.4-24.6,0-33.9c-9.4-9.4-24.6-9.4-33.9,0l-123,123l-123-123
		c-9.4-9.4-24.6-9.4-33.9,0c-9.4,9.4-9.4,24.6,0,33.9l123,123l-123,123c-9.4,9.4-9.4,24.6,0,33.9c4.7,4.7,10.8,7,17,7s12.3-2.3,17-7
		l123-123l123,123c4.7,4.7,10.8,7,17,7s12.3-2.3,17-7c9.4-9.4,9.4-24.6,0-33.9L832.9,796.8z"/>
	<path class="st2" d="M837.1,330L582.9,71.2c-4.5-4.6-10.7-7.2-17.1-7.2H204c-13.3,0-24,10.7-24,24v848c0,13.3,10.7,24,24,24h345
		v-48H228V112h279v271c0,13.3,10.7,24,24,24h265v138h48V346.8C844,340.5,841.5,334.5,837.1,330z M555,359V112h0.7L796,356.6v2.4H555
		z"/>
</g>
</svg>
