<?xml version="1.0" encoding="utf-8"?>
<!-- Generator: Adobe Illustrator 22.0.0, SVG Export Plug-In . SVG Version: 6.00 Build 0)  -->
<svg version="1.1" id="Ebene_1" xmlns="http://www.w3.org/2000/svg" xmlns:xlink="http://www.w3.org/1999/xlink" x="0px" y="0px"
	 viewBox="0 0 1024 1024" style="enable-background:new 0 0 1024 1024;" xml:space="preserve">
<style type="text/css">
	.st0{display:none;}
	.st1{fill:#2368BC;}
</style>
<g id="HG" class="st0">
</g>
<path class="st1" d="M908.6,157.6c-42.2-52.5-102.3-85.4-169.2-92.8c-48.2-5.2-96.5,3.4-139.7,24.9C565,107.1,535,132,511.7,162.5
	c-6.6-8.5-13.7-16.6-21.4-24.3C442.6,90.6,379.3,64.4,312,64.4s-130.6,26.2-178.3,73.8c-47.6,47.6-73.8,110.9-73.8,178.3
	s26.2,130.6,73.8,178.3c40.7,40.7,92.9,65.8,149.2,72.2l-24.4,71.7c-2.7,7.8-1.1,16.5,4.1,22.9c4.6,5.6,11.4,8.8,18.6,8.8
	c1,0,2-0.1,3-0.2l141.9-17.8c8.3-1,15.4-6.3,18.9-13.9c0.3-0.7,0.6-1.3,0.8-2c-4,19.4-12.8,42.9-26.1,69.9
	c-13,26.3-14.4,48.3-4.1,65.3c17.3,28.6,58.1,29.7,94.1,30.6c11.8,0.3,30.4,0.8,38.9,3c6,39.9,37.9,77.8,95.1,112.9
	c37.4,22.9,73.6,37.2,81.7,40.3c0.6,0.3,1,0.4,1.2,0.5c2.8,1.1,5.7,1.6,8.6,1.6c0,0,0,0,0.1,0c0,0,0,0,0,0c9.8,0,19-6,22.5-15.8
	c4.6-12.4-1.8-26.2-14.3-30.8c0,0-0.2-0.1-0.4-0.2c-2.8-1.3-14.4-6.8-27.7-18.5c-21.6-19-36.4-43.8-44-73.7
	c-7.3-29-33.4-43.1-58.6-56.7c-25.8-13.9-50.1-27-55.8-54.2c-3.4-15.9,6.4-41.2,27.1-71.4c0.1,0.2,0.2,0.4,0.3,0.7
	c3.7,7.2,10.7,12.1,18.8,13l142.2,15.5c0.9,0.1,1.7,0.1,2.6,0.1c7.4,0,14.4-3.4,19-9.4c5.1-6.6,6.4-15.4,3.4-23.2l-27-70.5
	c45.9-5.7,89.5-24,126.5-53.7c52.5-42.2,85.4-102.3,92.8-169.2C970,275.9,950.8,210.1,908.6,157.6z M107.9,316.5
	c0-112.5,91.6-204.1,204.1-204.1S516.1,204,516.1,316.5S424.5,520.6,312,520.6S107.9,429,107.9,316.5z M316.4,617.8l12.7-37.5
	c5.1-1.4,15.7-4,28.8-5.9l23.7,35.2L316.4,617.8z M447.2,629c0.1-4.8-1.3-9.7-4.1-13.8l-27.5-40.9c11.2,2.5,19.6,6.8,24.7,12.9
	C447.8,596,450,610.2,447.2,629z M624.9,833.6c1.3,5.2,2.8,10.2,4.4,15c-13.3-11.9-22.9-23.8-28.4-35.2
	C612.9,820.1,623.3,827,624.9,833.6z M523,648.8c-13,27-17.4,51.3-13,72.1c2.8,13.1,7.7,24.3,14,33.9c-4.3-0.2-8.7-0.3-13.1-0.4
	c-13.5-0.3-27.5-0.7-38.7-2.5c-11-1.8-14.6-4.2-15.5-4.9c-0.1-1.2-0.3-6.8,5.9-19.3c20-40.3,30.8-73.8,33.1-102.3
	c2.3-28.4-4-51.8-18.8-69.3c-8.9-10.5-20.4-18.5-34.5-23.9c17.2-10.4,33.2-23,47.7-37.5c8-8,15.4-16.5,22.2-25.3
	c17.4,22.5,38.7,42.2,62.5,57.6c9,5.8,18.3,11.1,27.9,15.7c-11.2,11.5-24.9,26.3-38.4,43C546.3,608.2,532.3,629.4,523,648.8z
	 M644.9,609.4l26.1-45.2c4.5,0.7,9.1,1.4,13.7,1.9c2.6,0.3,5.1,0.5,7.7,0.7l19.1,49.9L644.9,609.4z M914.9,337.6
	c-12.2,111.9-113.2,193-225,180.8c-62.2-6.8-116.6-40.8-150.2-93.4c15.9-33.4,24.4-70.3,24.4-108.4c0-38.6-8.6-75.8-24.9-109.5
	c41.3-65.8,117.7-102.8,195-94.4c54.2,5.9,102.8,32.6,137,75.1C905.3,230.2,920.9,283.4,914.9,337.6z"/>
</svg>
