<?xml version="1.0" encoding="utf-8"?>
<!-- Generator: Adobe Illustrator 22.0.0, SVG Export Plug-In . SVG Version: 6.00 Build 0)  -->
<svg version="1.1" id="Ebene_1" xmlns="http://www.w3.org/2000/svg" xmlns:xlink="http://www.w3.org/1999/xlink" x="0px" y="0px"
	 viewBox="0 0 1024 1024" style="enable-background:new 0 0 1024 1024;" xml:space="preserve">
<style type="text/css">
	.st0{display:none;}
	.st1{fill:#2368BC;}
</style>
<g id="HG" class="st0">
</g>
<path class="st1" d="M951.2,69.5C946.9,66,941.5,64,936,64v0H675.9l-0.2-0.7l-2.2,0.7H251.2c-10.3-0.3-86.4-1.3-132.3,25
	c-42.5,24.3-54.5,62.5-54.9,81.3l0,0c0,0.2,0,0.5,0,0.7v765c0,13.3,10.7,24,24,24h685.1c9.5,0,18.1-5.6,21.9-14.2
	c7-15.7,32.6-58.8,65.8-68.9c22.7-6.9,58.5-2.4,70.4,0c7.1,1.4,14.4-0.4,19.9-5c5.6-4.6,8.8-11.4,8.8-18.6V88
	C959.9,80.9,956.7,74.1,951.2,69.5z M343.5,484.3c-64.5-25.1-76.9-47.7-79.3-56.2c-3.1-11.2,3.9-24.8,20.9-40.5c8-7.4,13.7-9,17.4-9
	c1.8,0,3.2,0.4,4.2,0.7c6.3,1.8,29.3,13,58.7,80.1c5.7,13.1,10.7,26,14.8,37.5C368.9,493.4,356.3,489.3,343.5,484.3z M463.4,495.7
	c4.6-13.5,10.4-29.3,17.1-45.2c31.5-74.2,55.6-85.7,62.3-87.4c0.8-0.2,2-0.5,3.6-0.5c3.9,0,10.3,1.8,19.5,11.4
	c26.3,27.1,21.6,42.3,20.1,47.3c-6.2,20.2-36.8,42.5-83.8,61.1C488.6,487.6,475.2,492.1,463.4,495.7z M631.9,435.3
	c6.7-21.6,6.6-55.6-31.5-94.8c-26.9-27.8-52.8-28.3-69.8-23.8c-29.4,7.7-56.2,36.4-81.5,87.3V195h300v329H527
	C586,499.5,621.3,469.7,631.9,435.3z M755.6,147H573.8l107.3-35h97.6C767.5,122.2,760.1,135.9,755.6,147z M401,422.2
	c-25-51.3-51.6-80.5-81-89c-16.2-4.7-41.1-5.2-67.4,19.2c-38.9,36-40.3,68-34.5,88.6c5.6,20.1,20.5,38.8,44.3,55.4
	c14,9.8,31.3,19,51.5,27.6H112V195h289V422.2z M749,572v340H449V572H749z M797,174c2.9-10.5,10.1-25.2,16.7-28.4
	c4-1.9,8.8-3.9,14.3-5.9v356.8l-31,13.2V174z M876,125.7c12.4-3.1,24.9-6,35.9-8.3v343.4L876,476.1V125.7z M142.7,130.6
	c29.5-16.9,87.6-19.2,107.5-18.6c0.2,0,0.5,0,0.7,0h275.4L419,147H123.1C127.6,141.4,133.9,135.7,142.7,130.6z M112,572h210.8
	l-74.7,41.9c-11.6,6.5-15.7,21.1-9.2,32.7c4.4,7.9,12.6,12.3,21,12.3c4,0,8-1,11.7-3.1l87.6-49l-67.3,153.5
	c-5.3,12.1,0.2,26.3,12.3,31.6c3.1,1.4,6.4,2,9.6,2c9.2,0,18-5.4,22-14.4L401,630.7V912H112V572z M797,861.5V561.9l31-13.2v290.1
	C816.4,844.9,806,852.8,797,861.5z M876,825.7V528.2l35.9-15.3v313C901.3,825.1,888.7,824.7,876,825.7z"/>
</svg>
