<?xml version="1.0" encoding="utf-8"?>
<!-- Generator: Adobe Illustrator 22.0.0, SVG Export Plug-In . SVG Version: 6.00 Build 0)  -->
<svg version="1.1" id="Ebene_1" xmlns="http://www.w3.org/2000/svg" xmlns:xlink="http://www.w3.org/1999/xlink" x="0px" y="0px"
	 viewBox="0 0 1024 1024" style="enable-background:new 0 0 1024 1024;" xml:space="preserve">
<style type="text/css">
	.st0{display:none;}
</style>
<g id="HG" class="st0">
</g>
<g id="vwicn197">
	<path class="st1" d="M935.9,133.3c-15.6-17-37-26.3-60.5-26.3H148.5c-46.6,0-84.5,37.3-84.5,83.1v643.8c0,45.8,37.9,83.1,84.5,83.1
		H550v-48H148.5c-20.1,0-36.5-15.7-36.5-35.1V343h799.9v203h48V200.1C959.9,173.5,951.6,150.5,935.9,133.3z M112,295V190.1
		c0-19.4,16.4-35.1,36.5-35.1h726.9c21.8,0,36.5,18.1,36.5,45.1V295H112z"/>
	<path class="st2" d="M832.9,796.8l123-123c9.4-9.4,9.4-24.6,0-33.9c-9.4-9.4-24.6-9.4-33.9,0l-123,123l-123-123
		c-9.4-9.4-24.6-9.4-33.9,0c-9.4,9.4-9.4,24.6,0,33.9l123,123l-123,123c-9.4,9.4-9.4,24.6,0,33.9c4.7,4.7,10.8,7,17,7s12.3-2.3,17-7
		l123-123l123,123c4.7,4.7,10.8,7,17,7s12.3-2.3,17-7c9.4-9.4,9.4-24.6,0-33.9L832.9,796.8z"/>
</g>
</svg>
