<?xml version="1.0" encoding="utf-8"?>
<!-- Generator: Adobe Illustrator 22.0.0, SVG Export Plug-In . SVG Version: 6.00 Build 0)  -->
<svg version="1.1" id="Ebene_1" xmlns="http://www.w3.org/2000/svg" xmlns:xlink="http://www.w3.org/1999/xlink" x="0px" y="0px"
	 viewBox="0 0 1024 1024" style="enable-background:new 0 0 1024 1024;" xml:space="preserve">
<style type="text/css">
	.st0{display:none;}
	.st1{fill:#2368BC;}
</style>
<g id="HG" class="st0">
</g>
<g>
	<path class="st1" d="M507,332.2V233c0-13.3-10.7-24-24-24h-69.7c-0.7-12.7-0.8-52.2,21.4-73.8c14.5-14.1,37.5-18.8,68.6-14.2
		c33.2,5,47.6,38.8,66,89.8c8.7,24.2,17.7,49.3,31.1,68.8c17.5,25.5,40.6,38.4,68.6,38.4c0.1,0,0.3,0,0.4,0
		c13.3-0.1,24-10.9,23.9-24.1c-0.1-13.2-10.8-23.9-24-23.9c-0.1,0-0.2,0-0.3,0c-24.7,0-36.2-24.2-54.6-75.5
		c-9-25.1-18.3-51.1-32.8-72.9c-18.2-27.5-42.2-43.7-71.2-48.1c-25.4-3.8-48.1-2.8-67.5,3c-18.2,5.5-33.6,15.1-45.9,28.6
		c-29.7,32.7-32.9,80.4-31.8,103.8H295c-13.3,0-24,10.7-24,24v99c-40.5,15.9-77.7,40.2-109.5,71.9c-60.7,60.7-94.1,141.4-94.1,227.3
		c0,85.8,33.4,166.6,94.1,227.3c60.7,60.7,141.4,94.1,227.3,94.1s166.6-33.4,227.3-94.1c60.7-60.7,94.1-141.4,94.1-227.3
		c0-85.8-33.4-166.6-94.1-227.3C584.4,372.3,547.4,348.1,507,332.2z M319,257h140v57.9c-19.2-3.4-45-7-70-7c-31.1,0-53.7,2.1-70,5.1
		V257z M388.8,904.6C238,904.6,115.4,782,115.4,631.2c0-150.8,122.6-273.4,273.4-273.4c150.8,0,273.4,122.6,273.4,273.4
		C662.2,782,539.6,904.6,388.8,904.6z"/>
	<path class="st1" d="M933,270H778c-13.3,0-24,10.7-24,24s10.7,24,24,24h155c13.3,0,24-10.7,24-24S946.3,270,933,270z"/>
	<path class="st1" d="M767.3,238.5c4.9,0,9.8-1.5,14-4.6l125.4-90.7c10.7-7.8,13.1-22.8,5.4-33.5c-7.8-10.7-22.8-13.1-33.5-5.4
		l-125.4,90.7c-10.7,7.8-13.1,22.8-5.4,33.5C752.5,235.1,759.9,238.5,767.3,238.5z"/>
	<path class="st1" d="M893.8,445.9l-125.3-90.7c-10.7-7.8-25.7-5.4-33.5,5.4c-7.8,10.7-5.4,25.7,5.4,33.5l125.3,90.7
		c4.3,3.1,9.2,4.6,14.1,4.6c7.4,0,14.8-3.4,19.5-9.9C906.9,468.6,904.5,453.6,893.8,445.9z"/>
</g>
</svg>
