<?xml version="1.0" encoding="utf-8"?>
<!-- Generator: Adobe Illustrator 22.0.0, SVG Export Plug-In . SVG Version: 6.00 Build 0)  -->
<svg version="1.1" id="Ebene_1" xmlns="http://www.w3.org/2000/svg" xmlns:xlink="http://www.w3.org/1999/xlink" x="0px" y="0px"
	 viewBox="0 0 1024 1024" style="enable-background:new 0 0 1024 1024;" xml:space="preserve">
<style type="text/css">
	.st0{display:none;}
</style>
<g id="HG" class="st0">
</g>
<g>
	<path class="st1" d="M927.2,343.4c-22.5-55.6-55.7-105.5-98.4-148.2s-92.6-75.9-148.2-98.4C626.9,75,570.2,64,512,64
		c-58.2,0-114.9,11-168.6,32.8c-55.6,22.5-105.5,55.7-148.2,98.4c-42.8,42.8-75.9,92.6-98.4,148.2C75,397.1,64,453.8,64,512
		c0,58.2,11,114.9,32.8,168.6c22.5,55.6,55.7,105.5,98.4,148.2c42.8,42.8,92.6,75.9,148.2,98.4C397.1,949,453.8,960,512,960
		c58.2,0,114.9-11,168.6-32.8c55.6-22.5,105.5-55.7,148.2-98.4s75.9-92.6,98.4-148.2C949,626.9,960,570.2,960,512
		C960,453.8,949,397.1,927.2,343.4z M794.8,794.8C719.3,870.4,618.8,912,512,912s-207.3-41.6-282.8-117.2
		c-156-156-156-409.7,0-565.7C304.7,153.6,405.2,112,512,112s207.3,41.6,282.8,117.2C950.8,385.1,950.8,638.9,794.8,794.8z"/>
	<path class="st1" d="M613.9,507.5c-61.6-49.1-160.1-44.7-208.6-38.7L404.2,294H620c13.3,0,24-10.7,24-24s-10.7-24-24-24H380
		c-6.4,0-12.5,2.6-17,7.1c-4.5,4.5-7,10.7-7,17.1l1.5,226.8c0,7.2,3.3,14,8.9,18.5c5.6,4.5,12.9,6.3,20,4.8c0.3-0.1,33.8-7,75.9-7
		c37.2,0,88.6,5.4,121.7,31.8c22.9,18.2,34.3,44.2,35,79.4c0.6,31.9-9,55.7-29.3,72.9c-51.7,43.7-162.9,34.5-201.4,27.3
		c-13-2.5-25.6,6.1-28,19.1c-2.5,13,6.1,25.6,19.1,28c1.6,0.3,37.5,7,83.2,7c1.7,0,3.5,0,5.2,0C535,778,586.4,763,620.6,734.1
		c31.6-26.7,47.2-63.9,46.3-110.5C666.1,573.9,648.2,534.8,613.9,507.5z"/>
</g>
</svg>
