<?xml version="1.0" encoding="utf-8"?>
<!-- Generator: Adobe Illustrator 22.0.0, SVG Export Plug-In . SVG Version: 6.00 Build 0)  -->
<svg version="1.1" id="Ebene_1" xmlns="http://www.w3.org/2000/svg" xmlns:xlink="http://www.w3.org/1999/xlink" x="0px" y="0px"
	 viewBox="0 0 1024 1024" style="enable-background:new 0 0 1024 1024;" xml:space="preserve">
<style type="text/css">
	.st0{display:none;}
	.st1{fill:#2368BC;}
</style>
<g id="HG" class="st0">
</g>
<path class="st1" d="M781.2,912c-0.4,0-38.4-1.9-80.6-9.9c-71.7-13.5-92.4-32.4-97.9-39.9c-3.5-4.8-4.4-9.1-2.9-14.8
	c2.9-11.4,23.4-29.2,41.6-45c31.3-27.3,70.3-61.2,80.1-107.4c3.4-16.2,2.2-41.3-23.1-68.6c-13.5-14.6-33.1-28.9-58-42.5
	c-30.8-16.8-62.3-28.4-76.5-33.3c32-12.5,61.5-31.6,86.5-56.7c47.6-47.6,73.8-110.9,73.8-178.3S698,185.2,650.4,137.5
	c-47.6-47.6-110.9-73.8-178.3-73.8s-130.6,26.2-178.3,73.8C246.2,185.2,220,248.5,220,315.8s26.2,130.6,73.8,178.3
	c33.1,33.1,73.7,55.8,118,66.6l-32.9,67.8c-3.6,7.4-3.1,16.2,1.2,23.2c4.4,7,12.1,11.3,20.3,11.3h143.1c8.1,0,15.7-4.1,20.1-10.9
	c4.4-6.8,5.1-15.4,1.9-22.8l-14.1-32.1c13.9,4.9,40.9,15.2,66.5,29.2c38.7,21.2,59.9,43.1,56.6,58.7c-6.4,30.5-37.4,57.4-64.7,81.1
	c-25.7,22.4-50.1,43.6-56.6,69.5c-5,19.7-1.2,38.8,10.9,55.2c19.9,26.9,61.7,46,127.6,58.4c45.5,8.6,85.6,10.6,87.2,10.6
	c0.4,0,0.8,0,1.2,0c12.7,0,23.3-10,24-22.9C804.7,923.9,794.5,912.7,781.2,912z M268,315.8c0-112.5,91.6-204.1,204.1-204.1
	c112.5,0,204.1,91.6,204.1,204.1s-91.6,204.1-204.1,204.1C359.6,519.9,268,428.3,268,315.8z M438.8,615l23-47.3
	c3.4,0.1,6.8,0.2,10.3,0.2c4.6,0,9.3-0.1,13.9-0.4l20.9,47.5H438.8z"/>
</svg>
