<?xml version="1.0" encoding="utf-8"?>
<!-- Generator: Adobe Illustrator 14.0.0, SVG Export Plug-In . SVG Version: 6.00 Build 43363)  -->
<!DOCTYPE svg PUBLIC "-//W3C//DTD SVG 1.1//EN" "http://www.w3.org/Graphics/SVG/1.1/DTD/svg11.dtd">
<svg version="1.1" id="Ebene_1" xmlns="http://www.w3.org/2000/svg" xmlns:xlink="http://www.w3.org/1999/xlink" x="0px" y="0px"
	 width="1024px" height="1024px" viewBox="0 0 1024 1024" enable-background="new 0 0 1024 1024" xml:space="preserve">
<path  d="M941.619,64.667c-10.778-2.597-21.938,2.533-26.987,12.406c-0.748,1.463-76.434,147.985-216.557,293.219
	C569.722,503.328,359.688,661.912,88,661.912c-13.255,0-24,10.745-24,24V936c0,13.255,10.745,24,24,24h848c13.255,0,24-10.745,24-24
	V88C960,76.91,952.401,67.264,941.619,64.667z M636,493.968V912H398V643.978c21.02-9.163,41.885-19.268,62.575-30.321
	C520.668,581.551,579.355,541.482,636,493.968z M112,709.53c80.646-2.571,160.273-18.122,238-46.386V912H112V709.53z M912,912H684
	V451.473c16.407-15.314,32.619-31.269,48.619-47.853c75.758-78.521,132.708-156.963,167.144-208.941
	c4.32-6.521,8.399-12.791,12.237-18.783V912z"/>
</svg>
