<?xml version="1.0" encoding="utf-8"?>
<!-- Generator: Adobe Illustrator 22.0.0, SVG Export Plug-In . SVG Version: 6.00 Build 0)  -->
<svg version="1.1" id="Ebene_1" xmlns="http://www.w3.org/2000/svg" xmlns:xlink="http://www.w3.org/1999/xlink" x="0px" y="0px"
	 viewBox="0 0 1024 1024" style="enable-background:new 0 0 1024 1024;" xml:space="preserve">
<style type="text/css">
	.st0{display:none;}
</style>
<g id="HG" class="st0">
</g>
<g>
	<path class="st1" d="M704.5,473.3c-6.5-8.4-10.9-21.5-13.5-39.3l-33.4,6.3c1.3,17.2,5.6,31.8,13.2,43.7
		c7.6,11.9,16.5,20.5,26.9,25.9c10.4,5.4,24.3,9.1,40.3,11.2V554h20.1v-33.3c23-1.1,42.2-9.3,56.8-24.7
		c14.6-15.4,21.9-34.6,21.9-57.6c0-10.5-1.8-20.2-5.3-29.2s-8.5-16.8-15-23.3c-6.6-6.5-15-12-25.3-16.6c-5.4-2.4-16.2-5.6-33.2-9.8
		v-95.8c11,2.3,19.3,6.9,25.5,13.8c6.2,7,10.2,17,12.2,30l34.3-5.2c-3-21-11.7-37.5-26.2-49.6c-11.3-9.5-26.9-15.2-45.9-17V220h-20
		v15.8c-22,2.2-38.5,8.3-49.7,18.1c-16.7,14.6-24.9,33.8-24.9,57.4c0,13.3,2.8,25.1,8.5,35.6c5.8,10.4,13.8,18.6,24.4,24.5
		c14.3,8,28.7,13.3,41.7,15.9v105.8C724.9,491.7,713.8,485.1,704.5,473.3z M758,391.8c18,5.8,29.7,12.4,35.7,19.7
		c5.9,7.4,8.9,17,8.9,29.1c0,14.1-4.2,26-12.6,35.6c-8.4,9.6-19,15.2-32,16.8h0V391.8z M705.9,337c-6.4-7.6-9.4-17.1-9.4-28.4
		c0-11.4,3.7-21.3,11.1-29.7c7.5-8.4,17.4-13.5,30.4-15.5v91.9C723,350.7,712.2,344.6,705.9,337z"/>
	<path class="st1" d="M937,113H86c-13.3,0-24,10.7-24,24v500c0,13.3,10.7,24,24,24h36v137c0,4.9,1.5,9.5,4,13.3
		c15.3,29.5,47.5,54.6,93.5,72.6c45.2,17.7,99.5,27.1,157,27.1c57.6,0,111.9-9.4,157-27.1c45.9-18,78.2-43.1,93.5-72.6
		c2.5-3.8,4-8.3,4-13.2V661.1h306c13.3,0,24-10.7,24-24V137C961,123.7,950.3,113,937,113z M583,700.8c-21,35.3-98.3,71.3-206.5,71.3
		c-108.2,0-185.5-36-206.5-71.3v-28.5c9.7,7.3,20.8,14.1,33.3,20.4c46.8,23.3,108.4,36.2,173.6,36.2s126.8-12.8,173.6-36.2
		c12.1-6,23-12.7,32.5-19.8V700.8z M529.1,530.2c32.3,16.1,51.7,36.2,54,55.8c0,0.1,0,0.2,0,0.4c0.1,0.5,0.1,1.1,0.1,1.6
		c0,0.7,0.1,1.3,0.1,2c0,0.5,0,1.1-0.1,1.6c-0.1,0.9-0.2,1.8-0.2,2.7c-2.5,19.5-21.8,39.5-53.9,55.5
		c-40.3,20.1-94.3,31.1-152.2,31.1s-112-11.1-152.2-31.1c-34.4-17.2-54.2-39-54.2-59.8s19.8-42.6,54.2-59.8
		c14.8-7.4,31.5-13.5,49.5-18.4c31.5-7.8,67.2-12.6,104.5-12.7C435.9,499.3,489.3,510.4,529.1,530.2z M376.5,862.9
		c-108.2,0-185.5-36-206.5-71.3v-24.2c14,9.6,30.6,18.2,49.5,25.6c45.2,17.7,99.5,27.1,157,27.1c57.6,0,111.9-9.4,157-27.1
		c18.9-7.4,35.4-16,49.5-25.6v24.2C562,826.9,484.7,862.9,376.5,862.9z M913,613.1H631V597c0.1-0.9,0.1-1.7,0.2-2.6
		c0-0.3,0-0.6,0.1-1c0-1.1,0.1-2.3,0.1-3.4c0-40.2-28.3-76.7-79.6-102.7c-46.1-23.4-107-36.2-171.3-36.2c-0.6,0-1.2,0-1.7,0
		c-0.6,0-1.2,0-1.8,0c-65.2,0-126.8,12.8-173.6,36.2c-52.1,26-80.8,62.5-80.8,102.7c0,0,0,0.1,0,0.1c-0.3,1.6-0.5,3.2-0.5,4.9v18
		h-12V161h803V613.1z"/>
	<path class="st1" d="M320.4,578.8c8.3,10.3,23.4,12,33.7,3.7l0.9-0.7V648c0,13.3,10.7,24,24,24s24-10.7,24-24V531.8
		c0-9.2-5.3-17.6-13.6-21.6c-8.3-4-18.2-2.9-25.4,2.9l-39.9,32C313.7,553.4,312.1,568.5,320.4,578.8z"/>
</g>
</svg>
