<?xml version="1.0" encoding="utf-8"?>
<!-- Generator: Adobe Illustrator 22.0.0, SVG Export Plug-In . SVG Version: 6.00 Build 0)  -->
<svg version="1.1" id="Ebene_1" xmlns="http://www.w3.org/2000/svg" xmlns:xlink="http://www.w3.org/1999/xlink" x="0px" y="0px"
	 viewBox="0 0 1024 1024" style="enable-background:new 0 0 1024 1024;" xml:space="preserve">
<style type="text/css">
	.st0{display:none;}
	.st1{fill:#2368BC;}
</style>
<g id="HG" class="st0">
</g>
<g>
	<path class="st1" d="M969.6,337.9c0-8.5-3.4-16.6-9.4-22.6L711,66.2c-6-6-14.1-9.4-22.6-9.4c0,0,0,0,0,0L336,56.9
		c-8.5,0-16.6,3.4-22.6,9.4L64.3,315.5c-6,6-9.4,14.1-9.4,22.6L55,690.5c0,8.5,3.4,16.6,9.4,22.6l249.2,249.1c6,6,14.1,9.4,22.6,9.4
		c0,0,0,0,0,0l352.4-0.1c8.5,0,16.6-3.4,22.6-9.4l249.1-249.2c6-6,9.4-14.1,9.4-22.6L969.6,337.9z M675.3,907.5l-325.9,0.1
		L119,677.2l-0.1-325.9l230.4-230.5l325.9-0.1l230.5,230.4l0.1,325.9L675.3,907.5z"/>
	<path class="st1" d="M773.8,482.3c-14.6-11.8-33.7-17.8-56.8-17.8c-15.4,0-28.2,9.1-43.1,19.7c-6.9,4.9-14,10-21.6,14.3l-9.5,5.4
		c-1.9,1-3.7,2.1-5.4,3c-3.7,2.1-7,3.9-9.9,5.5c-0.8-26.1-2.6-66.9-5.2-107.8c-7.1-109.8-13.9-122.5-17.2-128.6
		c-15.6-29.1-39.7-45.1-67.6-45.1c-19.3,0-32.2,6.8-43.6,16.3c-12.5-3.3-25.2-4.2-29.3-4.2c-22,0-39.4,10.3-49.9,28.7
		c-18.7,1.5-30.4,10.2-37,17.7c-5.1,5.8-9.1,12.7-11.9,20.9c-18.4,0.9-33.8,9.3-43.6,23.8c-4,5.9-5.9,11.9-8,44.8
		c-1,16.4-2,38.5-2.9,65.7c-1.5,46.8-2.4,95.8-2.4,105.4v71.1c0,4.1,0.4,9,0.9,15.2c0.2,2.2,0.4,4.5,0.6,7.1l0.3,4l1.6,3.7
		c13.4,30.9,41.6,58,67.6,82.2v59.5l14.3,6.3c30,13.2,60.8,19.9,91.4,19.9c31.1,0,61.1-7.2,91.8-22.1l13.5-6.6v-57.7
		c0-5,0.5-7.5,0.7-8.5c1.3-1.5,6.2-6.6,20-17.4l12.9-10.3c14.4-11.1,24.7-19.4,30.6-24.8l0.8-0.7l64.8-69.3l91-34.3l-7.2-30.6
		C799.1,512.5,789,494.7,773.8,482.3z M693.3,560.8l-71,75.9c-3.3,2.9-10.8,9.3-27.2,21.9l-13,10.3c-20.9,16.3-27.3,23.9-30.5,28.7
		c-5.9,8.7-8.6,19.8-8.6,34.9v27.1c-19.2,7.6-38.1,11.3-57.3,11.3c-19.1,0-38.5-3.4-57.7-10.2v-48.5l-10.3-9.5
		C395,681.7,369.3,658,358,635.3c-0.1-1-0.2-2-0.2-3c-0.4-4.9-0.7-9-0.7-11.2V550c0-29.3,3.2-162.6,7.1-190.9c1-0.5,2.6-0.9,5.1-0.9
		c2.4,0,10.1,0.2,12.5,0.4l25.5,4.4l2.1-26.2c0.9-10.8,3.6-14.6,4.4-15.5c0.4-0.5,1.6-1.8,6.9-1.8c0.1,0,1.6,0,6,0.8l21.7,3.7
		l5.5-21.4c3-11.6,6.6-11.6,10.9-11.6c5.3,0,17.9,2.3,21.7,4.2l16.2,10.7l13.9-14c12.3-12.4,14.9-13,21.2-13c9.6,0,18,6.5,25.1,19.3
		c1,2.8,6.3,21.7,12.1,113.2c3.4,54.2,5.3,107.4,5.3,123.5v37.7l27.3-3.8c23.4-3.2,36.7-10.7,53.6-20.2c1.7-1,3.5-2,5.4-3l9.8-5.6
		c9.6-5.5,18.1-11.5,25.6-16.9c5.6-4,13.2-9.4,16.6-10.8c17.5,0.2,29.5,4.9,36.5,25.1L693.3,560.8z"/>
</g>
</svg>
