<?xml version="1.0" encoding="utf-8"?>
<!-- Generator: Adobe Illustrator 22.0.0, SVG Export Plug-In . SVG Version: 6.00 Build 0)  -->
<svg version="1.1" id="Ebene_1" xmlns="http://www.w3.org/2000/svg" xmlns:xlink="http://www.w3.org/1999/xlink" x="0px" y="0px"
	 viewBox="0 0 1024 1024" style="enable-background:new 0 0 1024 1024;" xml:space="preserve">
<style type="text/css">
	.st0{display:none;}
	.st1{fill:#2368BC;}
</style>
<g id="HG" class="st0">
</g>
<g>
	<path class="st1" d="M938,456H607c-13.3,0-24,10.7-24,24v128H434c-13.3,0-24,10.7-24,24v128H309c-13.3,0-24,10.7-24,24v153
		c0,13.3,10.7,24,24,24h314h315c13.3,0,24-10.7,24-24V784V632V480C962,466.7,951.3,456,938,456z M804,656h110v104H804V656z M631,504
		h283v104H780H631V504z M458,656h149h149v104H623H458V656z M333,808h101h165v105H333V808z M914,913H647V808h133h134V913z"/>
	<path class="st1" d="M594.9,411.3c4.5,4.5,10.6,7,17,7c0,0,0,0,0,0c6.4,0,12.5-2.5,17-7l97.5-97.6c9.4-9.4,9.4-24.6,0-33.9
		L517.2,70.5c-4.9-4.9-11.7-7.4-18.6-7l-136.1,9.3c-7.8,0.5-14.8,4.8-18.9,11.5c-4.1,6.7-4.6,14.9-1.5,22l38.5,88.3
		c1.2,2.8,2.9,5.3,5,7.4l34.6,34.6L69.1,587.8c-9.4,9.4-9.4,24.6,0,33.9l78.3,78.3c4.5,4.5,10.6,7,17,7s12.5-2.5,17-7l351.1-351.1
		L594.9,411.3z M164.4,649.1l-44.3-44.3l333.1-333.1l44.3,44.3L164.4,649.1z M490.9,112.2l184.5,184.5l-63.6,63.6l-189.1-189
		l-23.1-52.9L490.9,112.2z"/>
</g>
</svg>
