<?xml version="1.0" encoding="utf-8"?>
<!-- Generator: Adobe Illustrator 22.0.0, SVG Export Plug-In . SVG Version: 6.00 Build 0)  -->
<svg version="1.1" id="Ebene_1" xmlns="http://www.w3.org/2000/svg" xmlns:xlink="http://www.w3.org/1999/xlink" x="0px" y="0px"
	 viewBox="0 0 1024 1024" style="enable-background:new 0 0 1024 1024;" xml:space="preserve">
<style type="text/css">
	.st0{display:none;}
	.st1{fill:#D75050;}
	.st2{fill:#D75050;}
	.st3{fill:#D75050;}
</style>
<g id="HG" class="st0">
</g>
<g id="vwicn134_1_">
	<g>
		<polygon class="st1" points="294,386.1 294,87 550.1,87 730,270.1 730,387 511,558.6 		"/>
		<path class="st2" d="M747.1,253.3L567.2,70.2c-4.5-4.6-10.7-7.2-17.1-7.2H294c-13.3,0-24,10.7-24,24v299h48V111h183v185
			c0,13.3,10.7,24,24,24h181v67h48V270.1C754,263.8,751.5,257.8,747.1,253.3z M549,120.1L698.2,272H549V120.1z"/>
	</g>
	<path class="st3" d="M874.5,164H659.4l47.2,48h167.9c15.8,0,29.2,9.7,34.3,23.3L511,528.8L113.6,234.2c5.4-13,18.6-22.2,34-22.2
		H270v-48H147.6C101,164,63,201.4,63,247.3v529.3c0,45.9,38,83.3,84.6,83.3h726.9c46.6,0,84.5-37.4,84.5-83.3V247.3
		C959,201.4,921.1,164,874.5,164z M111,292l256.6,190.2L111,773.6V292z M874.5,811.9H147.6c-2,0-4-0.2-6-0.5l264.7-300.5l90.4,67
		c4.2,3.1,9.3,4.7,14.3,4.7c5,0,10-1.6,14.2-4.7l91.6-67.6l264.9,300.9C879.4,811.7,877,811.9,874.5,811.9z M911,771.7l-255.3-290
		L911,293.3V771.7z"/>
</g>
</svg>
