<?xml version="1.0" encoding="utf-8"?>
<!-- Generator: Adobe Illustrator 14.0.0, SVG Export Plug-In . SVG Version: 6.00 Build 43363)  -->
<!DOCTYPE svg PUBLIC "-//W3C//DTD SVG 1.1//EN" "http://www.w3.org/Graphics/SVG/1.1/DTD/svg11.dtd">
<svg version="1.1" id="Ebene_1" xmlns="http://www.w3.org/2000/svg" xmlns:xlink="http://www.w3.org/1999/xlink" x="0px" y="0px"
	 width="1024px" height="1024px" viewBox="0 0 1024 1024" enable-background="new 0 0 1024 1024" xml:space="preserve">
<g>
	<path  d="M721.304,150.696C665.396,94.79,591.064,64,512,64s-153.396,30.79-209.304,86.696
		C246.79,206.604,216,280.936,216,360c0,42.961,9.008,84.404,26.774,123.177c17.158,37.446,41.508,70.379,72.375,97.882
		c14.517,12.936,19.255,43.496,23.838,73.05c3.527,22.746,7.174,46.268,15.954,65.071C370.308,752.092,396.083,759,415,759h194
		c18.917,0,44.692-6.908,60.06-39.82c8.779-18.804,12.427-42.324,15.954-65.07c4.582-29.555,9.321-60.115,23.838-73.05
		c30.866-27.504,55.216-60.437,72.374-97.883C798.992,444.404,808,402.961,808,360C808,280.936,777.211,206.604,721.304,150.696z
		 M676.918,545.223c-27.377,24.395-33.731,65.375-39.338,101.531C629.573,698.391,623.964,711,609,711H415
		c-14.964,0-20.574-12.609-28.581-64.246c-5.606-36.156-11.96-77.137-39.338-101.531C294.282,498.174,264,430.664,264,360
		c0-136.748,111.252-248,248-248c136.748,0,248,111.252,248,248C760,430.663,729.718,498.174,676.918,545.223z"/>
	<path  d="M628.5,912h-233c-13.255,0-24,10.745-24,24s10.745,24,24,24h233c13.255,0,24-10.745,24-24
		S641.755,912,628.5,912z"/>
	<path  d="M628.5,815h-233c-13.255,0-24,10.745-24,24s10.745,24,24,24h233c13.255,0,24-10.745,24-24
		S641.755,815,628.5,815z"/>
</g>
</svg>
