<?xml version="1.0" encoding="utf-8"?>
<!-- Generator: Adobe Illustrator 14.0.0, SVG Export Plug-In . SVG Version: 6.00 Build 43363)  -->
<!DOCTYPE svg PUBLIC "-//W3C//DTD SVG 1.1//EN" "http://www.w3.org/Graphics/SVG/1.1/DTD/svg11.dtd">
<svg version="1.1" id="Ebene_1" xmlns="http://www.w3.org/2000/svg" xmlns:xlink="http://www.w3.org/1999/xlink" x="0px" y="0px"
	 width="1024px" height="1024px" viewBox="0 0 1024 1024" enable-background="new 0 0 1024 1024" xml:space="preserve">
<path  d="M960,322.097V148.072c0-48.523-39.477-88-88-88H764.022c-0.839,0-1.671,0.02-2.502,0.047
	c-0.832-0.028-1.666-0.047-2.505-0.047h-505c-48.523,0-88,39.477-88,88v80.681H88c-13.255,0-24,10.745-24,24s10.745,24,24,24h78.016
	V488H88c-13.255,0-24,10.745-24,24s10.745,24,24,24h78.016v211.247H88c-13.255,0-24,10.745-24,24s10.745,24,24,24h78.016v80.681
	c0,48.523,39.477,88,88,88h447.065c30.764,0,57.886-15.871,73.622-39.852H872c48.523,0,88-39.477,88-88V707.589
	c0-25.457-10.87-48.42-28.207-64.503C949.13,627.004,960,604.041,960,578.584V450.097c0-25.192-10.644-47.943-27.667-64
	C949.356,370.04,960,347.289,960,322.097z M912,836.076c0,22.056-17.944,40-40,40h-82.921c0-0.05,0.002-0.099,0.002-0.148V667.589
	H872c22.056,0,40,17.944,40,40V836.076z M912,450.097v128.487c0,22.056-17.944,40-40,40h-82.919V410.097H872
	C894.056,410.097,912,428.041,912,450.097z M764.755,362.097h-23.674v513.831c0,22.056-17.944,40-40,40H254.016
	c-22.056,0-40-17.944-40-40v-80.681h95.974c13.255,0,24-10.745,24-24s-10.745-24-24-24h-95.974V536h95.974c13.255,0,24-10.745,24-24
	s-10.745-24-24-24h-95.974V276.753h95.974c13.255,0,24-10.745,24-24s-10.745-24-24-24h-95.974v-80.681c0-22.056,17.944-40,40-40h505
	c0.528,0,1.051,0.025,1.574,0.045l0.931,0.036l0.93-0.036c0.522-0.021,1.045-0.045,1.572-0.045H872c22.056,0,40,17.944,40,40
	v174.024c0,22.056-17.944,40-40,40H764.755z"/>
</svg>
