<?xml version="1.0" encoding="utf-8"?>
<!-- Generator: Adobe Illustrator 22.0.0, SVG Export Plug-In . SVG Version: 6.00 Build 0)  -->
<svg version="1.1" id="Ebene_1" xmlns="http://www.w3.org/2000/svg" xmlns:xlink="http://www.w3.org/1999/xlink" x="0px" y="0px"
	 viewBox="0 0 1024 1024" style="enable-background:new 0 0 1024 1024;" xml:space="preserve">
<style type="text/css">
	.st0{display:none;}
	.st1{fill:#2368BC;}
</style>
<g id="HG" class="st0">
</g>
<g>
	<path class="st1" d="M927.2,343.4c-22.5-55.6-55.7-105.5-98.4-148.2s-92.6-75.9-148.2-98.4C626.9,75,570.2,64,512,64
		c-58.2,0-114.9,11-168.6,32.8c-55.6,22.5-105.5,55.7-148.2,98.4c-42.8,42.8-75.9,92.6-98.4,148.2C75,397.1,64,453.8,64,512
		c0,58.2,11,114.9,32.8,168.6c22.5,55.6,55.7,105.5,98.4,148.2c42.8,42.8,92.6,75.9,148.2,98.4C397.1,949,453.8,960,512,960
		c58.2,0,114.9-11,168.6-32.8c55.6-22.5,105.5-55.7,148.2-98.4s75.9-92.6,98.4-148.2C949,626.9,960,570.2,960,512
		C960,453.8,949,397.1,927.2,343.4z M794.8,794.8C719.3,870.4,618.8,912,512,912s-207.3-41.6-282.8-117.2
		c-156-156-156-409.7,0-565.7C304.7,153.6,405.2,112,512,112s207.3,41.6,282.8,117.2C950.8,385.1,950.8,638.9,794.8,794.8z"/>
	<path class="st1" d="M523.6,246.4c-10-4.8-22-3.5-30.7,3.5L328,381.6c-12.5,10-14.5,28.2-4.5,40.8c10,12.5,28.2,14.5,40.8,4.5
		L482,332.8V752c0,16,13,29,29,29c16,0,29-13,29-29V272.5C540,261.4,533.6,251.2,523.6,246.4z"/>
</g>
</svg>
