<?xml version="1.0" encoding="utf-8"?>
<!-- Generator: Adobe Illustrator 14.0.0, SVG Export Plug-In . SVG Version: 6.00 Build 43363)  -->
<!DOCTYPE svg PUBLIC "-//W3C//DTD SVG 1.1//EN" "http://www.w3.org/Graphics/SVG/1.1/DTD/svg11.dtd">
<svg version="1.1" id="Ebene_1" xmlns="http://www.w3.org/2000/svg" xmlns:xlink="http://www.w3.org/1999/xlink" x="0px" y="0px"
	 width="1024px" height="1024px" viewBox="0 0 1024 1024" enable-background="new 0 0 1024 1024" xml:space="preserve">
<g>
	<circle  cx="797.667" cy="709" r="31.408"/>
	<circle  cx="674" cy="709" r="31.408"/>
	<path  d="M872,573H152c-48.523,0-88,39.477-88,88v211c0,48.523,39.477,88,88,88h720c48.523,0,88-39.477,88-88V661
		C960,612.477,920.523,573,872,573z M912,872c0,22.056-17.944,40-40,40H152c-22.056,0-40-17.944-40-40V661c0-22.056,17.944-40,40-40
		h720c22.056,0,40,17.944,40,40V872z"/>
	<path  d="M439,681H211c-13.255,0-24,10.745-24,24s10.745,24,24,24h228c13.255,0,24-10.745,24-24S452.255,681,439,681
		z"/>
	<path  d="M206,514h612c13.255,0,24-10.745,24-24V88c0-13.255-10.745-24-24-24H206c-13.255,0-24,10.745-24,24v402
		C182,503.255,192.745,514,206,514z M230,112h564v354H230V112z"/>
</g>
</svg>
