<?xml version="1.0" encoding="utf-8"?>
<!-- Generator: Adobe Illustrator 22.0.0, SVG Export Plug-In . SVG Version: 6.00 Build 0)  -->
<svg version="1.1" id="Ebene_1" xmlns="http://www.w3.org/2000/svg" xmlns:xlink="http://www.w3.org/1999/xlink" x="0px" y="0px"
	 viewBox="0 0 1024 1024" style="enable-background:new 0 0 1024 1024;" xml:space="preserve">
<style type="text/css">
	.st0{display:none;}
	.st1{fill:#2368BC;}
</style>
<g id="HG" class="st0">
</g>
<g>
	<path class="st1" d="M892.8,664.3c-11.9-23.7-28.7-45.1-48.8-62.5V152.1c0-48.6-39.3-88.1-87.6-88.1h-91
		c-23.4,0-45.6,9.2-62.3,25.8c-16.8,16.7-26.1,38.8-26.1,62.3V602c-19.8,17.5-36.4,38.8-48.3,62.3c-14.6,28.8-22,59.7-22,91.7
		c0,112.5,91.6,204,204.1,204c54.5,0,105.7-21.2,144.2-59.8c38.5-38.5,59.6-89.7,59.6-144.2C914.6,723.7,907.3,692.9,892.8,664.3z
		 M665.4,112h91c21.8,0,39.6,18,39.6,40.1V388H625V152.1C625,130.4,643.5,112,665.4,112z"/>
	<path class="st1" d="M337,555H133c-13.3,0-24,10.7-24,24s10.7,24,24,24h204c13.3,0,24-10.7,24-24S350.3,555,337,555z"/>
	<path class="st1" d="M337,319H133c-13.3,0-24,10.7-24,24s10.7,24,24,24h204c13.3,0,24-10.7,24-24S350.3,319,337,319z"/>
	<path class="st1" d="M337,83H133c-13.3,0-24,10.7-24,24s10.7,24,24,24h204c13.3,0,24-10.7,24-24S350.3,83,337,83z"/>
</g>
</svg>
