<?xml version="1.0" encoding="utf-8"?>
<!-- Generator: Adobe Illustrator 22.0.0, SVG Export Plug-In . SVG Version: 6.00 Build 0)  -->
<svg version="1.1" id="Ebene_1" xmlns="http://www.w3.org/2000/svg" xmlns:xlink="http://www.w3.org/1999/xlink" x="0px" y="0px"
	 viewBox="0 0 1024 1024" style="enable-background:new 0 0 1024 1024;" xml:space="preserve">
<style type="text/css">
	.st0{display:none;}
	.st1{fill:#2368BC;}
</style>
<g id="HG" class="st0">
</g>
<path class="st1" d="M941.9,706.6c-12.2-21.6-29.5-40.9-51.4-57.3C871.4,635,849.6,623.4,826,615c41.9-30.4,69.2-79.8,69.2-135.4
	c0-92.2-75.1-167.3-167.3-167.3c-28.1,0-54.6,7-77.9,19.3c21.3-28.1,33.9-63,33.9-100.8c0-92.2-75-167.3-167.3-167.3
	c-92.2,0-167.3,75.1-167.3,167.3c0,43.2,16.5,82.7,43.5,112.4c-27.3-19.4-60.7-30.9-96.7-30.9c-92.2,0-167.3,75.1-167.3,167.3
	c0,55.6,27.3,105,69.2,135.4c-23.6,8.4-45.4,19.9-64.5,34.3c-21.9,16.4-39.2,35.7-51.4,57.3c-13,23-19.6,47.6-19.6,72.9
	s6.6,49.9,19.6,72.9c12.2,21.6,29.5,40.9,51.4,57.3c43.7,32.8,101.5,50.8,162.6,50.8s118.9-18,162.6-50.8
	c21.9-16.4,39.2-35.7,51.4-57.3c0.7-1.2,1.3-2.3,1.9-3.5c0.6,1.2,1.2,2.3,1.9,3.5c12.2,21.6,29.5,40.9,51.4,57.3
	c43.7,32.8,101.5,50.8,162.6,50.8s118.9-18,162.6-50.8c21.9-16.4,39.2-35.7,51.4-57.3c13-23,19.6-47.6,19.6-72.9
	S954.9,729.6,941.9,706.6z M847.2,479.6c0,63.1-49.2,114.8-111.2,119c-2.7-0.1-5.4-0.1-8.1-0.1s-5.4,0-8.1,0.1
	c-62-4.2-111.2-55.9-111.2-119c0-65.8,53.5-119.3,119.3-119.3S847.2,413.8,847.2,479.6z M512,710.1c-0.6-1.2-1.2-2.3-1.9-3.5
	c-12.2-21.6-29.5-40.9-51.4-57.3c-19.1-14.3-40.9-25.9-64.5-34.3c41.9-30.4,69.2-79.8,69.2-135.4c0-25.9-5.9-50.5-16.5-72.4
	c18.5-5.4,38.3-8.6,58.7-9.5c3.6,0.2,7.3,0.4,11,0.4c3.7,0,7.3-0.1,10.9-0.4c17.5,0.7,34.5,3.2,50.7,7.3
	c-11.2,22.5-17.6,47.8-17.6,74.5c0,55.6,27.3,105,69.2,135.4c-23.6,8.4-45.4,19.9-64.5,34.3c-21.9,16.4-39.2,35.7-51.4,57.3
	C513.2,707.8,512.6,708.9,512,710.1z M516.6,111.5c65.8,0,119.3,53.5,119.3,119.3c0,62.4-48.2,113.8-109.3,118.9
	c-3.3-0.1-6.6-0.2-10-0.2c-3.3,0-6.7,0.1-10,0.2c-61.2-5.1-109.3-56.4-109.3-118.9C397.3,165,450.8,111.5,516.6,111.5z M176.8,479.6
	c0-65.8,53.5-119.3,119.3-119.3s119.3,53.5,119.3,119.3c0,63.1-49.2,114.8-111.2,119c-2.7-0.1-5.4-0.1-8.1-0.1s-5.4,0-8.1,0.1
	C226,594.4,176.8,542.7,176.8,479.6z M429.9,871.3c-35.4,26.6-83,41.2-133.8,41.2c-50.8,0-98.3-14.6-133.8-41.2
	c-33.4-25-51.8-57.7-51.8-91.9s18.4-66.9,51.8-91.9c32.9-24.7,76.2-39,122.9-41c3.6,0.2,7.2,0.4,10.9,0.4s7.3-0.1,10.9-0.4
	c46.7,1.9,90,16.3,122.9,41c33.4,25,51.8,57.7,51.8,91.9S463.3,846.3,429.9,871.3z M861.7,871.3c-35.4,26.6-83,41.2-133.8,41.2
	s-98.3-14.6-133.8-41.2c-33.4-25-51.8-57.7-51.8-91.9s18.4-66.9,51.8-91.9c32.9-24.7,76.2-39,122.9-41c3.6,0.2,7.2,0.4,10.9,0.4
	c3.7,0,7.3-0.1,10.9-0.4c46.7,1.9,90,16.3,122.9,41c33.4,25,51.8,57.7,51.8,91.9S895.1,846.3,861.7,871.3z"/>
</svg>
