<?xml version="1.0" encoding="utf-8"?>
<!-- Generator: Adobe Illustrator 14.0.0, SVG Export Plug-In . SVG Version: 6.00 Build 43363)  -->
<!DOCTYPE svg PUBLIC "-//W3C//DTD SVG 1.1//EN" "http://www.w3.org/Graphics/SVG/1.1/DTD/svg11.dtd">
<svg version="1.1" id="Ebene_1" xmlns="http://www.w3.org/2000/svg" xmlns:xlink="http://www.w3.org/1999/xlink" x="0px" y="0px"
	 width="1024px" height="1024px" viewBox="0 0 1024 1024" enable-background="new 0 0 1024 1024" xml:space="preserve">
<path  d="M958.759,404.291c-2.855-8.53-10.241-14.747-19.134-16.106l-280.316-42.832L533.726,77.802
	C529.771,69.379,521.306,64,512,64c-9.305,0-17.772,5.379-21.726,13.802L364.69,345.353L84.375,388.185
	c-8.892,1.359-16.278,7.576-19.133,16.106c-2.856,8.53-0.702,17.941,5.58,24.379l203.542,208.614l-48.097,294.852
	c-1.479,9.071,2.351,18.19,9.864,23.484c7.514,5.293,17.391,5.832,25.434,1.385L512,818.568l250.436,138.437
	c3.626,2.004,7.623,2.995,11.609,2.995c4.857,0,9.698-1.473,13.824-4.38c7.514-5.294,11.345-14.413,9.864-23.484l-48.097-294.852
	L953.178,428.67C959.46,422.232,961.614,412.821,958.759,404.291z M706.822,612.433c-5.32,5.452-7.735,13.106-6.509,20.625
	l42.09,258.027L523.611,770.141c-7.227-3.994-15.997-3.994-23.222,0L281.598,891.085l42.09-258.027
	c1.227-7.519-1.189-15.173-6.509-20.625L137.796,428.58L384.6,390.868c7.912-1.209,14.7-6.282,18.101-13.527L512,144.483
	l109.299,232.858c3.4,7.245,10.188,12.318,18.101,13.527l246.805,37.711L706.822,612.433z"/>
</svg>
