<?xml version="1.0" encoding="utf-8"?>
<!-- Generator: Adobe Illustrator 22.0.0, SVG Export Plug-In . SVG Version: 6.00 Build 0)  -->
<svg version="1.1" id="Ebene_1" xmlns="http://www.w3.org/2000/svg" xmlns:xlink="http://www.w3.org/1999/xlink" x="0px" y="0px"
	 viewBox="0 0 1024 1024" style="enable-background:new 0 0 1024 1024;" xml:space="preserve">
<style type="text/css">
	.st0{display:none;}
</style>
<g id="HG" class="st0">
</g>
<g>
	<path class="st1" d="M751,690h-24.4L533.1,299.5c-4-8.2-12.4-13.3-21.5-13.3c-9.1,0-17.5,5.2-21.5,13.3L296.6,690H273
		c-13.3,0-24,10.7-24,24s10.7,24,24,24h100c13.3,0,24-10.7,24-24s-10.7-24-24-24h-22.8l55-111H618l55,111h-22c-13.3,0-24,10.7-24,24
		s10.7,24,24,24h100c13.3,0,24-10.7,24-24S764.3,690,751,690z M429,531l82.6-166.7L594.2,531H429z"/>
	<path class="st1" d="M878.3,167H148.8C102,167,64,204.3,64,250.1v523.8c0,45.8,38,83.1,84.8,83.1h729.4c38.2,0,70.7-24.9,81.2-59.1
		h3.7V250.1C963.1,204.3,925.1,167,878.3,167z M915.1,749.9L915.1,749.9l-0.1,24c0,19.4-16.5,35.1-36.8,35.1H148.8
		c-20.3,0-36.8-15.7-36.8-35.1V250.1c0-19.4,16.5-35.1,36.8-35.1h729.5c20.3,0,36.8,15.7,36.8,35.1V749.9z"/>
</g>
</svg>
