<?xml version="1.0" encoding="utf-8"?>
<!-- Generator: Adobe Illustrator 22.0.0, SVG Export Plug-In . SVG Version: 6.00 Build 0)  -->
<svg version="1.1" id="Ebene_1" xmlns="http://www.w3.org/2000/svg" xmlns:xlink="http://www.w3.org/1999/xlink" x="0px" y="0px"
	 viewBox="0 0 1024 1024" style="enable-background:new 0 0 1024 1024;" xml:space="preserve">
<style type="text/css">
	.st0{display:none;}
</style>
<g id="HG" class="st0">
</g>
<g>
	<path class="st1" d="M671.7,350.6c-43.3-43.3-100.8-67.1-161.9-67.1s-118.7,23.8-161.9,67.1c-43.3,43.3-67.1,100.8-67.1,161.9
		c0,61.2,23.8,118.7,67.1,161.9c43.3,43.3,100.8,67.1,161.9,67.1s118.7-23.8,161.9-67.1c43.3-43.3,67.1-100.8,67.1-161.9
		C738.8,451.3,715,393.8,671.7,350.6z M509.8,693.5c-99.8,0-181-81.2-181-181s81.2-181,181-181s181,81.2,181,181
		S609.6,693.5,509.8,693.5z"/>
	<path class="st1" d="M206,513c0-13.3-10.7-24-24-24H86c-13.3,0-24,10.7-24,24s10.7,24,24,24h96C195.3,537,206,526.3,206,513z"/>
	<path class="st1" d="M937,489h-98c-13.3,0-24,10.7-24,24s10.7,24,24,24h98c13.3,0,24-10.7,24-24S950.3,489,937,489z"/>
	<path class="st1" d="M510,817c-13.3,0-24,10.7-24,24v96c0,13.3,10.7,24,24,24s24-10.7,24-24v-96C534,827.7,523.3,817,510,817z"/>
	<path class="st1" d="M510,208c13.3,0,24-10.7,24-24V88c0-13.3-10.7-24-24-24s-24,10.7-24,24v96C486,197.3,496.7,208,510,208z"/>
	<path class="st1" d="M760,728c-9.4-9.4-24.6-9.4-33.9,0c-9.4,9.4-9.4,24.6,0,33.9l75.5,75.5c4.7,4.7,10.8,7,17,7s12.3-2.3,17-7
		c9.4-9.4,9.4-24.6,0-33.9L760,728z"/>
	<path class="st1" d="M261,297c4.7,4.7,10.8,7,17,7s12.3-2.3,17-7c9.4-9.4,9.4-24.6,0-33.9l-75.5-75.5c-9.4-9.4-24.6-9.4-33.9,0
		c-9.4,9.4-9.4,24.6,0,33.9L261,297z"/>
	<path class="st1" d="M261,728l-75.5,75.5c-9.4,9.4-9.4,24.6,0,33.9c4.7,4.7,10.8,7,17,7s12.3-2.3,17-7L295,762
		c9.4-9.4,9.4-24.6,0-33.9C285.6,718.7,270.4,718.7,261,728z"/>
	<path class="st1" d="M743,304c6.1,0,12.3-2.3,17-7l74.5-74.5c9.4-9.4,9.4-24.6,0-33.9c-9.4-9.4-24.6-9.4-33.9,0L726,263
		c-9.4,9.4-9.4,24.6,0,33.9C730.7,301.7,736.9,304,743,304z"/>
</g>
</svg>
