<?xml version="1.0" encoding="utf-8"?>
<!-- Generator: Adobe Illustrator 22.0.0, SVG Export Plug-In . SVG Version: 6.00 Build 0)  -->
<svg version="1.1" id="Ebene_1" xmlns="http://www.w3.org/2000/svg" xmlns:xlink="http://www.w3.org/1999/xlink" x="0px" y="0px"
	 viewBox="0 0 1024 1024" style="enable-background:new 0 0 1024 1024;" xml:space="preserve">
<style type="text/css">
	.st0{display:none;}
</style>
<g id="HG" class="st0">
</g>
<g>
	<path class="st1" d="M918.4,108.1c-40.6-40.6-80.5-44.3-106.8-40.2c-28.3,4.4-46.7,18.5-48.7,20l-1.1,0.9L622.6,228.7L468.1,71.2
		c-4.5-4.6-10.7-7.2-17.1-7.2H89c-13.3,0-24,10.7-24,24v848c0,13.3,10.7,24,24,24h616c13.3,0,24-10.7,24-24V469.9l205.4-206.5
		l0.6-0.6l0.6-0.6c1.7-2,16.6-19.9,21.7-47.7C962.1,188.5,959.2,149,918.4,108.1z M681,912H113V112h327.9l147.8,150.7L399.3,453.1
		c-5.1,2.2-9.5,6.2-12.1,11.6L366.8,507H204v48h139.7l-89.5,185.7c-4.5,9.2-2.5,20.3,4.8,27.5c4.6,4.5,10.7,6.9,16.9,6.9
		c3.6,0,7.3-0.8,10.7-2.5l272.7-136.2c2.7-1.3,5-3.1,6.9-5.2c0.4-0.2,0.6-0.3,0.8-0.4l3.8-1.8L681,518.2V912z M419.2,603.9
		c12.3,12.3,26.2,21.8,41.2,28.2l-97.3,48.6l-18-18l47.1-97.6C397.8,577.9,406.5,591.1,419.2,603.9z M910.4,204.1
		c-2.1,14.1-9.2,24.1-10.9,26.4L543.1,588.7c-12.1,4.4-54.7,16.4-89.9-18.8c-16.7-16.6-24.4-36.3-23-58.3c0.8-13,4.7-23.5,6.7-28.2
		l356.5-358.2c3-2,13.3-8.3,27.4-10c21.7-2.7,43.1,6.4,63.7,26.9C904.8,162.5,913.6,183.3,910.4,204.1z"/>
	<rect x="204" y="211" class="st1" width="184" height="48"/>
	<rect x="204" y="359" class="st1" width="184" height="48"/>
</g>
</svg>
