<?xml version="1.0" encoding="utf-8"?>
<!-- Generator: Adobe Illustrator 14.0.0, SVG Export Plug-In . SVG Version: 6.00 Build 43363)  -->
<!DOCTYPE svg PUBLIC "-//W3C//DTD SVG 1.1//EN" "http://www.w3.org/Graphics/SVG/1.1/DTD/svg11.dtd">
<svg version="1.1" id="Ebene_1" xmlns="http://www.w3.org/2000/svg" xmlns:xlink="http://www.w3.org/1999/xlink" x="0px" y="0px"
	 width="1024px" height="1024px" viewBox="0 0 1024 1024" enable-background="new 0 0 1024 1024" xml:space="preserve">
<path  d="M872,261.866H662.732c0.175-1.169,0.268-2.366,0.268-3.584c0-62.118-56.822-99.203-152-99.203
	s-152,37.085-152,99.203c0,1.218,0.092,2.415,0.268,3.584H152c-48.523,0-88,39.477-88,88v427.056c0,48.523,39.477,88,88,88h720
	c48.523,0,88-39.477,88-88V349.866C960,301.342,920.523,261.866,872,261.866z M407,258.281c0-10.061,2.553-24.773,24.628-36.338
	c18.562-9.725,46.008-14.865,79.372-14.865c33.364,0,60.811,5.14,79.372,14.864C612.447,233.508,615,248.221,615,258.281
	c0,1.218,0.093,2.415,0.268,3.584H406.732C406.908,260.696,407,259.5,407,258.281z M152,309.866h720c22.056,0,40,17.944,40,40
	v131.019H731.982v-31.026c0-13.255-10.745-24-24-24s-24,10.745-24,24v31.026H340.018v-31.026c0-13.255-10.745-24-24-24
	s-24,10.745-24,24v31.026H112V349.866C112,327.81,129.944,309.866,152,309.866z M872,816.922H152c-22.056,0-40-17.944-40-40V528.885
	h180.018v25.982c0,13.255,10.745,24,24,24s24-10.745,24-24v-25.982h343.965v25.982c0,13.255,10.745,24,24,24s24-10.745,24-24
	v-25.982H912v248.037C912,798.978,894.056,816.922,872,816.922z"/>
</svg>
