<?xml version="1.0" encoding="utf-8"?>
<!-- Generator: Adobe Illustrator 22.0.0, SVG Export Plug-In . SVG Version: 6.00 Build 0)  -->
<svg version="1.1" id="Ebene_1" xmlns="http://www.w3.org/2000/svg" xmlns:xlink="http://www.w3.org/1999/xlink" x="0px" y="0px"
	 viewBox="0 0 1024 1024" style="enable-background:new 0 0 1024 1024;" xml:space="preserve">
<style type="text/css">
	.st0{display:none;}
	.st1{fill:#2368BC;}
</style>
<g id="HG" class="st0">
</g>
<path class="st1" d="M951.2,189.5c-4.3-3.6-9.7-5.5-15.2-5.5v0H251.2c-10.2-0.3-86.4-1.3-132.3,25c-42.5,24.3-54.5,62.5-54.9,81.3
	l0,0c0,0.2,0,0.5,0,0.7v525c0,13.3,10.7,24,24,24h685.1c9.5,0,18.1-5.6,22-14.3c0.3-0.6,26.1-56.8,65.8-68.9
	c22.7-6.9,58.5-2.4,70.4,0c7,1.4,14.4-0.4,19.9-5c5.6-4.6,8.8-11.4,8.8-18.6V208C959.9,200.9,956.7,194.1,951.2,189.5z M828,718.7
	c-11.6,6.1-22,14.1-31,22.7V294c2.9-10.5,10.1-25.2,16.7-28.4c4-1.9,8.8-3.9,14.3-5.9V718.7z M142.7,250.6
	c29.5-16.9,87.6-19.2,107.5-18.6c0.2,0,0.5,0,0.7,0h527.8c-11.3,10.2-18.6,23.9-23.1,35H123.1C127.6,261.4,133.9,255.7,142.7,250.6z
	 M112,315h637v477H112V315z M911.9,705.9c-10.6-0.8-23.2-1.2-35.9-0.2v-460c12.4-3.1,24.9-6,35.9-8.3V705.9z"/>
</svg>
