<?xml version="1.0" encoding="utf-8"?>
<!-- Generator: Adobe Illustrator 22.0.0, SVG Export Plug-In . SVG Version: 6.00 Build 0)  -->
<svg version="1.1" id="Ebene_1" xmlns="http://www.w3.org/2000/svg" xmlns:xlink="http://www.w3.org/1999/xlink" x="0px" y="0px"
	 viewBox="0 0 1024 1024" style="enable-background:new 0 0 1024 1024;" xml:space="preserve">
<style type="text/css">
	.st0{display:none;}
</style>
<g id="HG" class="st0">
</g>
<path class="st1" d="M900.2,792c-0.3-0.4-25.6-40-52.8-106.4c-25-61.1-56.7-158.1-65.8-273.4c-9.9-125.3-81.4-187-139.6-216.7
	c-21.7-11.1-43.1-18.6-61.9-23.6c0.8-4.2,1.2-8.6,1.2-13c0-38.3-31.1-69.4-69.4-69.4s-69.4,31.1-69.4,69.4c0,3.1,0.2,6.1,0.6,9.1
	c-11.9,2.8-24.6,6.7-37.6,12c-35.4,14.4-66.4,36.4-91.9,65.3c-31.3,35.5-54.3,81.4-68.3,136.5c-53.2,209.1-123.5,413.4-124.2,415.5
	c-2.5,7.3-1.4,15.4,3.1,21.8c4.5,6.3,11.8,10.1,19.5,10.1h243.8c-0.1,1.9-0.1,3.7-0.1,5.6c0,68.6,55.9,124.5,124.5,124.5
	s124.5-55.9,124.5-124.5c0-1.9,0-3.7-0.1-5.6h243.7c8.8,0,16.9-4.8,21.1-12.5S905,799.3,900.2,792z M588.5,834.6
	c0,42.2-34.3,76.5-76.5,76.5c-42.2,0-76.5-34.3-76.5-76.5c0-1.9,0.1-3.7,0.2-5.6h152.6C588.4,830.9,588.5,832.7,588.5,834.6z
	 M177.2,781c21.9-66,73.4-225.3,114.7-387.5c21.6-84.7,65.3-141.3,129.9-168.4c48.6-20.4,92-16,93.1-15.9c0.7,0.1,1.3,0.1,2,0.1
	c0.5,0,50.9,2,103.4,28.7c68.8,35.1,107,94.9,113.6,177.8C743.4,538,777,640.5,803.5,705c12.9,31.5,25.4,57.2,35.3,76H177.2z"/>
</svg>
