<?xml version="1.0" encoding="utf-8"?>
<!-- Generator: Adobe Illustrator 22.0.0, SVG Export Plug-In . SVG Version: 6.00 Build 0)  -->
<svg version="1.1" id="Ebene_1" xmlns="http://www.w3.org/2000/svg" xmlns:xlink="http://www.w3.org/1999/xlink" x="0px" y="0px"
	 viewBox="0 0 1024 1024" style="enable-background:new 0 0 1024 1024;" xml:space="preserve">
<style type="text/css">
	.st0{display:none;}
	.st1{fill:#2368BC;}
</style>
<g id="HG" class="st0">
</g>
<path class="st1" d="M956.1,330L701.4,71.2c-4.5-4.6-10.7-7.2-17.1-7.2H322c-13.3,0-24,10.7-24,24v520.7
	c-25.6-18.1-57.7-27.9-91.5-27.9c-34.7,0-67.6,10.4-93.5,29.3V397.3c0.3-1.7,2.2-4.6,3.6-5.4c2,0.6,8,4.6,15.8,17.1
	c7,11.2,21.8,14.7,33.1,7.6c11.2-7,14.7-21.8,7.6-33.1c-26.7-42.7-55-42.1-69.5-37.9C79.4,352.5,65,377.2,65,397v289.5
	c-0.7,4.7-1,9.5-1,14.4c0,5.1,0.4,10.1,1.1,15c0.1,1.5,0.4,2.9,0.7,4.2c4.8,25.6,19.2,49.1,41.8,67.4c26.6,21.6,61.8,33.5,98.9,33.5
	c33.8,0,65.9-9.9,91.5-27.9V936c0,13.3,10.7,24,24,24h617c13.3,0,24-10.7,24-24V346.8C963,340.5,960.5,334.5,956.1,330z M915,356.6
	v2.4H673V112h1.2L915,356.6z M537,711.3c-2.8,14.5-11.4,28-24.8,38.9c-18.1,14.7-42.5,22.8-68.7,22.8s-50.6-8.1-68.7-22.8
	c-16.7-13.5-25.8-31-25.8-49.3s9.2-35.8,25.8-49.3c18.1-14.7,42.5-22.8,68.7-22.8s50.6,8.1,68.7,22.8c13.5,10.9,22,24.5,24.8,38.9
	V711.3z M275.2,750.2c-18.1,14.7-42.5,22.8-68.7,22.8s-50.6-8.1-68.7-22.8c-13.5-10.9-22-24.5-24.8-38.9v-20.8
	c2.8-14.5,11.4-28,24.8-38.9c18.1-14.7,42.5-22.8,68.7-22.8s50.6,8.1,68.7,22.8c11.1,9,18.9,19.8,22.8,31.5v35.7
	C294.1,730.4,286.3,741.2,275.2,750.2z M346,912V788.6c26.5,20.9,61,32.4,97.5,32.4c37.1,0,72.3-11.9,98.9-33.5
	c22.6-18.3,37-41.7,41.8-67.4c0.4-1.4,0.6-2.8,0.7-4.2c0.7-4.9,1.1-9.9,1.1-15c0-4.8-0.3-9.6-1-14.4V397c0-19.8-14.4-44.5-38.6-51.4
	c-14.5-4.2-42.8-4.8-69.5,37.9c-7,11.2-3.6,26,7.6,33.1c11.2,7,26,3.6,33.1-7.6c7.8-12.5,13.8-16.5,15.8-17.1
	c1.3,0.8,3.2,3.7,3.6,5.4v212.9c-25.9-19-58.8-29.3-93.5-29.3c-36.5,0-71,11.5-97.5,32.4V112h279v271c0,13.3,10.7,24,24,24h266v505
	H346z"/>
</svg>
