<?xml version="1.0" encoding="utf-8"?>
<!-- Generator: Adobe Illustrator 14.0.0, SVG Export Plug-In . SVG Version: 6.00 Build 43363)  -->
<!DOCTYPE svg PUBLIC "-//W3C//DTD SVG 1.1//EN" "http://www.w3.org/Graphics/SVG/1.1/DTD/svg11.dtd">
<svg version="1.1" id="Ebene_1" xmlns="http://www.w3.org/2000/svg" xmlns:xlink="http://www.w3.org/1999/xlink" x="0px" y="0px"
	 width="1024px" height="1024px" viewBox="0 0 1024 1024" enable-background="new 0 0 1024 1024" xml:space="preserve">
<g>
	<path  d="M932.541,648.626L795.915,512L932.54,375.375c17.707-17.707,27.46-41.323,27.46-66.497
		c0-25.174-9.753-48.79-27.46-66.497L781.618,91.459C763.911,73.752,740.296,64,715.122,64c-0.002,0,0.001,0-0.001,0
		c-25.171,0-48.789,9.752-66.496,27.458L511.999,228.085L375.375,91.46c-17.707-17.707-41.323-27.458-66.497-27.458
		c-25.174,0-48.79,9.751-66.497,27.458L91.458,242.382c-36.666,36.667-36.666,96.327,0,132.993L228.085,512L91.459,648.626
		c-36.665,36.667-36.665,96.327,0,132.993l150.92,150.922C260.087,950.248,283.703,960,308.877,960
		c25.174,0,48.79-9.752,66.497-27.459L512,795.915L648.626,932.54c17.708,17.707,41.323,27.459,66.497,27.459
		s48.789-9.752,66.496-27.459l150.922-150.921C969.207,744.953,969.207,685.292,932.541,648.626z M125.4,341.434
		c-17.951-17.951-17.951-47.16,0-65.11l150.922-150.922c8.641-8.641,20.203-13.4,32.556-13.4c12.353,0,23.914,4.759,32.555,13.4
		l136.625,136.625L262.026,478.059L125.4,341.434z M341.433,898.6c-8.641,8.642-20.203,13.4-32.556,13.4
		c-12.352,0-23.914-4.759-32.555-13.4l-150.92-150.922c-17.951-17.95-17.951-47.159,0-65.11L682.566,125.4
		c8.642-8.641,20.203-13.4,32.556-13.4s23.914,4.759,32.555,13.4L898.6,276.323c8.641,8.641,13.4,20.202,13.4,32.555
		c0,12.352-4.76,23.914-13.401,32.555L341.433,898.6z M898.6,747.678L747.678,898.599c-8.641,8.642-20.202,13.4-32.555,13.4
		s-23.914-4.759-32.556-13.4L545.941,761.974l216.032-216.032L898.6,682.567C916.551,700.519,916.551,729.727,898.6,747.678z"/>
	<path  d="M520.22,370.181c-11.088,0-21.512,4.318-29.351,12.158c-16.185,16.185-16.185,42.519-0.002,58.702
		c7.84,7.841,18.265,12.16,29.353,12.16c11.087,0,21.511-4.317,29.353-12.158c7.84-7.84,12.158-18.264,12.158-29.352
		c0-11.088-4.318-21.513-12.16-29.354C541.729,374.499,531.306,370.181,520.22,370.181z"/>
	<path  d="M612.308,462.269c-11.088,0-21.512,4.318-29.351,12.157c-7.842,7.841-12.16,18.266-12.16,29.354
		c0.001,11.087,4.319,21.511,12.158,29.35c7.84,7.841,18.264,12.159,29.353,12.159c11.088,0,21.512-4.318,29.35-12.157
		c7.84-7.839,12.158-18.263,12.159-29.351c0.001-11.088-4.315-21.513-12.157-29.355
		C633.819,466.586,623.396,462.269,612.308,462.269z"/>
	<path  d="M503.778,570.799c-11.088,0-21.512,4.318-29.353,12.158c-7.841,7.841-12.159,18.266-12.158,29.354
		c0,11.088,4.319,21.512,12.161,29.353c7.84,7.839,18.264,12.156,29.351,12.156c11.088,0,21.512-4.318,29.351-12.157
		c7.84-7.839,12.158-18.264,12.158-29.353s-4.317-21.513-12.157-29.352C525.29,575.117,514.866,570.799,503.778,570.799z"/>
	<path  d="M411.69,478.712c-11.088,0-21.512,4.317-29.356,12.16c-16.182,16.187-16.179,42.521,0.006,58.703
		c7.839,7.84,18.263,12.156,29.35,12.156c11.088,0,21.512-4.317,29.351-12.156c7.841-7.839,12.16-18.264,12.16-29.354
		c0-11.089-4.318-21.514-12.159-29.354C433.202,483.029,422.778,478.712,411.69,478.712z"/>
</g>
</svg>
