<?xml version="1.0" encoding="utf-8"?>
<!-- Generator: Adobe Illustrator 22.0.0, SVG Export Plug-In . SVG Version: 6.00 Build 0)  -->
<svg version="1.1" id="Ebene_1" xmlns="http://www.w3.org/2000/svg" xmlns:xlink="http://www.w3.org/1999/xlink" x="0px" y="0px"
	 viewBox="0 0 1024 1024" style="enable-background:new 0 0 1024 1024;" xml:space="preserve">
<style type="text/css">
	.st0{display:none;}
</style>
<g id="HG" class="st0">
</g>
<g id="vwicn193">
	<path class="st1" d="M741.7,858.5C741.7,858.5,741.7,858.5,741.7,858.5l-465.9-1c-5.7,0-11.1-2-15.5-5.7L72.5,692.5
		c-5.4-4.6-8.5-11.3-8.5-18.4l1-326.8c0-7.1,3.2-13.8,8.6-18.4l189.3-157.9c4.3-3.6,9.8-5.6,15.4-5.6c0,0,0,0,0.1,0l465.8,1
		c5.5,0,10.8,1.9,15.1,5.4l195.9,159.3c5.6,4.6,8.9,11.4,8.9,18.7l-1,326.8c0,7.3-3.3,14.1-9,18.7L756.7,853.2
		C752.4,856.6,747.2,858.5,741.7,858.5z M284.7,809.5l448.6,1L915,665l0.9-303.9L735.6,214.5l-448.6-1L113,358.7L112,663.1
		L284.7,809.5z"/>
</g>
</svg>
