<?xml version="1.0" encoding="utf-8"?>
<!-- Generator: Adobe Illustrator 22.0.0, SVG Export Plug-In . SVG Version: 6.00 Build 0)  -->
<svg version="1.1" id="Ebene_1" xmlns="http://www.w3.org/2000/svg" xmlns:xlink="http://www.w3.org/1999/xlink" x="0px" y="0px"
	 viewBox="0 0 1024 1024" style="enable-background:new 0 0 1024 1024;" xml:space="preserve">
<style type="text/css">
	.st0{display:none;}
</style>
<g id="HG" class="st0">
</g>
<g>
	<path class="st1" d="M799,474h-39.2c0-7.8,0.2-16.4,0.3-25.3c0.7-43.5,1.7-103.2-7.4-160.8c-11.1-71-34.5-123.7-71.5-161.2
		c-40.7-41.3-97.1-62-167.5-61.8c-67.6,0.2-122.8,21.6-164,63.7c-39.4,40.1-65.7,99.1-78.2,175.3c-10.1,61.2-9.2,120.6-8.6,156.1
		c0.1,5.3,0.1,10,0.2,14.2h-38c-13.3,0-24,10.7-24,24v438c0,13.3,10.7,24,24,24h574c13.3,0,24-10.7,24-24V498
		C823,484.7,812.3,474,799,474z M310.8,459.1c-1-65.6-3.3-219.2,73.1-297c32.4-33,74.9-49.1,129.9-49.3c0.3,0,0.7,0,1,0
		c57.3,0,100.6,15.6,132.2,47.6c68.6,69.5,66.5,200.7,65.1,287.5c-0.1,9.2-0.3,18-0.3,26.1H311C311,469.6,310.9,464.6,310.8,459.1z
		 M775,912H249V522h526V912z"/>
	<rect x="378" y="697" class="st1" width="63" height="96"/>
	<rect x="481" y="697" class="st1" width="62" height="96"/>
	<rect x="583" y="697" class="st1" width="63" height="96"/>
	<path class="st1" d="M320,873h384c13.3,0,24-10.7,24-24V642c0-13.3-10.7-24-24-24H320c-13.3,0-24,10.7-24,24v207
		C296,862.3,306.7,873,320,873z M344,666h336v159H344V666z"/>
</g>
</svg>
