<?xml version="1.0" encoding="utf-8"?>
<!-- Generator: Adobe Illustrator 22.0.0, SVG Export Plug-In . SVG Version: 6.00 Build 0)  -->
<svg version="1.1" id="Ebene_1" xmlns="http://www.w3.org/2000/svg" xmlns:xlink="http://www.w3.org/1999/xlink" x="0px" y="0px"
	 viewBox="0 0 1024 1024" style="enable-background:new 0 0 1024 1024;" xml:space="preserve">
<style type="text/css">
	.st0{display:none;}
</style>
<g id="HG" class="st0">
</g>
<g>
	<path class="st1" d="M879.4,167H148.7c-22.6,0-43.8,8.6-59.7,24.1c-16.1,15.7-25,36.6-25,59v523.8c0,22.4,8.9,43.3,25,59
		c15.9,15.5,37.2,24.1,59.7,24.1h730.6c22.6,0,43.8-8.6,59.7-24.1c10.2-9.9,17.4-21.9,21.4-35h3.6V250.1
		C964.1,204.3,926.1,167,879.4,167z M916.1,749.9L916.1,749.9l-0.1,24c0,19.4-16.5,35.1-36.7,35.1H148.7
		c-20.2,0-36.7-15.7-36.7-35.1V250.1c0-19.4,16.5-35.1,36.7-35.1h730.7c20.2,0,36.7,15.7,36.7,35.1V749.9z"/>
	<path class="st1" d="M673.8,285.1c-93.7,0-169.9,76.2-169.9,169.9c0,17.8,2.8,35.3,8.1,52H204c-13.3,0-24,10.7-24,24v184
		c0,13.3,10.7,24,24,24h504c13.3,0,24-10.7,24-24V614.6c29-10.6,55-29.1,74.5-53.4c24.1-30,37.3-67.7,37.3-106.3
		C843.8,361.3,767.5,285.1,673.8,285.1z M228,691V555h308.5c14.2,19.4,32.3,35.7,53.2,47.6c25.5,14.6,54.6,22.3,84.2,22.3
		c3.4,0,6.7-0.1,10.1-0.3V691H228z M701.9,573.6c-9.4,2.2-18.8,3.3-28,3.3c-41,0-78.5-20.1-101.3-53.9c-1.1-3.2-2.9-6.1-5.2-8.5
		c-10.1-18.1-15.5-38.5-15.5-59.5c0-67.2,54.7-121.9,121.9-121.9c67.3,0,122,54.6,122,121.8C795.8,511.7,757.2,560.6,701.9,573.6z"
		/>
</g>
</svg>
