<?xml version="1.0" encoding="utf-8"?>
<!-- Generator: Adobe Illustrator 22.0.0, SVG Export Plug-In . SVG Version: 6.00 Build 0)  -->
<svg version="1.1" id="Ebene_1" xmlns="http://www.w3.org/2000/svg" xmlns:xlink="http://www.w3.org/1999/xlink" x="0px" y="0px"
	 viewBox="0 0 1024 1024" style="enable-background:new 0 0 1024 1024;" xml:space="preserve">
<style type="text/css">
	.st0{display:none;}
	.st1{fill:#2368BC;}
	.st2{fill:none;}
</style>
<g id="HG" class="st0">
</g>
<g id="vwicn006_1_">
	<g>
		<rect x="64" y="214" class="st1" width="150" height="149"/>
		<rect x="214" y="214" class="st2" width="149" height="149"/>
		<rect x="363" y="214" class="st1" width="149" height="149"/>
		<rect x="512" y="214" class="st2" width="149" height="149"/>
		<rect x="661" y="214" class="st1" width="149" height="149"/>
		<rect x="810" y="214" class="st2" width="150" height="149"/>
		<rect x="64" y="363" class="st2" width="150" height="149"/>
		<rect x="214" y="363" class="st1" width="149" height="149"/>
		<rect x="363" y="363" class="st2" width="149" height="149"/>
		<rect x="512" y="363" class="st1" width="149" height="149"/>
		<rect x="661" y="363" class="st2" width="149" height="149"/>
		<rect x="810" y="363" class="st1" width="150" height="149"/>
		<rect x="64" y="512" class="st1" width="150" height="149"/>
		<rect x="214" y="512" class="st2" width="149" height="149"/>
		<rect x="363" y="512" class="st1" width="149" height="149"/>
		<rect x="512" y="512" class="st2" width="149" height="149"/>
		<rect x="661" y="512" class="st1" width="149" height="149"/>
		<rect x="810" y="512" class="st2" width="150" height="149"/>
		<rect x="64" y="661" class="st2" width="150" height="149"/>
		<rect x="214" y="661" class="st1" width="149" height="149"/>
		<rect x="363" y="661" class="st2" width="149" height="149"/>
		<rect x="512" y="661" class="st1" width="149" height="149"/>
		<rect x="661" y="661" class="st2" width="149" height="149"/>
		<rect x="810" y="661" class="st1" width="150" height="149"/>
	</g>
</g>
</svg>
