<?xml version="1.0" encoding="utf-8"?>
<!-- Generator: Adobe Illustrator 22.0.0, SVG Export Plug-In . SVG Version: 6.00 Build 0)  -->
<svg version="1.1" id="Ebene_1" xmlns="http://www.w3.org/2000/svg" xmlns:xlink="http://www.w3.org/1999/xlink" x="0px" y="0px"
	 viewBox="0 0 1024 1024" style="enable-background:new 0 0 1024 1024;" xml:space="preserve">
<style type="text/css">
	.st0{display:none;}
</style>
<g id="HG" class="st0">
</g>
<g>
	<path class="st1" d="M892.7,313H712V132.3c0-38.2-31.1-69.3-69.3-69.3H133.3C95.1,63,64,94.1,64,132.3v509.4
		c0,38.2,31.1,69.3,69.3,69.3H314v180.7c0,38.2,31.1,69.3,69.3,69.3h509.4c38.2,0,69.3-31.1,69.3-69.3V382.3
		C962,344.1,930.9,313,892.7,313z M112,641.7V132.3c0-11.7,9.6-21.3,21.3-21.3h509.4c11.7,0,21.3,9.6,21.3,21.3v509.4
		c0,11.7-9.6,21.3-21.3,21.3H133.3C121.6,663,112,653.4,112,641.7z M914,891.7c0,11.5-9.8,21.3-21.3,21.3H383.3
		c-11.7,0-21.3-9.6-21.3-21.3V711h280.7c31.2,0,57.6-20.7,66.3-49h147v-48H712v-57h144v-48H712v-57h144v-48H712v-43h180.7
		c11.5,0,21.3,9.8,21.3,21.3V891.7z"/>
	<rect x="420" y="718" class="st1" width="191" height="48"/>
	<rect x="420" y="822" class="st1" width="191" height="48"/>
	<rect x="665" y="718" class="st1" width="191" height="48"/>
	<rect x="665" y="822" class="st1" width="191" height="48"/>
	<rect x="170" y="154" class="st1" width="436" height="48"/>
	<rect x="170" y="259" class="st1" width="436" height="48"/>
	<rect x="170" y="364" class="st1" width="191" height="48"/>
	<rect x="170" y="468" class="st1" width="191" height="48"/>
	<rect x="170" y="572" class="st1" width="191" height="48"/>
	<rect x="415" y="364" class="st1" width="191" height="48"/>
	<rect x="415" y="468" class="st1" width="191" height="48"/>
	<rect x="415" y="572" class="st1" width="191" height="48"/>
</g>
</svg>
