<?xml version="1.0" encoding="utf-8"?>
<!-- Generator: Adobe Illustrator 22.0.0, SVG Export Plug-In . SVG Version: 6.00 Build 0)  -->
<svg version="1.1" id="Ebene_1" xmlns="http://www.w3.org/2000/svg" xmlns:xlink="http://www.w3.org/1999/xlink" x="0px" y="0px"
	 viewBox="0 0 1024 1024" style="enable-background:new 0 0 1024 1024;" xml:space="preserve">
<style type="text/css">
	.st0{display:none;}
	.st1{fill:#2368BC;}
</style>
<g id="HG" class="st0">
</g>
<g id="vwicn066">
	<path class="st1" d="M513.3,960.1c-13.1,0-23.6-7.9-31-23.5c-3.5-7.3-6.4-16.1-9.2-24.7c-1.3-3.9-3-9.1-4.7-13.7
		c-6.1,2.2-12.5,4.7-19.1,7.2c-37.4,14.2-66.7,25.2-87.9,25.2c-11.9,0-21.3-3.5-28.1-12c-4.5-5.6-10.7-17.9-1.6-36.4
		c3.1-6.3,8-13.5,15-22c10.3-12.4,25.4-28.1,45.1-46.5c22.3-21,45.2-40.7,58-51.5l-18.4-148.9c-26,12.7-65.4,31.2-106.4,47.8
		c-41.5,16.9-76.2,28.4-102.9,34.1c-17.6,3.8-31.9,5.2-43.8,4.2c-23-1.8-34.1-12.5-39.3-21.2c-4.8-8-9.6-21.5-5-39.9
		c5.8-23.2,25.8-50.5,61-83.6c25.8-24.2,60.1-51.7,102-81.8c54-38.8,105.9-71.4,128.6-85.4c-0.3-41.3-1.1-163.5,0.1-212.2
		c0.8-32.3,10.2-60.2,27.3-80.5c16.4-19.5,39.1-30.6,62.4-30.6c23,0,45.5,11.3,61.9,31.1c16.6,20,25.8,46.8,26.6,77.3
		c1.2,42.3-1.5,172-2.5,214.3c24.9,16.6,87.1,59,146.4,105.5c45.2,35.4,80,66.5,103.6,92.3c23.1,25.3,52,62.7,35.8,94.7
		c-3.8,7.6-11.8,17.7-28,22.6c-20,6.1-60.1,8.1-176.5-44.7c-33.1-15-63.6-30.5-85.1-41.8l-20.2,147.7c12.9,10.3,35.2,28.6,57.1,48.5
		c19.7,17.9,35,33.4,45.4,46.1c7.1,8.6,12.1,16.2,15.3,23c7.5,16,4.5,27.6,0.6,34.4c-3.7,6.7-13.3,17.7-35.2,16.7
		c-8.2-0.3-18.1-2.3-30.5-5.9c-20.4-6-44.8-15.9-66.3-24.6c-3.6-1.4-7.1-2.9-10.5-4.2c-0.9,3.8-1.8,7.7-2.4,10.8
		c-1.9,8.9-3.9,18.1-6.6,25.8C536.1,956.7,521.4,960.1,513.3,960.1z M536.7,890.8C536.7,890.9,536.7,890.9,536.7,890.8
		C536.7,890.9,536.7,890.9,536.7,890.8z M542.9,843.9c3.6,0,7.2,0.7,10.8,2c8.5,3.2,18,7.1,28,11.1c16.2,6.6,34.6,14,50.4,19.4
		c-8.7-9.2-21.1-21.4-38.8-37.1c-28.5-25.2-56-46.6-56.3-46.8c-6.8-5.3-10.2-13.7-9.1-22.2l26.8-195.6c1.1-7.9,6-14.7,13.1-18.2
		c7.1-3.5,15.5-3.3,22.4,0.6c0.6,0.3,56.8,31.8,118.4,59.3c35.6,15.9,65.9,27.3,90,34c27.3,7.5,39.9,7.1,44.8,6.2
		c-2.7-9.6-20.4-45.2-134.4-133.4C637.6,467.9,564.7,420.3,564,419.8c-7-4.5-11.1-12.4-10.9-20.7c0-1.8,4.2-176.6,2.8-225.2
		c-1-38.6-21.4-61.7-40.5-61.7c-9.1,0-18.4,4.9-25.7,13.6c-7,8.3-15.4,23.8-16,50.7c-1.4,56.9,0,222.6,0,224.2
		c0.1,8.5-4.4,16.4-11.7,20.8c-0.8,0.5-78.1,46.8-151.9,101.2c-115,84.7-128.3,120.1-129.8,128.6c8.9,1.3,41.7,0.9,139.2-40
		c62.8-26.3,119.9-55.8,120.5-56.1c7-3.6,15.3-3.6,22.2,0.1c7,3.7,11.7,10.5,12.6,18.3L499,769.3c1,8.1-2.2,16.2-8.5,21.4
		c-0.3,0.2-27.8,22.9-56.2,49.1c-14.4,13.2-25.3,23.8-33.6,32.4c10.2-3.6,21.1-7.7,31.7-11.7c12.2-4.6,23.8-9,34.4-12.7
		c7.7-2.6,16-2.1,23.2,1.5c9.5,4.7,15.4,13.3,20.2,24c3.8-11.4,9.1-20.6,18.8-25.8C533.3,845.2,538.1,843.9,542.9,843.9z"/>
</g>
</svg>
